<?xml version="1.0" encoding="utf-8"?>
<!-- Generator: Adobe Illustrator 27.5.0, SVG Export Plug-In . SVG Version: 6.00 Build 0)  -->
<svg version="1.1" xmlns="http://www.w3.org/2000/svg" xmlns:xlink="http://www.w3.org/1999/xlink" x="0px" y="0px"
	 viewBox="0 0 800 800" style="enable-background:new 0 0 800 800;" xml:space="preserve">
<g id="OBJECTS">
	<g>
		<g>
			<g>
				<path d="M284.144,370.514c-0.413,0-0.815-0.051-1.202-0.155c-1.14-0.307-2.742-1.468-3.484-2.128
					c-2.647-2.351-3.62-3.381-5.824-5.948c-1.822-2.124-3.04-4.032-4.582-6.448c-0.429-0.672-0.884-1.385-1.387-2.158
					c-1.056-1.621-2.822-4.333-3.891-6.484c-0.757-1.522-1.297-3.126-1.82-4.678c-0.151-0.45-0.29-0.895-0.428-1.336
					c-0.393-1.261-0.764-2.453-1.394-3.579c-1.639-2.928-2.223-6.497-1.602-9.794c0.621-3.297,2.463-6.41,5.055-8.541
					c2.484-2.042,5.591-3.191,8.335-4.204c0.009-0.004,0.019-0.008,0.028-0.011c9.69-3.568,20.887-2.747,29.951,2.201
					c1.589,0.868,3.079,2.287,4.427,4.218c1.188,1.702,2.013,4.171,2.185,5.629c0.439,3.699-0.387,10.064-2.815,15.072
					c-0.043,0.088-0.12,0.257-0.23,0.499c-4.623,10.123-9.764,18.506-14.865,24.246
					C288.541,369.233,286.208,370.514,284.144,370.514z M272.653,316.922c-0.009,0.003-0.018,0.007-0.027,0.01
					c-2.725,1.006-5.543,2.046-7.77,3.878c-2.235,1.838-3.824,4.523-4.359,7.366c-0.536,2.843-0.032,5.922,1.381,8.447
					c0.733,1.308,1.152,2.656,1.559,3.961c0.133,0.426,0.267,0.857,0.414,1.292c0.501,1.488,1.019,3.026,1.715,4.426
					c1.017,2.047,2.744,4.699,3.776,6.283c0.506,0.778,0.965,1.497,1.397,2.173c1.499,2.35,2.683,4.205,4.413,6.221
					c2.167,2.525,3.057,3.466,5.634,5.756c0.74,0.658,2.042,1.52,2.676,1.692c1.216,0.325,3.339-0.246,5.645-2.841
					c3.466-3.899,8.803-11.185,14.541-23.747c0.12-0.261,0.204-0.444,0.249-0.54c2.236-4.614,3.024-10.638,2.629-13.965
					c-0.143-1.208-0.887-3.356-1.839-4.72c-1.169-1.675-2.429-2.889-3.745-3.607C292.38,314.335,281.808,313.555,272.653,316.922z"
					/>
			</g>
		</g>
		<g>
			<g>
				<path d="M272.18,339.815c-0.082,0-0.164-0.02-0.24-0.062c-0.242-0.133-0.331-0.437-0.197-0.679
					c1.478-2.688,3.109-5.334,4.85-7.864c0.157-0.227,0.468-0.285,0.695-0.129c0.228,0.157,0.285,0.468,0.129,0.695
					c-1.722,2.503-3.336,5.121-4.798,7.779C272.527,339.721,272.356,339.815,272.18,339.815z"/>
			</g>
			<g>
				<g>
					<path d="M289.624,330.784c-0.103,0-0.206-0.031-0.295-0.097c-0.223-0.164-0.27-0.477-0.107-0.699
						c0.792-1.079,1.553-2.201,2.264-3.336c0.146-0.235,0.457-0.305,0.689-0.159c0.234,0.146,0.305,0.455,0.159,0.689
						c-0.724,1.156-1.499,2.299-2.305,3.398C289.93,330.713,289.778,330.784,289.624,330.784z"/>
				</g>
			</g>
			<g>
				<path d="M283.387,356.019c-0.095,0-0.191-0.027-0.276-0.083c-0.23-0.152-0.293-0.463-0.14-0.693
					c1.156-1.743,2.189-3.587,3.071-5.481c0.116-0.25,0.413-0.358,0.664-0.242c0.25,0.116,0.359,0.414,0.242,0.664
					c-0.902,1.94-1.96,3.828-3.145,5.612C283.707,355.94,283.549,356.019,283.387,356.019z"/>
			</g>
		</g>
	</g>
	<g>
		<g>
			<path d="M637.188,743.328c-2.784,0-5.481-0.027-8.13-0.054c-3.394-0.033-6.603-0.064-9.752-0.038
				c-11.138,0.098-20.196-0.02-30.29-0.384c-0.054-0.002-0.107-0.008-0.16-0.018c-1.791-0.358-3.757-0.948-4.756-2.607
				c-0.888-1.472-0.887-3.207-0.886-4.601c0.003-4.786-0.023-9.574-0.051-14.362c-0.036-6.534-0.074-13.29-0.031-19.936
				l0.388-59.415c0.014-2.17,0.047-7.252,3.558-7.33c41.588-0.918,58.792-1.169,88.525-0.379l3.63,0.098
				c23.062,0.622,44.84,1.208,67.65-0.634c2.099-0.164,3.719,0.414,4.942,1.786c1.229,1.377,1.709,3.35,1.28,5.137
				c0.059,0.126,0.092,0.266,0.093,0.413c0.018,2.051,0.084,4.271,0.154,6.622c0.138,4.647,0.28,9.452,0.068,13.552
				c-1.118,21.505-1.114,36.011-1.106,64.911l0.001,7.795c0,4.882-1.337,7.575-4.207,8.477c-2.975,0.935-11.01,0.87-16.323,0.827
				c-0.962-0.008-1.827-0.015-2.545-0.015c-0.547,0-2.29-0.029-4.714-0.07c-6.659-0.112-19.056-0.321-25.131-0.218
				c-9.815,0.169-21.464,0.188-31.741,0.203c-9.408,0.015-17.534,0.027-22.426,0.148C642.45,743.305,639.78,743.328,637.188,743.328
				z M621.815,741.226c2.357,0,4.758,0.024,7.262,0.049c5.102,0.052,10.374,0.104,16.103-0.038
				c4.915-0.121,13.051-0.134,22.472-0.148c10.27-0.016,21.91-0.034,31.709-0.203c6.119-0.102,18.531,0.106,25.199,0.218
				c2.407,0.041,4.138,0.07,4.681,0.07c0.723,0,1.593,0.007,2.561,0.015c4.877,0.041,13.032,0.106,15.708-0.735
				c0.84-0.264,2.807-0.881,2.807-6.568l-0.001-7.794c-0.008-28.935-0.012-43.459,1.108-65.016c0.209-4.018,0.067-8.782-0.07-13.389
				c-0.067-2.268-0.131-4.416-0.152-6.418c-0.164-0.247-0.218-0.565-0.117-0.869c0.399-1.21,0.098-2.662-0.75-3.612
				c-0.801-0.896-1.812-1.247-3.29-1.124c-22.917,1.848-44.749,1.263-67.864,0.639l-3.629-0.097
				c-29.689-0.792-46.877-0.539-88.428,0.379c-1.568,0.034-1.594,4.03-1.603,5.344l-0.388,59.415
				c-0.043,6.633-0.005,13.383,0.031,19.91c0.027,4.793,0.054,9.585,0.051,14.376c-0.001,1.205-0.002,2.571,0.599,3.566
				c0.47,0.779,1.476,1.278,3.357,1.663c10.03,0.361,19.045,0.476,30.118,0.379C620.126,741.229,620.968,741.226,621.815,741.226z"
				/>
		</g>
		<g>
			<path d="M606.632,714.502c-4.858,0.001-9.075-0.023-12.083-0.081c-1.398-0.028-1.453-0.03-1.718-23.249
				c-0.074-6.54-0.151-13.302-0.301-18.024l-0.591-18.652c-0.026-0.811-0.059-1.819,0.328-2.768
				c0.392-0.966,1.136-1.671,1.733-2.238l5.601-5.32c0.184-0.176,0.428-0.274,0.683-0.275c8.504-0.054,17.029-0.143,25.555-0.232
				c8.469-0.088,16.938-0.176,25.388-0.229l85.95-0.542c0.002,0,0.004,0,0.006,0c0.276,0,0.54,0.114,0.73,0.317l0.554,0.591
				c2.152,2.3,4.186,4.471,6.579,6.632c0.268,0.241,0.385,0.608,0.306,0.96c-0.074,0.335-0.256,0.629-0.505,0.848
				c-0.023,13.795,0.13,28.089,0.276,41.918c0.067,6.343,0.133,12.553,0.18,18.514c0.002,0.266-0.102,0.521-0.288,0.71
				c-0.187,0.189-0.441,0.297-0.707,0.298c-0.303,0.002-30.447,0.148-47.682,0.148c-5.617,0-16.802,0.111-25.789,0.2
				c-5.913,0.059-10.583,0.101-11.613,0.099c-0.572,0.006-3.577,0.026-8.113,0.072C640.287,714.305,620.758,714.502,606.632,714.502
				z M595.34,712.435c12.216,0.199,41.516-0.096,55.749-0.239c4.547-0.046,7.562-0.071,8.147-0.072
				c1.012,0.005,5.672-0.04,11.58-0.099c8.991-0.089,20.181-0.2,25.809-0.2c15.448,0,41.275-0.118,46.669-0.143
				c-0.046-5.651-0.108-11.52-0.172-17.506c-0.149-14.035-0.303-28.55-0.275-42.543c0-0.149,0.033-0.292,0.094-0.42
				c-2.128-1.981-3.983-3.963-5.935-6.048l-0.254-0.272l-85.514,0.539c-8.446,0.054-16.912,0.142-25.379,0.229
				c-8.396,0.088-16.791,0.175-25.167,0.229l-5.315,5.049c-0.506,0.48-1.028,0.977-1.258,1.541
				c-0.227,0.557-0.204,1.267-0.183,1.952l0.591,18.653c0.15,4.742,0.228,11.515,0.303,18.063
				C594.927,699.533,595.043,709.786,595.34,712.435z"/>
		</g>
		<g>
			<path d="M641.01,698.738c-4.137,0-7.715-0.138-9.896-0.537c-2.114-0.386-4.649-1.569-6.11-2.506
				c-3.106-1.994-4.804-3.568-6.051-7.122c-0.495-1.407-1.195-4.063-1.098-5.608v-0.001c0.337-5.335,3.182-9.736,8.455-13.083
				c1.41-0.894,3.875-1.293,5.19-1.293c0.308,0.02,0.61,0.001,0.916,0.001c5.72,0,11.766-0.163,17.623-0.321
				c6.159-0.166,12.537-0.349,18.522-0.32c2.133-0.228,8.078-0.065,14.367,0.108c6.001,0.164,12.206,0.334,14.144,0.114
				c4.208-0.482,9.446-1.078,13.993,0.849c5.001,2.122,8.798,7.661,8.833,12.884c0.031,4.78-0.483,7.658-3.491,11.085
				c-2.01,2.29-5.183,3.758-9.176,4.244c-1.914,0.233-3.846,0.246-5.714,0.258c-1.299,0.009-2.642,0.017-3.944,0.102
				c-1.465,0.095-2.902,0.159-4.344,0.224c-1.087,0.049-2.177,0.098-3.282,0.159c-0.476,0.037-7.524-0.227-9.863-0.311
				c-2.294,0.402-8.733,0.525-10.617,0.443c-2.353-0.102-6.967,0.061-12.311,0.247C651.962,698.533,646.068,698.738,641.01,698.738z
				 M619.852,683.091c-0.073,1.16,0.547,3.563,0.988,4.82c1.061,3.021,2.475,4.323,5.244,6.101c1.539,0.986,3.856,1.942,5.39,2.223
				c4.637,0.849,16.268,0.443,25.613,0.119c5.389-0.187,10.042-0.349,12.465-0.246c2.071,0.09,8.432-0.077,10.272-0.431
				c0.074-0.014,0.15-0.023,0.225-0.017c3.552,0.129,9.353,0.353,9.797,0.316c1.102-0.063,2.2-0.111,3.295-0.16
				c1.429-0.064,2.854-0.128,4.305-0.222c1.36-0.088,2.732-0.097,4.061-0.105c1.812-0.012,3.686-0.023,5.484-0.243
				c2.44-0.297,5.792-1.159,7.914-3.577c2.598-2.96,3.023-5.401,2.995-9.753c-0.03-4.474-3.304-9.227-7.614-11.056
				c-4.063-1.726-8.805-1.182-12.985-0.704c-2.079,0.238-8.075,0.073-14.426-0.102c-6.002-0.165-12.209-0.334-14.146-0.114
				c-0.038,0.005-0.079-0.002-0.116,0.007c-5.984-0.026-12.356,0.154-18.52,0.32c-6.178,0.167-12.547,0.346-18.58,0.32
				c-0.005,0-0.011,0-0.016,0c-1.215,0-3.226,0.418-4.115,0.982C622.613,674.596,620.15,678.364,619.852,683.091L619.852,683.091z"
				/>
		</g>
		<g>
			<path d="M631.94,693.868c-0.58,0-1.172-0.063-1.761-0.218c-0.831-0.22-1.642-0.616-2.481-1.211
				c-2.888-2.049-4.646-5.521-4.588-9.062c0.058-3.498,1.888-6.868,4.781-8.83c1.083-0.932,2.741-1.442,4.797-1.442
				c0.013,0,0.024,0,0.037,0c2.628,0.008,4.654,0.553,6.195,1.667c1.174,0.851,2.149,2.107,2.899,3.733
				c1.038,2.252,1.407,4.717,1.041,6.941c-0.41,2.499-1.746,4.727-3.665,6.111c-1.333,0.962-2.846,1.461-4.014,1.789
				C634.25,693.608,633.121,693.868,631.94,693.868z M627.58,677.435c-1.503,1.607-2.434,3.794-2.47,5.977
				c-0.047,2.847,1.423,5.75,3.745,7.398c0.631,0.447,1.248,0.753,1.834,0.908c1.319,0.35,2.808,0.025,3.953-0.295
				c1.499-0.421,2.543-0.879,3.384-1.485c1.493-1.077,2.536-2.832,2.862-4.814c0.302-1.835-0.013-3.888-0.885-5.779
				c-0.604-1.312-1.363-2.304-2.256-2.95c-1.188-0.859-2.834-1.28-5.028-1.287c-0.657,0.011-2.397,0.07-3.435,0.885
				c-0.05,0.053-0.105,0.102-0.168,0.144c-0.201,0.19-0.364,0.416-0.473,0.683C628.468,677.252,628.022,677.488,627.58,677.435z"/>
		</g>
		<g>
			<path d="M704.181,694.084c-3.16,0-6.294-1.577-8.186-4.235c-2.161-3.038-2.532-7.254-0.947-10.742
				c1.352-2.975,3.732-5.09,6.776-6.057c0.142-0.114,0.316-0.191,0.511-0.214c0.16-0.018,0.32-0.037,0.479-0.055
				c0.085-0.019,0.17-0.037,0.256-0.055c0.122-0.023,0.243-0.025,0.357-0.009c2.454-0.233,4.796-0.205,6.801,1.065
				c1.222,0.774,2.258,2.009,3.166,3.773c1.733,3.362,2.682,8.582-0.343,12.226c-0.679,0.818-1.559,1.553-2.768,2.31
				c-1.518,0.949-2.927,1.544-4.307,1.817C705.384,694.027,704.781,694.084,704.181,694.084z M703.147,674.757
				c-2.879,0.682-5.046,2.466-6.279,5.178c-1.295,2.851-0.999,6.287,0.756,8.755c1.776,2.495,5.061,3.84,7.965,3.258
				c1.138-0.225,2.326-0.733,3.635-1.551c1.023-0.641,1.75-1.241,2.289-1.892c2.401-2.893,1.557-7.212,0.104-10.032
				c-0.752-1.46-1.533-2.414-2.459-3C707.546,674.451,705.409,674.516,703.147,674.757z"/>
		</g>
		<g>
			<path d="M704.548,693.539c-0.086,0-0.176-0.003-0.269-0.009c-1.791-0.119-3.576-0.62-5.163-1.448
				c-0.286-0.149-0.482-0.428-0.527-0.747c-0.045-0.318,0.066-0.641,0.3-0.863c0.227-0.217,0.434-0.451,0.617-0.702
				c-0.306-0.272-0.595-0.563-0.865-0.87l-0.751,0.704c-0.229,0.213-0.544,0.311-0.852,0.256c-0.309-0.052-0.574-0.246-0.719-0.523
				c-1.1-2.113-2.117-4.37-1.42-6.69c0.115-0.383,0.448-0.66,0.846-0.705l0.231-0.028c0.169-0.021,0.34-0.041,0.518-0.055
				c0.078-0.267,0.169-0.529,0.273-0.788l-0.577-0.113c-0.312-0.063-0.577-0.27-0.713-0.558c-0.135-0.289-0.124-0.625,0.029-0.904
				c0.873-1.595,2.314-3.886,4.732-5.355c0.302-0.184,0.679-0.195,0.991-0.027c0.313,0.167,0.513,0.487,0.527,0.841
				c0.01,0.244,0.041,0.485,0.091,0.723c0.138-0.025,0.276-0.052,0.413-0.081c-0.084-0.429-0.082-0.874,0.013-1.302
				c0.089-0.398,0.411-0.704,0.815-0.769c2.557-0.422,5.286,0.109,7.489,1.453c0.472,0.287,0.621,0.902,0.333,1.374
				c-0.03,0.05-0.064,0.097-0.102,0.139c-0.052,0.113-0.126,0.218-0.222,0.309l-0.7,0.66l0.355,0.359l1.067-0.623
				c0.438-0.258,0.996-0.144,1.302,0.26c0.715,0.942,1.449,1.961,1.899,3.138c0.546,1.425,0.571,2.869,0.071,4.067
				c-0.121,0.292-0.374,0.509-0.682,0.586c-0.302,0.074-0.631,0.003-0.876-0.198c-0.07-0.058-0.143-0.111-0.22-0.161
				c-0.091,0.363-0.215,0.718-0.368,1.06l0.614,0.21c0.28,0.096,0.503,0.311,0.609,0.586c0.106,0.275,0.086,0.584-0.057,0.843
				c-1.131,2.052-2.771,3.804-4.743,5.066c-0.229,0.148-0.511,0.193-0.774,0.13c-0.266-0.064-0.493-0.233-0.63-0.47
				c-0.218-0.376-0.405-0.768-0.562-1.174l-0.382,0.061c0.111,0.392,0.171,0.894-0.105,1.406
				C706.171,693.04,705.658,693.539,704.548,693.539z M701.205,690.831c1.025,0.391,2.115,0.631,3.207,0.703
				c0.039,0.003,0.075,0.004,0.107,0.005c-0.005-0.012-0.009-0.023-0.013-0.034c-0.114-0.311-0.271-0.737-0.22-1.228
				c0.047-0.45,0.391-0.813,0.838-0.884l2.301-0.364c0.509-0.081,0.993,0.238,1.124,0.734c0.048,0.183,0.103,0.362,0.167,0.539
				c0.962-0.755,1.808-1.653,2.501-2.66l-0.185-0.063c-0.606-0.206-0.823-0.6-0.899-0.893c-0.126-0.515,0.111-0.898,0.2-1.043
				c0.405-0.65,0.633-1.394,0.659-2.153c0.01-0.287,0.142-0.556,0.363-0.738c0.222-0.183,0.511-0.262,0.794-0.215
				c0.269,0.043,0.533,0.11,0.788,0.2c-0.012-0.577-0.169-1.1-0.296-1.432c-0.259-0.675-0.653-1.308-1.1-1.934l-0.721,0.421
				c-0.125,0.073-0.464,0.269-0.905,0.199c-0.413-0.073-0.654-0.32-0.746-0.412l-1.427-1.446c-0.189-0.191-0.293-0.451-0.288-0.721
				c0.005-0.269,0.118-0.524,0.313-0.709l0.637-0.601c-1.294-0.549-2.727-0.794-4.131-0.706c0.037,0.1,0.088,0.195,0.15,0.28
				c0.193,0.261,0.248,0.599,0.146,0.907c-0.102,0.309-0.347,0.549-0.657,0.643c-0.867,0.266-1.761,0.451-2.656,0.552
				c-0.451,0.046-0.869-0.203-1.037-0.617c-0.058-0.14-0.109-0.281-0.156-0.425c-0.752,0.66-1.438,1.485-2.104,2.528l0.173,0.034
				c0.109,0.022,0.342,0.07,0.567,0.257c0.345,0.273,0.625,0.87,0.224,1.61c-0.315,0.589-0.539,1.226-0.662,1.887
				c-0.099,0.522-0.576,0.873-1.117,0.808c-0.159-0.021-0.301-0.024-0.455-0.014c-0.109,1.072,0.269,2.208,0.812,3.377l0.565-0.53
				c0.212-0.199,0.503-0.299,0.788-0.266c0.289,0.029,0.551,0.185,0.717,0.423c0.508,0.729,1.127,1.364,1.84,1.889
				c0.397,0.293,0.522,0.831,0.294,1.269C701.557,690.295,701.39,690.569,701.205,690.831z"/>
		</g>
		<g>
			<path d="M679.926,692.245c-0.511,0-1.018-0.014-1.519-0.026c-1.226-0.033-2.457-0.072-3.692-0.111
				c-4.243-0.135-8.63-0.273-12.888-0.164l-5.386,0.137c-1.253,0.032-2.816,0.072-4.177-0.707c-0.154-0.088-0.325-0.179-0.503-0.273
				c-0.807-0.43-1.722-0.917-2.275-1.667c-0.743-1.005-1.255-2.025-1.711-3.411c-0.982-2.989-0.195-6.576,1.913-8.724
				c2.198-2.239,5.064-3.53,7.861-3.54c0.724,0.001,1.568,0.002,2.445,0.007c1.473,0.008,3.035,0.015,4.244-0.007l15.218,0.112
				c5.449,0.001,7.334,1.933,8.797,3.911c1.622,2.192,1.904,5.291,0.841,9.209c-0.167,0.621-0.383,1.339-0.818,1.98
				c-0.483,0.712-1.154,1.195-1.616,1.498c-1.148,0.746-2.462,1.277-3.802,1.537C681.875,692.196,680.893,692.245,679.926,692.245z
				 M665.064,689.904c3.249,0,6.521,0.104,9.714,0.204c1.232,0.039,2.459,0.078,3.683,0.11c1.342,0.038,2.729,0.073,4.016-0.177
				c1.09-0.212,2.159-0.644,3.092-1.25c0.504-0.33,0.84-0.63,1.054-0.945c0.261-0.385,0.411-0.892,0.542-1.379
				c0.896-3.3,0.722-5.821-0.518-7.497c-1.255-1.696-2.662-3.101-7.192-3.101c-0.003,0-0.005,0-0.008,0l-15.196-0.112
				c-1.196,0.021-2.776,0.014-4.265,0.007c-0.872-0.005-1.714-0.008-2.429-0.007c-2.267,0.008-4.614,1.08-6.44,2.941
				c-1.581,1.61-2.188,4.427-1.44,6.697c0.391,1.188,0.802,2.013,1.419,2.847c0.285,0.387,1.019,0.777,1.607,1.092
				c0.197,0.104,0.386,0.205,0.557,0.303c0.81,0.464,1.854,0.476,3.132,0.442l5.386-0.137
				C662.867,689.916,663.965,689.904,665.064,689.904z"/>
		</g>
		<g>
			<path d="M671.306,691.415c-0.189,0-0.37-0.108-0.454-0.292c-0.798-1.741-0.756-3.563-0.716-5.323
				c0.111-4.743,0.782-8.352,2.051-11.032c0.119-0.251,0.418-0.353,0.666-0.238c0.25,0.118,0.357,0.417,0.238,0.666
				c-1.208,2.551-1.848,6.027-1.955,10.628c-0.04,1.724-0.077,3.352,0.624,4.884c0.115,0.251,0.005,0.548-0.246,0.662
				C671.446,691.4,671.376,691.415,671.306,691.415z"/>
		</g>
		<g>
			<path d="M665.805,691.349c-0.021,0-0.044-0.001-0.065-0.004c-0.274-0.036-0.467-0.287-0.432-0.561
				c0.746-5.714,0.38-11.141-1.06-15.694c-0.083-0.263,0.063-0.544,0.326-0.627c0.264-0.081,0.544,0.063,0.627,0.326
				c1.483,4.691,1.863,10.267,1.099,16.124C666.267,691.165,666.052,691.349,665.805,691.349z"/>
		</g>
		<g>
			<path d="M678.525,691.588c-0.199,0-0.387-0.119-0.465-0.315c-1.21-3.056-0.981-6.451-0.78-9.447
				c0.141-2.099,0.51-5.127,2.075-7.184c0.167-0.22,0.48-0.263,0.7-0.095c0.22,0.167,0.263,0.48,0.095,0.7
				c-1.402,1.843-1.74,4.675-1.872,6.645c-0.194,2.891-0.415,6.167,0.712,9.012c0.102,0.257-0.024,0.548-0.28,0.649
				C678.649,691.577,678.587,691.588,678.525,691.588z"/>
		</g>
		<g>
			<path d="M680.621,691.562c-0.172,0-0.339-0.089-0.432-0.248c-1.112-1.902-1.246-4.7-1.344-6.743
				c-0.079-1.666-0.005-2.864,0.149-4.388c0.153-1.529,0.868-3.266,1.442-4.661l0.267-0.652c0.102-0.257,0.394-0.38,0.65-0.277
				c0.256,0.104,0.381,0.395,0.277,0.65l-0.269,0.66c-0.55,1.335-1.233,2.996-1.373,4.381c-0.149,1.477-0.221,2.636-0.147,4.19
				c0.089,1.844,0.204,4.261,1.008,5.95c0.022,0.027,0.041,0.058,0.058,0.09l0.162,0.326c0.119,0.241,0.026,0.534-0.211,0.662
				C680.783,691.542,680.702,691.562,680.621,691.562z"/>
		</g>
		<g>
			<path d="M677.219,691.572c-0.234,0-0.443-0.166-0.49-0.405c-1.3-6.741-0.974-12.271,0.97-16.435
				c0.117-0.25,0.417-0.359,0.665-0.241c0.25,0.117,0.358,0.414,0.241,0.665c-1.852,3.969-2.153,9.292-0.894,15.821
				c0.052,0.272-0.125,0.533-0.396,0.586C677.282,691.569,677.251,691.572,677.219,691.572z"/>
		</g>
		<g>
			<path d="M675.89,691.607c-0.177,0-0.348-0.094-0.438-0.26c-0.087-0.158-0.079-0.343,0.004-0.488
				c-0.12-0.52-0.246-1.014-0.372-1.506c-0.248-0.965-0.503-1.961-0.673-2.97c-0.629-3.756,0.125-8.024,2.069-11.71
				c0.13-0.245,0.434-0.337,0.676-0.209c0.244,0.129,0.338,0.432,0.209,0.676c-1.817,3.444-2.553,7.586-1.968,11.077
				c0.162,0.967,0.413,1.943,0.654,2.887c0.135,0.523,0.268,1.048,0.391,1.574c0.134,0.573-0.205,0.809-0.312,0.867
				C676.054,691.588,675.972,691.607,675.89,691.607z"/>
		</g>
		<g>
			<path d="M674.568,691.393c-0.195,0-0.381-0.115-0.461-0.307c-1.869-4.459-2.133-11.729,1.061-16.423
				c0.156-0.229,0.469-0.285,0.694-0.132c0.228,0.155,0.287,0.466,0.132,0.694c-2.994,4.401-2.732,11.258-0.965,15.474
				c0.107,0.255-0.013,0.548-0.268,0.654C674.698,691.38,674.633,691.393,674.568,691.393z"/>
		</g>
		<g>
			<path d="M672.75,691.557c-0.231,0-0.44-0.162-0.488-0.398c-0.761-3.673-1.587-10.693,1.423-16.445
				c0.13-0.244,0.434-0.337,0.675-0.212c0.245,0.128,0.34,0.431,0.212,0.675c-2.866,5.477-2.063,12.237-1.331,15.779
				c0.057,0.271-0.117,0.535-0.388,0.591C672.818,691.554,672.784,691.557,672.75,691.557z"/>
		</g>
		<g>
			<path d="M681.717,691.433c-0.21,0-0.405-0.133-0.475-0.344c-1.787-5.417-1.481-10.957,0.888-16.022
				c0.117-0.251,0.417-0.359,0.665-0.241c0.25,0.117,0.358,0.415,0.241,0.665c-2.259,4.828-2.551,10.114-0.845,15.285
				c0.087,0.262-0.056,0.545-0.318,0.631C681.821,691.425,681.769,691.433,681.717,691.433z"/>
		</g>
		<g>
			<path d="M683.153,691.011c-0.215,0-0.414-0.14-0.478-0.355c-0.907-3.016-1.094-6.217-0.588-10.077
				c0.141-1.07,0.649-3.706,2.318-5.07c0.214-0.173,0.527-0.143,0.704,0.071c0.174,0.214,0.143,0.529-0.071,0.704
				c-0.967,0.788-1.699,2.443-1.959,4.426c-0.488,3.714-0.313,6.783,0.553,9.657c0.08,0.265-0.07,0.544-0.334,0.623
				C683.249,691.004,683.201,691.011,683.153,691.011z"/>
		</g>
		<g>
			<path d="M684.779,690.573c-0.219,0-0.42-0.144-0.481-0.366c-0.783-2.813-0.968-5.825-0.533-8.712
				c0.302-2.007,0.953-3.629,1.934-4.819c0.176-0.214,0.491-0.244,0.703-0.068c0.214,0.175,0.244,0.49,0.068,0.703
				c-0.864,1.05-1.441,2.508-1.717,4.333c-0.413,2.749-0.238,5.617,0.508,8.296c0.074,0.266-0.081,0.541-0.348,0.615
				C684.868,690.567,684.823,690.573,684.779,690.573z"/>
		</g>
		<g>
			<path d="M651.371,690.194c-0.03,0-0.061-0.003-0.091-0.008c-0.271-0.05-0.452-0.311-0.402-0.582l0.097-0.519
				c0.313-1.689,0.704-3.789,0.617-5.345c-0.095-1.703-0.757-3.733-1.685-5.172c-0.15-0.233-0.083-0.542,0.148-0.691
				c0.232-0.15,0.541-0.083,0.691,0.148c1.016,1.574,1.739,3.795,1.843,5.658c0.094,1.677-0.308,3.843-0.632,5.584l-0.096,0.517
				C651.817,690.025,651.607,690.194,651.371,690.194z"/>
		</g>
		<g>
			<path d="M686.707,689.677c-0.195,0-0.382-0.115-0.462-0.308c-1.491-3.583-1.278-7.76,0.571-11.173
				c0.133-0.244,0.435-0.332,0.678-0.201c0.243,0.132,0.333,0.435,0.201,0.678c-1.681,3.104-1.883,7.055-0.526,10.311
				c0.105,0.255-0.015,0.548-0.27,0.654C686.836,689.664,686.771,689.677,686.707,689.677z"/>
		</g>
		<g>
			<path d="M653.048,691.131c-0.041,0-0.083-0.005-0.124-0.016c-0.267-0.068-0.429-0.341-0.36-0.608
				c1.126-4.389,0.651-9.25-1.302-13.338c-0.119-0.249-0.014-0.548,0.235-0.667c0.248-0.12,0.547-0.015,0.667,0.235
				c2.053,4.297,2.552,9.406,1.368,14.018C653.475,690.981,653.271,691.131,653.048,691.131z"/>
		</g>
		<g>
			<path d="M654.523,691.429c-0.041,0-0.083-0.005-0.124-0.016c-0.268-0.068-0.429-0.341-0.36-0.608
				c1.235-4.816,0.683-10.136-1.517-14.597c-0.122-0.247-0.02-0.547,0.228-0.669c0.246-0.12,0.548-0.021,0.669,0.227
				c2.304,4.671,2.883,10.242,1.589,15.286C654.95,691.278,654.747,691.429,654.523,691.429z"/>
		</g>
		<g>
			<path d="M655.971,691.461c-0.057,0-0.113-0.01-0.169-0.029c-0.26-0.094-0.395-0.38-0.302-0.64
				c0.796-2.215,0.91-4.425,0.381-7.392c-0.47-2.634-1.409-5.2-2.318-7.682c-0.095-0.26,0.038-0.547,0.298-0.642
				c0.262-0.094,0.547,0.04,0.642,0.298c0.923,2.523,1.878,5.13,2.363,7.85c0.555,3.108,0.424,5.547-0.424,7.905
				C656.368,691.334,656.176,691.461,655.971,691.461z"/>
		</g>
		<g>
			<path d="M657.256,691.386c-0.036,0-0.073-0.004-0.111-0.013c-0.268-0.061-0.438-0.329-0.376-0.599
				c1.119-4.909,0.485-10.262-1.833-15.478c-0.112-0.252,0.002-0.548,0.254-0.66c0.253-0.111,0.547,0.001,0.66,0.254
				c2.406,5.415,3.061,10.984,1.894,16.106C657.69,691.229,657.484,691.386,657.256,691.386z"/>
		</g>
		<g>
			<path d="M658.485,691.386c-0.034,0-0.068-0.003-0.103-0.011c-0.27-0.056-0.444-0.32-0.388-0.591
				c1.027-4.977,0.479-10.4-1.586-15.686c-0.101-0.257,0.026-0.547,0.284-0.647c0.257-0.101,0.547,0.026,0.647,0.284
				c2.135,5.466,2.7,11.085,1.633,16.252C658.925,691.224,658.717,691.386,658.485,691.386z"/>
		</g>
		<g>
			<path d="M659.751,691.479c-0.034,0-0.068-0.003-0.103-0.011c-0.271-0.056-0.444-0.32-0.388-0.591
				c1.143-5.494,0.549-11.286-1.632-15.891c-0.118-0.249-0.012-0.548,0.238-0.666c0.248-0.117,0.547-0.013,0.666,0.238
				c2.271,4.797,2.893,10.819,1.706,16.521C660.19,691.316,659.982,691.479,659.751,691.479z"/>
		</g>
		<g>
			<path d="M661.074,691.405c-0.024,0-0.049-0.002-0.074-0.005c-0.273-0.041-0.462-0.295-0.421-0.568
				c0.68-4.601,1.144-10.547-1.309-15.727c-0.118-0.249-0.012-0.548,0.238-0.666c0.248-0.116,0.547-0.013,0.666,0.238
				c2.568,5.423,2.094,11.56,1.394,16.302C661.531,691.227,661.317,691.405,661.074,691.405z"/>
		</g>
		<g>
			<path d="M662.36,691.261c-0.03,0-0.061-0.003-0.091-0.008c-0.271-0.05-0.451-0.311-0.402-0.582
				c0.482-2.643,0.98-5.375,0.717-8.067c-0.155-1.6-0.584-3.191-0.998-4.731l-0.798-2.969c-0.072-0.267,0.086-0.541,0.352-0.612
				c0.27-0.07,0.542,0.087,0.612,0.352l0.799,2.969c0.425,1.579,0.864,3.211,1.028,4.893c0.276,2.832-0.234,5.635-0.729,8.345
				C662.808,691.092,662.597,691.261,662.36,691.261z"/>
		</g>
		<g>
			<path d="M663.889,691.231c-0.029,0-0.06-0.003-0.089-0.008c-0.272-0.049-0.453-0.309-0.404-0.58
				c0.925-5.182,0.51-10.551-1.2-15.528c-0.09-0.261,0.049-0.545,0.311-0.635c0.263-0.091,0.545,0.049,0.635,0.31
				c1.765,5.137,2.193,10.68,1.239,16.028C664.337,691.06,664.126,691.231,663.889,691.231z"/>
		</g>
		<g>
			<path d="M611.769,743.108c-0.044,0-0.089-0.003-0.135-0.009c-0.547-0.074-0.931-0.578-0.857-1.125
				c1.347-9.974,2.734-18.063,4.368-25.458c0.12-0.539,0.649-0.876,1.192-0.761c0.539,0.119,0.88,0.653,0.761,1.192
				c-1.622,7.34-3,15.377-4.339,25.294C612.69,742.744,612.262,743.108,611.769,743.108z"/>
		</g>
		<g>
			<path d="M726.968,742.768c-0.476,0-0.896-0.34-0.983-0.823l-1.332-7.432c-0.975-5.438-2.074-11.571-3.733-17.166
				c-6.072,0.161-10.582,0.137-17.272,0.098c-3.603-0.019-7.834-0.044-13.278-0.044c-1.267,0-3.066,0.012-5.21,0.025
				c-5.11,0.034-12.108,0.079-18.564,0.012c-6.124-0.066-13.655,0.005-19.708,0.062c-4.471,0.042-8.33,0.077-10.464,0.05
				c-5.193-0.067-9.113,0-12.905,0.066c-2.453,0.042-4.809,0.083-7.345,0.083c-0.553,0-1-0.447-1-1c0-0.553,0.447-1,1-1
				c2.524,0,4.868-0.041,7.31-0.083c3.806-0.066,7.744-0.134,12.965-0.066c2.117,0.028,5.965-0.008,10.42-0.05
				c6.062-0.056,13.606-0.126,19.748-0.062c6.44,0.067,13.429,0.021,18.53-0.011c2.149-0.015,3.953-0.026,5.223-0.026
				c5.449,0,9.685,0.024,13.29,0.044c6.947,0.041,11.538,0.066,17.969-0.118c0.448-0.005,0.851,0.275,0.984,0.706
				c1.817,5.902,2.983,12.397,4.01,18.128l1.332,7.431c0.098,0.544-0.265,1.063-0.808,1.161
				C727.086,742.763,727.026,742.768,726.968,742.768z"/>
		</g>
		<g>
			<g>
				<path d="M628.488,740.001c-0.557,0-1.123-0.09-1.671-0.27c-1.3-0.43-2.372-1.328-2.942-2.467
					c-0.571-1.139-0.649-2.535-0.215-3.833c0.434-1.299,1.337-2.368,2.479-2.934c0.454-0.227,0.999-0.073,1.275,0.339
					c0.665-0.129,1.338-0.127,1.984-0.1c0.677,0.028,1.458,0.094,2.165,0.519c0.527,0.317,0.963,0.81,1.297,1.461
					c0.579,1.133,0.669,2.529,0.246,3.83c-0.424,1.302-1.318,2.379-2.455,2.955C629.994,739.833,629.25,740.001,628.488,740.001z
					 M626.29,732.835c-0.32,0.333-0.575,0.755-0.733,1.229c-0.267,0.797-0.229,1.637,0.106,2.303c0.335,0.667,0.984,1.2,1.782,1.464
					c0.797,0.262,1.638,0.222,2.304-0.115c0.665-0.337,1.196-0.989,1.456-1.789c0.26-0.799,0.215-1.637-0.125-2.301
					c-0.158-0.31-0.348-0.538-0.548-0.658c-0.302-0.182-0.767-0.216-1.217-0.234c-0.829-0.035-1.491-0.011-2.05,0.221
					C626.93,733.089,626.563,733.034,626.29,732.835z"/>
			</g>
			<g>
				<path d="M631.627,733.863c-0.369,0-0.724-0.205-0.898-0.558c-0.383-0.776-1.221-1.329-2.085-1.377
					c-0.879-0.032-1.758,0.412-2.223,1.141c-0.298,0.467-0.915,0.603-1.381,0.307c-0.466-0.297-0.603-0.915-0.307-1.381
					c0.854-1.34,2.42-2.153,4.018-2.063c1.587,0.086,3.067,1.063,3.77,2.488c0.245,0.496,0.041,1.095-0.454,1.339
					C631.926,733.83,631.775,733.863,631.627,733.863z"/>
			</g>
			<g>
				<path d="M645.731,737.098c-0.227,0-0.462-0.009-0.709-0.022c-2.114-0.112-2.864-0.799-3.626-1.685
					c-0.947-1.104-0.775-2.641-0.684-3.467c0.107-0.958,0.273-1.957,1.018-2.718c0.559-0.569,1.356-0.892,2.325-0.947
					c0.571-0.194,1.19-0.277,1.831-0.251c1.838,0.099,3.526,1.241,4.201,2.844c0.72,1.71,0.022,4.183-1.494,5.292
					C647.519,736.93,646.692,737.098,645.731,737.098z M642.773,731.602c-0.029,0.174-0.052,0.358-0.072,0.546
					c-0.081,0.725-0.139,1.532,0.213,1.941c0.489,0.57,0.785,0.914,2.213,0.989c1.065,0.056,1.475,0.045,2.288-0.549
					c0.776-0.568,1.196-2.032,0.83-2.901c-0.378-0.897-1.391-1.564-2.464-1.621c-0.221-0.015-0.446,0.002-0.661,0.04
					c-0.177,0.136-0.4,0.227-0.641,0.206c-0.009,0-0.017,0-0.025,0c-0.425,0.193-0.776,0.491-0.989,0.861
					C643.313,731.382,643.055,731.552,642.773,731.602z"/>
			</g>
			<g>
				<path d="M692.978,737.137c-1.04,0-2.091-0.392-2.949-1.113c-1.006-0.844-1.612-2.024-1.665-3.239
					c-0.052-1.216,0.451-2.444,1.38-3.372c0.93-0.927,2.14-1.432,3.374-1.373c0.125,0.006,0.243,0.034,0.352,0.08
					c1.081-0.106,2.37-0.072,3.321,0.808c0.661,0.612,1.025,1.531,1.055,2.658c0.075,2.717-1.871,5.192-4.338,5.517
					C693.332,737.126,693.155,737.137,692.978,737.137z M691.438,730.58c-0.097,0.075-0.191,0.158-0.281,0.248
					c-0.533,0.532-0.823,1.214-0.795,1.87c0.028,0.655,0.376,1.31,0.953,1.794c0.577,0.485,1.282,0.709,1.932,0.628
					c1.431-0.189,2.646-1.815,2.599-3.481c-0.008-0.33-0.073-0.929-0.413-1.244c-0.431-0.398-1.336-0.34-1.981-0.261
					c-0.451,0.057-0.92,0.129-1.244,0.328C691.967,730.609,691.691,730.644,691.438,730.58z"/>
			</g>
			<g>
				<path d="M710,739.69c-0.412,0-0.826-0.052-1.232-0.159c-0.721-0.19-1.44-0.551-2.199-1.104
					c-0.523-0.382-1.255-0.995-1.558-1.913c-0.162-0.487-0.196-1.037-0.104-1.679c0.071-0.492,0.215-0.977,0.423-1.439
					c0.006-0.191,0.066-0.384,0.186-0.552c0.228-0.317,0.479-0.619,0.749-0.902c0.216-0.247,0.453-0.478,0.71-0.688
					c0.241-0.197,0.494-0.373,0.756-0.525c0.221-0.143,0.448-0.275,0.681-0.397c0.65-0.338,1.244-0.526,1.816-0.577
					c1.019-0.091,2.128,0.271,3.012,0.991c1.771,1.44,2.347,4.163,1.312,6.196C713.688,738.637,711.865,739.69,710,739.69z
					 M707.734,733.3c-0.454,0.533-0.754,1.17-0.848,1.82c-0.048,0.327-0.04,0.578,0.023,0.767c0.123,0.371,0.536,0.705,0.837,0.924
					c0.555,0.404,1.056,0.661,1.532,0.787c1.305,0.344,2.875-0.354,3.489-1.562c0.614-1.207,0.26-2.884-0.791-3.739
					c-0.206-0.167-0.428-0.3-0.653-0.394c-0.192,0.118-0.426,0.173-0.667,0.139c-0.617-0.09-1.273,0.052-1.876,0.39
					C708.401,732.683,708.05,732.974,707.734,733.3z"/>
			</g>
		</g>
		<g>
			<g>
				<path d="M599.993,652.024c-0.272,0-0.495-0.219-0.5-0.491c-0.005-0.276,0.216-0.504,0.491-0.509l65.934-1.106
					c11.742-0.196,23.562-0.045,34.994,0.102c11.423,0.146,23.237,0.299,34.963,0.102c0.003,0,0.006,0,0.009,0
					c0.273,0,0.495,0.219,0.5,0.491c0.005,0.276-0.216,0.504-0.491,0.509c-11.743,0.197-23.563,0.045-34.994-0.102
					c-11.424-0.146-23.239-0.3-34.963-0.102l-65.933,1.106C599.999,652.024,599.996,652.024,599.993,652.024z"/>
			</g>
			<g>
				<path d="M614.71,658.108c-5.719,0-14.832-0.509-14.939-0.515c-0.275-0.016-0.486-0.251-0.471-0.527
					c0.016-0.274,0.224-0.491,0.527-0.471c0.122,0.007,12.36,0.685,17.303,0.47c2.744-0.123,5.53-0.325,8.226-0.521
					c5.012-0.363,10.188-0.74,15.338-0.623c10.036,0.227,21.063-0.077,31.479-0.436c7.344-0.251,12.757-0.164,18.488-0.072
					c4.425,0.072,9.001,0.146,14.822,0.072c2.821-0.038,6.122,0.014,9.313,0.063c2.374,0.036,4.712,0.071,6.801,0.071
					c1.378,0,2.799,0.065,4.304,0.133c3.607,0.165,7.337,0.333,10.536-0.422c0.271-0.068,0.539,0.103,0.602,0.371
					c0.063,0.269-0.102,0.538-0.371,0.602c-3.335,0.788-7.138,0.614-10.812,0.448c-1.493-0.067-2.903-0.132-4.259-0.132
					c-2.094,0-4.436-0.035-6.815-0.071c-3.187-0.049-6.479-0.101-9.287-0.063c-5.837,0.072-10.42,0-14.851-0.072
					c-5.718-0.092-11.118-0.18-18.437,0.072c-10.434,0.359-21.476,0.66-31.537,0.436c-5.098-0.113-10.254,0.26-15.243,0.62
					c-2.701,0.196-5.496,0.398-8.253,0.521C616.479,658.095,615.639,658.108,614.71,658.108z"/>
			</g>
			<g>
				<path d="M616.234,663.813c-5.342,0-10.753-0.067-16.243-0.234c-0.275-0.009-0.492-0.239-0.484-0.516
					c0.01-0.275,0.198-0.462,0.516-0.484c17.204,0.523,33.659,0.066,49.57-0.377c6.1-0.17,12.406-0.346,18.567-0.458
					c9.368-0.172,17.785-0.096,26.694-0.017c12.701,0.114,25.833,0.233,41.902-0.431c0.251,0.009,0.508,0.204,0.521,0.479
					c0.011,0.275-0.203,0.509-0.479,0.521c-16.096,0.663-29.239,0.545-41.952,0.431c-8.902-0.079-17.313-0.154-26.668,0.017
					c-6.155,0.112-12.46,0.288-18.557,0.458C638.768,663.504,627.661,663.813,616.234,663.813z"/>
			</g>
		</g>
		<g>
			<path d="M620.696,720.888c-0.102,0-0.204-0.03-0.292-0.095c-0.225-0.161-0.275-0.474-0.113-0.697l2.49-3.458
				c0.16-0.226,0.474-0.277,0.697-0.113c0.225,0.161,0.275,0.474,0.113,0.697l-2.49,3.458
				C621.004,720.815,620.852,720.888,620.696,720.888z"/>
		</g>
		<g>
			<path d="M623.906,719.642c-0.101,0-0.201-0.03-0.289-0.092c-0.226-0.159-0.278-0.472-0.119-0.697l1.547-2.186
				c0.161-0.226,0.474-0.275,0.697-0.119c0.226,0.159,0.278,0.472,0.119,0.697l-1.547,2.187
				C624.217,719.568,624.063,719.642,623.906,719.642z"/>
		</g>
		<g>
			<path d="M625.902,722.869c-0.072,0-0.144-0.016-0.214-0.048c-0.25-0.118-0.357-0.417-0.238-0.666
				c1.027-2.168,2.436-4.099,4.188-5.736c0.203-0.188,0.518-0.179,0.707,0.023c0.189,0.202,0.178,0.518-0.023,0.707
				c-1.636,1.529-3.008,3.409-3.967,5.434C626.269,722.764,626.089,722.869,625.902,722.869z"/>
		</g>
		<g>
			<path d="M631.816,719.886c-0.042,0-0.084-0.005-0.127-0.017c-0.267-0.069-0.427-0.343-0.357-0.61
				c0.262-0.998,0.863-1.885,1.695-2.495c0.221-0.162,0.534-0.117,0.699,0.107c0.163,0.223,0.115,0.535-0.107,0.699
				c-0.638,0.468-1.119,1.176-1.32,1.942C632.241,719.737,632.038,719.886,631.816,719.886z"/>
		</g>
		<g>
			<path d="M636.56,720.4c-0.105,0-0.212-0.033-0.302-0.102c-0.22-0.166-0.264-0.48-0.097-0.7l2.451-3.24
				c0.166-0.22,0.482-0.264,0.7-0.097c0.22,0.166,0.264,0.479,0.097,0.7l-2.451,3.24C636.861,720.332,636.712,720.4,636.56,720.4z"
				/>
		</g>
		<g>
			<path d="M642.215,719.623c-0.113,0-0.227-0.038-0.32-0.116c-0.212-0.177-0.24-0.492-0.063-0.704
				c0.207-0.248,0.642-0.758,1.077-1.267c0.432-0.506,0.863-1.012,1.069-1.259c0.178-0.212,0.493-0.239,0.704-0.063
				c0.212,0.177,0.24,0.492,0.063,0.704c-0.207,0.248-0.642,0.758-1.077,1.267c-0.432,0.506-0.863,1.012-1.069,1.259
				C642.5,719.562,642.357,719.623,642.215,719.623z"/>
		</g>
		<g>
			<path d="M646.707,722.867c-0.069,0-0.14-0.015-0.206-0.045c-0.252-0.113-0.363-0.409-0.249-0.661
				c0.935-2.068,2.017-4.095,3.214-6.024c0.147-0.234,0.457-0.304,0.689-0.161c0.234,0.146,0.307,0.454,0.161,0.689
				c-1.174,1.892-2.235,3.881-3.153,5.909C647.079,722.758,646.897,722.867,646.707,722.867z"/>
		</g>
		<g>
			<path d="M652.168,719.9c-0.07,0-0.141-0.015-0.208-0.046c-0.251-0.114-0.361-0.411-0.246-0.662l0.924-2.013
				c0.114-0.252,0.412-0.362,0.662-0.246c0.251,0.114,0.361,0.411,0.246,0.662l-0.924,2.013
				C652.538,719.792,652.357,719.9,652.168,719.9z"/>
		</g>
		<g>
			<path d="M655.842,722.852c-0.078,0-0.156-0.017-0.229-0.056c-0.245-0.127-0.342-0.429-0.215-0.674
				c1.063-2.053,2.267-4.054,3.58-5.95c0.157-0.227,0.469-0.281,0.696-0.126c0.227,0.157,0.283,0.469,0.126,0.696
				c-1.289,1.86-2.472,3.825-3.514,5.839C656.197,722.754,656.022,722.852,655.842,722.852z"/>
		</g>
		<g>
			<path d="M662.597,719.423c-0.089,0-0.18-0.023-0.261-0.073c-0.235-0.143-0.31-0.452-0.166-0.688l1.221-1.994
				c0.144-0.236,0.451-0.311,0.688-0.164c0.235,0.144,0.309,0.452,0.164,0.688l-1.219,1.992
				C662.929,719.338,662.765,719.423,662.597,719.423z"/>
		</g>
		<g>
			<path d="M678.808,722.073c-0.075,0-0.151-0.017-0.224-0.053c-0.247-0.123-0.347-0.423-0.224-0.671l2.423-4.857
				c0.123-0.246,0.422-0.348,0.671-0.224c0.247,0.123,0.347,0.423,0.224,0.671l-2.423,4.857
				C679.168,721.972,678.991,722.073,678.808,722.073z"/>
		</g>
		<g>
			<path d="M684.357,720.39c-0.08,0-0.162-0.019-0.237-0.06c-0.243-0.132-0.334-0.435-0.203-0.678l1.999-3.706
				c0.132-0.243,0.436-0.332,0.678-0.203c0.243,0.132,0.334,0.434,0.203,0.678l-1.999,3.706
				C684.707,720.295,684.535,720.39,684.357,720.39z"/>
		</g>
		<g>
			<path d="M685.083,722.611c-0.054,0-0.108-0.009-0.161-0.026c-0.262-0.09-0.401-0.374-0.313-0.635
				c0.693-2.03,1.705-3.924,3.008-5.628c0.169-0.221,0.481-0.261,0.701-0.094c0.22,0.168,0.261,0.482,0.094,0.701
				c-1.237,1.618-2.197,3.415-2.856,5.343C685.485,722.481,685.291,722.611,685.083,722.611z"/>
		</g>
		<g>
			<path d="M692.978,720.607c-0.091,0-0.183-0.024-0.266-0.076c-0.233-0.146-0.305-0.455-0.158-0.69l2.007-3.204
				c0.148-0.234,0.456-0.303,0.69-0.158c0.233,0.146,0.305,0.455,0.158,0.689l-2.007,3.204
				C693.308,720.524,693.144,720.607,692.978,720.607z"/>
		</g>
		<g>
			<path d="M695.019,722.626c-0.091,0-0.182-0.024-0.264-0.075c-0.234-0.146-0.307-0.454-0.161-0.688l3.515-5.669
				c0.146-0.234,0.456-0.306,0.688-0.161c0.234,0.145,0.307,0.454,0.161,0.688l-3.515,5.669
				C695.349,722.542,695.185,722.626,695.019,722.626z"/>
		</g>
		<g>
			<path d="M705.67,719.893c-0.022,0-0.045-0.001-0.067-0.005c-0.273-0.036-0.466-0.288-0.429-0.562
				c0.156-1.173,0.725-2.261,1.598-3.062c0.203-0.185,0.52-0.174,0.706,0.03c0.187,0.203,0.173,0.52-0.03,0.706
				c-0.69,0.634-1.158,1.53-1.283,2.458C706.131,719.71,705.916,719.893,705.67,719.893z"/>
		</g>
		<g>
			<path d="M709.323,722.348c-0.064,0-0.131-0.013-0.193-0.039c-0.255-0.107-0.375-0.4-0.268-0.654l2.372-5.638
				c0.107-0.253,0.399-0.374,0.655-0.267c0.254,0.107,0.374,0.4,0.267,0.655l-2.372,5.636
				C709.704,722.232,709.519,722.348,709.323,722.348z"/>
		</g>
		<g>
			<path d="M712.566,720.375c-0.075,0-0.151-0.017-0.223-0.052c-0.247-0.123-0.348-0.423-0.226-0.671l1.479-2.977
				c0.122-0.247,0.425-0.349,0.67-0.225c0.247,0.122,0.348,0.423,0.225,0.67l-1.478,2.978
				C712.927,720.273,712.75,720.375,712.566,720.375z"/>
		</g>
		<g>
			<path d="M689.989,720.654c-0.07,0-0.142-0.015-0.209-0.046c-0.251-0.115-0.36-0.412-0.245-0.663l1.503-3.268
				c0.115-0.252,0.415-0.359,0.663-0.245c0.251,0.115,0.36,0.412,0.245,0.663l-1.503,3.268
				C690.359,720.547,690.178,720.654,689.989,720.654z"/>
		</g>
		<g>
			<path d="M716.814,721.144c-0.072,0-0.146-0.016-0.216-0.049c-0.249-0.119-0.354-0.418-0.235-0.667l2.069-4.323
				c0.119-0.249,0.418-0.356,0.667-0.235c0.249,0.119,0.354,0.418,0.235,0.667l-2.069,4.323
				C717.18,721.04,717.001,721.144,716.814,721.144z"/>
		</g>
		<g>
			<path d="M667.73,723.12c-0.066,0-0.134-0.013-0.198-0.041c-0.254-0.11-0.37-0.404-0.261-0.657l2.389-5.513
				c0.11-0.253,0.4-0.371,0.658-0.26c0.253,0.11,0.369,0.404,0.26,0.658l-2.389,5.511C668.107,723.008,667.924,723.12,667.73,723.12
				z"/>
		</g>
		<g>
			<path d="M629.824,737.141c-0.339,0-0.699-0.047-1.086-0.141c-0.759-0.185-2.125-0.703-2.745-2.093
				c-0.319-0.715-0.321-1.616-0.007-2.354c0.239-0.559,0.641-0.963,1.133-1.14c0.261-0.092,0.547,0.043,0.64,0.302
				c0.093,0.26-0.042,0.546-0.302,0.64c-0.307,0.109-0.477,0.417-0.551,0.591c-0.202,0.475-0.203,1.099,0,1.554
				c0.446,1,1.487,1.387,2.068,1.528c0.584,0.142,1.07,0.148,1.484,0.023c0.471-0.141,0.86-0.477,1.042-0.898
				c0.11-0.253,0.405-0.372,0.657-0.261c0.254,0.109,0.37,0.404,0.261,0.657c-0.298,0.689-0.923,1.234-1.672,1.459
				C630.457,737.097,630.15,737.141,629.824,737.141z"/>
		</g>
		<g>
			<path d="M646.479,734.047c-1.309,0-2.412-0.424-3.107-1.193c-0.822-0.908-1.072-2.545-0.134-3.533
				c0.189-0.2,0.508-0.206,0.707-0.018c0.2,0.191,0.208,0.507,0.018,0.707c-0.523,0.551-0.349,1.621,0.151,2.173
				c0.679,0.751,1.771,0.864,2.365,0.864c0.001,0,0.003,0,0.005,0c0.488-0.001,0.845-0.07,1.119-0.218
				c0.333-0.18,0.672-0.597,0.695-0.857c0.039-0.426-0.12-1.326-0.391-1.631c-0.184-0.206-0.164-0.522,0.042-0.706
				c0.204-0.183,0.522-0.166,0.706,0.042c0.55,0.619,0.688,1.86,0.639,2.387c-0.063,0.676-0.674,1.353-1.218,1.646
				c-0.559,0.301-1.176,0.337-1.592,0.338C646.483,734.047,646.481,734.047,646.479,734.047z"/>
		</g>
		<g>
			<path d="M691.714,734.226c-0.753,0-1.509-0.234-2.119-0.673c-0.149-0.108-0.29-0.227-0.43-0.346
				c-0.21-0.18-0.234-0.495-0.055-0.705c0.18-0.209,0.495-0.234,0.705-0.055c0.118,0.102,0.237,0.202,0.364,0.294
				c0.581,0.418,1.347,0.58,2.049,0.432c0.702-0.148,1.338-0.604,1.702-1.223c0.234-0.396,0.336-0.823,0.286-1.203
				c-0.043-0.328-0.213-0.632-0.447-0.812c-0.044,0.01-0.088,0.018-0.142,0.012c-0.275-0.016-0.486-0.252-0.471-0.527
				c0.01-0.17,0.139-0.377,0.286-0.461c0.23-0.131,0.497-0.079,0.657,0.006c0.589,0.307,1.014,0.94,1.108,1.652
				c0.078,0.601-0.07,1.255-0.417,1.841c-0.504,0.855-1.385,1.488-2.357,1.693C692.198,734.201,691.956,734.226,691.714,734.226z"/>
		</g>
		<g>
			<path d="M707.935,737.055c-0.427,0-0.829-0.075-1.402-0.216c-0.269-0.066-0.433-0.336-0.366-0.605
				c0.065-0.268,0.334-0.43,0.604-0.366c0.979,0.238,1.289,0.245,2.207,0.04c0.97-0.218,1.806-0.773,2.291-1.523
				c0.517-0.797,0.628-1.846,0.286-2.638c-0.12-0.012-0.236-0.066-0.324-0.162c-0.185-0.205-0.169-0.522,0.035-0.707
				c0.151-0.136,0.35-0.19,0.551-0.153c0.292,0.058,0.505,0.305,0.606,0.517c0.535,1.121,0.411,2.567-0.314,3.688
				c-0.627,0.968-1.688,1.681-2.912,1.956C708.68,737,708.299,737.055,707.935,737.055z"/>
		</g>
		<g>
			<path d="M632.374,693.489c-0.083,0-0.167-0.011-0.249-0.031c-2.232-0.575-4.516-1.308-5.745-3.36
				c-0.2-0.333-0.188-0.752,0.029-1.074l0.124-0.185c0.096-0.144,0.191-0.289,0.3-0.435c-0.136-0.223-0.262-0.45-0.377-0.685
				l-0.397,0.313c-0.254,0.2-0.588,0.262-0.899,0.174c-0.31-0.091-0.557-0.326-0.663-0.631c-0.592-1.698-1.322-4.273-0.84-7.031
				c0.061-0.352,0.307-0.643,0.642-0.767c0.335-0.123,0.712-0.057,0.985,0.173c0.166,0.14,0.341,0.265,0.523,0.375
				c0.065-0.11,0.128-0.222,0.19-0.334c-0.364-0.222-0.686-0.518-0.935-0.87c-0.229-0.326-0.244-0.757-0.036-1.097
				c1.329-2.182,3.458-3.867,5.839-4.625c0.525-0.168,1.088,0.123,1.256,0.65c0.019,0.061,0.032,0.123,0.04,0.185
				c0.048,0.111,0.075,0.233,0.079,0.361l0.029,0.945l0.41-0.022l0.23-1.195c0.096-0.5,0.561-0.849,1.06-0.808
				c1.138,0.089,2.345,0.213,3.488,0.656c1.381,0.533,2.443,1.469,2.991,2.633c0.133,0.283,0.126,0.612-0.019,0.89
				c-0.146,0.277-0.412,0.471-0.721,0.523c-0.079,0.014-0.157,0.03-0.234,0.052c0.197,0.298,0.37,0.612,0.517,0.94l0.489-0.287
				c0.259-0.153,0.572-0.18,0.853-0.075c0.281,0.104,0.501,0.328,0.599,0.611c0.755,2.186,0.972,4.554,0.626,6.848
				c-0.041,0.271-0.192,0.514-0.417,0.671c-0.225,0.157-0.504,0.216-0.774,0.159c-0.397-0.082-0.788-0.195-1.168-0.34l-0.188,0.305
				c0.356,0.178,0.758,0.467,0.951,1.009c0.175,0.491,0.198,1.269-0.688,2.177c-1.233,1.259-2.737,2.259-4.35,2.896
				c-0.303,0.115-0.642,0.085-0.914-0.094c-0.271-0.178-0.44-0.476-0.452-0.8c-0.012-0.308-0.048-0.611-0.109-0.908
				c-0.366,0.044-0.734,0.066-1.104,0.066l0.029,1.014c0.009,0.314-0.13,0.614-0.376,0.81
				C632.819,693.414,632.599,693.489,632.374,693.489z M628.46,689.566c0.685,0.771,1.716,1.234,2.876,1.596l-0.021-0.748
				c-0.008-0.291,0.111-0.571,0.326-0.768c0.216-0.196,0.507-0.289,0.794-0.254c0.837,0.102,1.683,0.061,2.509-0.124
				c0.48-0.104,0.98,0.16,1.154,0.629c0.106,0.285,0.194,0.576,0.264,0.873c0.908-0.499,1.752-1.137,2.483-1.883
				c0.029-0.03,0.055-0.058,0.077-0.083c-0.009-0.004-0.018-0.007-0.025-0.011c-0.301-0.121-0.713-0.288-1.039-0.654
				c-0.294-0.331-0.336-0.814-0.104-1.19l1.204-1.949c0.275-0.447,0.853-0.604,1.315-0.359c0.14,0.073,0.282,0.141,0.427,0.201
				c0.065-1.19-0.041-2.388-0.314-3.545l-0.102,0.06c-0.563,0.327-1.005,0.225-1.276,0.083c-0.463-0.245-0.588-0.682-0.635-0.846
				c-0.209-0.727-0.6-1.384-1.129-1.902c-0.201-0.197-0.311-0.47-0.3-0.751c0.01-0.281,0.138-0.545,0.353-0.727
				c0.204-0.174,0.423-0.326,0.652-0.458c-0.421-0.37-0.894-0.596-1.212-0.719c-0.633-0.245-1.32-0.367-2.034-0.446l-0.153,0.796
				c-0.024,0.136-0.095,0.52-0.441,0.81c-0.318,0.265-0.669,0.282-0.801,0.29l-1.948,0.109c-0.267,0.019-0.533-0.078-0.731-0.261
				c-0.199-0.182-0.317-0.437-0.325-0.706l-0.025-0.835c-1.189,0.6-2.254,1.49-3.069,2.574c0.088,0.034,0.18,0.057,0.271,0.064
				c0.321,0.029,0.608,0.211,0.772,0.488c0.164,0.277,0.184,0.616,0.054,0.911c-0.359,0.816-0.796,1.604-1.297,2.338
				c-0.258,0.378-0.738,0.533-1.168,0.376c-0.115-0.042-0.229-0.087-0.343-0.136c-0.001,0.972,0.152,2.001,0.467,3.153l0.073-0.059
				c0.066-0.053,0.258-0.206,0.548-0.26c0.454-0.083,1.085,0.103,1.373,0.893c0.227,0.634,0.542,1.219,0.939,1.744
				c0.315,0.416,0.257,1.003-0.133,1.35C628.646,689.337,628.552,689.443,628.46,689.566z"/>
		</g>
		<g>
			<path d="M594.466,640.571c-0.111,0-0.224-0.037-0.316-0.112c-0.214-0.175-0.245-0.49-0.071-0.704l3.74-4.585
				c0.176-0.214,0.491-0.244,0.704-0.071c0.214,0.175,0.245,0.49,0.071,0.704l-3.74,4.585
				C594.754,640.509,594.61,640.571,594.466,640.571z"/>
		</g>
		<g>
			<path d="M599.972,638.888c-0.099,0-0.198-0.029-0.286-0.09c-0.227-0.157-0.282-0.47-0.124-0.696l0.591-0.85
				c0.158-0.225,0.47-0.28,0.696-0.124c0.227,0.157,0.282,0.47,0.124,0.696l-0.591,0.85
				C600.285,638.813,600.129,638.888,599.972,638.888z"/>
		</g>
		<g>
			<path d="M604.53,640.476c-0.092,0-0.185-0.025-0.268-0.078c-0.233-0.148-0.303-0.457-0.154-0.69l3.114-4.906
				c0.147-0.233,0.459-0.302,0.689-0.154c0.233,0.147,0.303,0.457,0.154,0.689l-3.114,4.906
				C604.857,640.394,604.695,640.476,604.53,640.476z"/>
		</g>
		<g>
			<path d="M612.346,637.816c-0.099,0-0.198-0.029-0.285-0.089c-0.227-0.157-0.283-0.469-0.126-0.696l1.088-1.567
				c0.158-0.227,0.469-0.282,0.696-0.126c0.227,0.157,0.283,0.469,0.126,0.696l-1.088,1.566
				C612.659,637.741,612.504,637.816,612.346,637.816z"/>
		</g>
		<g>
			<path d="M618.607,639.555c-0.09,0-0.182-0.024-0.264-0.075c-0.234-0.146-0.307-0.453-0.161-0.688
				c0.992-1.602,2.155-3.106,3.458-4.47c0.19-0.198,0.506-0.207,0.707-0.016c0.199,0.19,0.207,0.507,0.016,0.707
				c-1.255,1.313-2.375,2.763-3.331,4.306C618.938,639.471,618.774,639.555,618.607,639.555z"/>
		</g>
		<g>
			<path d="M628.602,637.007c-0.115,0-0.23-0.039-0.325-0.12c-0.21-0.179-0.234-0.495-0.055-0.705l1.725-2.015
				c0.18-0.21,0.495-0.233,0.705-0.055c0.21,0.18,0.234,0.495,0.055,0.705l-1.725,2.015
				C628.884,636.947,628.743,637.007,628.602,637.007z"/>
		</g>
		<g>
			<path d="M632.074,640.553c-0.129,0-0.258-0.05-0.355-0.148c-0.194-0.197-0.192-0.514,0.004-0.707
				c0.426-0.42,0.77-0.942,1.135-1.496c0.285-0.433,0.579-0.88,0.94-1.322c0.174-0.214,0.489-0.245,0.703-0.072
				c0.214,0.174,0.247,0.488,0.072,0.703c-0.328,0.403-0.608,0.829-0.88,1.241c-0.394,0.599-0.768,1.164-1.267,1.657
				C632.328,640.505,632.201,640.553,632.074,640.553z"/>
		</g>
		<g>
			<path d="M641.245,638.273c-0.122,0-0.243-0.044-0.34-0.133c-0.202-0.188-0.215-0.504-0.027-0.707l2.348-2.535
				c0.188-0.203,0.504-0.215,0.707-0.027c0.202,0.188,0.215,0.504,0.027,0.707l-2.348,2.535
				C641.514,638.22,641.38,638.273,641.245,638.273z"/>
		</g>
		<g>
			<path d="M645.55,637.114c-0.12,0-0.241-0.043-0.337-0.131c-0.204-0.187-0.219-0.503-0.032-0.706
				c0.223-0.244,0.393-0.454,0.554-0.65c0.342-0.42,0.665-0.815,1.305-1.318c0.214-0.169,0.529-0.135,0.702,0.085
				c0.17,0.217,0.133,0.531-0.085,0.702c-0.552,0.434-0.815,0.756-1.147,1.163c-0.171,0.209-0.353,0.433-0.591,0.692
				C645.82,637.06,645.685,637.114,645.55,637.114z"/>
		</g>
		<g>
			<path d="M655.774,637.839c-0.106,0-0.213-0.033-0.304-0.103c-0.22-0.168-0.261-0.482-0.094-0.701l1.86-2.428
				c0.169-0.219,0.482-0.262,0.701-0.092c0.219,0.168,0.26,0.481,0.092,0.701l-1.858,2.426
				C656.073,637.771,655.925,637.839,655.774,637.839z"/>
		</g>
		<g>
			<path d="M666.096,636.954c-0.128,0-0.256-0.049-0.354-0.146c-0.195-0.195-0.195-0.512,0-0.707l1.148-1.148
				c0.195-0.195,0.512-0.195,0.707,0c0.195,0.195,0.195,0.512,0,0.707l-1.148,1.148
				C666.352,636.905,666.224,636.954,666.096,636.954z"/>
		</g>
		<g>
			<path d="M673.175,639.281c-0.119,0-0.238-0.042-0.334-0.128c-0.205-0.185-0.223-0.501-0.038-0.706l3.265-3.634
				c0.185-0.206,0.501-0.222,0.706-0.038c0.206,0.185,0.223,0.501,0.038,0.706l-3.265,3.634
				C673.448,639.226,673.311,639.281,673.175,639.281z"/>
		</g>
		<g>
			<path d="M681.024,638.346c-0.102,0-0.206-0.031-0.295-0.097c-0.134-0.098-0.205-0.25-0.205-0.404
				c0-0.103,0.031-0.205,0.097-0.294l1.479-2.024c0.164-0.223,0.477-0.271,0.698-0.108c0.134,0.098,0.205,0.25,0.205,0.404
				c0,0.102-0.031,0.205-0.097,0.294l-1.479,2.024C681.33,638.274,681.178,638.346,681.024,638.346z"/>
		</g>
		<g>
			<path d="M694.624,640.082c-0.115,0-0.23-0.039-0.325-0.12c-0.21-0.18-0.234-0.495-0.055-0.705l3.427-4.006
				c0.181-0.21,0.495-0.234,0.705-0.055c0.21,0.18,0.234,0.495,0.055,0.705l-3.427,4.006
				C694.905,640.023,694.765,640.082,694.624,640.082z"/>
		</g>
		<g>
			<path d="M698.896,640.524c-0.102,0-0.205-0.031-0.294-0.096c-0.224-0.162-0.272-0.476-0.11-0.698
				c0.382-0.525,0.588-0.783,0.983-1.185c0.193-0.197,0.512-0.199,0.707-0.006c0.197,0.194,0.199,0.511,0.006,0.707
				c-0.356,0.362-0.526,0.575-0.888,1.071C699.202,640.453,699.05,640.524,698.896,640.524z"/>
		</g>
		<g>
			<path d="M689.797,637.854c-0.103,0-0.205-0.031-0.294-0.096c-0.224-0.162-0.272-0.476-0.11-0.698
				c0.456-0.627,0.702-0.935,1.179-1.42c0.194-0.198,0.511-0.198,0.707-0.006c0.197,0.193,0.199,0.51,0.006,0.707
				c-0.438,0.446-0.646,0.705-1.083,1.307C690.103,637.783,689.951,637.854,689.797,637.854z"/>
		</g>
		<g>
			<path d="M660.421,639.82c-0.103,0-0.205-0.031-0.294-0.096c-0.224-0.162-0.273-0.475-0.11-0.698
				c0.536-0.737,0.808-1.078,1.359-1.639c0.193-0.197,0.51-0.199,0.707-0.006c0.197,0.193,0.199,0.51,0.006,0.707
				c-0.511,0.519-0.752,0.822-1.264,1.525C660.727,639.749,660.575,639.82,660.421,639.82z"/>
		</g>
		<g>
			<path d="M705.634,640.648c-0.102,0-0.205-0.031-0.294-0.096c-0.224-0.162-0.272-0.475-0.11-0.698l3.004-4.13
				c0.163-0.225,0.476-0.271,0.698-0.11c0.224,0.162,0.273,0.475,0.11,0.698l-3.004,4.13
				C705.94,640.577,705.788,640.648,705.634,640.648z"/>
		</g>
		<g>
			<path d="M717.323,640.305c-0.101,0-0.202-0.03-0.29-0.093c-0.225-0.16-0.277-0.472-0.117-0.697l2.262-3.181
				c0.161-0.224,0.474-0.276,0.697-0.117c0.225,0.16,0.277,0.472,0.117,0.697l-2.262,3.181
				C717.633,640.231,717.479,640.305,717.323,640.305z"/>
		</g>
		<g>
			<path d="M725.033,638.116c-0.091,0-0.183-0.024-0.266-0.076c-0.233-0.146-0.305-0.455-0.158-0.689
				c0.662-1.059,1.063-1.587,1.71-2.26c0.193-0.198,0.51-0.203,0.707-0.014c0.199,0.192,0.205,0.508,0.014,0.707
				c-0.6,0.623-0.955,1.094-1.583,2.098C725.362,638.033,725.199,638.116,725.033,638.116z"/>
		</g>
		<g>
			<path d="M734.166,638.877c-0.113,0-0.228-0.038-0.32-0.116c-0.212-0.177-0.24-0.492-0.064-0.704l2.429-2.905
				c0.178-0.212,0.495-0.239,0.704-0.064c0.212,0.177,0.24,0.492,0.063,0.704l-2.429,2.905
				C734.451,638.815,734.309,638.877,734.166,638.877z"/>
		</g>
		<g>
			<path d="M740.356,637.498c-0.111,0-0.224-0.037-0.316-0.113c-0.214-0.175-0.245-0.49-0.07-0.703l1.816-2.218
				c0.174-0.214,0.49-0.246,0.703-0.07c0.214,0.175,0.245,0.49,0.07,0.703l-1.816,2.218
				C740.644,637.435,740.501,637.498,740.356,637.498z"/>
		</g>
	</g>
</g>
</svg>
