<?xml version="1.0" encoding="utf-8"?>
<!-- Generator: Adobe Illustrator 27.5.0, SVG Export Plug-In . SVG Version: 6.00 Build 0)  -->
<svg version="1.1" xmlns="http://www.w3.org/2000/svg" xmlns:xlink="http://www.w3.org/1999/xlink" x="0px" y="0px"
	 viewBox="0 0 800 800" style="enable-background:new 0 0 800 800;" xml:space="preserve">
<g id="OBJECTS">
	<g>
		<g>
			<g>
				<g>
					<path d="M127.147,512.118c-0.068,0-0.137,0-0.205,0c-10.617-0.051-19.177-0.799-29.265-1.773
						c-6.861-0.663-13.641-2.261-21.491-4.111l-1.405-0.331c-10.543-2.48-19.758-7.218-25.95-13.341
						c-1.538-1.521-2.485-3.478-2.983-6.161c-0.72-3.888,1.396-8.362,3.616-11.254c4.584-5.97,12.346-10.135,18.049-12.577
						c5.534-2.37,11.762-4.018,20.193-5.343c5.784-0.908,11.677-1.535,17.518-1.863c7.257-0.409,14.544-0.188,21.591,0.024
						c3.252,0.099,6.614,0.2,9.942,0.239c1.567,0.018,3.168,0.206,4.758,0.559c3.803,0.843,7.664,1.843,11.397,2.811
						c3.145,0.814,6.396,1.657,9.586,2.398l0,0c1.214,0.281,2.423,0.721,3.595,1.307c1.379,0.69,2.647,1.251,3.766,1.746
						c1.367,0.605,2.547,1.128,3.608,1.731c2.668,1.52,8.687,6.063,10.508,9.68c0.365,0.725,0.701,1.345,1.008,1.912
						c1.078,1.988,1.856,3.425,2.293,6.347c0.443,2.971-0.53,4.975-1.657,7.296l-0.046,0.094c-1.685,3.472-5.901,7.623-9.399,9.255
						c-9.561,4.459-16.183,7.044-25.842,8.798C146.653,510.228,134.577,512.118,127.147,512.118z M114.141,457.135
						c-2.933,0-5.874,0.061-8.804,0.226c-5.774,0.325-11.602,0.945-17.32,1.844c-8.261,1.297-14.342,2.902-19.717,5.204
						c-5.484,2.35-12.929,6.331-17.25,11.958c-1.868,2.433-3.836,6.426-3.235,9.67c0.425,2.294,1.172,3.867,2.422,5.104
						c5.933,5.867,14.813,10.419,25.002,12.815l1.406,0.331c7.78,1.834,14.498,3.418,21.225,4.068
						c10.036,0.968,18.55,1.712,29.082,1.763c0.065,0,0.132,0,0.199,0c7.28,0,19.191-1.865,22.824-2.525
						c9.445-1.715,15.948-4.256,25.354-8.643c3.09-1.441,6.958-5.25,8.446-8.315l0.045-0.095c1.063-2.188,1.831-3.768,1.479-6.127
						c-0.384-2.573-1.056-3.813-2.073-5.689c-0.316-0.582-0.661-1.22-1.036-1.964c-1.427-2.835-6.706-7.13-9.711-8.842
						c-0.973-0.554-2.111-1.058-3.428-1.641c-1.139-0.504-2.43-1.075-3.85-1.786c-1.031-0.516-2.092-0.901-3.153-1.148
						c-3.215-0.746-6.479-1.592-9.636-2.41c-3.716-0.963-7.56-1.958-11.328-2.793c-1.456-0.323-2.918-0.495-4.348-0.512
						c-3.347-0.04-6.719-0.142-9.979-0.24C122.613,457.263,118.386,457.135,114.141,457.135z"/>
				</g>
				<g>
					<path d="M119.229,520.144c-13.561,0-31.684-0.775-45.171-5.71c-0.946-0.347-1.827-0.665-2.661-0.967
						c-6.623-2.395-10.271-3.713-19.367-9.053c-2.003-1.175-7.895-6.013-9.292-7.762c-2.552-3.194-2.149-7.982-1.883-11.15
						c0.242-2.874,1.778-5.351,3.198-7.446c3.609-5.324,8.669-9.802,13.883-12.284c1.944-0.927,10.327-4.152,12.839-4.454
						c0.55-0.065,1.047,0.325,1.112,0.874c0.066,0.549-0.325,1.046-0.874,1.112c-2.131,0.255-10.188,3.307-12.217,4.272
						c-4.902,2.335-9.673,6.563-13.088,11.602c-1.278,1.886-2.659,4.099-2.86,6.492c-0.318,3.774-0.446,7.358,1.452,9.734
						c1.24,1.552,6.943,6.23,8.741,7.285c8.938,5.246,12.524,6.543,19.035,8.896c0.836,0.303,1.72,0.622,2.669,0.969
						c14.29,5.231,34.077,5.69,47.717,5.575c6.822-0.056,12.913-0.646,19.361-1.271c2.516-0.243,5.078-0.491,7.749-0.714
						c1.499-0.125,8.097-1.449,9.338-1.927c4.073-1.565,5.876-1.958,9.309-2.539c3.511-0.593,4.531-1.235,6.994-2.788
						c0.541-0.34,1.143-0.72,1.846-1.145c4.175-2.527,8.645-6.765,12.588-11.932c1.359-1.782,1.646-3.52,1.683-5.918
						c0.03-2.005-0.011-3.817-0.829-5.694c-1.691-3.876-8.492-16.747-25.025-19.62c-0.544-0.095-0.908-0.612-0.814-1.156
						c0.094-0.544,0.608-0.907,1.157-0.815c17.517,3.045,24.724,16.684,26.516,20.792c0.977,2.24,1.029,4.364,0.996,6.524
						c-0.041,2.668-0.413,4.897-2.093,7.1c-2.369,3.105-7.227,8.85-13.143,12.43c-0.691,0.418-1.283,0.791-1.814,1.126
						c-2.545,1.604-3.822,2.408-7.727,3.068c-3.292,0.557-5.021,0.933-8.924,2.434c-1.551,0.597-8.325,1.922-9.89,2.052
						c-2.661,0.223-5.215,0.47-7.722,0.713c-6.494,0.629-12.627,1.224-19.537,1.28C121.432,520.139,120.345,520.144,119.229,520.144
						z"/>
				</g>
				<g>
					<path d="M61.638,729.812c-0.452,0-0.862-0.309-0.972-0.768c-1.152-4.838-3.585-20.134-5.938-34.927
						c-1.822-11.448-3.542-22.263-4.345-26.099c-2.301-11.002-6.487-32.012-8.163-42.166c-1.386-8.406-2.202-15.1-3.147-22.849
						l-0.601-4.9c-1.3-10.516-2.432-21.918-1.917-34.046c0.139-3.271,0.279-6.686,0.424-10.206
						c0.891-21.685,1.901-46.261,3.686-66.463c0.048-0.55,0.537-0.958,1.084-0.908c0.55,0.049,0.957,0.534,0.908,1.084
						c-1.78,20.155-2.789,44.707-3.68,66.369c-0.145,3.521-0.285,6.936-0.424,10.208c-0.508,11.983,0.615,23.286,1.905,33.716
						l0.601,4.904c0.942,7.727,1.756,14.4,3.136,22.765c1.67,10.126,5.849,31.098,8.147,42.082
						c0.813,3.884,2.537,14.722,4.362,26.195c2.238,14.068,4.774,30.014,5.909,34.777c0.128,0.537-0.204,1.076-0.741,1.204
						C61.793,729.803,61.715,729.812,61.638,729.812z"/>
				</g>
				<g>
					<path d="M113.232,764.685c-2.915,0-9.095-0.749-11.715-1.266c-2.503-0.494-6.718-1.539-9.162-2.367l-5.213-1.768
						c-2.468-0.837-5.02-1.702-7.398-2.974c-4.511-2.413-10.471-6.865-13.673-12.126c-3.114-5.117-4.431-8.816-5.42-15.221
						c-0.085-0.546,0.29-1.057,0.836-1.141c0.541-0.082,1.057,0.29,1.141,0.836c1.059,6.859,2.505,10.136,5.152,14.486
						c2.466,4.051,7.532,8.526,12.907,11.401c2.233,1.194,4.706,2.032,7.097,2.843l5.213,1.768c2.367,0.802,6.466,1.817,8.908,2.299
						c2.6,0.514,9.135,1.313,11.669,1.224c12.191-0.353,16.184-0.777,26.685-2.297c1.021-0.155,12.878-3.948,14.199-4.395
						c8.105-2.738,10.024-4.249,13.204-6.751c0.4-0.314,0.821-0.646,1.274-0.996c2.928-2.26,3.339-3.149,4.702-6.1
						c0.329-0.712,0.709-1.533,1.184-2.506c1.417-2.896,2.285-5.002,2.285-11.487c0-0.553,0.448-1,1-1c0.552,0,1,0.447,1,1
						c0,6.788-0.94,9.2-2.488,12.366c-0.468,0.957-0.842,1.765-1.166,2.466c-1.4,3.03-1.979,4.285-5.294,6.845
						c-0.449,0.346-0.864,0.673-1.26,0.984c-3.348,2.635-5.369,4.225-13.801,7.073c-0.533,0.18-13.264,4.294-14.554,4.479
						c-10.591,1.533-14.618,1.961-26.913,2.317C113.506,764.683,113.373,764.685,113.232,764.685z"/>
				</g>
				<g>
					<path d="M178.107,729.148c-0.042,0-0.085-0.003-0.128-0.008c-0.548-0.07-0.936-0.57-0.866-1.118
						c0.51-4.001,0.691-7.045,0.837-9.49c0.105-1.772,0.197-3.304,0.384-4.665c1.41-10.235,2.054-16.412,2.736-22.952
						c0.216-2.072,0.439-4.203,0.692-6.536c1.157-10.631,2.632-21.501,4.268-31.433c0.715-4.34,1.566-8.705,2.39-12.927
						c1.355-6.947,2.757-14.132,3.563-21.302c1.493-13.296,2.703-27.989,3.595-43.674c0.645-11.327,0.516-22.993-0.393-35.664
						l-3.74-52.159c-0.04-0.551,0.375-1.029,0.926-1.068c0.546-0.037,1.029,0.375,1.069,0.926l3.74,52.159
						c0.915,12.757,1.044,24.507,0.395,35.92c-0.895,15.721-2.107,30.452-3.605,43.783c-0.814,7.251-2.224,14.476-3.586,21.462
						c-0.821,4.207-1.67,8.559-2.379,12.868c-1.63,9.898-3.1,20.729-4.253,31.325c-0.254,2.33-0.475,4.458-0.691,6.527
						c-0.684,6.556-1.329,12.749-2.744,23.018c-0.177,1.284-0.262,2.708-0.369,4.511c-0.148,2.476-0.332,5.557-0.85,9.623
						C179.034,728.779,178.603,729.148,178.107,729.148z"/>
				</g>
				<g>
					<path d="M122.285,759.259c-12.3,0-28.825-2.117-39.719-6.879c-2.14-0.935-9.138-5.147-10.924-6.979
						c-1.64-1.683-5.677-6.199-6.986-8.659c-0.961-1.806-1.684-3.777-2.383-5.685c-0.676-1.844-1.375-3.75-2.271-5.434
						c-0.259-0.487-0.074-1.093,0.413-1.352c0.489-0.262,1.093-0.074,1.353,0.413c0.96,1.806,1.684,3.777,2.383,5.685
						c0.676,1.844,1.375,3.75,2.271,5.434c1.141,2.146,4.896,6.4,6.652,8.202c1.491,1.53,8.152,5.608,10.292,6.544
						c14.905,6.515,40.563,7.972,50.59,5.775c3.05-0.669,9.199-2.317,11.963-3.208c9.763-3.144,16.639-6.212,21.021-9.377
						c5.065-3.659,8.588-9.468,10.188-16.798c0.118-0.54,0.651-0.888,1.19-0.764c0.54,0.117,0.881,0.65,0.764,1.189
						c-1.707,7.819-5.501,14.041-10.972,17.993c-6.067,4.382-15.221,7.611-21.579,9.66c-2.862,0.922-8.993,2.566-12.148,3.257
						C131.448,758.92,127.203,759.259,122.285,759.259z"/>
				</g>
				<g>
					<path d="M114.426,503.424c-13.391,0-39.671-1.652-57.201-13.382c-1.387-0.929-2.825-1.959-3.836-3.447
						c-1.017-1.496-1.56-3.415-1.613-5.701c-0.093-4.021,1.349-8.085,3.955-11.149c0.357-0.422,0.988-0.472,1.41-0.114
						c0.42,0.357,0.472,0.989,0.114,1.409c-2.292,2.696-3.561,6.271-3.479,9.808c0.044,1.895,0.471,3.451,1.268,4.624
						c0.809,1.191,2.071,2.091,3.293,2.909c6.22,4.161,24.445,13.765,59.402,13.009c20.398-0.44,32.351-2.688,49.19-9.248
						c3.45-1.345,8.391-4.544,10.755-7.825c2.797-3.88,1.859-11.017-1.893-14.409c-0.41-0.371-0.442-1.003-0.071-1.413
						c0.37-0.407,1.003-0.441,1.412-0.071c4.504,4.072,5.561,12.364,2.175,17.064c-2.616,3.631-7.842,7.034-11.651,8.518
						c-16.878,6.576-29.462,8.944-49.873,9.385C116.785,503.41,115.66,503.424,114.426,503.424z"/>
				</g>
				<g>
					<path d="M186.019,579.052c-0.017,0-0.033-0.001-0.05-0.001c-0.276-0.005-0.496-0.232-0.491-0.509
						c0.002-0.098,0.032-0.188,0.082-0.265c0.286-0.933,1.463-9.38,1.971-13.022c0.329-2.361,0.378-2.7,0.4-2.785
						c1.823-6.869,1.583-14.187,1.352-21.264c-0.029-0.873-0.057-1.745-0.082-2.614c-0.384-13.475,0.178-27.154,0.722-40.383
						c0.011-0.275,0.23-0.478,0.52-0.48c0.276,0.012,0.49,0.244,0.479,0.521c-0.543,13.212-1.104,26.873-0.721,40.313
						c0.024,0.869,0.053,1.739,0.081,2.61c0.234,7.149,0.476,14.542-1.385,21.552c-0.019,0.102-0.185,1.291-0.377,2.669
						C186.669,578.683,186.594,579.052,186.019,579.052z"/>
				</g>
				<g>
					<path d="M196.384,564.55c-0.222,0-0.425-0.149-0.483-0.374c-1.091-4.206-1.201-8.429-1.307-12.512
						c-0.113-4.373-0.23-8.895-1.582-13.296c-0.951-3.098-2.508-6.021-4.015-8.847l-7.663-14.39
						c-1.432-2.72-1.651-3.138-4.146-6.216c-0.174-0.214-0.141-0.529,0.074-0.703c0.216-0.174,0.53-0.141,0.704,0.074
						c2.557,3.154,2.816,3.646,4.254,6.379l7.66,14.385c1.528,2.868,3.109,5.834,4.088,9.024c1.391,4.532,1.51,9.123,1.626,13.563
						c0.105,4.027,0.212,8.192,1.275,12.286c0.069,0.268-0.091,0.541-0.358,0.61C196.468,564.545,196.425,564.55,196.384,564.55z"/>
				</g>
				<g>
					<path d="M147.576,591.244c-0.101,0-0.203-0.03-0.291-0.094c-0.225-0.161-0.276-0.474-0.115-0.698
						c2.378-3.313,3.296-6.607,4.27-10.096c0.454-1.628,0.924-3.311,1.561-5.1c3.696-10.375,6.689-19.743,9.149-28.64
						c3.977-14.381,8.679-25.291,14.977-38.233c0.121-0.247,0.421-0.352,0.668-0.23c0.249,0.12,0.352,0.42,0.231,0.668
						c-6.274,12.891-10.957,23.755-14.913,38.061c-2.467,8.921-5.467,18.312-9.171,28.71c-0.626,1.756-1.09,3.422-1.54,5.033
						c-0.998,3.576-1.94,6.954-4.42,10.411C147.885,591.172,147.731,591.244,147.576,591.244z"/>
				</g>
				<g>
					<path d="M93.25,591.731c-0.115,0-0.23-0.039-0.325-0.12c-0.21-0.179-0.235-0.494-0.056-0.704
						c2.554-2.992,3.722-6.146,4.958-9.486c0.609-1.645,1.238-3.346,2.061-5.118c2.185-4.71,5.088-9.106,7.895-13.357
						c2.462-3.728,5.008-7.582,7.045-11.617c0.754-1.493,1.457-3.049,2.137-4.553c0.451-0.997,0.902-1.995,1.371-2.983
						c3.334-7.033,7.543-12.101,11.999-17.465c2.166-2.608,4.407-5.306,6.634-8.336c0.164-0.223,0.477-0.271,0.699-0.107
						c0.223,0.164,0.271,0.477,0.107,0.699c-2.245,3.055-4.494,5.763-6.67,8.383c-4.415,5.314-8.584,10.335-11.865,17.254
						c-0.466,0.983-0.915,1.976-1.363,2.968c-0.684,1.514-1.392,3.079-2.155,4.592c-2.063,4.086-4.625,7.966-7.103,11.717
						c-2.787,4.221-5.67,8.585-7.823,13.226c-0.806,1.737-1.428,3.419-2.03,5.045c-1.268,3.426-2.466,6.661-5.135,9.788
						C93.531,591.671,93.391,591.731,93.25,591.731z"/>
				</g>
				<g>
					<path d="M54.19,577.394c-0.086,0-0.174-0.023-0.253-0.069c-0.238-0.141-0.317-0.446-0.177-0.685l0.496-0.842
						c12.338-20.925,26.32-44.642,35.799-58.858c0.152-0.229,0.462-0.291,0.693-0.139c0.23,0.153,0.292,0.464,0.139,0.693
						c-9.463,14.194-23.439,37.898-35.77,58.812l-0.496,0.842C54.528,577.306,54.362,577.394,54.19,577.394z"/>
				</g>
				<g>
					<path d="M147.92,591.244c-0.204,0-0.396-0.126-0.47-0.329c-0.995-2.729-2.549-4.354-4.638-6.352
						c-0.589-0.563-1.207-1.096-1.821-1.626c-1.673-1.442-3.403-2.934-4.46-5c-2.567-5.018-5.891-9.615-9.105-14.06
						c-1.857-2.567-3.775-5.222-5.551-7.954c-4.436-6.828-9.023-13.89-14.795-19.817c-0.478-0.49-0.946-0.892-1.399-1.279
						c-0.758-0.648-1.474-1.261-2.171-2.212c-1.352-1.845-2.93-3.631-4.601-5.522c-2.589-2.932-5.267-5.964-7.026-9.227
						c-0.131-0.243-0.041-0.546,0.203-0.678c0.244-0.13,0.546-0.04,0.677,0.203c1.705,3.162,4.344,6.149,6.896,9.039
						c1.612,1.825,3.279,3.712,4.658,5.593c0.629,0.858,1.302,1.435,2.015,2.044c0.47,0.402,0.956,0.818,1.466,1.342
						c5.84,5.997,10.455,13.1,14.917,19.969c1.761,2.712,3.673,5.355,5.522,7.913c3.236,4.476,6.583,9.103,9.186,14.19
						c0.968,1.892,2.549,3.255,4.223,4.698c0.628,0.541,1.258,1.085,1.86,1.66c2.116,2.025,3.819,3.806,4.886,6.733
						c0.095,0.259-0.039,0.546-0.298,0.641C148.035,591.234,147.977,591.244,147.92,591.244z"/>
				</g>
				<g>
					<path d="M93.251,591.731c-0.186,0-0.364-0.104-0.451-0.282c-6.87-14.178-12.119-25.207-18.615-39.625
						c-0.862-1.914-1.771-3.92-2.712-5.994c-5.762-12.713-12.933-28.533-17.308-40.894c-0.092-0.261,0.044-0.546,0.304-0.639
						c0.262-0.092,0.547,0.045,0.638,0.305c4.361,12.32,11.522,28.119,17.276,40.814c0.94,2.075,1.85,4.082,2.713,5.997
						c6.492,14.406,11.737,25.429,18.604,39.6c0.12,0.248,0.016,0.547-0.232,0.668C93.398,591.715,93.324,591.731,93.251,591.731z"
						/>
				</g>
				<g>
					<path d="M54.191,577.394c-0.214,0-0.412-0.139-0.478-0.354c-2.945-9.629-4.294-17.633-5.722-26.108
						c-0.926-5.494-1.883-11.176-3.328-17.564c-2.048-9.058-2.748-20.936-2.138-36.313c0.011-0.276,0.244-0.469,0.52-0.48
						c0.276,0.012,0.491,0.244,0.479,0.52c-0.605,15.289,0.087,27.082,2.115,36.053c1.451,6.416,2.41,12.111,3.338,17.619
						c1.423,8.442,2.766,16.416,5.692,25.981c0.081,0.265-0.068,0.544-0.332,0.625C54.289,577.387,54.239,577.394,54.191,577.394z"
						/>
				</g>
				<g>
					<path d="M38.639,543.786c-0.026,0-0.052-0.002-0.079-0.006c-0.272-0.044-0.458-0.3-0.415-0.572
						c0.902-5.666,6.995-18.694,11.443-28.207c2.319-4.96,4.323-9.244,4.56-10.338c0.059-0.27,0.327-0.441,0.595-0.383
						c0.27,0.058,0.441,0.324,0.383,0.594c-0.261,1.205-2.094,5.125-4.631,10.551c-4.423,9.459-10.482,22.413-11.362,27.94
						C39.093,543.61,38.88,543.786,38.639,543.786z"/>
				</g>
				<g>
					<path d="M185.978,579.051c-0.18,0-0.354-0.097-0.443-0.267c-2.937-5.577-6.858-10.472-10.65-15.205
						c-4.39-5.479-8.93-11.146-11.947-17.885c-1.165-2.6-3.067-4.82-4.907-6.967c-3.596-4.195-6.714-7.193-9.729-10.093
						c-3.032-2.917-6.167-5.933-9.794-10.164c-0.18-0.209-0.156-0.525,0.054-0.705c0.21-0.178,0.525-0.155,0.705,0.055
						c3.596,4.195,6.714,7.193,9.729,10.093c3.032,2.917,6.168,5.933,9.794,10.164c1.886,2.2,3.837,4.476,5.061,7.209
						c2.965,6.621,7.464,12.237,11.814,17.668c3.821,4.769,7.773,9.702,10.754,15.363c0.129,0.245,0.035,0.547-0.21,0.676
						C186.136,579.032,186.057,579.051,185.978,579.051z"/>
				</g>
				<g>
					<path d="M120.937,594.063c-12.577,0-27.23-0.938-41.541-4.925c-15.646-4.356-31.641-10.332-42.63-24.425
						c-0.34-0.436-0.262-1.065,0.174-1.404c0.435-0.337,1.063-0.262,1.403,0.174c10.633,13.637,26.272,19.464,41.589,23.729
						c17.98,5.008,36.585,5.132,50.784,4.684c5.823-0.186,21.832-2.848,27.822-4.288c7.187-1.727,14.846-3.807,22.161-7.308
						c2.793-1.337,5.681-2.719,7.998-4.761c3.265-2.879,7.158-9.786,7.283-14.377c0.015-0.553,0.466-0.959,1.027-0.973
						c0.552,0.016,0.987,0.476,0.972,1.027c-0.141,5.164-4.318,12.612-7.96,15.822c-2.525,2.226-5.54,3.669-8.457,5.066
						c-7.482,3.58-15.263,5.695-22.557,7.448c-6.063,1.458-22.299,4.153-28.226,4.341
						C127.69,593.993,124.391,594.063,120.937,594.063z"/>
				</g>
				<g>
					<path d="M169.556,743.405c-0.019,0-0.038-0.001-0.057-0.003c-0.274-0.031-0.472-0.279-0.441-0.554l0.215-1.897
						c1.44-12.735,2.929-25.904,5.468-38.78c1.192-6.046,2.075-12.699,2.929-19.134c0.651-4.906,1.324-9.979,2.122-14.66
						l0.437-2.565c2.576-15.075,5.496-32.161,6.252-48.201c0.689-14.629,0.017-23.623-0.522-30.851
						c-0.242-3.244-0.451-6.047-0.49-8.788c-0.004-0.276,0.217-0.503,0.493-0.507c0.002,0,0.004,0,0.007,0
						c0.273,0,0.496,0.219,0.5,0.493c0.038,2.711,0.246,5.499,0.487,8.728c0.542,7.254,1.215,16.282,0.523,30.972
						c-0.759,16.102-3.684,33.22-6.265,48.322l-0.438,2.564c-0.794,4.662-1.466,9.727-2.116,14.624
						c-0.855,6.449-1.74,13.118-2.938,19.195c-2.531,12.835-4.018,25.983-5.456,38.699l-0.215,1.898
						C170.023,743.217,169.807,743.405,169.556,743.405z"/>
				</g>
				<g>
					<path d="M144.544,755.083c-0.003,0-0.006,0-0.008,0c-0.276-0.005-0.496-0.232-0.492-0.509
						c0.128-7.508,0.395-15.072,0.653-22.387c0.432-12.249,0.879-24.916,0.674-37.515c-0.123-7.6,0.823-26.866,1.658-43.865
						c0.617-12.546,1.199-24.397,1.221-29.079c0.044-9.086-0.33-16.206-0.603-21.404c-0.243-4.629-0.418-7.974-0.169-10.122
						c0.032-0.273,0.282-0.466,0.554-0.439c0.274,0.032,0.471,0.28,0.439,0.555c-0.24,2.065-0.066,5.375,0.174,9.955
						c0.273,5.21,0.648,12.346,0.604,21.46c-0.023,4.706-0.605,16.567-1.222,29.125c-0.834,16.983-1.78,36.232-1.657,43.8
						c0.205,12.624-0.243,25.304-0.675,37.565c-0.258,7.31-0.524,14.869-0.652,22.369
						C145.039,754.864,144.816,755.083,144.544,755.083z"/>
				</g>
				<g>
					<path d="M103.239,756.87c-0.257,0-0.475-0.196-0.498-0.457c-1.823-21.06-3.564-42.922-5.323-66.835
						c-0.335-4.555-0.682-9.108-1.029-13.661c-2.111-27.726-4.294-56.394-3.639-84.698c0.006-0.276,0.212-0.511,0.512-0.488
						c0.276,0.007,0.495,0.235,0.488,0.512c-0.655,28.254,1.527,56.897,3.636,84.599c0.347,4.554,0.694,9.108,1.029,13.663
						c1.759,23.91,3.5,45.768,5.322,66.823c0.024,0.275-0.18,0.518-0.455,0.541C103.268,756.869,103.253,756.87,103.239,756.87z"/>
				</g>
				<g>
					<path d="M68.976,741.44c-0.254,0-0.472-0.193-0.497-0.451c-1.434-14.602-5.281-43.017-7.826-61.82
						c-0.814-6.011-1.479-10.926-1.863-13.896c-0.773-5.995-1.088-9.771-1.421-13.769c-0.47-5.64-0.956-11.472-2.772-24.271
						c-1.744-12.292-2.567-33.749-0.767-50.975c0.028-0.274,0.269-0.482,0.549-0.445c0.275,0.028,0.474,0.274,0.445,0.549
						c-1.792,17.146-0.972,38.499,0.763,50.73c1.82,12.828,2.307,18.675,2.778,24.328c0.332,3.986,0.646,7.751,1.417,13.723
						c0.383,2.971,1.048,7.883,1.861,13.892c2.547,18.81,6.395,47.237,7.83,61.856c0.027,0.274-0.174,0.519-0.449,0.547
						C69.009,741.44,68.992,741.44,68.976,741.44z"/>
				</g>
				<g>
					<path d="M138.93,756.632c-0.029,0-0.059-0.003-0.089-0.008c-0.272-0.049-0.453-0.309-0.404-0.581
						c1.109-6.169,1.53-13.903,1.25-22.988c-0.149-4.859,0.402-9.762,0.935-14.503c0.146-1.305,0.293-2.608,0.426-3.913
						c0.701-6.884,1.021-13.914,1.33-20.712c0.789-17.337,1.67-34.758,2.521-51.606c0.852-16.847,1.732-34.267,2.521-51.6
						c0.013-0.276,0.259-0.5,0.522-0.477c0.276,0.012,0.489,0.246,0.477,0.521c-0.789,17.337-1.67,34.758-2.521,51.605
						c-0.852,16.847-1.732,34.267-2.521,51.6c-0.31,6.813-0.63,13.856-1.334,20.768c-0.133,1.308-0.28,2.615-0.427,3.923
						c-0.529,4.706-1.076,9.572-0.929,14.36c0.282,9.155-0.144,16.959-1.266,23.197C139.378,756.462,139.167,756.632,138.93,756.632
						z"/>
				</g>
				<g>
					<path d="M97.418,756.091c-0.276,0-0.5-0.224-0.5-0.5c0-1.331,0.083-2.431,0.164-3.494c0.128-1.702,0.24-3.173-0.066-4.996
						c-0.917-5.46-1.148-11.066-1.372-16.489l-0.652-15.761c-1.504-36.378-2.946-79.514-2.241-123.628
						c0.004-0.273,0.228-0.492,0.5-0.492c0.002,0,0.005,0,0.008,0c0.276,0.005,0.497,0.231,0.492,0.508
						c-0.705,44.089,0.737,87.207,2.24,123.571l0.652,15.761c0.223,5.392,0.453,10.967,1.359,16.364
						c0.326,1.943,0.211,3.47,0.077,5.237c-0.079,1.045-0.161,2.125-0.161,3.419C97.918,755.867,97.694,756.091,97.418,756.091z"/>
				</g>
				<g>
					<path d="M76.58,748.295c-0.225,0-0.429-0.153-0.485-0.381c-2.809-11.481-4.346-22.14-5.974-33.425
						c-0.492-3.41-0.991-6.869-1.534-10.412l-1.555-10.098c-6.135-39.759-15.407-99.842-13.337-117.146
						c0.033-0.273,0.276-0.476,0.556-0.436c0.274,0.032,0.47,0.281,0.437,0.556c-2.054,17.167,7.205,77.169,13.332,116.873
						l1.555,10.099c0.544,3.547,1.043,7.009,1.536,10.422c1.624,11.26,3.158,21.896,5.956,33.329
						c0.065,0.268-0.099,0.539-0.367,0.604C76.659,748.29,76.619,748.295,76.58,748.295z"/>
				</g>
				<g>
					<path d="M166.379,745.838c-0.273,0-0.497-0.22-0.5-0.494c-0.152-13.505,3.778-37.345,6.457-50.074
						c2.06-9.791,6.008-35.346,7.161-43.407c0.481-3.364,1.074-6.773,1.647-10.069c1.123-6.456,2.283-13.133,2.656-19.757
						c0.206-3.656,0.479-7.338,0.767-11.234c0.8-10.783,1.627-21.934,0.912-32.216c-0.019-0.276,0.189-0.515,0.464-0.534
						c0.265-0.023,0.514,0.188,0.534,0.464c0.72,10.354-0.11,21.542-0.912,32.36c-0.289,3.892-0.562,7.568-0.767,11.217
						c-0.376,6.682-1.541,13.387-2.669,19.872c-0.572,3.289-1.163,6.69-1.642,10.04c-1.154,8.069-5.107,33.657-7.172,43.47
						c-2.669,12.686-6.586,36.434-6.436,49.857c0.003,0.276-0.218,0.503-0.494,0.506
						C166.383,745.838,166.381,745.838,166.379,745.838z"/>
				</g>
			</g>
			<g>
				<path d="M114.472,762.503c-0.195,0-0.38-0.114-0.46-0.305l-0.53-1.254c-0.91,0.482-1.916,0.791-2.94,0.903
					c-0.138,0.015-0.277-0.028-0.382-0.119c-0.105-0.092-0.167-0.223-0.172-0.361l-0.057-1.744l-3.057,0.746
					c-0.189,0.048-0.391-0.022-0.512-0.178c-0.121-0.155-0.14-0.366-0.048-0.54c0.092-0.176,0.074-0.311-0.063-0.468
					c-0.34-0.39-1.248-0.656-1.908-0.414c-0.264,0.096-0.532,0.214-0.802,0.332c-1.045,0.457-2.23,0.975-3.33,0.34
					c-0.144-0.083-0.237-0.231-0.249-0.398c-0.012-0.166,0.06-0.326,0.19-0.429c0.03-0.023,0.027-0.08,0.02-0.123
					c-0.028-0.159-0.16-0.325-0.295-0.369c-0.375-0.126-0.844,0.056-1.335,0.265l-4.14,1.771c-0.172,0.073-0.373,0.045-0.518-0.077
					c-0.144-0.122-0.208-0.315-0.165-0.498l0.527-2.234c-1.265,0.254-2.462,0.788-3.497,1.566c-0.157,0.117-0.367,0.135-0.539,0.04
					c-0.171-0.093-0.273-0.277-0.261-0.473l0.118-1.785l-1.22-0.195c-0.209-0.033-0.374-0.194-0.412-0.402l-0.205-1.118
					c-1.154,0.389-2.351,0.64-3.565,0.745c-0.144,0.011-0.289-0.039-0.394-0.141c-0.104-0.103-0.159-0.245-0.149-0.391
					c0.045-0.67-0.054-1.342-0.288-1.967c-0.908,0.291-1.773,0.699-2.578,1.214c-0.167,0.107-0.383,0.107-0.55-0.007
					c-0.165-0.111-0.248-0.312-0.211-0.508c0.129-0.678,0.072-1.389-0.159-2.038l-2.389,0.544c-0.145,0.036-0.293,0.002-0.412-0.088
					c-0.118-0.088-0.19-0.224-0.199-0.37l-0.083-1.444c-0.522-0.108-1.082-0.058-1.575,0.152c-0.151,0.063-0.323,0.051-0.462-0.036
					c-0.139-0.088-0.226-0.237-0.233-0.401c-0.027-0.589,0.054-1.176,0.234-1.732l-2.385,0.205
					c-0.206,0.014-0.404-0.095-0.494-0.282c-0.238-0.499-0.344-1.055-0.317-1.604l-1.019,0.574c-0.167,0.094-0.372,0.086-0.53-0.025
					c-0.157-0.108-0.239-0.297-0.21-0.486l0.335-2.209l-1.292,0.645c-0.154,0.077-0.339,0.068-0.485-0.022
					c-0.147-0.091-0.237-0.252-0.238-0.425l-0.006-2.271c-0.001-0.276,0.222-0.501,0.499-0.502c0,0,0.001,0,0.001,0
					c0.275,0,0.499,0.223,0.5,0.498l0.004,1.467l1.434-0.715c0.167-0.083,0.366-0.066,0.518,0.043c0.151,0.11,0.228,0.295,0.2,0.48
					l-0.325,2.146l1.113-0.628c0.188-0.105,0.424-0.078,0.583,0.066c0.16,0.146,0.207,0.378,0.118,0.575
					c-0.232,0.514-0.265,1.107-0.101,1.645l2.84-0.244c0.18-0.015,0.359,0.07,0.461,0.224c0.101,0.153,0.109,0.35,0.022,0.512
					c-0.229,0.424-0.376,0.887-0.435,1.361c0.627-0.118,1.286-0.078,1.889,0.131c0.191,0.066,0.324,0.242,0.335,0.444l0.069,1.209
					l2.223-0.506c0.232-0.052,0.462,0.063,0.563,0.272c0.299,0.627,0.46,1.318,0.474,2.013c0.769-0.408,1.58-0.733,2.423-0.967
					c0.232-0.065,0.48,0.047,0.585,0.265c0.34,0.709,0.53,1.483,0.559,2.268c1.13-0.144,2.241-0.42,3.308-0.827
					c0.138-0.052,0.293-0.041,0.423,0.032c0.129,0.073,0.219,0.199,0.246,0.346l0.248,1.349l1.319,0.21
					c0.255,0.041,0.438,0.269,0.421,0.527l-0.081,1.228c1.168-0.694,2.475-1.137,3.832-1.293c0.163-0.014,0.323,0.044,0.431,0.165
					c0.108,0.121,0.15,0.288,0.113,0.446l-0.471,1.995l3.229-1.381c0.509-0.216,1.277-0.544,2.04-0.296
					c0.487,0.16,0.876,0.621,0.968,1.147c0.024,0.14,0.025,0.275,0.005,0.405c0.577,0.078,1.264-0.227,1.977-0.539
					c0.29-0.127,0.579-0.253,0.862-0.355c0.985-0.358,2.362-0.039,3.003,0.696c0.187,0.214,0.303,0.451,0.347,0.697l2.941-0.718
					c0.144-0.038,0.3-0.004,0.421,0.087c0.12,0.092,0.193,0.231,0.197,0.382l0.059,1.8c0.881-0.165,1.732-0.496,2.488-0.97
					c0.124-0.077,0.276-0.097,0.416-0.053c0.14,0.044,0.253,0.147,0.31,0.282l0.557,1.316l3.245-1.35
					c0.068-0.028,0.137-0.045,0.217-0.037c2.651,0.131,5.388-0.874,7.322-2.694c0.116-0.109,0.275-0.156,0.436-0.127
					c0.157,0.029,0.291,0.133,0.359,0.278l0.571,1.211c1.246-0.966,3.001-1.231,4.473-0.642l1.81-0.653
					c0.153-0.055,0.324-0.032,0.458,0.061c0.133,0.094,0.212,0.247,0.212,0.41l-0.001,0.627l1.295-0.76
					c0.165-0.098,0.374-0.092,0.533,0.018c0.159,0.107,0.243,0.298,0.214,0.488l-0.188,1.251c1.394-0.757,2.763-1.573,4.081-2.434
					c0.12-0.079,0.267-0.102,0.406-0.064c0.139,0.039,0.253,0.134,0.316,0.263l0.563,1.153c1.283-1.851,3.348-3.114,5.594-3.385
					c2.388-1.452,5.113-2.371,7.893-2.659l1.164-0.428c0.036-0.014,0.074-0.022,0.112-0.027c1.823-0.223,3.517-1.268,4.531-2.799
					c0.112-0.171,0.316-0.253,0.519-0.213c0.401,0.084,0.756,0.371,0.948,0.769c0.033,0.068,0.061,0.139,0.082,0.209
					c4.226-2.006,8.028-4.941,11.035-8.525c0.177-0.211,0.493-0.24,0.704-0.061c0.212,0.178,0.239,0.492,0.062,0.704
					c-3.273,3.901-7.462,7.058-12.114,9.127c-0.193,0.086-0.419,0.042-0.565-0.112c-0.146-0.152-0.18-0.38-0.085-0.569
					c0.045-0.09,0.038-0.219-0.02-0.338c-0.006-0.013-0.013-0.024-0.02-0.036c-1.18,1.535-2.975,2.578-4.898,2.83l-1.171,0.431
					c-0.039,0.015-0.08,0.023-0.122,0.027c-2.689,0.27-5.327,1.162-7.627,2.581c-0.064,0.039-0.136,0.063-0.211,0.071
					c-2.243,0.236-4.37,1.68-5.418,3.678c-0.088,0.167-0.25,0.287-0.45,0.268c-0.188-0.003-0.359-0.111-0.442-0.28l-0.717-1.47
					c-1.475,0.942-3.007,1.829-4.563,2.642c-0.167,0.088-0.369,0.073-0.521-0.036c-0.153-0.109-0.232-0.295-0.205-0.481l0.181-1.199
					l-1.146,0.672c-0.154,0.092-0.346,0.092-0.502,0.002c-0.155-0.089-0.251-0.255-0.251-0.434l0.001-0.789l-1.325,0.479
					c-0.125,0.044-0.259,0.038-0.379-0.017c-1.321-0.61-3.06-0.261-4.041,0.815c-0.113,0.122-0.279,0.184-0.444,0.156
					c-0.165-0.024-0.307-0.13-0.377-0.281l-0.577-1.223c-2.055,1.693-4.775,2.617-7.433,2.52l-3.601,1.497
					C114.601,762.49,114.536,762.503,114.472,762.503z"/>
			</g>
			<g>
				<path d="M102.264,763.062c-0.118,0-0.233-0.042-0.324-0.119c-0.122-0.104-0.187-0.26-0.174-0.42l0.294-3.755
					c-1.448,0.429-2.822,1.061-4.093,1.884c-0.231,0.148-0.542,0.084-0.691-0.148c-0.15-0.231-0.083-0.541,0.148-0.691
					c1.56-1.01,3.265-1.749,5.069-2.198c0.153-0.037,0.321,0,0.444,0.104c0.123,0.104,0.188,0.261,0.175,0.421l-0.294,3.762
					c1.015-0.286,2.005-0.661,2.953-1.116c0.14-0.066,0.303-0.065,0.441,0.005c0.138,0.069,0.237,0.2,0.266,0.353
					c0.013,0.067,0.045,0.145,0.184,0.207c0.282,0.123,0.764,0.066,1.078-0.128c0.199-0.123,0.388-0.272,0.577-0.419
					c0.472-0.369,1.007-0.787,1.703-0.859c0.368-0.04,0.721,0.031,1.03,0.094c0.161,0.032,0.321,0.065,0.483,0.08
					c0.847,0.067,1.655-0.39,2.515-0.881c0.96-0.55,1.951-1.11,3.115-1.007c0.256,0.025,0.452,0.239,0.453,0.496
					c0.002,0.621,0.004,1.264,0.251,1.789c0.19,0.406,0.628,0.789,1.073,0.719c0.274-0.057,0.531,0.135,0.578,0.406
					c0.047,0.273-0.135,0.531-0.407,0.578c-0.946,0.164-1.794-0.521-2.149-1.279c-0.26-0.556-0.323-1.148-0.339-1.707
					c-0.69,0.079-1.367,0.467-2.078,0.873c-0.955,0.546-1.943,1.104-3.099,1.009c-0.198-0.018-0.396-0.056-0.592-0.096
					c-0.263-0.053-0.512-0.102-0.73-0.08c-0.41,0.043-0.789,0.339-1.19,0.653c-0.218,0.17-0.438,0.34-0.667,0.482
					c-0.597,0.368-1.421,0.448-2.005,0.191c-0.204-0.089-0.373-0.215-0.502-0.371c-1.085,0.487-2.219,0.876-3.377,1.156
					C102.342,763.057,102.303,763.062,102.264,763.062z"/>
			</g>
			<g>
				<path d="M122.219,763.879c-0.116,0-0.233-0.04-0.328-0.122c-0.209-0.182-0.231-0.497-0.05-0.706
					c1.465-1.688,3.364-2.947,5.489-3.642c0.119-0.04,0.246-0.032,0.36,0.02c0.645,0.289,0.586,1.007,0.55,1.436
					c-0.013,0.157-0.035,0.42,0.001,0.494c-0.012-0.025,0.063-0.036,0.27-0.134l7.417-3.519c0.251-0.116,0.548-0.012,0.666,0.238
					c0.119,0.249,0.012,0.547-0.237,0.666l-7.418,3.519c-0.233,0.11-0.718,0.341-1.187,0.09c-0.601-0.316-0.545-0.991-0.507-1.438
					c0.007-0.082,0.016-0.194,0.018-0.291c-1.8,0.659-3.407,1.765-4.666,3.216C122.498,763.82,122.358,763.879,122.219,763.879z"/>
			</g>
			<g>
				<path d="M144.407,759.913c-0.074,0-0.147-0.017-0.216-0.049c-0.162-0.078-0.269-0.235-0.282-0.414
					c-0.105-1.43,0.565-2.912,1.71-3.775c0.22-0.165,0.534-0.123,0.7,0.099c0.167,0.22,0.123,0.533-0.098,0.7
					c-0.616,0.464-1.053,1.161-1.232,1.915c2.271-1.658,4.36-3.561,6.22-5.666c0.126-0.144,0.32-0.2,0.503-0.152
					c0.183,0.049,0.323,0.196,0.361,0.382c0.092,0.447,0.088,0.906-0.005,1.347c0.479-0.231,0.932-0.515,1.354-0.848
					c0.188-0.147,0.454-0.142,0.635,0.014c0.181,0.155,0.227,0.417,0.11,0.625c-0.151,0.269-0.251,0.565-0.296,0.872
					c1.59-1.267,3.049-2.696,4.347-4.259c0.135-0.163,0.356-0.221,0.554-0.151c0.198,0.071,0.33,0.259,0.331,0.469l0.004,1.09
					c1.393-1.19,2.6-2.569,3.596-4.113c0.109-0.169,0.31-0.254,0.508-0.222c0.198,0.035,0.356,0.185,0.4,0.383
					c0.059,0.261,0.082,0.527,0.072,0.793l2.122-1.734c0.174-0.141,0.42-0.15,0.604-0.021c0.184,0.129,0.259,0.364,0.185,0.575
					l-0.401,1.141c0.034-0.042,0.066-0.087,0.094-0.133c0.1-0.164,0.281-0.261,0.477-0.238c0.192,0.019,0.355,0.146,0.421,0.327
					c0.289,0.124,0.824-0.07,1.204-0.413l2.965-2.676c0.205-0.187,0.521-0.169,0.706,0.036c0.185,0.205,0.169,0.521-0.036,0.706
					l-2.965,2.676c-0.51,0.461-1.369,0.876-2.05,0.708c-0.1-0.025-0.194-0.062-0.279-0.11c-0.377,0.342-0.867,0.56-1.376,0.596
					c-0.168,0.01-0.331-0.061-0.433-0.195c-0.102-0.135-0.13-0.31-0.074-0.47l0.213-0.606l-2.111,1.725
					c-0.197,0.162-0.484,0.149-0.666-0.029c-0.098-0.096-0.148-0.222-0.15-0.351c-0.95,1.145-2.026,2.178-3.217,3.088
					c-0.151,0.114-0.355,0.137-0.524,0.051c-0.17-0.084-0.279-0.257-0.279-0.446l-0.003-0.8c-1.334,1.47-2.811,2.811-4.404,3.998
					c-0.137,0.102-0.317,0.127-0.477,0.066c-0.16-0.062-0.277-0.199-0.312-0.366c-0.07-0.34-0.088-0.69-0.056-1.037
					c-0.496,0.271-1.018,0.49-1.563,0.657c-0.203,0.062-0.425-0.012-0.55-0.184c-0.126-0.172-0.129-0.404-0.007-0.58
					c0.098-0.142,0.179-0.295,0.242-0.457c-1.902,2.001-4.012,3.804-6.288,5.372C144.606,759.884,144.507,759.913,144.407,759.913z"
					/>
			</g>
			<g>
				<g>
					<g>
						<path d="M46.621,496.089c-0.104,0-0.21-0.032-0.299-0.1c-0.221-0.166-0.266-0.479-0.101-0.7
							c0.174-0.232,0.321-0.483,0.437-0.748l-1.828,1.047c-0.171,0.1-0.384,0.086-0.544-0.029c-0.159-0.117-0.235-0.315-0.194-0.509
							c0.177-0.827,0.471-1.62,0.871-2.356c-0.389,0.139-0.79,0.243-1.197,0.312c-0.172,0.032-0.342-0.033-0.457-0.161
							c-0.114-0.129-0.154-0.308-0.105-0.474c0.122-0.413,0.265-0.817,0.43-1.212c-0.628,0.259-1.313,0.378-2.003,0.341
							c-0.164-0.01-0.313-0.1-0.399-0.24c-0.085-0.142-0.095-0.315-0.027-0.465l2.346-5.185c-0.546,0.179-1.105,0.316-1.672,0.415
							c-0.159,0.027-0.324-0.024-0.439-0.141c-0.115-0.115-0.167-0.279-0.138-0.44c0.503-2.829,2.118-5.431,4.431-7.137
							c0.222-0.163,0.535-0.116,0.699,0.105c0.164,0.223,0.117,0.535-0.105,0.699c-1.907,1.407-3.294,3.482-3.881,5.774
							c0.637-0.156,1.26-0.368,1.859-0.636c0.188-0.086,0.411-0.044,0.558,0.104c0.146,0.148,0.187,0.369,0.101,0.559l-2.51,5.546
							c0.887-0.149,1.725-0.638,2.279-1.344c0.075-0.11,0.151-0.22,0.229-0.328c0.158-0.219,0.46-0.273,0.684-0.122
							c0.224,0.15,0.289,0.45,0.146,0.679c-0.078,0.126-0.163,0.248-0.253,0.365c-0.441,0.66-0.806,1.364-1.091,2.103
							c0.685-0.22,1.33-0.559,1.898-1.002c0.206-0.159,0.501-0.136,0.677,0.058c0.176,0.193,0.173,0.49-0.006,0.68
							c-0.699,0.741-1.243,1.609-1.604,2.554l1.789-1.025c0.165-0.095,0.367-0.088,0.524,0.017c0.158,0.103,0.243,0.288,0.221,0.475
							c-0.099,0.84-0.419,1.642-0.926,2.319C46.923,496.02,46.773,496.089,46.621,496.089z"/>
					</g>
					<g>
						<path d="M65.624,508.115c-0.186,0-0.358-0.104-0.444-0.271c-0.092-0.179-0.068-0.395,0.06-0.549l0.924-1.111
							c-0.907,0.251-1.83,0.456-2.758,0.613c-0.228,0.041-0.444-0.08-0.539-0.286c-0.094-0.206-0.038-0.449,0.138-0.593
							c0.786-0.646,1.499-1.37,2.13-2.16c-1.72,0.541-3.365,1.29-4.908,2.233c-0.21,0.126-0.481,0.084-0.641-0.102
							c-0.16-0.186-0.16-0.461-0.001-0.648c0.147-0.173,0.299-0.341,0.457-0.503l-0.252,0.075c-0.217,0.065-0.445-0.022-0.566-0.21
							c-0.12-0.189-0.1-0.435,0.049-0.602l1.552-1.736l-3.13,0.604c-0.233,0.041-0.463-0.08-0.556-0.297
							c-0.092-0.218-0.019-0.47,0.176-0.604c0.486-0.339,0.916-0.752,1.273-1.223l-2.921,0.661
							c-0.206,0.049-0.423-0.043-0.536-0.224c-0.112-0.182-0.097-0.415,0.038-0.58l0.937-1.146l-3.724,0.991
							c-0.216,0.055-0.448-0.037-0.561-0.232c-0.113-0.194-0.082-0.441,0.076-0.602l1.711-1.737l-3.873,1.118
							c-0.233,0.069-0.482-0.043-0.588-0.261c-0.106-0.219-0.041-0.482,0.156-0.624c0.297-0.216,0.581-0.449,0.849-0.697
							l-2.261,0.775c-0.22,0.075-0.46-0.009-0.584-0.204c-0.063-0.099-0.087-0.213-0.075-0.323l-0.163,0.09
							c-0.229,0.125-0.515,0.053-0.658-0.163c-0.143-0.218-0.096-0.509,0.109-0.669c0.454-0.355,0.881-0.74,1.28-1.153l-1.596,0.567
							c-0.22,0.076-0.467-0.008-0.592-0.208c-0.124-0.199-0.092-0.459,0.077-0.622l0.246-0.239
							c-0.217,0.105-0.475,0.039-0.618-0.154c-0.144-0.193-0.128-0.462,0.037-0.639c0.745-0.797,1.59-1.496,2.511-2.078
							c0.234-0.145,0.543-0.077,0.69,0.155c0.078,0.124,0.095,0.268,0.06,0.398c0.128,0.022,0.247,0.093,0.327,0.206
							c0.141,0.2,0.115,0.475-0.061,0.646l-0.848,0.824l1.157-0.411c0.204-0.073,0.436-0.005,0.567,0.171
							c0.131,0.175,0.134,0.414,0.006,0.592c-0.081,0.112-0.163,0.222-0.246,0.331c0.171-0.027,0.35,0.046,0.461,0.192
							c0.15,0.196,0.134,0.474-0.038,0.651l-0.406,0.42l2.083-0.714c0.207-0.072,0.434,0,0.563,0.175
							c0.13,0.175,0.131,0.414,0.004,0.59c-0.205,0.284-0.423,0.557-0.655,0.817l3.639-1.051c0.221-0.06,0.453,0.029,0.568,0.225
							c0.116,0.195,0.086,0.444-0.073,0.607l-1.767,1.794l3.447-0.918c0.208-0.054,0.431,0.03,0.549,0.213
							c0.117,0.182,0.104,0.419-0.033,0.587l-0.996,1.219l2.655-0.601c0.188-0.043,0.382,0.025,0.501,0.176
							c0.12,0.15,0.142,0.355,0.059,0.528c-0.231,0.482-0.519,0.932-0.857,1.342l2.869-0.555c0.214-0.038,0.424,0.059,0.53,0.244
							c0.106,0.186,0.081,0.42-0.062,0.58l-1.357,1.519l1.047-0.314c0.241-0.072,0.499,0.046,0.601,0.276
							c0.029,0.066,0.043,0.137,0.043,0.206c1.09-0.454,2.214-0.824,3.367-1.108c0.199-0.05,0.409,0.028,0.527,0.195
							c0.119,0.168,0.124,0.391,0.011,0.563c-0.536,0.823-1.146,1.591-1.825,2.296c0.844-0.201,1.677-0.444,2.491-0.726
							c0.211-0.073,0.447,0.004,0.575,0.189c0.127,0.185,0.117,0.431-0.026,0.603l-1.25,1.503l4.215-0.318
							c0.271-0.013,0.516,0.187,0.536,0.461c0.021,0.275-0.186,0.516-0.461,0.537l-5.391,0.406
							C65.649,508.115,65.636,508.115,65.624,508.115z"/>
					</g>
					<g>
						<path d="M113.75,516.965c-0.146,0-0.29-0.063-0.388-0.183c-0.166-0.204-0.146-0.501,0.045-0.681
							c0.874-0.82,1.639-1.769,2.263-2.798c-1.932,1.297-3.944,2.489-6.004,3.557c-0.206,0.105-0.46,0.058-0.61-0.12
							c-0.151-0.177-0.16-0.434-0.022-0.621l1.282-1.739c-1.049,0.695-2.144,1.321-3.276,1.874c-0.222,0.108-0.489,0.039-0.63-0.164
							c-0.141-0.203-0.113-0.478,0.066-0.648c0.819-0.777,1.561-1.627,2.221-2.539l-5.628,3.12c-0.226,0.125-0.51,0.058-0.656-0.156
							c-0.145-0.214-0.104-0.503,0.096-0.667c1.402-1.155,2.686-2.444,3.833-3.849l-6.584,3.058c-0.21,0.099-0.46,0.038-0.604-0.145
							c-0.144-0.183-0.143-0.439,0.003-0.621l0.233-0.291c-1.2,0.75-2.446,1.428-3.729,2.026c-0.215,0.099-0.469,0.037-0.611-0.153
							c-0.142-0.189-0.132-0.451,0.023-0.629l1.198-1.368c-1.391,0.673-2.819,1.27-4.271,1.785
							c-0.222,0.075-0.469-0.009-0.593-0.209c-0.124-0.201-0.09-0.461,0.079-0.624l1.437-1.376c-1.795,1.028-3.621,2.01-5.462,2.934
							c-0.218,0.107-0.482,0.046-0.626-0.15c-0.145-0.195-0.127-0.467,0.042-0.643l2.671-2.789
							c-1.019,0.517-2.075,0.962-3.162,1.334c-0.222,0.072-0.466-0.013-0.588-0.212c-0.122-0.2-0.09-0.457,0.078-0.62l1.733-1.684
							l-5.633,3.13c-0.225,0.126-0.507,0.06-0.653-0.15c-0.147-0.211-0.11-0.498,0.084-0.666c1.276-1.096,2.477-2.287,3.585-3.558
							l-4.897,2.21c-0.204,0.091-0.448,0.037-0.591-0.138c-0.144-0.174-0.153-0.422-0.023-0.606l0.163-0.231
							c-0.886,0.444-1.822,0.794-2.776,1.035c-0.217,0.057-0.447-0.043-0.558-0.238c-0.111-0.196-0.076-0.443,0.084-0.602
							l0.963-0.952l-2.56,1.34c-0.222,0.115-0.492,0.051-0.638-0.151c-0.146-0.201-0.12-0.48,0.059-0.652l0.555-0.534
							c-0.361,0.178-0.726,0.348-1.095,0.508c-0.22,0.098-0.482,0.021-0.617-0.183c-0.134-0.203-0.102-0.473,0.075-0.64l0.214-0.201
							l-1.385,0.785c-0.204,0.116-0.463,0.074-0.62-0.102c-0.157-0.176-0.169-0.438-0.03-0.628c0.119-0.162,0.241-0.321,0.366-0.478
							c-0.521,0.227-1.053,0.43-1.595,0.609c-0.219,0.075-0.46-0.015-0.582-0.211c-0.122-0.196-0.093-0.45,0.069-0.614l0.579-0.588
							c-0.496,0.199-0.999,0.38-1.509,0.54c-0.226,0.072-0.475-0.027-0.589-0.237c-0.114-0.209-0.064-0.471,0.119-0.624l0.24-0.199
							c-0.066-0.036-0.125-0.087-0.17-0.152c-0.14-0.199-0.116-0.471,0.058-0.643c1.016-1.005,2.283-1.731,3.663-2.102
							c0.265-0.071,0.541,0.087,0.612,0.353c0.072,0.267-0.086,0.541-0.353,0.612c-0.202,0.055-0.401,0.117-0.597,0.188
							c0.046,0.183-0.014,0.381-0.165,0.506l-0.174,0.145c0.351-0.178,0.695-0.366,1.034-0.564c0.217-0.126,0.494-0.073,0.647,0.125
							c0.154,0.197,0.138,0.479-0.038,0.657l-0.941,0.955c0.873-0.426,1.71-0.923,2.505-1.487c0.223-0.156,0.532-0.107,0.693,0.113
							c0.162,0.222,0.115,0.531-0.104,0.695c-0.3,0.225-0.591,0.461-0.872,0.708l2.266-1.285c0.221-0.125,0.499-0.066,0.649,0.138
							c0.15,0.204,0.124,0.487-0.06,0.661l-0.578,0.543c0.535-0.333,1.058-0.686,1.566-1.06c0.212-0.157,0.509-0.12,0.678,0.081
							c0.169,0.201,0.154,0.5-0.035,0.683l-1.275,1.228l2.427-1.27c0.222-0.113,0.49-0.051,0.636,0.148
							c0.146,0.2,0.124,0.477-0.052,0.65l-1.769,1.748c0.886-0.394,1.728-0.889,2.494-1.468c0.197-0.149,0.472-0.133,0.649,0.039
							c0.177,0.171,0.204,0.445,0.062,0.647l-0.518,0.735l5.177-2.336c0.208-0.093,0.456-0.033,0.598,0.145
							c0.143,0.181,0.144,0.434,0.004,0.615c-0.707,0.918-1.458,1.802-2.251,2.647l5.54-3.079c0.218-0.119,0.495-0.062,0.644,0.14
							c0.149,0.201,0.127,0.481-0.053,0.656l-2.614,2.54c1.367-0.637,2.668-1.404,3.89-2.295c0.209-0.152,0.501-0.119,0.671,0.075
							c0.17,0.195,0.164,0.488-0.016,0.675l-3.253,3.397c2.223-1.193,4.411-2.465,6.533-3.798c0.218-0.137,0.503-0.086,0.66,0.116
							c0.158,0.202,0.137,0.491-0.048,0.669l-2.838,2.72c1.428-0.607,2.824-1.295,4.171-2.057c0.213-0.118,0.48-0.068,0.634,0.12
							c0.154,0.189,0.149,0.462-0.012,0.645l-1.233,1.409c1.423-0.803,2.788-1.709,4.076-2.708c0.2-0.155,0.484-0.135,0.663,0.045
							c0.178,0.181,0.192,0.465,0.034,0.663l-1.06,1.325l6.48-3.009c0.203-0.099,0.448-0.043,0.594,0.133
							c0.145,0.173,0.155,0.423,0.025,0.608c-0.716,1.017-1.497,1.986-2.337,2.9l3.921-2.174c0.196-0.108,0.441-0.074,0.598,0.086
							c0.158,0.159,0.19,0.404,0.079,0.6c-0.431,0.755-0.911,1.479-1.437,2.165c1.132-0.711,2.214-1.504,3.232-2.372
							c0.193-0.164,0.479-0.158,0.665,0.015c0.186,0.174,0.212,0.458,0.062,0.663l-1.981,2.688c1.915-1.084,3.777-2.275,5.558-3.557
							c0.181-0.132,0.428-0.126,0.603,0.014c0.175,0.14,0.237,0.378,0.15,0.585c-0.249,0.594-0.54,1.173-0.87,1.731
							c1.318-1.063,2.592-2.178,3.811-3.338c0.191-0.181,0.49-0.183,0.683-0.006c0.194,0.178,0.216,0.476,0.052,0.681
							c-0.974,1.215-1.688,2.626-2.093,4.126c2.204-0.983,4.182-2.449,5.762-4.277c0.146-0.169,0.386-0.222,0.588-0.127
							c0.202,0.094,0.318,0.311,0.284,0.53l-0.641,4.138c-0.043,0.272-0.297,0.46-0.571,0.418c-0.273-0.042-0.46-0.298-0.418-0.57
							l0.396-2.559c-1.697,1.628-3.719,2.909-5.923,3.744c-0.169,0.063-0.359,0.031-0.497-0.084
							c-0.139-0.115-0.205-0.296-0.172-0.474c0.162-0.892,0.424-1.763,0.776-2.595c-1.48,1.266-3.022,2.465-4.609,3.585
							C113.95,516.935,113.85,516.965,113.75,516.965z"/>
					</g>
					<g>
						<path d="M121.965,518.232c-0.096,0-0.193-0.027-0.277-0.084c-0.183-0.121-0.265-0.348-0.203-0.559
							c0.65-2.188,1.839-4.203,3.439-5.831c0.193-0.197,0.509-0.2,0.707-0.006c0.197,0.193,0.2,0.51,0.006,0.707
							c-1.024,1.042-1.867,2.256-2.49,3.575c1.329-1.24,2.546-2.599,3.633-4.054c0.156-0.208,0.444-0.265,0.666-0.125
							c0.221,0.138,0.298,0.422,0.179,0.653l-1.198,2.32l4.491-3.794c0.182-0.154,0.444-0.159,0.631-0.012
							c0.187,0.146,0.245,0.403,0.14,0.615c-0.341,0.688-0.719,1.353-1.134,1.993l4.069-3.149c0.181-0.139,0.432-0.139,0.611,0
							c0.18,0.139,0.244,0.382,0.155,0.591c-0.451,1.061-0.952,2.107-1.5,3.127l5.58-4.932c0.177-0.154,0.437-0.167,0.626-0.029
							c0.189,0.139,0.258,0.39,0.164,0.604l-2.641,6.035c2.69-2.11,5.273-4.385,7.699-6.779c0.174-0.172,0.448-0.192,0.644-0.05
							c0.198,0.143,0.264,0.408,0.155,0.627l-2.572,5.191l6.382-5.733c0.174-0.157,0.434-0.171,0.624-0.035
							c0.191,0.137,0.261,0.387,0.17,0.603c-0.223,0.526-0.465,1.044-0.725,1.553c1.286-1.247,2.605-2.462,3.95-3.636
							c0.178-0.156,0.442-0.165,0.632-0.02c0.189,0.144,0.251,0.4,0.147,0.614l-1.993,4.14l6.432-7.262
							c0.157-0.176,0.415-0.22,0.62-0.104c0.205,0.115,0.302,0.358,0.232,0.583l-0.817,2.646l2.933-4.123
							c0.148-0.208,0.43-0.273,0.653-0.146c0.223,0.126,0.314,0.4,0.212,0.636c-0.771,1.768-1.374,3.611-1.798,5.496
							c2.11-1.996,3.783-4.439,4.877-7.136c0.102-0.252,0.388-0.372,0.641-0.28c0.254,0.097,0.385,0.378,0.294,0.635l-2.362,6.67
							c0.428-0.11,0.908-0.592,1.25-1.068c1.766-2.458,3.417-5.036,4.911-7.662c0.131-0.23,0.418-0.317,0.657-0.201
							c0.238,0.118,0.342,0.401,0.238,0.645c-0.749,1.753-1.222,3.592-1.41,5.481c2.441-1.395,4.387-3.635,5.409-6.257
							c0.092-0.235,0.344-0.366,0.591-0.303c0.245,0.064,0.404,0.301,0.37,0.552c-0.224,1.646-0.701,3.239-1.416,4.738
							c-0.12,0.249-0.419,0.353-0.666,0.235c-0.25-0.119-0.355-0.417-0.236-0.667c0.131-0.273,0.253-0.551,0.367-0.832
							c-1.27,1.622-2.908,2.955-4.77,3.845c-0.16,0.074-0.346,0.061-0.493-0.035c-0.147-0.098-0.231-0.266-0.222-0.442
							c0.048-0.925,0.161-1.841,0.336-2.742c-0.911,1.438-1.864,2.852-2.853,4.229c-0.954,1.328-2.064,1.821-2.975,1.319
							c-0.214-0.118-0.311-0.374-0.229-0.605l0.7-1.977c-1.01,1.327-2.175,2.537-3.471,3.596c-0.161,0.134-0.389,0.15-0.569,0.045
							c-0.18-0.105-0.276-0.313-0.24-0.518c0.215-1.229,0.504-2.445,0.863-3.64l-2.579,3.625c-0.142,0.2-0.408,0.27-0.629,0.158
							c-0.22-0.108-0.329-0.361-0.256-0.596l1.052-3.406l-7.283,8.222c-0.165,0.188-0.444,0.225-0.651,0.085
							c-0.208-0.138-0.282-0.408-0.174-0.633l2.461-5.112c-1.907,1.75-3.752,3.578-5.505,5.455
							c-0.184,0.196-0.491,0.212-0.693,0.035c-0.203-0.177-0.23-0.483-0.061-0.691c0.826-1.02,1.563-2.104,2.203-3.244l-6.403,5.751
							c-0.179,0.16-0.447,0.171-0.636,0.026c-0.191-0.146-0.253-0.405-0.146-0.62l2.465-4.975c-2.316,2.147-4.754,4.184-7.275,6.074
							c-0.182,0.136-0.433,0.133-0.61-0.009c-0.178-0.141-0.239-0.384-0.147-0.592l2.512-5.739l-6.258,5.53
							c-0.187,0.164-0.468,0.168-0.658,0.004c-0.189-0.163-0.229-0.441-0.093-0.651c0.811-1.248,1.549-2.549,2.205-3.886
							l-5.931,4.59c-0.21,0.161-0.509,0.132-0.683-0.067c-0.174-0.199-0.162-0.5,0.027-0.686c0.83-0.812,1.579-1.691,2.243-2.632
							l-4.136,3.494c-0.183,0.156-0.448,0.158-0.634,0.009c-0.187-0.148-0.242-0.408-0.133-0.62l0.395-0.764
							c-0.791,0.803-1.626,1.563-2.5,2.278C122.19,518.194,122.078,518.232,121.965,518.232z"/>
					</g>
					<g>
						<path d="M173.448,508.698c-0.08,0-0.161-0.02-0.235-0.06c-0.227-0.121-0.324-0.394-0.227-0.631l3.116-7.563
							c0.105-0.256,0.397-0.378,0.653-0.272c0.22,0.09,0.341,0.32,0.303,0.545c0.246-0.539,0.482-1.083,0.708-1.63
							c0.1-0.242,0.369-0.365,0.616-0.285c0.249,0.08,0.393,0.338,0.333,0.592c-0.233,0.978-0.493,1.954-0.777,2.924
							c0.938-1.841,1.735-3.754,2.382-5.721c0.083-0.251,0.351-0.396,0.601-0.327c0.173,0.045,0.303,0.176,0.352,0.337
							c0.563-1.271,1.103-2.551,1.616-3.835c0.098-0.245,0.37-0.371,0.62-0.29c0.251,0.083,0.395,0.346,0.328,0.601
							c-0.16,0.619-0.33,1.236-0.509,1.851l2.114-4.057c0.12-0.229,0.397-0.33,0.636-0.229c0.239,0.1,0.363,0.366,0.283,0.614
							c-0.373,1.162-0.78,2.317-1.217,3.461c0.827-1.319,1.599-2.674,2.309-4.054c0.079-0.153,0.226-0.249,0.386-0.268
							c0.401-1.103,0.749-2.228,1.04-3.366c-0.68,0.668-1.328,1.371-1.936,2.103c-0.03,0.037-0.061,0.074-0.092,0.111
							c-0.176,0.21-0.49,0.24-0.703,0.065c-0.212-0.175-0.242-0.489-0.067-0.702c0.03-0.037,0.061-0.073,0.091-0.109
							c0.93-1.135,1.712-2.366,2.337-3.68l-1.295,1.165c-0.195,0.174-0.492,0.169-0.681-0.011c-0.189-0.182-0.206-0.478-0.039-0.68
							c0.81-0.982,1.456-2.114,1.892-3.313c-0.529,0.146-1.031,0.386-1.48,0.709c-0.212,0.15-0.503,0.115-0.671-0.08
							c-0.169-0.197-0.16-0.49,0.021-0.676c0.266-0.272,0.447-0.631,0.517-1.008c-0.27,0.009-0.538,0.107-0.742,0.283
							c-0.156,0.134-0.378,0.157-0.559,0.064c-0.182-0.097-0.286-0.294-0.263-0.498c0.2-1.772,0.118-3.555-0.246-5.299
							c-0.057-0.27,0.117-0.535,0.387-0.591c0.272-0.063,0.535,0.116,0.591,0.388c0.324,1.555,0.438,3.139,0.339,4.721
							c0.384-0.096,0.793-0.091,1.171,0.027c0.203,0.063,0.344,0.247,0.352,0.459c0.008,0.22-0.009,0.439-0.05,0.651
							c0.424-0.148,0.865-0.247,1.315-0.292c0.166-0.011,0.326,0.05,0.433,0.177c0.106,0.127,0.143,0.298,0.098,0.457
							c-0.143,0.508-0.321,1.009-0.53,1.497l0.382-0.345c0.168-0.152,0.419-0.169,0.609-0.046c0.19,0.125,0.271,0.363,0.199,0.578
							c-0.229,0.677-0.494,1.337-0.794,1.978c0.157-0.1,0.357-0.105,0.52-0.01c0.186,0.108,0.281,0.323,0.238,0.533
							c-0.18,0.868-0.392,1.73-0.635,2.582c0.05-0.124,0.1-0.248,0.147-0.373c0.099-0.258,0.389-0.387,0.646-0.288
							c0.258,0.098,0.387,0.387,0.289,0.644c-0.053,0.14-0.106,0.279-0.161,0.418c0.13,0.137,0.177,0.341,0.105,0.527
							c-1.083,2.778-2.453,5.456-4.072,7.959c-0.047,0.073-0.11,0.129-0.181,0.168c-0.537,0.895-1.091,1.777-1.661,2.647
							c-0.141,0.216-0.423,0.288-0.651,0.168c-0.228-0.12-0.327-0.395-0.229-0.633l1.008-2.445
							c-0.538,0.791-1.096,1.567-1.672,2.327c-0.154,0.203-0.438,0.258-0.657,0.126c-0.129-0.078-0.211-0.207-0.235-0.347
							l-1.444,2.772c-0.124,0.237-0.413,0.335-0.658,0.221c-0.122-0.059-0.211-0.16-0.254-0.278c-0.28,0.56-0.563,1.117-0.851,1.671
							c-0.127,0.242-0.425,0.341-0.669,0.216c-0.018-0.009-0.036-0.02-0.053-0.03c-0.616,1.136-1.286,2.244-2.007,3.32
							c-0.142,0.21-0.419,0.283-0.646,0.165c-0.226-0.117-0.328-0.385-0.236-0.623c0.212-0.552,0.416-1.108,0.612-1.668
							c-0.682,1.219-1.414,2.41-2.192,3.567C173.767,508.62,173.609,508.698,173.448,508.698z"/>
					</g>
					<g>
						<path d="M152.206,517.016c-0.083,0-0.165-0.021-0.242-0.063c-0.214-0.119-0.311-0.376-0.228-0.606
							c0.685-1.905,1.651-3.689,2.871-5.304c0.167-0.221,0.48-0.265,0.701-0.097c0.128,0.097,0.197,0.244,0.198,0.394
							c0.634-0.843,1.318-1.647,2.046-2.406c0.186-0.19,0.489-0.204,0.689-0.03c0.098,0.085,0.155,0.201,0.169,0.321l1.575-1.457
							c0.189-0.177,0.482-0.178,0.674-0.004c0.192,0.173,0.22,0.464,0.065,0.671c-0.59,0.788-1.189,1.588-1.733,2.418
							c1.36-1.42,2.806-2.76,4.322-4.006c0.183-0.148,0.444-0.15,0.628-0.005c0.184,0.147,0.242,0.401,0.137,0.613l-0.413,0.836
							c1.203-1.17,2.533-2.213,3.946-3.089c0.19-0.119,0.434-0.096,0.599,0.055c0.166,0.15,0.211,0.391,0.113,0.591l-1.493,3.04
							c1.985-1.985,4.056-3.896,6.181-5.707c0.182-0.155,0.448-0.158,0.635-0.011c0.187,0.148,0.243,0.408,0.134,0.62l-2.192,4.257
							l6.436-5.825c0.175-0.157,0.438-0.172,0.628-0.034c0.191,0.138,0.26,0.392,0.164,0.607l-1.536,3.479l6.016-6.546
							c0.172-0.188,0.455-0.215,0.661-0.067c0.205,0.148,0.267,0.428,0.143,0.648l-0.268,0.481l2.812-3.156
							c0.184-0.205,0.5-0.224,0.706-0.04c0.206,0.184,0.225,0.499,0.041,0.706l-5.838,6.553c-0.17,0.19-0.456,0.223-0.664,0.074
							c-0.207-0.147-0.271-0.428-0.146-0.65l0.415-0.744l-5.189,5.647c-0.165,0.181-0.438,0.215-0.642,0.08
							c-0.205-0.134-0.282-0.396-0.184-0.62l1.81-4.099l-6.734,6.095c-0.179,0.164-0.449,0.174-0.64,0.025
							c-0.192-0.147-0.251-0.411-0.14-0.626l2.252-4.371c-2.196,1.968-4.32,4.04-6.337,6.182c-0.169,0.181-0.446,0.209-0.648,0.068
							c-0.204-0.141-0.273-0.409-0.164-0.632l2.05-4.175c-1.781,1.328-3.377,2.934-4.679,4.716
							c-0.153,0.209-0.441,0.267-0.663,0.133c-0.222-0.135-0.304-0.416-0.189-0.649l1.026-2.077
							c-1.744,1.588-3.375,3.306-4.867,5.127c-0.152,0.188-0.416,0.239-0.627,0.122c-0.211-0.115-0.31-0.365-0.235-0.594
							c0.274-0.841,0.642-1.632,1.066-2.388l-2.306,2.133l-2.521,3.196C152.502,516.949,152.356,517.016,152.206,517.016z"/>
					</g>
				</g>
				<g>
					<path d="M102.381,517.94c-0.153,0-0.302-0.069-0.399-0.198c-0.147-0.195-0.132-0.469,0.037-0.646l2-2.104
						c-1.083,0.511-2.183,0.988-3.288,1.427c-0.223,0.087-0.478,0.006-0.607-0.196c-0.075-0.118-0.095-0.257-0.064-0.385
						c-0.192,0.11-0.385,0.219-0.578,0.326c-0.227,0.123-0.51,0.057-0.655-0.155c-0.146-0.213-0.105-0.501,0.093-0.666
						c0.667-0.556,1.3-1.151,1.897-1.784c-1.879,0.911-3.704,1.947-5.444,3.093c-0.213,0.142-0.498,0.098-0.661-0.1
						c-0.163-0.197-0.15-0.485,0.028-0.668l0.681-0.696c-0.617,0.299-1.245,0.575-1.88,0.828c-0.195,0.077-0.417,0.025-0.558-0.132
						c-0.14-0.156-0.167-0.384-0.068-0.568c0.393-0.735,0.871-1.427,1.42-2.057c-2.114,0.837-4.119,1.923-5.985,3.242
						c-0.225,0.16-0.538,0.106-0.697-0.119c-0.16-0.226-0.106-0.538,0.12-0.697c2.605-1.842,5.474-3.245,8.525-4.17
						c0.232-0.071,0.484,0.037,0.592,0.255c0.109,0.219,0.045,0.483-0.152,0.627c-0.786,0.575-1.488,1.269-2.079,2.046
						c1.134-0.531,2.233-1.14,3.283-1.818c0.213-0.138,0.498-0.094,0.659,0.104c0.161,0.197,0.148,0.483-0.03,0.666l-0.393,0.402
						c1.393-0.765,2.823-1.461,4.28-2.085c0.208-0.09,0.451-0.026,0.592,0.153c0.139,0.18,0.14,0.431,0.002,0.611
						c-0.144,0.188-0.29,0.372-0.44,0.555c0.487-0.341,0.966-0.692,1.436-1.053c0.213-0.161,0.514-0.129,0.686,0.072
						c0.173,0.203,0.156,0.506-0.038,0.688l-1.758,1.653c1.079-0.491,2.145-1.019,3.187-1.576c0.218-0.113,0.485-0.056,0.634,0.139
						c0.149,0.195,0.133,0.47-0.036,0.647l-1.893,1.99l3.372-1.768c0.216-0.114,0.479-0.056,0.628,0.137
						c0.149,0.191,0.138,0.462-0.025,0.642l-1.115,1.229l2.39-0.753c0.167-0.053,0.352-0.014,0.482,0.103
						c0.131,0.117,0.192,0.294,0.159,0.467c-0.019,0.1,0,0.173,0.067,0.253c0.212,0.26,0.811,0.459,1.393,0.465
						c2.61,0.047,5.189-0.334,7.688-1.059c0.188-0.052,0.386,0.006,0.515,0.15c0.128,0.146,0.16,0.352,0.083,0.529
						c0.012,0.004,0.081,0.083,0.16,0.1c0.199,0.042,0.458-0.045,0.751-0.159c0.257-0.099,0.547,0.029,0.646,0.286
						c0.1,0.258-0.028,0.548-0.286,0.648c-0.346,0.133-0.819,0.311-1.33,0.202c-0.346-0.078-0.66-0.322-0.821-0.64l0,0
						c-2.417,0.646-4.898,0.972-7.414,0.941c-0.687-0.007-1.663-0.229-2.156-0.83c-0.084-0.103-0.151-0.211-0.2-0.325l-3.586,1.13
						c-0.214,0.067-0.449-0.017-0.571-0.207c-0.122-0.189-0.101-0.438,0.05-0.605l0.462-0.51l-3.556,1.865
						C102.539,517.921,102.459,517.94,102.381,517.94z"/>
				</g>
			</g>
			<g>
				<path d="M54.401,487.828c-0.178,0-0.35-0.095-0.441-0.262c-0.131-0.243-0.041-0.547,0.202-0.678l6.56-3.55
					c0.242-0.132,0.546-0.042,0.678,0.201c0.131,0.243,0.041,0.547-0.202,0.678l-6.561,3.55
					C54.563,487.809,54.481,487.828,54.401,487.828z"/>
			</g>
			<g>
				<path d="M65.807,486.503c-0.174,0-0.343-0.091-0.435-0.253c-0.137-0.24-0.053-0.545,0.188-0.682l3.927-2.231
					c0.242-0.139,0.546-0.052,0.682,0.188c0.137,0.24,0.053,0.545-0.188,0.682l-3.927,2.231
					C65.975,486.482,65.89,486.503,65.807,486.503z"/>
			</g>
			<g>
				<path d="M67.129,494.864c-0.186,0-0.364-0.104-0.45-0.281c-0.121-0.249-0.017-0.548,0.231-0.669l16.24-7.887
					c0.249-0.119,0.548-0.016,0.668,0.231c0.121,0.249,0.017,0.548-0.231,0.669l-16.24,7.887
					C67.276,494.849,67.202,494.864,67.129,494.864z"/>
			</g>
			<g>
				<path d="M133.78,465.383c-0.195,0-0.38-0.115-0.461-0.306c-0.107-0.255,0.013-0.548,0.267-0.655l12.692-5.342
					c0.251-0.105,0.548,0.013,0.655,0.267c0.107,0.255-0.012,0.548-0.267,0.655l-12.692,5.342
					C133.91,465.37,133.845,465.383,133.78,465.383z"/>
			</g>
			<g>
				<path d="M148.48,464.081c-0.183,0-0.359-0.101-0.447-0.274c-0.125-0.247-0.026-0.547,0.221-0.672
					c1.746-0.882,3.339-2.021,4.735-3.384c0.199-0.193,0.515-0.189,0.707,0.008c0.193,0.198,0.189,0.515-0.008,0.707
					c-1.469,1.436-3.146,2.633-4.983,3.562C148.633,464.064,148.556,464.081,148.48,464.081z"/>
			</g>
			<g>
				<path d="M150.91,469.811c-0.175,0-0.344-0.092-0.436-0.255c-0.136-0.24-0.05-0.545,0.19-0.681
					c0.743-0.418,1.741-1.017,2.89-1.705c2.671-1.601,5.996-3.594,8.973-5.063c0.247-0.123,0.547-0.02,0.669,0.227
					c0.123,0.248,0.02,0.548-0.227,0.67c-2.939,1.451-6.245,3.433-8.901,5.024c-1.158,0.693-2.164,1.296-2.913,1.718
					C151.077,469.791,150.993,469.811,150.91,469.811z"/>
			</g>
			<g>
				<path d="M133.336,472.393c-0.22,0-0.422-0.147-0.482-0.37c-0.072-0.267,0.086-0.541,0.353-0.612
					c1.201-0.324,2.354-0.9,3.332-1.666c0.217-0.171,0.532-0.133,0.702,0.085c0.17,0.218,0.132,0.532-0.085,0.702
					c-1.084,0.849-2.359,1.485-3.688,1.844C133.423,472.387,133.379,472.393,133.336,472.393z"/>
			</g>
			<g>
				<path d="M164.234,469.811c-0.206,0-0.398-0.128-0.471-0.333c-0.092-0.26,0.044-0.546,0.304-0.639
					c2.601-0.922,5.085-2.166,7.385-3.696c0.228-0.154,0.54-0.092,0.693,0.139c0.153,0.23,0.091,0.541-0.139,0.693
					c-2.368,1.576-4.926,2.857-7.604,3.808C164.346,469.803,164.29,469.811,164.234,469.811z"/>
			</g>
			<g>
				<path d="M164.522,475.878c-0.189,0-0.37-0.107-0.454-0.29c-0.116-0.25-0.007-0.548,0.243-0.663
					c0.677-0.314,1.628-0.726,2.684-1.183c2.736-1.183,6.484-2.804,7.379-3.6c0.206-0.183,0.523-0.166,0.706,0.042
					c0.184,0.206,0.165,0.522-0.041,0.706c-0.94,0.836-3.889,2.145-7.646,3.77c-1.046,0.453-1.989,0.86-2.66,1.171
					C164.664,475.863,164.592,475.878,164.522,475.878z"/>
			</g>
			<g>
				<path d="M126.144,463.568c-0.176,0-0.347-0.094-0.438-0.259c-0.133-0.242-0.046-0.546,0.197-0.679
					c0.337-0.186,0.724-0.379,1.115-0.574c0.755-0.376,1.696-0.845,1.953-1.145c0.181-0.208,0.497-0.231,0.705-0.053
					c0.21,0.18,0.233,0.495,0.054,0.705c-0.389,0.452-1.301,0.906-2.266,1.388c-0.377,0.189-0.752,0.375-1.078,0.554
					C126.309,463.549,126.226,463.568,126.144,463.568z"/>
			</g>
			<g>
				<path d="M164.234,483.362c-0.202,0-0.392-0.123-0.467-0.322c-0.098-0.258,0.032-0.547,0.29-0.646
					c0.596-0.227,1.195-0.575,1.83-0.945c0.642-0.375,1.306-0.763,1.979-1.018c0.26-0.094,0.547,0.032,0.645,0.29
					c0.098,0.259-0.032,0.547-0.29,0.646c-0.597,0.227-1.196,0.576-1.831,0.946c-0.642,0.374-1.305,0.762-1.978,1.018
					C164.354,483.352,164.294,483.362,164.234,483.362z"/>
			</g>
			<g>
				<path d="M77.817,497.802c-0.2,0-0.389-0.121-0.466-0.318c-0.1-0.258,0.027-0.548,0.285-0.647
					c1.248-0.485,2.41-1.159,3.454-2.001c0.214-0.176,0.53-0.14,0.703,0.074c0.173,0.216,0.14,0.53-0.075,0.703
					c-1.124,0.908-2.376,1.633-3.72,2.155C77.938,497.791,77.877,497.802,77.817,497.802z"/>
			</g>
		</g>
		<g>
			<path d="M79.636,751.899c-0.261,0-0.481-0.203-0.498-0.468l-0.516-7.922c-0.018-0.275,0.191-0.513,0.466-0.531
				c0.282-0.021,0.514,0.191,0.532,0.467l0.516,7.922c0.018,0.275-0.191,0.514-0.466,0.531
				C79.658,751.899,79.646,751.899,79.636,751.899z"/>
		</g>
		<g>
			<path d="M83.756,755.398c-0.276,0-0.5-0.224-0.5-0.5v-5.704c0-0.276,0.224-0.5,0.5-0.5c0.276,0,0.5,0.224,0.5,0.5v5.704
				C84.256,755.175,84.032,755.398,83.756,755.398z"/>
		</g>
		<g>
			<path d="M88.151,749.488c-0.276,0-0.5-0.224-0.5-0.5v-6.144c0-0.276,0.224-0.5,0.5-0.5c0.276,0,0.5,0.224,0.5,0.5v6.144
				C88.651,749.265,88.427,749.488,88.151,749.488z"/>
		</g>
		<g>
			<path d="M93.03,757.132c-0.207,0-0.399-0.129-0.472-0.334c-0.531-1.512-0.398-6.639-0.013-8.161
				c0.068-0.268,0.338-0.434,0.607-0.361c0.268,0.067,0.43,0.339,0.362,0.607c-0.343,1.354-0.477,6.263-0.013,7.583
				c0.092,0.261-0.046,0.546-0.306,0.638C93.141,757.123,93.085,757.132,93.03,757.132z"/>
		</g>
		<g>
			<path d="M115.677,758.721c-0.255,0-0.473-0.194-0.497-0.453l-0.498-5.26c-0.026-0.274,0.175-0.518,0.451-0.545
				c0.269-0.015,0.518,0.177,0.544,0.451l0.498,5.26c0.026,0.274-0.176,0.519-0.451,0.545
				C115.709,758.72,115.693,758.721,115.677,758.721z"/>
		</g>
		<g>
			<path d="M125.122,756.938c-0.013,0-0.025,0-0.038-0.001c-0.275-0.021-0.482-0.262-0.461-0.537
				c0.186-2.457,0.128-4.941-0.171-7.386c-0.034-0.273,0.161-0.523,0.436-0.557c0.275-0.041,0.523,0.161,0.557,0.436
				c0.308,2.509,0.367,5.06,0.176,7.583C125.6,756.738,125.381,756.938,125.122,756.938z"/>
		</g>
		<g>
			<path d="M152.585,753.196c-0.021,0-0.044-0.001-0.066-0.004c-0.274-0.036-0.467-0.287-0.431-0.561
				c0.412-3.147,0.178-6.425-0.678-9.481c-0.075-0.266,0.081-0.542,0.347-0.616c0.264-0.072,0.542,0.08,0.616,0.347
				c0.892,3.185,1.136,6.602,0.706,9.881C153.047,753.013,152.832,753.196,152.585,753.196z"/>
		</g>
		<g>
			<path d="M158.346,743.112c-0.276,0-0.5-0.224-0.5-0.5v-3.948c0-0.276,0.224-0.5,0.5-0.5s0.5,0.224,0.5,0.5v3.948
				C158.846,742.889,158.623,743.112,158.346,743.112z"/>
		</g>
		<g>
			<path d="M174.142,738.725c-0.276,0-0.5-0.224-0.5-0.5v-10.092c0-0.276,0.224-0.5,0.5-0.5c0.276,0,0.5,0.224,0.5,0.5v10.092
				C174.642,738.501,174.419,738.725,174.142,738.725z"/>
		</g>
	</g>
</g>
</svg>
