<?xml version="1.0" encoding="utf-8"?>
<!-- Generator: Adobe Illustrator 27.5.0, SVG Export Plug-In . SVG Version: 6.00 Build 0)  -->
<svg version="1.1" xmlns="http://www.w3.org/2000/svg" xmlns:xlink="http://www.w3.org/1999/xlink" x="0px" y="0px"
	 viewBox="0 0 800 800" style="enable-background:new 0 0 800 800;" xml:space="preserve">
<g id="OBJECTS">
  <g>
		<g>
			<path d="M449.477,284.893c-0.973,0-1.923-0.264-2.398-1.138c-0.957-1.759-0.222-4.022,1.875-5.763
				c1.496-1.243,3.478-1.766,5.293-1.397c0.552,0.111,1.515,0.397,1.933,1.075c0.838,1.172,0.33,2.958-0.37,4.147
				c-0.775,1.316-2.182,2.009-3.319,2.466C452.464,284.293,450.944,284.893,449.477,284.893z M453.067,278.487
				c-0.817,0-1.858,0.232-2.837,1.044c-1.308,1.086-1.868,2.4-1.396,3.268c0.262,0.218,1.759,0.089,2.908-0.372
				c0.896-0.36,1.876-0.835,2.343-1.626c0.564-0.957,0.601-1.792,0.463-1.972c-0.011-0.013-0.021-0.027-0.03-0.041
				C454.341,278.668,453.791,278.487,453.067,278.487z"/>
		</g>
		<g>
			<path d="M465.725,285.46c-0.793,0-1.419-0.227-1.863-0.677c-0.356-0.361-0.533-0.916-0.524-1.648
				c0.015-1.248,0.58-3.04,1.811-4.26c1.457-1.744,4.424-2.405,6.52-1.439c0.365,0.169,1.477,0.681,1.787,1.803
				c0.221,0.793,0.001,1.658-0.67,2.643c-1.384,2.029-3.902,3.362-6.737,3.566C465.936,285.457,465.829,285.46,465.725,285.46z
				 M465.349,283.414c0.087,0.032,0.264,0.062,0.556,0.04c2.197-0.158,4.2-1.192,5.227-2.698c0.451-0.663,0.408-0.935,0.396-0.982
				c-0.016-0.054-0.109-0.25-0.698-0.521c-1.275-0.589-3.301-0.137-4.167,0.93c-0.025,0.031-0.052,0.061-0.081,0.088
				C465.52,281.299,465.263,282.918,465.349,283.414z"/>
		</g>
		<g>
			<path d="M455.599,279.924c-0.526,0-0.967-0.411-0.997-0.943c-0.032-0.567-0.792-13.918-0.735-17.092
				c0.01-0.511,0.402-0.933,0.912-0.978c1.916-0.169,3.804-0.377,5.684-0.585c3.316-0.366,6.745-0.745,10.223-0.883l0.19-0.017
				c1.084-0.101,1.743-0.164,2.129,0.456c0.2,0.322,0.198,0.761,0,1.083c-0.263,0.425-0.793,0.586-1.238,0.398
				c-0.224,0.008-0.569,0.04-0.704,0.053c-0.138,0.013-0.246,0.022-0.296,0.024c-3.408,0.136-6.802,0.51-10.084,0.873
				c-1.595,0.176-3.195,0.353-4.814,0.506c0.06,4.237,0.724,15.92,0.73,16.047c0.032,0.552-0.39,1.024-0.941,1.056
				C455.637,279.924,455.618,279.924,455.599,279.924z"/>
		</g>
		<g>
			<path d="M472.535,280.321c-0.553,0-1-0.448-1-1v-15.715l-0.368-2.161c-0.095-0.544,0.27-1.062,0.814-1.157
				c0.542-0.096,1.063,0.269,1.157,0.813l0.383,2.249c0.01,0.057,0.015,0.114,0.015,0.172v15.8
				C473.535,279.874,473.088,280.321,472.535,280.321z"/>
		</g>
	</g>
</g>
</svg>
