<?xml version="1.0" encoding="utf-8"?>
<!-- Generator: Adobe Illustrator 27.5.0, SVG Export Plug-In . SVG Version: 6.00 Build 0)  -->
<svg version="1.1" xmlns="http://www.w3.org/2000/svg" xmlns:xlink="http://www.w3.org/1999/xlink" x="0px" y="0px"
	 viewBox="0 0 800 800" style="enable-background:new 0 0 800 800;" xml:space="preserve">
<g id="OBJECTS">
	<g>
		<g>
			<path d="M44.39,74.064c-1.342,0-2.617-0.396-3.402-1.466c-0.503-0.687-0.688-1.503-0.536-2.362
				c0.416-2.342,3.147-4.264,3.69-4.625c1.56-1.038,5.576-2.044,6.968-0.693c0.025,0.024,0.049,0.05,0.072,0.077
				c0.516,0.618,0.994,1.812,0.79,3.31c-0.16,1.175-0.803,2.889-2.957,4.378C47.975,73.402,46.126,74.064,44.39,74.064z
				 M49.013,66.249c-1.029,0-2.781,0.374-3.763,1.027c-1.224,0.814-2.632,2.198-2.829,3.31c-0.058,0.325-0.002,0.581,0.18,0.83
				c0.847,1.157,3.888,0.582,5.276-0.378c1.554-1.074,2.006-2.226,2.112-3.002c0.105-0.774-0.1-1.397-0.29-1.685
				C49.561,66.282,49.319,66.249,49.013,66.249z"/>
		</g>
		<g>
			<path d="M51.08,68.46c-0.546,0-0.993-0.44-1-0.987L49.82,47.45c-0.001-0.082-0.019-0.161-0.026-0.2
				c-0.097-0.509,0.204-1.057,0.703-1.198c0.501-0.14,1.07,0.24,1.254,0.725c0.287,0.754,1.147,1.07,2.53,1.5
				c0.844,0.263,1.717,0.535,2.488,1.027l0.436,0.277c1.773,1.123,3.607,2.285,4.684,4.22c0.702,1.261,0.962,2.689,1.15,3.928
				c0.132,0.874,0.02,1.816-0.09,2.728c-0.084,0.701-0.163,1.363-0.121,1.904c0.043,0.551-0.369,1.032-0.919,1.075
				c-0.557,0.038-1.032-0.369-1.075-0.92c-0.058-0.738,0.038-1.53,0.129-2.297c0.093-0.779,0.19-1.585,0.098-2.19
				c-0.169-1.115-0.379-2.285-0.919-3.255c-0.83-1.49-2.445-2.513-4.007-3.503l-0.442-0.281c-0.546-0.348-1.255-0.569-2.007-0.803
				c-0.608-0.189-1.25-0.389-1.839-0.678l0.233,17.939c0.007,0.552-0.435,1.006-0.987,1.013C51.088,68.46,51.084,68.46,51.08,68.46z
				"/>
		</g>
		<g>
			<path d="M61.83,63.438c-0.483,0-0.908-0.351-0.986-0.843c-0.22-1.382-1.345-2.511-2.25-3.215
				c-0.568-0.442-1.175-0.833-1.818-1.247c-0.705-0.454-1.433-0.923-2.118-1.472c-3.272-2.623-4.862-5.641-4.86-9.225
				c0-0.552,0.448-1,1-1h0c0.552,0,1,0.448,1,1c-0.002,2.979,1.304,5.414,4.111,7.663c0.604,0.484,1.258,0.906,1.95,1.351
				c0.651,0.42,1.324,0.853,1.962,1.349c1.706,1.326,2.742,2.875,2.998,4.479c0.086,0.545-0.285,1.058-0.831,1.145
				C61.936,63.434,61.882,63.438,61.83,63.438z"/>
		</g>
	</g>
</g>
</svg>
