<?xml version="1.0" encoding="utf-8"?>
<!-- Generator: Adobe Illustrator 27.5.0, SVG Export Plug-In . SVG Version: 6.00 Build 0)  -->
<svg version="1.1" xmlns="http://www.w3.org/2000/svg" xmlns:xlink="http://www.w3.org/1999/xlink" x="0px" y="0px"
	 viewBox="0 0 800 800" style="enable-background:new 0 0 800 800;" xml:space="preserve">
<g id="OBJECTS">
	<g>
		<g>
			<g>
				<g>
					<path d="M531.921,615.136c-0.209,0-0.359-0.017-0.444-0.051c-0.946-0.39-4.559-5.87-4.925-6.765
						c-0.023-0.059-0.062-0.151-0.092-0.268c-0.768-1.104-1.635-2.338-2.535-3.619c-3.199-4.55-6.825-9.708-7.989-11.918
						c-0.704-1.336-1.678-2.723-2.619-4.063c-0.881-1.254-1.792-2.551-2.511-3.842c-2.134-3.833-5.77-9.575-8.709-13.126
						c-0.143-0.173-0.224-0.389-0.229-0.613c-0.069-2.815-0.203-5.714-0.333-8.518c-0.132-2.824-0.267-5.746-0.337-8.595
						c-0.006-0.27,0.097-0.531,0.285-0.725c1.045-1.066,1.952-1.314,2.913-1.578c0.315-0.086,0.659-0.18,1.052-0.315
						c7.356-2.544,14.878-4.95,22.364-7.154c1.417-3.31,4.571-4.854,7.627-6.351l0.231-0.113c5.475-2.685,14.296-6.656,21.14-9.016
						c20.281-6.993,40.837-12.552,58.973-17.456c9.815-2.653,19.084-5.16,26.816-7.508c18.612-5.652,38.566-11.392,58.38-15.087
						c1.313-0.244,2.522-0.521,3.69-0.786c1.953-0.445,3.798-0.865,6.013-1.136c2.366-0.29,4.904-0.494,7.437-0.019
						c2.583,0.483,4.786,1.653,6.277,3.32c4.644-2.27,9.725-4.111,15.506-5.62c0.39-0.102,0.803,0.041,1.047,0.36
						c2.691,3.517,6.63,7.708,10.799,12.145c4.987,5.309,10.145,10.797,13.274,15.314c1.913,2.762,4.162,5.288,6.338,7.731
						c1.804,2.026,3.669,4.121,5.372,6.376c0.153,0.203,0.224,0.457,0.196,0.711c-0.588,5.407-1.81,10.388-3.35,16.336
						c-0.142,0.549-0.142,0.549-2.4,1.389c-1.435,0.534-3.398,1.265-4.578,1.812c-0.356,0.165-1.626,0.6-4.231,1.486
						c-3.316,1.13-8.158,2.777-11.112,3.941c0.37,1.325,0.465,3.049,0.465,3.074c0,0.391-0.228,0.745-0.582,0.908
						c-13.237,6.098-192.421,57.052-194.206,57.556c-1.452,0.406-3.926-1.46-5.073-2.826
						C546.388,612.517,534.547,615.136,531.921,615.136z M528.42,607.607c0.367,0.874,2.953,4.544,3.824,5.541
						c2.197-0.239,13.827-2.456,19.616-4.759c0.498-0.201,1.064,0.031,1.283,0.521c0.304,0.681,2.596,2.507,3.308,2.507
						c1.698-0.485,175.809-49.993,193.212-57.159c-0.102-0.766-0.314-1.879-0.457-2.33c-0.044-0.05-0.084-0.106-0.119-0.165
						c-0.251-0.438-0.138-0.993,0.265-1.297c0.066-0.05,0.14-0.092,0.217-0.123l-0.001-0.001c2.831-1.186,8.22-3.021,12.154-4.36
						c1.934-0.658,3.759-1.28,4.035-1.408c1.251-0.58,3.258-1.326,4.723-1.871c0.457-0.17,0.953-0.355,1.282-0.482
						c1.424-5.518,2.56-10.204,3.133-15.189c-1.592-2.073-3.338-4.035-5.03-5.936c-2.215-2.488-4.505-5.06-6.488-7.923
						c-3.045-4.395-8.15-9.828-13.088-15.083c-4.001-4.258-7.79-8.291-10.52-11.771c-5.347,1.432-10.069,3.158-14.395,5.264
						c-0.11,0.222-0.298,0.404-0.543,0.51c-0.428,0.188-1.082,0.151-1.604-0.535c-1.179-1.543-3.124-2.636-5.478-3.077
						c-2.261-0.425-4.617-0.233-6.825,0.038c-2.112,0.259-3.908,0.668-5.81,1.101c-1.188,0.271-2.416,0.551-3.768,0.804
						c-19.719,3.677-39.608,9.398-58.165,15.034c-7.763,2.356-17.047,4.867-26.876,7.525c-18.106,4.896-38.627,10.444-58.843,17.415
						c-6.758,2.329-15.488,6.261-20.911,8.92l-0.232,0.114c-2.973,1.456-5.781,2.831-6.814,5.714
						c-0.107,0.301-0.354,0.531-0.66,0.622c-7.61,2.232-15.263,4.677-22.743,7.264c-0.439,0.151-0.825,0.258-1.177,0.355
						c-0.734,0.2-1.189,0.325-1.716,0.77c0.072,2.687,0.2,5.439,0.323,8.105c0.126,2.7,0.255,5.489,0.327,8.217
						c2.977,3.663,6.57,9.345,8.695,13.16c0.668,1.199,1.548,2.453,2.399,3.665c0.978,1.392,1.988,2.832,2.752,4.281
						c1.104,2.097,4.691,7.198,7.855,11.699c0.959,1.364,1.88,2.674,2.684,3.832C528.348,607.263,528.406,607.433,528.42,607.607z"
						/>
				</g>
				<g>
					<path d="M747.72,534.881c-0.012,0-0.023,0-0.035-0.001c-0.552-0.019-0.984-0.482-0.965-1.033
						c0.111-3.298,0.174-9.396,0.034-10.13c-0.178-0.523,0.111-1.059,0.634-1.236c0.527-0.178,1.1,0.136,1.278,0.657
						c0.347,1.021,0.056,10.681,0.052,10.777C748.7,534.455,748.256,534.881,747.72,534.881z"/>
				</g>
				<g>
					<path d="M747.72,524.46c-0.285,0-0.567-0.12-0.765-0.354c-1.058-1.252-1.085-3.129-1.111-4.944
						c-0.022-1.467-0.043-2.983-0.643-3.688c-4.842-5.687-12.114-13.472-16.926-18.623c-1.927-2.063-3.512-3.759-4.483-4.83
						c-0.371-0.408-0.341-1.041,0.068-1.412c0.408-0.37,1.04-0.342,1.412,0.068c0.968,1.065,2.546,2.755,4.464,4.809
						c4.825,5.164,12.116,12.969,16.988,18.691c1.065,1.252,1.093,3.135,1.119,4.955c0.021,1.464,0.043,2.978,0.639,3.683
						c0.357,0.422,0.304,1.053-0.118,1.409C748.177,524.383,747.947,524.46,747.72,524.46z"/>
				</g>
				<g>
					<path d="M747.835,528.223c-0.378,0-0.74-0.215-0.909-0.58c-0.232-0.502-0.013-1.096,0.488-1.328
						c2.099-0.97,8.899-3.206,11.281-3.773l0.746-0.172c1.303-0.295,2.533-0.573,3.571-1.189c0.56-0.332,0.874-0.794,0.805-1.001
						c-0.042-0.125-0.236-0.325-0.379-0.472c-0.416-0.429-0.816-0.761-1.24-1.113c-0.445-0.369-0.906-0.752-1.397-1.258
						c-0.21-0.216-0.307-0.511-0.277-0.8c-0.414-0.608-0.945-1.086-1.506-1.591c-0.318-0.286-0.636-0.573-0.935-0.877
						c-1.112-1.132-1.931-2.46-2.723-3.746c-0.61-0.991-1.188-1.928-1.883-2.768c-0.443-0.536-0.861-1.083-1.277-1.628
						c-0.932-1.22-1.812-2.373-2.929-3.331c-1.632-1.401-3.137-2.967-4.473-4.652l-0.376-0.481
						c-0.596-0.766-1.158-1.488-1.842-2.048c-0.813-0.666-1.67-1.044-2.615-1.156c-1.928-0.234-3.905,0.607-5.658,1.342
						l-4.533,1.898c-0.511,0.217-1.096-0.026-1.309-0.535c-0.214-0.51,0.026-1.096,0.535-1.31l4.534-1.898
						c1.884-0.789,4.232-1.769,6.666-1.483c1.336,0.158,2.528,0.68,3.647,1.596c0.857,0.701,1.516,1.548,2.152,2.367l0.366,0.467
						c1.256,1.586,2.672,3.059,4.207,4.377c1.276,1.095,2.262,2.386,3.216,3.635c0.4,0.524,0.803,1.052,1.229,1.566
						c0.785,0.949,1.426,1.989,2.045,2.996c0.767,1.245,1.491,2.421,2.445,3.392c0.271,0.274,0.559,0.534,0.847,0.793
						c0.651,0.586,1.325,1.192,1.851,1.987c0.192,0.29,0.29,0.556,0.328,0.791c0.312,0.295,0.62,0.551,0.941,0.818
						c0.445,0.369,0.906,0.752,1.397,1.258c0.275,0.283,0.654,0.672,0.842,1.231c0.484,1.454-0.604,2.716-1.683,3.355
						c-1.31,0.775-2.753,1.103-4.149,1.419l-0.726,0.166c-2.253,0.536-8.93,2.73-10.903,3.644
						C748.118,528.193,747.975,528.223,747.835,528.223z"/>
				</g>
				<g>
					<path d="M747.808,512.609c-0.427,0-0.877-0.047-1.351-0.142c-0.98-0.196-1.743-0.532-2.333-1.025
						c-0.961-0.806-1.474-2.128-1.305-3.37c0.053-0.393,0.173-0.774,0.35-1.13c0.664-1.444,2.279-2.417,3.885-2.205
						c0.827,0.11,1.662,0.502,2.553,1.199c0.329,0.258,0.621,0.53,0.875,0.811c0.2-0.036,0.41,0.057,0.519,0.243
						c0.156,0.271,0.231,0.559,0.241,0.845c0.394,0.771,0.512,1.569,0.314,2.314c-0.259,0.976-1.083,1.817-2.151,2.199
						C748.92,512.523,748.386,512.609,747.808,512.609z M743.805,508.244c-0.107,0.898,0.267,1.85,0.962,2.431
						c0.458,0.384,1.075,0.649,1.888,0.813c0.934,0.189,1.743,0.16,2.414-0.079c0.762-0.272,1.345-0.853,1.521-1.514
						c0.043-0.161,0.062-0.324,0.06-0.486c-0.15,0.175-0.323,0.328-0.509,0.45c-0.9,0.589-2.01,0.586-2.767,0.536
						c-0.752-0.052-1.847-0.201-2.669-0.887c-0.541-0.45-0.615-1.46-0.486-2.397c-0.038,0.059-0.073,0.119-0.107,0.181
						c-0.119,0.238-0.201,0.493-0.238,0.76C743.864,508.121,743.84,508.186,743.805,508.244z M745.586,505.923
						c-0.416,0.694-0.578,2.536-0.24,2.816c0.6,0.501,1.484,0.615,2.097,0.657c0.977,0.072,1.657-0.052,2.15-0.374
						c0.314-0.207,0.564-0.581,0.628-0.952c-0.315-0.517-0.769-0.984-1.231-1.347c-0.746-0.584-1.422-0.909-2.066-0.994
						C746.468,505.665,746.008,505.744,745.586,505.923z"/>
				</g>
				<g>
					<path d="M531.967,599.144c-0.37,0-0.726-0.205-0.898-0.56c-0.243-0.496-0.039-1.095,0.457-1.338
						c3.107-1.524,7.412-2.555,11.574-3.551c2.463-0.59,4.788-1.146,6.682-1.765l24.827-8.105
						c5.224-1.706,12.701-4.069,18.663-5.641c6.228-1.642,12.447-3.488,18.461-5.272c10.099-2.997,20.541-6.096,31.207-8.279
						c10.146-2.077,20.176-5.057,29.813-8.854c3.608-1.421,7.608-2.484,11.478-3.512c2.415-0.642,4.911-1.305,7.212-2.033
						c6.146-1.947,12.604-3.592,18.848-5.182c9.751-2.483,19.833-5.051,29.055-8.844c10.023-4.123,20.385-8.386,31.167-10.928
						l0.208-0.049c0.867-0.203,1.686-0.396,2.439-0.719c0.513-0.217,1.096,0.018,1.313,0.525c0.218,0.508-0.017,1.096-0.524,1.313
						c-0.914,0.393-1.857,0.614-2.77,0.828l-0.207,0.049c-10.627,2.505-20.915,6.737-30.864,10.83
						c-9.354,3.847-19.505,6.433-29.322,8.933c-6.218,1.583-12.646,3.22-18.738,5.149c-2.346,0.743-4.865,1.412-7.302,2.06
						c-3.814,1.014-7.759,2.062-11.259,3.44c-9.744,3.839-19.887,6.851-30.146,8.951c-10.581,2.166-20.98,5.253-31.038,8.237
						c-6.029,1.789-12.263,3.639-18.52,5.289c-5.916,1.56-13.354,3.91-18.552,5.608l-24.827,8.104
						c-1.97,0.643-4.334,1.21-6.837,1.808c-4.057,0.972-8.251,1.976-11.159,3.401C532.265,599.111,532.114,599.144,531.967,599.144z
						"/>
				</g>
				<g>
					<path d="M553.7,592.703c-0.363,0-0.713-0.198-0.891-0.543c-0.772-1.503-0.697-3.752-0.625-5.928
						c0.018-0.555,0.036-1.101,0.038-1.614l0,0c-0.514,0-1.625,0.309-2.452,0.76c-2.026,1.104-4.977,1.967-7.83,2.8
						c-2.432,0.711-4.728,1.382-6.364,2.156c-0.569,0.27-1.63,0.771-2.696,0.362c-0.927-0.354-1.398-1.23-1.678-1.754
						c-2.759-5.141-6.191-11.538-10.75-16.66c-0.576-0.647-1.175-1.283-1.775-1.922c-2.358-2.505-4.796-5.095-5.969-8.452
						c-0.502-1.44-0.127-3.215,0.892-4.221c0.125-0.123,0.28-0.212,0.45-0.256c4.483-1.167,8.888-2.756,13.09-4.721
						c0.16-0.074,0.398-0.184,0.477-0.277c0.107-0.128,0.149-0.501,0.177-0.747l0.911-8.097c0.061-0.549,0.548-0.939,1.106-0.882
						c0.549,0.063,0.943,0.558,0.882,1.107l-0.911,8.096c-0.055,0.486-0.138,1.221-0.637,1.813c-0.362,0.43-0.842,0.652-1.159,0.8
						c-4.217,1.972-8.633,3.574-13.131,4.765c-0.359,0.505-0.477,1.33-0.258,1.961c1.031,2.955,3.22,5.28,5.536,7.741
						c0.613,0.651,1.226,1.302,1.813,1.962c4.715,5.299,8.21,11.812,11.018,17.045c0.149,0.277,0.399,0.743,0.631,0.831
						c0.27,0.103,0.849-0.172,1.127-0.303c1.778-0.842,4.148-1.534,6.658-2.267c2.751-0.805,5.596-1.636,7.434-2.637
						c0.03-0.017,3.041-1.63,4.602-0.714c0.509,0.3,0.803,0.826,0.808,1.443c0.005,0.611-0.017,1.272-0.039,1.948
						c-0.062,1.83-0.13,3.905,0.405,4.946c0.252,0.491,0.059,1.094-0.433,1.347C554.01,592.668,553.854,592.703,553.7,592.703z"/>
				</g>
				<g>
					<path d="M531.967,599.144c-0.321,0-0.637-0.154-0.83-0.44c-9.819-14.558-19.868-29.226-29.869-43.598
						c-0.315-0.453-0.203-1.077,0.25-1.393c0.452-0.315,1.077-0.204,1.393,0.25c10.006,14.38,20.061,29.057,29.885,43.621
						c0.309,0.458,0.188,1.08-0.269,1.389C532.354,599.088,532.159,599.144,531.967,599.144z"/>
				</g>
				<g>
					<path d="M549.503,609.711c-0.219,0-0.42-0.144-0.481-0.365c-0.074-0.266,0.081-0.542,0.347-0.616
						c74.366-20.804,171.586-50.14,199.611-58.636c0.268-0.081,0.544,0.068,0.624,0.333c0.08,0.265-0.069,0.544-0.333,0.624
						c-28.028,8.496-125.257,37.835-199.633,58.642C549.593,609.705,549.547,609.711,549.503,609.711z"/>
				</g>
				<g>
					<path d="M550.845,584.847c-0.344,0-0.679-0.178-0.864-0.496c-3.99-6.83-8.596-13.431-13.05-19.815l-8.668-12.425
						c-0.315-0.453-0.205-1.076,0.248-1.393c0.455-0.315,1.078-0.204,1.393,0.248l8.668,12.425
						c4.477,6.416,9.105,13.051,13.136,19.951c0.278,0.477,0.118,1.089-0.359,1.367C551.19,584.803,551.016,584.847,550.845,584.847
						z"/>
				</g>
				<g>
					<path d="M531.785,575.243c-0.065,0-0.13-0.001-0.195-0.002c-1.85-0.043-3.96-0.942-4.508-2.854
						c-0.413-1.447,0.153-3.029,1.641-4.577c1.242-1.292,2.465-1.981,3.738-2.107c0.036-0.003,0.075-0.002,0.108-0.005l-0.01,1
						l0.023-1c1.267,0.013,3.182,0.031,4.31,0.965c1.2,0.995,2.325,2.698,1.885,4.496c-0.266,1.088-1.052,2.027-2.335,2.789
						C535.014,574.797,533.407,575.243,531.785,575.243z M532.609,567.698c-0.766,0.093-1.565,0.583-2.445,1.498
						c-0.551,0.573-1.434,1.679-1.158,2.64c0.266,0.931,1.55,1.381,2.63,1.405c1.277,0.034,2.638-0.331,3.785-1.013
						c0.553-0.329,1.247-0.863,1.413-1.546c0.222-0.902-0.518-1.9-1.217-2.481C535.046,567.729,533.482,567.706,532.609,567.698z"/>
				</g>
				<g>
					<path d="M532.091,577.864c-0.22,0-0.445-0.004-0.678-0.013c-1.467-0.051-4.039-0.861-4.899-2.437
						c-0.471-0.863-0.555-1.934-0.258-3.272c0.254-1.139,0.995-2.775,1.922-3.699c0.392-0.39,1.024-0.39,1.414,0.002
						c0.39,0.391,0.39,1.024-0.002,1.414c-0.541,0.54-1.174,1.784-1.381,2.717c-0.186,0.834-0.165,1.467,0.06,1.881
						c0.378,0.692,2.112,1.358,3.215,1.397c1.526,0.05,2.692-0.089,3.668-0.452c0.948-0.353,2.087-1.107,2.44-2.165
						c0.502-1.503-0.381-2.904-1.09-4.03l1.682-1.085c0.795,1.264,2.106,3.348,1.306,5.747c-0.488,1.468-1.85,2.742-3.64,3.408
						C534.778,577.674,533.571,577.864,532.091,577.864z"/>
				</g>
				<g>
					<path d="M532.216,615.062c-0.043,0-0.086-0.003-0.129-0.009c-0.858-0.116-0.892-0.792-0.947-1.913
						c-0.013-0.246-0.023-0.493-0.036-0.66c-0.042-0.115-0.064-0.241-0.06-0.371c0.162-5.779,0.035-8.878-0.224-14.301
						c-0.026-0.552,0.4-1.021,0.951-1.047c0.538-0.033,1.021,0.4,1.047,0.951c0.259,5.426,0.387,8.547,0.229,14.302
						c0.053,0.282,0.07,0.626,0.09,1.027c0.013,0.247,0.023,0.494,0.036,0.66c0.074,0.204,0.084,0.435,0.01,0.657
						C533.045,614.773,532.646,615.062,532.216,615.062z"/>
				</g>
				<g>
					<path d="M550.843,584.847c-0.447,0-0.854-0.302-0.969-0.755c-0.135-0.536,0.189-1.079,0.725-1.215
						c1.784-0.45,4.39-1.476,7.69-2.773c5.865-2.308,13.898-5.467,24.471-8.311c11.623-3.126,90.065-27.26,94.307-29.016
						c4.407-1.824,64.998-19.28,70.47-20.302c0.55-0.096,1.065,0.258,1.167,0.8c0.101,0.543-0.257,1.065-0.8,1.167
						c-5.08,0.948-65.983,18.49-70.071,20.183c-4.262,1.764-82.908,25.968-94.553,29.1c-10.465,2.814-18.436,5.95-24.258,8.239
						c-3.366,1.324-6.024,2.37-7.932,2.852C551.007,584.837,550.924,584.847,550.843,584.847z"/>
				</g>
				<g>
					<path d="M542.048,544.202c-0.221,0-0.423-0.147-0.483-0.371c-0.071-0.267,0.087-0.54,0.354-0.612
						c26.737-7.157,58.779-16.674,89.767-25.877c30.99-9.204,63.035-18.722,89.783-25.883c0.27-0.066,0.54,0.088,0.612,0.354
						c0.071,0.267-0.087,0.54-0.354,0.612c-26.734,7.156-58.772,16.672-89.757,25.874c-30.993,9.206-63.042,18.724-89.793,25.886
						C542.134,544.196,542.09,544.202,542.048,544.202z"/>
				</g>
				<g>
					<g>
						<path d="M554.406,535.864c-0.078,0-0.158-0.019-0.232-0.057c-0.245-0.128-0.34-0.431-0.212-0.675l3.416-6.527
							c0.13-0.245,0.434-0.337,0.675-0.212c0.245,0.128,0.34,0.431,0.212,0.675l-3.416,6.527
							C554.76,535.767,554.586,535.864,554.406,535.864z"/>
					</g>
					<g>
						<path d="M561.92,531.646c-0.049,0-0.098-0.007-0.146-0.023c-0.264-0.08-0.412-0.36-0.331-0.624l0.97-3.161
							c0.08-0.265,0.359-0.417,0.624-0.331c0.264,0.08,0.412,0.36,0.331,0.624l-0.97,3.161
							C562.332,531.507,562.134,531.646,561.92,531.646z"/>
					</g>
					<g>
						<path d="M567.67,530.076c-0.103,0-0.208-0.032-0.297-0.098c-0.223-0.165-0.269-0.478-0.105-0.699
							c0.785-1.063,1.375-2.242,1.753-3.507c0.079-0.264,0.357-0.413,0.623-0.336c0.265,0.079,0.415,0.358,0.336,0.623
							c-0.412,1.376-1.054,2.659-1.907,3.813C567.974,530.006,567.822,530.076,567.67,530.076z"/>
					</g>
					<g>
						<path d="M572.927,527.995c-0.062,0-0.123-0.011-0.184-0.035c-0.257-0.102-0.383-0.392-0.281-0.648l1.034-2.619
							c0.102-0.257,0.393-0.384,0.648-0.281c0.257,0.102,0.383,0.392,0.281,0.648l-1.034,2.619
							C573.315,527.875,573.126,527.995,572.927,527.995z"/>
					</g>
					<g>
						<path d="M579.565,528.289c-0.053,0-0.105-0.008-0.158-0.025c-0.262-0.087-0.403-0.37-0.316-0.633l1.931-5.805
							c0.088-0.262,0.369-0.405,0.633-0.316c0.262,0.087,0.403,0.37,0.316,0.633l-1.931,5.805
							C579.97,528.156,579.775,528.289,579.565,528.289z"/>
					</g>
					<g>
						<path d="M585.185,524.063c-0.091,0-0.183-0.024-0.266-0.076c-0.234-0.147-0.305-0.456-0.158-0.689
							c0.551-0.878,0.891-1.886,0.984-2.915c0.024-0.275,0.291-0.467,0.543-0.453c0.275,0.025,0.478,0.269,0.453,0.543
							c-0.107,1.186-0.499,2.347-1.133,3.356C585.515,523.979,585.352,524.063,585.185,524.063z"/>
					</g>
					<g>
						<path d="M596.935,523.797c-0.043,0-0.087-0.006-0.131-0.018c-0.267-0.072-0.424-0.347-0.352-0.613
							c0.554-2.047,1.014-4.138,1.365-6.215c0.047-0.271,0.311-0.452,0.577-0.409c0.271,0.046,0.455,0.305,0.409,0.577
							c-0.357,2.108-0.824,4.231-1.387,6.309C597.357,523.65,597.156,523.797,596.935,523.797z"/>
					</g>
					<g>
						<path d="M606.921,518.581c-0.042,0-0.085-0.005-0.128-0.017c-0.268-0.071-0.426-0.345-0.356-0.611l0.977-3.679
							c0.07-0.266,0.342-0.429,0.612-0.354c0.267,0.071,0.425,0.345,0.354,0.612l-0.977,3.677
							C607.345,518.434,607.143,518.581,606.921,518.581z"/>
					</g>
					<g>
						<path d="M613.996,520.411c-0.03,0-0.06-0.003-0.09-0.008c-0.272-0.049-0.452-0.31-0.403-0.581l1.186-6.558
							c0.05-0.273,0.314-0.448,0.581-0.403c0.272,0.05,0.452,0.31,0.403,0.581L614.487,520
							C614.443,520.241,614.233,520.411,613.996,520.411z"/>
					</g>
					<g>
						<path d="M601.896,523.535c-0.031,0-0.062-0.003-0.093-0.009c-0.271-0.051-0.45-0.312-0.399-0.583l0.538-2.873
							c0.051-0.272,0.316-0.45,0.583-0.399c0.271,0.051,0.45,0.312,0.399,0.583l-0.538,2.873
							C602.341,523.367,602.131,523.535,601.896,523.535z"/>
					</g>
					<g>
						<path d="M622.572,514.65c-0.049,0-0.099-0.007-0.147-0.022c-0.264-0.081-0.412-0.361-0.33-0.625l1.221-3.948
							c0.081-0.264,0.362-0.416,0.625-0.33c0.264,0.081,0.412,0.361,0.33,0.625l-1.221,3.948
							C622.983,514.513,622.786,514.65,622.572,514.65z"/>
					</g>
					<g>
						<path d="M633.835,511.521c-0.054,0-0.108-0.009-0.161-0.026c-0.262-0.09-0.401-0.373-0.313-0.635l1.333-3.913
							c0.09-0.262,0.373-0.397,0.635-0.313c0.262,0.09,0.401,0.374,0.313,0.635l-1.333,3.913
							C634.237,511.39,634.043,511.521,633.835,511.521z"/>
					</g>
					<g>
						<path d="M643.143,511.528c-0.007,0-0.014,0-0.021,0c-0.276-0.012-0.49-0.245-0.479-0.52c0.104-2.501,0.714-5.022,1.763-7.288
							c0.116-0.251,0.412-0.359,0.664-0.244c0.251,0.116,0.359,0.413,0.244,0.664c-0.995,2.15-1.573,4.538-1.671,6.909
							C643.631,511.318,643.409,511.528,643.143,511.528z"/>
					</g>
					<g>
						<path d="M650.014,507.853c-0.266,0-0.486-0.208-0.499-0.476c-0.083-1.673,0.227-3.369,0.896-4.904
							c0.109-0.254,0.407-0.369,0.657-0.259c0.254,0.109,0.369,0.404,0.259,0.657c-0.607,1.396-0.889,2.936-0.813,4.457
							c0.014,0.275-0.198,0.51-0.475,0.523C650.03,507.853,650.021,507.853,650.014,507.853z"/>
					</g>
					<g>
						<path d="M654.746,503.938c-0.059,0-0.118-0.01-0.177-0.032c-0.258-0.098-0.389-0.386-0.291-0.645l1.198-3.179
							c0.097-0.258,0.383-0.392,0.645-0.291c0.258,0.098,0.389,0.386,0.291,0.645l-1.198,3.179
							C655.139,503.815,654.948,503.938,654.746,503.938z"/>
					</g>
					<g>
						<path d="M660.095,506.995c-0.034,0-0.068-0.004-0.103-0.011c-0.264-0.056-0.436-0.311-0.389-0.576l0.126-0.711
							c0.017-0.096,0.06-0.18,0.12-0.247c0.661-2.451,1.528-4.859,2.583-7.171c0.114-0.251,0.413-0.358,0.663-0.247
							c0.251,0.115,0.361,0.411,0.247,0.663c-1.162,2.545-2.091,5.209-2.762,7.92C660.524,506.842,660.32,506.995,660.095,506.995z"
							/>
					</g>
					<g>
						<path d="M665.982,502.366c-0.059,0-0.12-0.011-0.179-0.033c-0.258-0.099-0.387-0.387-0.288-0.646l1.505-3.944
							c0.098-0.259,0.388-0.388,0.644-0.289c0.258,0.098,0.388,0.387,0.289,0.645l-1.505,3.946
							C666.373,502.244,666.184,502.366,665.982,502.366z"/>
					</g>
					<g>
						<path d="M673.533,503.145c-0.017,0-0.034-0.001-0.051-0.003c-0.274-0.027-0.476-0.272-0.447-0.547
							c0.241-2.41,0.681-4.814,1.305-7.146c0.072-0.267,0.35-0.419,0.612-0.354c0.268,0.072,0.426,0.346,0.354,0.612
							c-0.611,2.28-1.04,4.631-1.277,6.987C674.004,502.952,673.786,503.145,673.533,503.145z"/>
					</g>
					<g>
						<path d="M677.999,497.396c-0.075,0-0.151-0.017-0.223-0.053c-0.247-0.123-0.348-0.423-0.225-0.67l0.784-1.569
							c0.125-0.248,0.428-0.346,0.671-0.224c0.247,0.124,0.347,0.424,0.224,0.671l-0.784,1.567
							C678.359,497.294,678.183,497.396,677.999,497.396z"/>
					</g>
					<g>
						<path d="M683.488,499.226c-0.255,0-0.473-0.194-0.497-0.453c-0.088-0.935,0.009-1.905,0.281-2.806
							c0.08-0.264,0.361-0.415,0.623-0.334c0.265,0.08,0.414,0.358,0.334,0.623c-0.235,0.778-0.318,1.615-0.242,2.423
							c0.025,0.274-0.176,0.519-0.451,0.545C683.521,499.225,683.505,499.226,683.488,499.226z"/>
					</g>
					<g>
						<path d="M688.13,497.645c-0.029,0-0.06-0.003-0.089-0.008c-0.272-0.049-0.453-0.309-0.404-0.58l0.931-5.202
							c0.049-0.271,0.313-0.45,0.58-0.404c0.272,0.049,0.453,0.309,0.404,0.58l-0.931,5.202
							C688.578,497.475,688.367,497.645,688.13,497.645z"/>
					</g>
					<g>
						<path d="M696.055,495.827c-0.001,0-0.003,0-0.005,0c-0.275-0.003-0.498-0.228-0.495-0.505c0.015-1.6,0.372-3.214,1.035-4.666
							c0.115-0.25,0.413-0.358,0.663-0.247c0.251,0.115,0.361,0.411,0.247,0.663c-0.606,1.325-0.933,2.798-0.945,4.26
							C696.552,495.606,696.329,495.827,696.055,495.827z"/>
					</g>
					<g>
						<path d="M702.593,493.72c-0.041,0-0.083-0.005-0.125-0.016c-0.267-0.069-0.428-0.342-0.359-0.609
							c0.137-0.528,0.392-1.321,0.647-2.114c0.248-0.771,0.498-1.541,0.63-2.057c0.069-0.267,0.341-0.429,0.609-0.359
							c0.267,0.069,0.428,0.342,0.359,0.609c-0.137,0.528-0.392,1.321-0.648,2.114c-0.248,0.771-0.498,1.541-0.63,2.057
							C703.019,493.57,702.815,493.72,702.593,493.72z"/>
					</g>
					<g>
						<path d="M710.189,492.181c-0.065,0-0.131-0.013-0.194-0.039c-0.254-0.107-0.374-0.4-0.267-0.655
							c0.401-0.953,0.634-1.957,0.69-2.985c0.016-0.275,0.237-0.499,0.526-0.472c0.275,0.015,0.487,0.25,0.472,0.526
							c-0.062,1.143-0.319,2.26-0.766,3.319C710.569,492.065,710.385,492.181,710.189,492.181z"/>
					</g>
					<g>
						<path d="M548.841,536.611c-0.018,0-0.038-0.001-0.057-0.003c-0.274-0.031-0.472-0.278-0.441-0.553
							c0.124-1.102,0.514-2.174,1.127-3.1c0.154-0.231,0.465-0.29,0.693-0.141c0.231,0.152,0.293,0.463,0.141,0.693
							c-0.526,0.794-0.86,1.714-0.967,2.658C549.308,536.423,549.092,536.611,548.841,536.611z"/>
					</g>
					<g>
						<path d="M706.261,491.716c-0.031,0-0.063-0.003-0.094-0.009c-0.271-0.052-0.45-0.313-0.398-0.584
							c0.252-1.327,0.471-1.707,0.867-2.397c0.151-0.263,0.333-0.577,0.56-1.026c0.124-0.246,0.426-0.344,0.672-0.221
							c0.246,0.125,0.345,0.425,0.221,0.672c-0.237,0.47-0.427,0.8-0.585,1.074c-0.365,0.635-0.531,0.924-0.752,2.084
							C706.705,491.549,706.496,491.716,706.261,491.716z"/>
					</g>
				</g>
				<g>
					<path d="M553.222,584.468c-0.474,0-0.895-0.338-0.982-0.82c-0.301-1.644-0.231-3.289-0.164-4.881
						c0.046-1.096,0.09-2.131,0.021-3.163c-0.394-5.986-4.312-10.931-9.007-16.316l-14.212-16.306
						c-0.363-0.416-0.319-1.048,0.097-1.411c0.415-0.362,1.046-0.32,1.411,0.097l14.212,16.306c3.809,4.369,9.024,10.352,9.495,17.5
						c0.075,1.14,0.027,2.278-0.02,3.378c-0.065,1.55-0.127,3.014,0.133,4.438c0.1,0.543-0.261,1.064-0.804,1.163
						C553.342,584.463,553.281,584.468,553.222,584.468z"/>
				</g>
				<g>
					<path d="M552.862,571.148c-0.21,0-0.404-0.133-0.475-0.342c-0.087-0.263,0.055-0.546,0.316-0.633
						c10.589-3.523,46.62-14.069,84.767-25.233c46.458-13.598,94.499-27.657,107.061-32.058c0.26-0.093,0.545,0.046,0.637,0.307
						c0.092,0.261-0.046,0.546-0.307,0.637c-12.586,4.409-60.639,18.473-107.11,32.074c-38.138,11.161-74.16,21.704-84.73,25.223
						C552.968,571.14,552.915,571.148,552.862,571.148z"/>
				</g>
				<g>
					<g>
						<path d="M572.11,599.578c-0.207,0-0.411-0.064-0.583-0.188c-0.243-0.175-0.396-0.448-0.415-0.747
							c-0.067-1.032-0.119-1.952-0.168-2.822c-0.092-1.638-0.171-3.052-0.328-4.7c-0.043-0.44,0.209-0.857,0.619-1.023
							c2.031-0.824,4.005-1.331,6.096-1.868l1.2-0.311c0.281-0.074,0.579-0.022,0.816,0.141c0.239,0.162,0.396,0.421,0.431,0.708
							c0.095,0.8,0.203,1.577,0.309,2.338c0.27,1.95,0.526,3.792,0.526,5.653c0,0.341-0.174,0.658-0.461,0.843
							c-0.313,0.199-0.737,0.308-1.26,0.429l-0.229,0.055c-1.187,0.316-2.21,0.533-3.198,0.741
							c-1.009,0.213-1.961,0.414-3.097,0.717C572.283,599.567,572.196,599.578,572.11,599.578z M572.675,591.685
							c0.118,1.375,0.188,2.618,0.267,4.024c0.028,0.514,0.059,1.045,0.092,1.606c0.711-0.169,1.372-0.309,2.018-0.444
							c1.009-0.213,1.961-0.414,3.097-0.717c0.078-0.021,0.18-0.045,0.294-0.071c0.044-0.011,0.099-0.023,0.158-0.037
							c-0.055-1.5-0.268-3.043-0.494-4.664c-0.057-0.409-0.113-0.823-0.17-1.242l-0.106,0.027
							C576.049,590.625,574.355,591.06,572.675,591.685z"/>
					</g>
					<g>
						<path d="M578.813,597.45c-0.273,0-0.496-0.219-0.5-0.492l-0.014-0.938c-0.382,0.253-0.801,0.45-1.242,0.583
							c-0.213,0.065-0.44-0.018-0.562-0.203c-0.217-0.329-0.235-0.695-0.198-1.011c-0.38,0.569-0.773,1.13-1.181,1.678
							c-0.138,0.188-0.387,0.253-0.598,0.162c-0.394-0.168-0.548-0.593-0.413-1.105c-0.197,0.292-0.473,0.607-0.884,0.754
							c-0.169,0.06-0.357,0.025-0.495-0.092c-0.137-0.117-0.199-0.299-0.164-0.476c0.001-0.007,0.003-0.015,0.004-0.021
							c-0.1,0.039-0.212,0.048-0.321,0.015c-0.241-0.069-0.393-0.307-0.355-0.555c0.22-1.476,0.661-2.908,1.312-4.259
							c0.12-0.25,0.418-0.354,0.667-0.233c0.076,0.036,0.14,0.09,0.187,0.154c0.258-0.449,0.523-0.893,0.796-1.332
							c0.141-0.224,0.432-0.299,0.662-0.176c0.231,0.125,0.327,0.409,0.217,0.648c-0.486,1.061-0.982,2.142-1.396,3.251l2.313-3.883
							c0.138-0.23,0.431-0.311,0.665-0.186c0.235,0.126,0.331,0.414,0.217,0.655c-0.59,1.244-1.141,2.52-1.648,3.811
							c0.415-0.649,0.811-1.311,1.185-1.979c0.122-0.219,0.388-0.313,0.619-0.222c0.232,0.092,0.362,0.341,0.304,0.584l-0.626,2.571
							c-0.018,0.076-0.043,0.18-0.06,0.285c0.419-0.2,0.799-0.479,1.118-0.819c0.14-0.148,0.357-0.198,0.546-0.124
							c0.19,0.073,0.317,0.255,0.319,0.459l0.028,1.987c0.004,0.276-0.217,0.504-0.492,0.508
							C578.817,597.45,578.815,597.45,578.813,597.45z"/>
					</g>
				</g>
				<g>
					<g>
						<path d="M590.537,594.245c-0.203,0-0.405-0.063-0.577-0.183c-0.275-0.194-0.434-0.515-0.422-0.852
							c0.067-1.981-0.155-3.895-0.392-5.922c-0.056-0.475-0.111-0.95-0.163-1.43c-0.048-0.443,0.203-0.865,0.617-1.033
							c2.554-1.041,5.231-1.767,7.959-2.157c0.273-0.039,0.55,0.037,0.765,0.208c0.216,0.172,0.351,0.425,0.373,0.699l0.613,7.463
							c0.043,0.511-0.308,0.972-0.813,1.066l-0.259,0.048c-2.519,0.469-4.183,0.778-7.335,2.022
							C590.785,594.222,590.661,594.245,590.537,594.245z M591.057,586.401c0.025,0.22,0.051,0.438,0.076,0.656
							c0.18,1.542,0.364,3.124,0.407,4.74c2.264-0.811,3.83-1.141,5.704-1.493l-0.451-5.487
							C594.837,585.165,592.915,585.695,591.057,586.401z"/>
					</g>
					<g>
						<path d="M595.73,591.559c-0.103,0-0.208-0.026-0.303-0.079c-0.293-0.165-0.429-0.544-0.411-0.833
							c0.032-0.566,0.174-1.105,0.335-1.628l-0.78,1.24c-0.162,0.259-0.544,0.867-1.204,0.896c-0.256-0.003-0.479-0.174-0.517-0.428
							c-0.063-0.438,0.08-0.831,0.195-1.146l0.692-1.895l-1.695,2.095c-0.155,0.193-0.43,0.243-0.643,0.116
							c-0.213-0.126-0.303-0.389-0.21-0.618l0.601-1.482l-1.691,2.25c-0.149,0.199-0.421,0.258-0.638,0.14
							c-0.218-0.117-0.317-0.377-0.233-0.609c0.629-1.74,1.357-3.463,2.166-5.119c0.121-0.248,0.424-0.349,0.668-0.231
							c0.249,0.121,0.352,0.42,0.231,0.668c-0.238,0.489-0.469,0.983-0.692,1.482l0.996-1.329c0.373-0.489,0.805-0.476,1.064-0.315
							c0.207,0.128,0.291,0.387,0.2,0.612l-0.485,1.199l1.475-1.822c0.153-0.19,0.422-0.241,0.635-0.12
							c0.213,0.12,0.308,0.377,0.224,0.607l-1.19,3.254l1.445-2.299c0.115-0.184,0.335-0.273,0.544-0.22
							c0.21,0.052,0.362,0.233,0.379,0.448c0.065,0.893-0.199,1.722-0.455,2.522c-0.184,0.575-0.358,1.121-0.409,1.67
							c0.074,0.036,0.141,0.091,0.191,0.163c0.158,0.227,0.103,0.538-0.124,0.696C595.981,591.521,595.856,591.559,595.73,591.559z"
							/>
					</g>
				</g>
				<g>
					<g>
						<path d="M609.813,588.431c-0.134,0-0.268-0.027-0.394-0.081c-0.541-0.231-0.841-0.729-0.893-1.478l-0.447-6.61
							c-0.033-0.493,0.299-0.937,0.781-1.044c0.905-0.2,1.811-0.448,2.688-0.686c0.902-0.246,1.835-0.501,2.791-0.713l2.148-0.477
							c0.272-0.06,0.56-0.003,0.791,0.158c0.229,0.162,0.381,0.413,0.417,0.691c0.069,0.543,0.15,1.098,0.232,1.659
							c0.258,1.766,0.523,3.592,0.496,5.353c-0.003,0.173-0.051,0.343-0.138,0.491c-0.279,0.475-0.582,0.551-2.939,1.145
							c-1.632,0.411-3.866,0.974-5.148,1.514C610.076,588.404,609.944,588.431,609.813,588.431z M610.132,580.974l0.349,5.142
							c1.335-0.449,2.989-0.866,4.38-1.216c0.549-0.139,1.144-0.288,1.559-0.403c-0.04-1.409-0.259-2.904-0.471-4.357
							c-0.029-0.204-0.06-0.408-0.088-0.61l-1.089,0.242c-0.909,0.201-1.818,0.449-2.697,0.689
							C611.441,580.633,610.793,580.81,610.132,580.974z"/>
					</g>
					<g>
						<path d="M611.051,585.867c-0.101,0-0.201-0.03-0.288-0.092c-0.204-0.144-0.271-0.417-0.155-0.639l0.91-1.756l-0.688,0.757
							c-0.175,0.192-0.465,0.219-0.671,0.063c-0.206-0.155-0.261-0.441-0.125-0.661l0.216-0.352
							c-0.028,0.006-0.057,0.01-0.087,0.014c-0.163,0.025-0.332-0.043-0.441-0.172c-0.109-0.129-0.147-0.303-0.1-0.464
							c0.33-1.133,0.893-2.221,1.628-3.146c0.172-0.219,0.487-0.253,0.702-0.081c0.158,0.125,0.22,0.326,0.176,0.51l0.69-0.826
							c0.169-0.201,0.464-0.239,0.676-0.086c0.213,0.153,0.271,0.445,0.134,0.668l-0.088,0.143c0.152-0.061,0.33-0.045,0.472,0.055
							c0.206,0.143,0.273,0.418,0.157,0.641l-0.407,0.785c0.29-0.393,0.576-0.787,0.859-1.177c0.153-0.21,0.45-0.276,0.672-0.144
							c0.223,0.136,0.311,0.408,0.195,0.641l-0.095,0.189c0.095-0.013,0.19,0.002,0.28,0.045c0.225,0.107,0.336,0.365,0.261,0.603
							l-0.66,2.073c0.5-0.455,0.908-1.046,1.283-1.588c0.138-0.198,0.396-0.271,0.618-0.171c0.22,0.1,0.337,0.343,0.277,0.577
							c-0.249,0.987-0.446,1.999-0.586,3.008c-0.037,0.274-0.293,0.463-0.564,0.427c-0.273-0.038-0.465-0.29-0.427-0.563
							c0.048-0.346,0.102-0.691,0.163-1.036c-0.343,0.326-0.732,0.614-1.182,0.817c-0.217,0.095-0.472,0.029-0.61-0.162
							c-0.122-0.168-0.17-0.35-0.178-0.522l-0.535,0.81c-0.119,0.183-0.401,0.611-0.899,0.647c-0.191,0.011-0.352-0.072-0.452-0.221
							c-0.1-0.149-0.111-0.342-0.031-0.502l0.104-0.207c-0.273,0.319-0.553,0.633-0.839,0.94
							C611.318,585.813,611.185,585.867,611.051,585.867z"/>
					</g>
				</g>
				<g>
					<g>
						<path d="M627.851,583.112c-0.182,0-0.362-0.05-0.521-0.148c-0.268-0.163-0.443-0.442-0.474-0.755
							c-0.062-0.638-0.137-1.27-0.21-1.898c-0.198-1.69-0.402-3.438-0.371-5.237c0.008-0.441,0.305-0.825,0.729-0.945
							c1.04-0.292,2.054-0.63,3.034-0.957c1.404-0.468,2.857-0.951,4.417-1.314c0.288-0.064,0.597-0.001,0.835,0.182
							c0.237,0.182,0.38,0.461,0.39,0.76c0.037,1.11,0.128,2.341,0.216,3.531c0.09,1.21,0.182,2.461,0.22,3.611
							c0.015,0.423-0.239,0.809-0.633,0.964c-1.234,0.485-2.518,0.803-3.76,1.108c-1.231,0.304-2.396,0.59-3.506,1.027
							C628.099,583.089,627.975,583.112,627.851,583.112z M628.274,575.843c0.026,1.407,0.188,2.788,0.357,4.237
							c0.026,0.224,0.053,0.448,0.078,0.673c0.846-0.263,1.699-0.474,2.534-0.68c0.988-0.243,1.934-0.477,2.843-0.785
							c-0.046-0.909-0.116-1.871-0.186-2.81c-0.059-0.786-0.117-1.59-0.162-2.372c-1.033,0.286-2.03,0.618-3.069,0.964
							C629.894,575.329,629.099,575.595,628.274,575.843z"/>
					</g>
					<g>
						<path d="M632.117,581.538c-0.037,0-0.076-0.004-0.114-0.014c-0.268-0.063-0.435-0.332-0.372-0.601
							c0.175-0.747,0.342-1.503,0.497-2.261c-0.405,0.61-0.837,1.225-1.551,1.573c-0.195,0.095-0.428,0.054-0.578-0.101
							c-0.121-0.124-0.167-0.301-0.128-0.464c-0.028,0.026-0.056,0.054-0.084,0.08c-0.178,0.166-0.444,0.182-0.64,0.04
							c-0.194-0.143-0.259-0.403-0.154-0.621l1.031-2.133c-0.166,0.167-0.333,0.333-0.501,0.498
							c-0.286,0.279-0.719,0.702-1.297,0.836c-0.192,0.045-0.393-0.028-0.511-0.185c-0.119-0.157-0.135-0.369-0.041-0.542
							l0.034-0.062c-0.14,0.048-0.293,0.034-0.422-0.045c-0.189-0.114-0.281-0.34-0.225-0.555c0.299-1.138,0.838-2.229,1.56-3.157
							c0.17-0.219,0.484-0.259,0.701-0.088c0.141,0.109,0.207,0.278,0.191,0.443c0.065-0.088,0.129-0.177,0.192-0.266
							c0.152-0.216,0.448-0.274,0.672-0.134c0.225,0.14,0.301,0.431,0.175,0.663l-0.762,1.399c0.602-0.624,1.188-1.264,1.753-1.912
							c0.163-0.188,0.44-0.227,0.652-0.089c0.209,0.138,0.284,0.409,0.175,0.635l-0.366,0.758l0.652-0.941
							c0.151-0.218,0.445-0.278,0.67-0.143c0.226,0.136,0.307,0.425,0.185,0.659l-0.904,1.735c0.029-0.023,0.06-0.043,0.091-0.064
							c0.167-0.113,0.384-0.112,0.553-0.003c0.168,0.109,0.254,0.31,0.218,0.508c-0.253,1.39-0.544,2.79-0.867,4.163
							C632.55,581.383,632.345,581.538,632.117,581.538z"/>
					</g>
				</g>
				<g>
					<g>
						<path d="M645.799,578.16c-0.2,0-0.398-0.06-0.567-0.176c-0.258-0.178-0.417-0.466-0.432-0.778l-0.314-6.892
							c-0.023-0.491,0.315-0.927,0.798-1.025c0.842-0.173,1.501-0.3,2.16-0.427c0.649-0.125,1.3-0.25,2.129-0.421
							c0.457-0.094,1.095-0.293,1.711-0.485c0.517-0.161,1.021-0.317,1.429-0.419c0.285-0.07,0.585-0.014,0.822,0.157
							c0.238,0.169,0.39,0.435,0.415,0.727c0.194,2.219,0.239,4.208,0.15,6.65c-0.015,0.418-0.288,0.782-0.685,0.913
							c-1.158,0.384-2.451,0.736-3.702,1.078c-1.226,0.334-2.492,0.681-3.6,1.047C646.011,578.144,645.904,578.16,645.799,578.16z
							 M646.522,571.079l0.216,4.74c0.802-0.237,1.634-0.464,2.448-0.686c0.986-0.27,2.001-0.546,2.937-0.835
							c0.042-1.604,0.02-3.023-0.073-4.485c-0.057,0.018-0.113,0.035-0.171,0.053c-0.663,0.207-1.35,0.422-1.905,0.535
							c-0.838,0.173-1.495,0.299-2.152,0.426C647.404,570.906,646.987,570.986,646.522,571.079z"/>
					</g>
					<g>
						<path d="M645.751,576.607c-0.099,0-0.197-0.029-0.283-0.088c-0.194-0.134-0.27-0.386-0.179-0.603
							c0.318-0.77,0.569-1.471,0.809-2.14c0.012-0.033,0.022-0.066,0.034-0.098c-0.171,0.073-0.373,0.044-0.518-0.081
							c-0.174-0.15-0.225-0.398-0.123-0.602l0.091-0.184c-0.064-0.006-0.129-0.023-0.19-0.055c-0.201-0.104-0.308-0.33-0.259-0.552
							c0.241-1.095,0.861-2.073,1.747-2.757c0.107-0.082,0.229-0.114,0.363-0.102c0.104-0.166,0.207-0.334,0.306-0.503
							c0.138-0.232,0.434-0.314,0.669-0.187c0.19,0.102,0.287,0.31,0.258,0.512c0.102-0.016,0.215,0.006,0.313,0.063
							c0.23,0.133,0.317,0.423,0.197,0.66c-0.288,0.567-0.608,1.197-0.999,1.806c-0.278,0.601-0.505,1.193-0.731,1.813
							c0.55-0.872,0.983-1.808,1.512-2.95l0.224-0.481c0.113-0.244,0.402-0.354,0.648-0.249c0.248,0.104,0.368,0.388,0.271,0.64
							c-0.101,0.262-0.204,0.522-0.311,0.782c0.034-0.063,0.068-0.125,0.102-0.189c0.103-0.218,0.209-0.434,0.319-0.647
							c0.126-0.24,0.424-0.336,0.664-0.219c0.244,0.119,0.348,0.411,0.234,0.658c-0.102,0.221-0.209,0.438-0.323,0.654
							c-0.4,0.853-0.734,1.737-0.998,2.643c0.585-0.477,1.075-1.07,1.426-1.736c0.125-0.236,0.415-0.329,0.654-0.221
							c0.242,0.114,0.353,0.398,0.25,0.645c-0.419,1.011-0.671,2.073-0.75,3.159c-0.021,0.276-0.29,0.481-0.535,0.463
							c-0.275-0.021-0.482-0.26-0.463-0.535c0.026-0.358,0.069-0.714,0.13-1.066c-0.393,0.331-0.825,0.617-1.285,0.848
							c-0.171,0.086-0.378,0.067-0.53-0.053c-0.152-0.118-0.223-0.313-0.182-0.501c0.047-0.219,0.099-0.436,0.153-0.653
							c-0.261,0.281-0.534,0.55-0.817,0.806c-0.148,0.135-0.359,0.164-0.536,0.087c-0.299,0.355-0.634,0.711-1.018,1.075
							C646,576.56,645.876,576.607,645.751,576.607z"/>
					</g>
				</g>
				<g>
					<g>
						<path d="M663.514,573.04c-0.438,0-0.882-0.142-1.169-0.621c-0.186-0.313-0.203-0.625-0.212-0.794l-0.277-6.151
							c-0.022-0.484,0.306-0.914,0.778-1.021c1.047-0.236,2.251-0.65,3.646-1.13c1.012-0.348,2.104-0.723,3.279-1.079
							c0.308-0.095,0.646-0.032,0.902,0.167c0.256,0.198,0.4,0.508,0.387,0.832c-0.099,2.345,0.189,5.231,0.37,6.742
							c0.056,0.467-0.222,0.909-0.666,1.064c-1.244,0.431-2.162,0.683-3.135,0.949c-0.807,0.221-1.65,0.452-2.753,0.809
							C664.398,572.894,663.959,573.04,663.514,573.04z M663.891,566.197l0.211,4.689c1.154-0.371,1.983-0.599,2.786-0.818
							c0.729-0.2,1.425-0.392,2.252-0.657c-0.153-1.431-0.295-3.174-0.31-4.84c-0.663,0.218-1.296,0.435-1.899,0.643
							C665.814,565.598,664.816,565.94,663.891,566.197z"/>
					</g>
					<g>
						<path d="M664.508,572.06c-0.07,0-0.142-0.015-0.209-0.046c-0.213-0.098-0.33-0.331-0.279-0.56
							c0.157-0.724,0.345-1.438,0.562-2.144c-0.033,0.04-0.067,0.08-0.101,0.12c-0.149,0.177-0.399,0.226-0.605,0.124
							c-0.206-0.104-0.315-0.334-0.264-0.559c0.029-0.127,0.06-0.253,0.091-0.378c-0.24,0.242-0.488,0.476-0.745,0.7
							c-0.159,0.137-0.384,0.162-0.567,0.063c-0.184-0.099-0.286-0.302-0.257-0.509c0.2-1.433,0.769-2.798,1.647-3.946
							c0.156-0.205,0.442-0.257,0.661-0.121c0.219,0.136,0.299,0.416,0.185,0.646l-0.302,0.608
							c-0.058,0.115-0.153,0.199-0.265,0.243c-0.182,0.313-0.34,0.638-0.475,0.974c0.394-0.453,0.759-0.933,1.09-1.434
							c0.329-0.724,0.71-1.424,1.143-2.098c0.141-0.22,0.427-0.293,0.657-0.171c0.229,0.123,0.326,0.401,0.222,0.641
							c-0.144,0.328-0.299,0.65-0.467,0.968c0.023-0.042,0.047-0.084,0.07-0.126c0.153-0.3,0.311-0.598,0.476-0.892
							c0.133-0.238,0.435-0.325,0.671-0.198c0.24,0.128,0.335,0.424,0.212,0.667c-0.152,0.301-0.311,0.599-0.476,0.893
							c-0.042,0.083-0.083,0.165-0.124,0.248c0.123-0.102,0.292-0.144,0.458-0.095c0.256,0.074,0.408,0.337,0.347,0.596
							l-0.598,2.517c0.44-0.567,0.743-1.242,0.859-1.952c0.042-0.257,0.279-0.437,0.534-0.417c0.26,0.021,0.46,0.238,0.459,0.499
							l-0.009,4.279c-0.001,0.275-0.225,0.499-0.5,0.499h-0.001c-0.276-0.001-0.5-0.225-0.499-0.501l0.004-1.872
							c-0.394,0.525-0.881,0.979-1.44,1.325c-0.173,0.107-0.392,0.1-0.556-0.02c-0.093-0.066-0.157-0.16-0.188-0.266
							c-0.317,0.512-0.658,1.01-1.023,1.493C664.81,571.99,664.661,572.06,664.508,572.06z M666.765,566.391
							c-0.242,0.525-0.467,1.059-0.673,1.599C666.34,567.468,666.564,566.935,666.765,566.391z"/>
					</g>
				</g>
				<g>
					<g>
						<path d="M680.296,567.848c-0.214,0-0.425-0.068-0.6-0.199c-0.245-0.184-0.393-0.47-0.4-0.776l-0.182-7.02
							c-0.011-0.442,0.271-0.84,0.692-0.976c7.02-2.273,7.729-1.832,7.964-1.688c0.25,0.155,0.44,0.439,0.482,0.73
							c0.152,1.043,0.207,1.999,0.229,2.406l0.009,0.139c0.083,1.09,0.068,1.745,0.056,2.323c-0.013,0.581-0.023,1.082,0.062,1.957
							c0.04,0.412-0.178,0.806-0.548,0.991c-1.781,0.891-3.357,1.201-5.025,1.529c-0.793,0.156-1.613,0.317-2.48,0.55
							C680.469,567.837,680.382,567.848,680.296,567.848z M681.134,560.554l0.13,5.031c0.476-0.104,0.935-0.194,1.385-0.283
							c1.387-0.273,2.609-0.514,3.914-1.075c-0.034-0.594-0.024-1.029-0.015-1.483c0.012-0.559,0.024-1.137-0.051-2.128
							l-0.011-0.177c-0.015-0.255-0.042-0.736-0.1-1.311C685.201,559.376,682.929,559.998,681.134,560.554z"/>
					</g>
					<g>
						<path d="M680.091,565.481c-0.06,0-0.121-0.011-0.18-0.033c-0.21-0.081-0.341-0.293-0.317-0.517
							c0.043-0.427,0.117-0.845,0.217-1.254c-0.003,0.002-0.006,0.005-0.008,0.007c-0.155,0.148-0.388,0.182-0.577,0.082
							c-0.19-0.099-0.295-0.308-0.263-0.52c0.227-1.473,0.998-2.881,2.117-3.863c0.192-0.169,0.479-0.162,0.666,0.005
							c0.402-0.648,0.824-1.271,1.23-1.873c0.146-0.215,0.434-0.284,0.659-0.155c0.227,0.127,0.317,0.407,0.21,0.644
							c-0.008,0.016-0.015,0.032-0.023,0.048c0.138-0.099,0.324-0.122,0.49-0.05c0.242,0.106,0.359,0.384,0.268,0.632l-1.145,3.079
							c0.483-0.737,0.918-1.512,1.347-2.273c0.131-0.232,0.425-0.322,0.662-0.2c0.239,0.121,0.34,0.409,0.228,0.653
							c-0.483,1.059-0.897,2.155-1.238,3.275l1.535-1.436c0.151-0.142,0.374-0.175,0.561-0.084c0.187,0.091,0.297,0.288,0.278,0.494
							c-0.071,0.778-0.052,1.56,0.058,2.331c0.296-0.034,0.582-0.17,0.785-0.383c0.191-0.2,0.508-0.207,0.707-0.017
							c0.2,0.19,0.208,0.508,0.017,0.707c-0.514,0.539-1.287,0.794-2.021,0.671c-0.207-0.035-0.37-0.196-0.408-0.403
							c-0.105-0.581-0.165-1.17-0.177-1.76l-1.931,1.805c-0.161,0.15-0.399,0.178-0.592,0.067c-0.191-0.11-0.287-0.332-0.237-0.547
							c0.075-0.32,0.156-0.64,0.243-0.958c-0.305,0.367-0.632,0.72-0.987,1.049c-0.169,0.159-0.425,0.179-0.618,0.05
							c-0.192-0.129-0.271-0.373-0.19-0.59l0.204-0.549c-0.379,0.564-0.769,1.119-1.17,1.663
							C680.397,565.409,680.246,565.481,680.091,565.481z M681.611,561.679c-0.102,0.208-0.198,0.42-0.288,0.633
							c0.32-0.499,0.633-1.005,0.935-1.516C682.051,561.096,681.836,561.391,681.611,561.679z"/>
					</g>
				</g>
				<g>
					<g>
						<path d="M697.817,563.109c-0.175,0-0.35-0.046-0.506-0.137c-0.281-0.165-0.464-0.457-0.491-0.782
							c-0.196-2.411-0.422-4.855-0.669-7.262c-0.049-0.481,0.252-0.928,0.715-1.063c1.284-0.374,2.55-0.768,3.816-1.162
							c1.277-0.398,2.555-0.794,3.85-1.172c0.283-0.086,0.592-0.036,0.837,0.129c0.246,0.165,0.406,0.431,0.438,0.726
							c0.256,2.402,0.423,4.844,0.497,7.255c0.015,0.51-0.354,0.941-0.845,1.019c-0.043,0.015-0.088,0.027-0.134,0.037
							c-2.441,0.503-4.827,1.284-7.092,2.321C698.102,563.079,697.959,563.109,697.817,563.109z M698.225,555.551
							c0.17,1.689,0.328,3.393,0.474,5.087c1.805-0.74,3.673-1.329,5.577-1.76c-0.066-1.691-0.18-3.394-0.338-5.083
							c-0.891,0.269-1.776,0.544-2.661,0.819C700.263,554.93,699.248,555.245,698.225,555.551z"/>
					</g>
					<g>
						<path d="M704.65,560.058c-0.347,0-0.723-0.153-0.961-0.416l-0.08-0.09c-0.103-0.114-0.294-0.328-0.38-0.353
							c0.016,0.01-0.056,0.071-0.102,0.112c-0.17,0.147-0.569,0.493-1.04,0.226c-0.099-0.057-0.175-0.145-0.216-0.25
							c-0.068-0.172-0.111-0.342-0.134-0.51c-0.387,0.345-0.808,0.653-1.257,0.917c-0.19,0.111-0.435,0.085-0.598-0.069
							c-0.161-0.154-0.202-0.396-0.099-0.594l0.071-0.136c-0.048,0.038-0.096,0.075-0.144,0.112
							c-0.185,0.142-0.444,0.138-0.622-0.011c-0.18-0.147-0.234-0.4-0.13-0.608c0.096-0.193,0.192-0.388,0.289-0.583
							c-0.376,0.477-0.768,0.942-1.174,1.395c-0.146,0.162-0.379,0.211-0.578,0.121c-0.199-0.09-0.316-0.298-0.29-0.515
							c0.236-1.975,0.935-3.899,2.02-5.564c0.151-0.231,0.461-0.295,0.692-0.146c0.23,0.15,0.296,0.461,0.146,0.692
							c-0.65,0.997-1.15,2.096-1.48,3.243c1.032-1.329,1.942-2.752,2.716-4.248c0.117-0.228,0.388-0.33,0.625-0.236
							c0.238,0.092,0.368,0.349,0.302,0.596c-0.277,1.035-0.66,2.035-1.089,3.008c0.272-0.363,0.522-0.745,0.747-1.14l0.346-0.662
							c0.127-0.243,0.429-0.336,0.667-0.216c0.244,0.122,0.345,0.418,0.228,0.663c-0.113,0.235-0.233,0.466-0.361,0.692l-0.89,1.702
							c0.599-0.739,1.051-1.597,1.311-2.516c0.073-0.254,0.333-0.412,0.593-0.351c0.26,0.06,0.427,0.312,0.381,0.573
							c-0.119,0.681-0.459,1.293-0.787,1.885c-0.317,0.572-0.604,1.089-0.646,1.575c0.053-0.034,0.11-0.065,0.173-0.09
							c0.666-0.274,1.162,0.285,1.458,0.617l0.074,0.083c0.027,0.03,0.081,0.056,0.132,0.072c0.086-0.158,0.255-0.268,0.448-0.261
							c0.276,0.006,0.495,0.233,0.49,0.51c-0.006,0.322-0.197,0.594-0.5,0.707C704.893,560.038,704.773,560.058,704.65,560.058z"/>
					</g>
				</g>
				<g>
					<g>
						<path d="M715.377,557.481c-0.358,0-0.701-0.194-0.881-0.521c-0.116-0.211-0.151-0.455-0.103-0.688
							c0.022-0.638-0.046-4.18-0.261-6.207c-0.052-0.483,0.252-0.934,0.72-1.067c1.229-0.35,2.479-0.683,3.729-1.014
							c1.238-0.329,2.477-0.657,3.693-1.005c0.301-0.085,0.626-0.025,0.877,0.164c0.25,0.188,0.398,0.484,0.398,0.798
							c0,1.121,0.047,2.146,0.091,3.136c0.046,1.013,0.094,2.06,0.094,3.226c0,0.531-0.414,0.966-0.938,0.998
							c-1.185,0.366-2.363,0.713-3.542,1.06c-1.152,0.339-2.304,0.678-3.462,1.035c-0.04,0.016-0.079,0.027-0.118,0.04
							C715.576,557.466,715.477,557.481,715.377,557.481z M716.207,550.695c0.197,2.026,0.266,3.431,0.25,4.407
							c0.745-0.224,1.489-0.442,2.233-0.661c1.011-0.297,2.023-0.595,3.037-0.904c-0.015-0.829-0.05-1.609-0.084-2.37
							c-0.028-0.618-0.057-1.25-0.075-1.913c-0.82,0.225-1.646,0.444-2.474,0.663C718.129,550.174,717.163,550.43,716.207,550.695z"
							/>
					</g>
					<g>
						<path d="M719.402,555.006c-0.136,0-0.268-0.056-0.363-0.156c-0.033-0.035-0.061-0.074-0.082-0.116
							c-0.282,0.204-0.584,0.283-0.907,0.239c-0.153-0.023-0.288-0.114-0.364-0.25c-0.076-0.136-0.085-0.299-0.024-0.441
							l0.541-1.267c-0.355,0.311-0.745,0.586-1.177,0.811c-0.184,0.092-0.402,0.067-0.557-0.065
							c-0.032-0.027-0.06-0.059-0.083-0.092c-0.412,0.398-0.844,0.776-1.293,1.131c-0.161,0.128-0.384,0.144-0.561,0.039
							c-0.178-0.104-0.274-0.306-0.242-0.509c0.312-1.993,1.275-3.869,2.716-5.281c0.197-0.192,0.514-0.19,0.707,0.008
							c0.193,0.196,0.19,0.514-0.008,0.707c-0.917,0.899-1.618,2.009-2.046,3.218c0.497-0.48,0.966-0.991,1.398-1.529
							c0.507-1.024,1.13-1.986,1.865-2.873c0.162-0.197,0.447-0.239,0.659-0.1c0.213,0.141,0.287,0.418,0.171,0.646
							c-0.418,0.819-0.906,1.608-1.454,2.353c0.682-0.821,1.216-1.782,1.685-2.623c0.129-0.233,0.419-0.321,0.656-0.206
							c0.239,0.117,0.345,0.401,0.24,0.646l-0.493,1.154c0.242-0.475,0.505-0.939,0.788-1.392c0.144-0.23,0.443-0.302,0.677-0.167
							c0.233,0.137,0.315,0.435,0.185,0.672l-0.973,1.775c-0.088,0.184-0.172,0.371-0.254,0.559
							c0.009-0.002,0.018-0.003,0.025-0.004c0.269-0.038,0.527,0.146,0.568,0.42c0.181,1.204-0.711,2.459-1.908,2.687
							C719.465,555.003,719.434,555.006,719.402,555.006z"/>
					</g>
				</g>
				<g>
					<g>
						<path d="M732.334,552.589c-0.192,0-0.384-0.056-0.55-0.165c-0.299-0.196-0.47-0.537-0.448-0.894
							c0.163-2.773,0.184-4.228,0.096-6.768c-0.017-0.471,0.299-0.89,0.756-1.004c2.756-0.691,6.321-1.815,6.736-2.007
							c0.293-0.184,0.629-0.186,0.94-0.033c0.311,0.152,0.489,0.473,0.523,0.817c0.229,2.329,0.396,4.463,0.112,6.996
							c-0.045,0.398-0.322,0.731-0.706,0.847c-0.768,0.23-1.579,0.43-2.402,0.631c-1.604,0.392-3.262,0.799-4.61,1.474
							C732.641,552.554,732.487,552.589,732.334,552.589z M733.455,545.496c0.046,1.654,0.037,2.903-0.038,4.554
							c1.135-0.404,2.331-0.696,3.5-0.982c0.561-0.138,1.119-0.274,1.659-0.421c0.131-1.619,0.068-3.103-0.061-4.635
							C737.128,544.467,735.025,545.079,733.455,545.496z"/>
					</g>
					<g>
						<path d="M735.233,550.38c-0.121,0-0.24-0.044-0.333-0.127c-0.133-0.119-0.192-0.299-0.157-0.473
							c0.04-0.193,0.084-0.386,0.134-0.577c-0.049,0.028-0.098,0.056-0.147,0.082c-0.167,0.09-0.371,0.077-0.527-0.033
							c-0.154-0.11-0.233-0.299-0.204-0.486c0.07-0.439,0.18-0.863,0.317-1.277c-0.394,0.26-0.809,0.486-1.24,0.676
							c-0.107,0.075-0.225,0.149-0.353,0.221c-0.195,0.108-0.436,0.077-0.597-0.079c-0.158-0.157-0.194-0.399-0.088-0.596
							c0.218-0.398,0.232-0.768,0.249-1.158c0.024-0.602,0.052-1.282,0.835-1.882c0.183-0.142,0.437-0.134,0.611,0.002
							c0.181-0.216,0.376-0.42,0.583-0.611c0.185-0.17,0.465-0.177,0.657-0.017c0.193,0.16,0.238,0.436,0.106,0.649
							c-0.31,0.5-0.473,0.959-0.63,1.403c-0.009,0.024-0.018,0.049-0.025,0.072c0.329-0.271,0.636-0.569,0.916-0.892
							c0.392-0.682,0.822-1.327,1.231-1.941c0.145-0.216,0.432-0.286,0.657-0.161c0.228,0.126,0.321,0.404,0.216,0.642
							c-0.326,0.734-0.76,1.419-1.279,2.032c-0.329,0.579-0.626,1.182-0.849,1.805c0.047-0.042,0.092-0.084,0.137-0.127
							c0.413-0.953,0.956-1.849,1.611-2.654c0.149-0.186,0.412-0.238,0.62-0.127c0.211,0.11,0.315,0.354,0.247,0.583
							c-0.308,1.051-0.878,2.009-1.64,2.782c-0.121,0.295-0.229,0.595-0.323,0.9c0.733-0.417,1.363-1.022,1.795-1.742
							c0.102-0.17,0.292-0.269,0.488-0.239c0.196,0.023,0.359,0.159,0.418,0.348c0.227,0.729,0.273,1.512,0.138,2.263
							c-0.05,0.273-0.315,0.445-0.582,0.402c-0.271-0.05-0.451-0.31-0.402-0.582c0.042-0.232,0.063-0.467,0.06-0.701
							c-0.683,0.729-1.551,1.29-2.498,1.597C735.337,550.372,735.285,550.38,735.233,550.38z"/>
					</g>
				</g>
				<g>
					<path d="M555.794,611.683c-0.105,0-0.21-0.033-0.298-0.099c-0.16-0.118-0.234-0.32-0.19-0.514l0.288-1.247
						c-0.3,0.31-0.619,0.6-0.957,0.871c-0.165,0.131-0.394,0.144-0.572,0.037c-0.18-0.109-0.271-0.319-0.23-0.525
						c0.162-0.813,0.643-1.552,1.321-2.028c0.053-0.037,0.11-0.063,0.171-0.077c0.24-0.223,0.507-0.416,0.794-0.574
						c0.016-0.026,0.032-0.054,0.048-0.08c0.126-0.211,0.389-0.298,0.616-0.206c0.095,0.039,0.172,0.103,0.226,0.183
						c0.06,0.05,0.108,0.113,0.14,0.19c0.09,0.213,0.019,0.452-0.154,0.588l-0.448,1.941c1.232-0.786,2.397-1.683,3.475-2.672
						c0.003-0.002,0.005-0.005,0.008-0.007c0.204-0.185,0.521-0.17,0.705,0.033c0.185,0.203,0.172,0.519-0.03,0.705
						c-0.001,0.001-0.002,0.002-0.003,0.002c0.029,0.002,0.143,0.112,0.214,0.114c0.289-0.023,0.582-0.254,0.87-0.525
						c0.883-0.834,1.684-1.404,2.459-1.956c0.781-0.556,1.519-1.081,2.353-1.867c0.166-0.16,0.418-0.182,0.61-0.059
						c0.193,0.122,0.278,0.36,0.208,0.577l-0.151,0.461c0.497-0.268,1.012-0.444,1.519-0.618c0.561-0.193,1.144-0.393,1.725-0.719
						c0.189-0.106,0.427-0.078,0.587,0.072c0.112,0.105,0.167,0.255,0.156,0.402l1.76-1.594c0.16-0.147,0.395-0.172,0.581-0.066
						c0.188,0.106,0.287,0.319,0.246,0.53l-0.423,2.182c0.856-0.658,1.682-1.237,2.487-1.804c1.119-0.786,2.276-1.599,3.487-2.603
						c0.176-0.146,0.425-0.153,0.609-0.022c0.185,0.132,0.258,0.371,0.178,0.584l-0.747,1.976c0.725-0.425,1.453-0.802,2.167-1.17
						c1.493-0.771,2.902-1.5,4.201-2.607c0.13-0.111,0.307-0.15,0.471-0.097c0.164,0.05,0.29,0.18,0.336,0.345
						c0.068,0.248,0.106,0.459,0.119,0.646c1.325-1.127,2.779-2.09,4.342-2.875c0.172-0.086,0.378-0.066,0.529,0.051
						c0.152,0.117,0.224,0.311,0.185,0.499l-0.148,0.702l5.773-3.294c0.182-0.104,0.408-0.083,0.568,0.051
						c0.16,0.134,0.221,0.353,0.151,0.549l-0.055,0.155c0.584-0.416,1.209-0.773,1.871-1.07c0.161-0.071,0.35-0.054,0.493,0.048
						c0.145,0.103,0.224,0.273,0.209,0.45l-0.142,1.673l5.721-4.836c0.167-0.141,0.406-0.158,0.592-0.04
						c0.185,0.117,0.271,0.341,0.214,0.552l-0.77,2.857c0.936-0.371,1.749-1.104,2.599-1.871c0.394-0.355,0.787-0.709,1.193-1.028
						c1.2-0.944,2.79-1.426,4.036-1.233c0.813,0.127,1.471,0.53,1.902,1.168c0.154,0.229,0.095,0.539-0.134,0.694
						c-0.227,0.153-0.539,0.095-0.694-0.134c-0.276-0.407-0.689-0.656-1.228-0.74c-0.983-0.148-2.288,0.263-3.264,1.03
						c-0.39,0.307-0.766,0.646-1.143,0.986c-1.141,1.028-2.32,2.092-3.902,2.332c-0.167,0.026-0.335-0.034-0.448-0.161
						c-0.112-0.126-0.153-0.3-0.109-0.463l0.58-2.152l-5.421,4.583c-0.155,0.131-0.374,0.155-0.553,0.063
						c-0.18-0.093-0.286-0.285-0.269-0.486l0.168-1.987c-0.819,0.459-1.58,1.038-2.232,1.702c-0.164,0.167-0.42,0.2-0.621,0.073
						c-0.199-0.123-0.285-0.369-0.207-0.59l0.226-0.641l-5.575,3.181c-0.171,0.099-0.383,0.086-0.543-0.03
						c-0.159-0.116-0.235-0.314-0.194-0.508l0.155-0.741c-1.696,0.962-3.245,2.155-4.612,3.555c-0.168,0.17-0.435,0.198-0.633,0.067
						c-0.2-0.133-0.278-0.388-0.187-0.609c0.125-0.298,0.244-0.523,0.347-0.717c0.067-0.127,0.122-0.229,0.161-0.322
						c-1.165,0.852-2.4,1.49-3.601,2.11c-1.11,0.574-2.259,1.167-3.339,1.924c-0.181,0.126-0.42,0.121-0.594-0.015
						c-0.174-0.135-0.238-0.366-0.161-0.571l0.644-1.701c-0.728,0.547-1.436,1.044-2.128,1.53c-1.12,0.787-2.279,1.601-3.492,2.607
						c-0.162,0.135-0.393,0.153-0.574,0.045c-0.182-0.107-0.276-0.317-0.236-0.525l0.396-2.041l-3.772,3.417
						c-0.178,0.16-0.443,0.172-0.636,0.029c-0.191-0.143-0.255-0.402-0.15-0.617c0.399-0.83,0.819-1.292,1.226-1.738
						c0.043-0.048,0.087-0.096,0.13-0.144c-0.087,0.03-0.174,0.06-0.26,0.089c-0.954,0.328-1.777,0.611-2.459,1.447
						c-0.153,0.186-0.415,0.239-0.628,0.122c-0.211-0.115-0.31-0.365-0.235-0.594l0.13-0.396c-0.372,0.285-0.734,0.543-1.091,0.797
						c-0.781,0.556-1.518,1.081-2.352,1.867c-0.326,0.309-0.846,0.817-1.59,0.799c-0.344-0.012-0.676-0.197-0.896-0.479
						c-1.226,1.045-2.548,1.977-3.943,2.777C555.966,611.661,555.88,611.683,555.794,611.683z"/>
				</g>
				<g>
					<path d="M613.081,595.333c-0.088,0-0.177-0.023-0.256-0.07c-0.181-0.107-0.274-0.316-0.235-0.523
						c0.323-1.704,1.101-3.294,2.246-4.599c0.185-0.207,0.5-0.227,0.706-0.046c0.207,0.183,0.227,0.498,0.046,0.706
						c-0.658,0.748-1.181,1.603-1.547,2.521c1.127-1.073,2.14-2.264,3.02-3.553c0.131-0.192,0.377-0.269,0.593-0.185
						c0.217,0.084,0.348,0.305,0.315,0.535l-0.26,1.898c0.729-0.415,1.424-0.767,2.102-1.109c1.533-0.776,2.981-1.509,4.485-2.831
						c0.162-0.144,0.398-0.164,0.586-0.054c0.185,0.11,0.279,0.328,0.231,0.54c-0.093,0.41-0.182,0.738-0.275,1.018l3.168-2.596
						c0.144-0.118,0.341-0.145,0.513-0.073c0.172,0.073,0.288,0.235,0.302,0.421l0.095,1.23c0.889-0.558,1.725-0.954,2.538-1.339
						c1.245-0.59,2.421-1.148,3.667-2.233c0.175-0.151,0.43-0.162,0.615-0.032c0.188,0.132,0.263,0.376,0.179,0.59
						c-0.066,0.173-0.128,0.316-0.186,0.439l5.89-3.582c0.158-0.097,0.356-0.097,0.514-0.004c0.158,0.094,0.253,0.267,0.246,0.451
						c-0.026,0.634-0.142,1.262-0.339,1.862c1.245-1.06,2.416-2.208,3.5-3.431c0.151-0.172,0.399-0.218,0.604-0.112
						c0.204,0.105,0.31,0.336,0.256,0.56l-0.471,1.972c0.674-0.42,1.31-0.777,1.932-1.128c1.398-0.787,2.72-1.53,4.169-2.832
						c0.173-0.155,0.428-0.17,0.618-0.04c0.19,0.132,0.266,0.376,0.183,0.592l-0.554,1.435c1.745-1.19,3.345-2.579,4.768-4.146
						c0.157-0.173,0.412-0.214,0.615-0.101c0.203,0.114,0.3,0.354,0.234,0.577l-0.911,3.108c0.72-0.124,1.395-0.781,1.775-1.222
						l0.268-0.316c0.65-0.771,1.388-1.645,2.477-1.914c0.796-0.197,1.747,0.165,2.268,0.857c0.039,0.052,0.075,0.104,0.107,0.158
						c0.247-0.28,0.512-0.571,0.772-0.858c0.566-0.62,1.149-1.261,1.492-1.739c0.153-0.216,0.45-0.273,0.673-0.132
						c0.224,0.142,0.299,0.433,0.171,0.664l-0.425,0.771c0.016-0.011,0.031-0.021,0.047-0.033c1.102-0.771,1.972-1.381,2.945-2.747
						c0.142-0.2,0.408-0.264,0.625-0.16c0.22,0.107,0.331,0.357,0.262,0.591l-0.572,1.96c1.526-0.922,3.021-1.662,4.474-2.384
						c1.782-0.885,3.626-1.799,5.494-3.033c0.17-0.113,0.395-0.11,0.563,0.008c0.168,0.117,0.247,0.326,0.199,0.525
						c-0.264,1.098-0.459,1.853-0.654,2.604c-0.109,0.421-0.218,0.842-0.339,1.321c3.137-2.215,5.827-4.294,8.499-7.324
						c0.163-0.185,0.44-0.226,0.648-0.087c0.208,0.136,0.285,0.404,0.18,0.629l-1.751,3.762c2.66-1.45,4.527-2.59,6.448-5.138
						c0.155-0.205,0.439-0.259,0.658-0.127c0.219,0.132,0.303,0.409,0.193,0.641l-0.692,1.471c1.548-0.855,2.833-1.749,3.922-3.351
						c0.134-0.198,0.392-0.271,0.611-0.178c0.22,0.095,0.342,0.333,0.29,0.567c-0.022,0.102-0.046,0.198-0.069,0.292l2.656-2.379
						c0.171-0.154,0.425-0.172,0.615-0.041c0.19,0.13,0.268,0.372,0.188,0.588l-0.837,2.246c0.629-0.382,1.237-0.717,1.834-1.046
						c1.496-0.824,2.909-1.603,4.333-2.963c0.176-0.167,0.445-0.187,0.64-0.043c0.196,0.143,0.262,0.404,0.156,0.622
						c-0.36,0.745-0.665,1.149-0.958,1.521c1.596-0.848,3.139-1.8,4.604-2.841c0.138-0.099,0.314-0.12,0.474-0.058
						c0.157,0.061,0.272,0.199,0.307,0.365l0.25,1.226c2.837-0.787,4.979-2.532,7.238-4.373l0.953-0.771
						c0.177-0.143,0.43-0.148,0.612-0.01c0.183,0.137,0.25,0.38,0.162,0.591l-0.613,1.477c1.684-0.943,3.067-1.846,4.266-3.447
						c0.156-0.21,0.449-0.263,0.669-0.122c0.221,0.141,0.296,0.428,0.172,0.658c-0.361,0.675-0.695,1.193-1.018,1.682
						c1.72-1.194,3.409-2.445,5.045-3.734c0.176-0.137,0.42-0.143,0.6-0.015c0.181,0.129,0.255,0.361,0.183,0.571l-0.965,2.786
						c1.973-1.309,3.848-2.777,5.587-4.38c0.18-0.163,0.449-0.177,0.642-0.029c0.193,0.146,0.253,0.411,0.142,0.627
						c-0.144,0.281-0.294,0.56-0.448,0.838c1.162-1.133,2.286-2.308,3.359-3.515c0.167-0.185,0.444-0.222,0.651-0.084
						c0.207,0.139,0.281,0.408,0.173,0.633c-0.165,0.344-0.341,0.682-0.526,1.014c1.01-0.859,1.992-1.749,2.94-2.66
						c0.182-0.175,0.464-0.188,0.66-0.029c0.195,0.157,0.244,0.436,0.113,0.65l-1.57,2.573c1.42-1.164,2.657-2.553,3.644-4.097
						c0-0.002,0.002-0.004,0.002-0.004c0.15-0.232,0.459-0.3,0.691-0.153c0.232,0.147,0.302,0.456,0.154,0.689
						c-0.001,0-0.001,0.001-0.001,0.001l0,0c-0.001,0.001-0.001,0.001-0.001,0.001c-0.538,0.851-0.991,1.752-1.352,2.689
						c1.29-0.68,2.49-1.518,3.578-2.499c0.193-0.173,0.486-0.172,0.676,0.005c0.189,0.177,0.213,0.469,0.054,0.674
						c-0.222,0.285-0.391,0.62-0.49,0.972c0.299,0.022,0.621-0.049,0.882-0.213c0.233-0.148,0.543-0.077,0.689,0.156
						c0.148,0.233,0.077,0.542-0.156,0.689c-0.641,0.403-1.476,0.483-2.182,0.208c-0.211-0.082-0.341-0.297-0.315-0.521
						c-1.057,0.769-2.192,1.426-3.393,1.959c-0.18,0.079-0.388,0.047-0.533-0.082c-0.146-0.129-0.205-0.331-0.149-0.518
						c0.032-0.106,0.065-0.211,0.099-0.317c-1.006,0.991-2.124,1.869-3.327,2.604c-0.198,0.118-0.45,0.091-0.614-0.073
						c-0.163-0.163-0.193-0.417-0.073-0.614l1.014-1.661c-1.008,0.871-2.043,1.715-3.098,2.522
						c-0.201,0.155-0.489,0.132-0.665-0.051c-0.087-0.091-0.133-0.206-0.138-0.323c-0.956,0.935-1.939,1.842-2.941,2.715
						c-0.19,0.167-0.477,0.163-0.666-0.008c-0.188-0.172-0.216-0.457-0.066-0.663c0.338-0.465,0.664-0.942,0.977-1.43
						c-1.495,1.208-3.068,2.323-4.7,3.331c-0.18,0.111-0.41,0.096-0.575-0.035c-0.165-0.133-0.229-0.354-0.16-0.554l0.887-2.56
						c-1.854,1.413-3.767,2.773-5.702,4.056c-0.191,0.125-0.444,0.107-0.613-0.048c-0.169-0.153-0.212-0.403-0.104-0.606
						c0.086-0.161,0.171-0.313,0.254-0.458c-0.844,0.574-1.749,1.069-2.714,1.598l-0.311,0.17c-0.185,0.102-0.416,0.075-0.574-0.066
						s-0.209-0.368-0.128-0.563l0.402-0.97c-2.272,1.841-4.503,3.517-7.556,4.222c-0.132,0.032-0.27,0.006-0.383-0.066
						c-0.113-0.073-0.192-0.189-0.22-0.321l-0.203-0.994c-1.824,1.247-3.756,2.358-5.752,3.31c-0.19,0.092-0.42,0.052-0.569-0.099
						c-0.149-0.15-0.188-0.379-0.096-0.57c0.098-0.201,0.191-0.378,0.28-0.535c-0.693,0.442-1.392,0.827-2.108,1.222
						c-0.971,0.534-1.974,1.088-3.028,1.825c-0.179,0.124-0.418,0.119-0.592-0.015c-0.174-0.134-0.239-0.365-0.163-0.57l0.659-1.767
						l-3.565,3.191c-0.198,0.178-0.497,0.171-0.685-0.017c-0.108-0.106-0.158-0.252-0.146-0.394
						c-0.933,0.664-1.946,1.193-3.034,1.762c-0.189,0.1-0.422,0.067-0.578-0.083c-0.128-0.122-0.179-0.302-0.142-0.47
						c-1.562,1.379-3.249,2.292-5.324,3.413l-0.555,0.301c-0.19,0.104-0.423,0.073-0.581-0.075c-0.157-0.147-0.201-0.38-0.11-0.575
						l1.109-2.384c-2.373,2.293-4.832,4.069-7.657,6.039c-0.171,0.118-0.396,0.119-0.567,0.003
						c-0.172-0.117-0.253-0.327-0.205-0.529c0.266-1.109,0.463-1.869,0.66-2.63c0.113-0.438,0.228-0.876,0.355-1.384
						c-1.551,0.941-3.067,1.693-4.543,2.426c-1.782,0.885-3.626,1.799-5.494,3.033c-0.174,0.117-0.402,0.111-0.572-0.015
						c-0.169-0.125-0.242-0.341-0.183-0.543l0.318-1.089c-0.54,0.482-1.086,0.865-1.674,1.277c-0.581,0.407-1.183,0.828-1.869,1.41
						c-0.184,0.154-0.454,0.157-0.64,0.005c-0.054-0.043-0.096-0.096-0.126-0.154c-0.256,0.294-0.483,0.57-0.653,0.807
						c-0.154,0.218-0.455,0.274-0.677,0.129c-0.225-0.144-0.296-0.438-0.162-0.67c0.101-0.174,0.072-0.368-0.084-0.575
						c-0.277-0.368-0.826-0.59-1.23-0.488c-0.773,0.191-1.347,0.87-1.952,1.588l-0.277,0.326c-1.096,1.266-2.243,1.791-3.313,1.519
						c-0.132-0.033-0.244-0.119-0.311-0.236c-0.067-0.118-0.083-0.259-0.045-0.389l0.525-1.792
						c-1.476,1.405-3.102,2.644-4.853,3.699c-0.184,0.109-0.417,0.09-0.579-0.046c-0.164-0.138-0.222-0.363-0.146-0.563l0.433-1.12
						c-0.971,0.7-1.904,1.227-2.875,1.773c-0.918,0.517-1.868,1.052-2.916,1.774c-0.171,0.118-0.395,0.119-0.566,0.001
						c-0.171-0.117-0.252-0.327-0.204-0.528l0.324-1.356c-1.323,1.343-2.753,2.581-4.267,3.695c-0.203,0.149-0.486,0.126-0.66-0.059
						c-0.174-0.184-0.183-0.468-0.022-0.662c0.601-0.727,1.018-1.596,1.215-2.516l-6.643,4.04c-0.182,0.111-0.416,0.096-0.581-0.044
						c-0.164-0.137-0.223-0.364-0.144-0.564c0.023-0.061,0.046-0.117,0.067-0.171c-0.704,0.419-1.394,0.746-2.071,1.067
						c-0.991,0.47-2.017,0.956-3.109,1.733c-0.147,0.105-0.34,0.12-0.502,0.046c-0.163-0.076-0.272-0.234-0.286-0.414l-0.087-1.125
						l-4.518,3.702c-0.191,0.155-0.468,0.149-0.651-0.015c-0.184-0.165-0.22-0.439-0.085-0.646c0.157-0.241,0.296-0.446,0.42-0.63
						c0.247-0.367,0.426-0.632,0.571-0.909c-1.125,0.792-2.226,1.35-3.373,1.93c-0.932,0.472-1.895,0.959-2.926,1.603
						c-0.165,0.103-0.374,0.102-0.536-0.004c-0.163-0.106-0.25-0.296-0.224-0.488l0.138-1.009c-0.99,1.215-2.102,2.327-3.318,3.32
						C613.306,595.295,613.193,595.333,613.081,595.333z"/>
				</g>
			</g>
			<g>
				<path d="M533.11,604.22c-0.156,0-0.311-0.073-0.407-0.21c-0.16-0.226-0.107-0.538,0.117-0.697l5.151-3.659
					c0.225-0.159,0.538-0.107,0.697,0.117c0.16,0.226,0.107,0.538-0.117,0.697l-5.151,3.659
					C533.313,604.19,533.211,604.22,533.11,604.22z"/>
			</g>
			<g>
				<path d="M532.683,608.301c-0.143,0-0.286-0.061-0.385-0.181c-0.177-0.213-0.147-0.528,0.065-0.704
					c1.014-0.84,2.106-1.602,3.246-2.265c0.236-0.139,0.544-0.06,0.684,0.182c0.139,0.238,0.058,0.545-0.182,0.684
					c-1.092,0.635-2.139,1.364-3.109,2.169C532.908,608.263,532.795,608.301,532.683,608.301z"/>
			</g>
			<g>
				<path d="M533.599,613.085c-0.134,0-0.267-0.053-0.365-0.158c-0.189-0.202-0.178-0.519,0.023-0.707
					c3.023-2.828,6.44-5.188,10.155-7.014c0.249-0.122,0.547-0.021,0.669,0.227c0.122,0.248,0.02,0.548-0.228,0.669
					c-3.627,1.783-6.962,4.087-9.913,6.848C533.844,613.04,533.721,613.085,533.599,613.085z"/>
			</g>
			<g>
				<path d="M542.467,602.319c-0.171,0-0.337-0.088-0.431-0.245c-0.141-0.238-0.061-0.545,0.176-0.686l2.433-1.437
					c0.234-0.141,0.543-0.063,0.685,0.177c0.141,0.237,0.061,0.544-0.177,0.685l-2.431,1.437
					C542.642,602.297,542.554,602.319,542.467,602.319z"/>
			</g>
			<g>
				<path d="M757.15,535.179c-0.162,0-0.322-0.079-0.418-0.226c-0.151-0.231-0.087-0.541,0.144-0.692
					c0.25-0.164,0.482-0.35,0.716-0.536l6.547-5.215c0.216-0.171,0.529-0.136,0.703,0.08c0.172,0.216,0.136,0.53-0.08,0.703
					l-6.543,5.211c-0.261,0.207-0.519,0.412-0.794,0.593C757.34,535.152,757.245,535.179,757.15,535.179z"/>
			</g>
			<g>
				<path d="M765.826,533.576c-0.127,0-0.255-0.049-0.353-0.145c-0.195-0.194-0.197-0.511-0.002-0.707l5.78-5.821
					c0.193-0.196,0.51-0.196,0.707-0.002c0.195,0.194,0.197,0.511,0.002,0.707l-5.78,5.821
					C766.083,533.527,765.955,533.576,765.826,533.576z"/>
			</g>
			<g>
				<path d="M761.75,538.519c-0.121,0-0.243-0.044-0.34-0.133c-0.202-0.188-0.215-0.504-0.027-0.707l1.649-1.782
					c0.189-0.203,0.504-0.215,0.707-0.027c0.202,0.188,0.215,0.504,0.027,0.707l-1.649,1.782
					C762.019,538.465,761.885,538.519,761.75,538.519z"/>
			</g>
			<g>
				<path d="M768.94,537.06c-0.12,0-0.241-0.043-0.337-0.131c-0.204-0.187-0.219-0.502-0.032-0.706l6.993-7.658
					c0.186-0.204,0.503-0.219,0.706-0.032c0.204,0.187,0.219,0.502,0.032,0.706l-6.993,7.658
					C769.211,537.005,769.076,537.06,768.94,537.06z"/>
			</g>
			<g>
				<path d="M771.138,539.137c-0.145,0-0.288-0.063-0.387-0.184c-0.175-0.214-0.144-0.528,0.07-0.703
					c0.813-0.665,1.552-1.422,2.194-2.249c0.17-0.22,0.484-0.258,0.701-0.088c0.218,0.169,0.258,0.483,0.088,0.701
					c-0.688,0.887-1.479,1.697-2.351,2.409C771.361,539.1,771.249,539.137,771.138,539.137z"/>
			</g>
			<g>
				<path d="M543.599,611.579c-0.15,0-0.3-0.068-0.398-0.198c-0.167-0.22-0.124-0.533,0.097-0.7l3.853-2.92
					c0.218-0.166,0.532-0.124,0.7,0.097c0.167,0.22,0.124,0.533-0.097,0.7l-3.852,2.92
					C543.81,611.546,543.704,611.579,543.599,611.579z"/>
			</g>
		</g>
		<g>
			<path d="M559.557,579.864c-0.127,0-0.254-0.048-0.35-0.144c-0.197-0.194-0.199-0.511-0.006-0.707
				c1.362-1.382,2.53-2.944,3.472-4.645c0.135-0.241,0.437-0.328,0.68-0.195c0.241,0.134,0.329,0.438,0.195,0.68
				c-0.986,1.779-2.209,3.415-3.634,4.861C559.815,579.815,559.685,579.864,559.557,579.864z"/>
		</g>
		<g>
			<path d="M570.144,572.841c-0.117,0-0.235-0.041-0.33-0.124c-0.207-0.183-0.228-0.499-0.046-0.706
				c0.25-0.284,0.485-0.743,0.713-1.186c0.255-0.497,0.519-1.012,0.85-1.39c0.183-0.207,0.5-0.228,0.706-0.046
				c0.207,0.183,0.228,0.498,0.046,0.706c-0.25,0.284-0.484,0.742-0.712,1.186c-0.255,0.498-0.519,1.014-0.851,1.391
				C570.42,572.783,570.282,572.841,570.144,572.841z"/>
		</g>
		<g>
			<path d="M578.115,574.662c-0.137,0-0.272-0.056-0.371-0.165c-0.185-0.204-0.169-0.52,0.036-0.706
				c1.705-1.542,2.768-3.451,4.247-6.657c0.117-0.251,0.412-0.359,0.664-0.244c0.25,0.116,0.359,0.413,0.244,0.664
				c-1.313,2.843-2.475,5.163-4.485,6.979C578.354,574.619,578.235,574.662,578.115,574.662z"/>
		</g>
		<g>
			<path d="M590.836,562.69c-0.075,0-0.152-0.017-0.224-0.053c-0.247-0.124-0.347-0.424-0.224-0.671
				c0.521-1.041,0.689-1.495,0.868-1.977c0.116-0.312,0.236-0.636,0.449-1.122c0.111-0.254,0.411-0.365,0.658-0.258
				c0.253,0.11,0.368,0.405,0.258,0.658c-0.203,0.464-0.317,0.772-0.428,1.07c-0.188,0.508-0.366,0.987-0.911,2.076
				C591.195,562.589,591.019,562.69,590.836,562.69z"/>
		</g>
		<g>
			<path d="M599.787,567.385c-0.089,0-0.179-0.023-0.26-0.072c-0.236-0.144-0.31-0.451-0.168-0.688
				c0.143-0.233,0.443-0.791,0.744-1.349c0.311-0.576,0.622-1.151,0.769-1.394c0.145-0.235,0.453-0.309,0.688-0.168
				c0.236,0.144,0.31,0.451,0.168,0.688c-0.142,0.233-0.443,0.791-0.744,1.349c-0.31,0.576-0.622,1.151-0.769,1.393
				C600.12,567.299,599.955,567.385,599.787,567.385z"/>
		</g>
		<g>
			<path d="M607.954,558.894c-0.059,0-0.117-0.01-0.175-0.031c-0.259-0.097-0.391-0.385-0.294-0.643
				c0.223-0.595,0.598-1.234,1.147-1.954c0.168-0.22,0.482-0.261,0.701-0.094c0.22,0.168,0.262,0.481,0.094,0.701
				c-0.489,0.641-0.818,1.195-1.005,1.696C608.348,558.769,608.157,558.894,607.954,558.894z"/>
		</g>
		<g>
			<path d="M619.16,562.341c-0.091,0-0.182-0.024-0.264-0.075c-0.234-0.146-0.307-0.454-0.161-0.689
				c1.411-2.272,2.755-4.631,3.993-7.009c0.128-0.246,0.433-0.338,0.674-0.213c0.245,0.128,0.341,0.43,0.213,0.674
				c-1.25,2.4-2.605,4.781-4.03,7.075C619.49,562.257,619.327,562.341,619.16,562.341z"/>
		</g>
		<g>
			<path d="M656.564,542.743c-0.067,0-0.135-0.014-0.2-0.042c-0.253-0.11-0.368-0.405-0.258-0.658
				c0.166-0.381,0.211-0.551,0.252-0.708c0.085-0.329,0.158-0.613,0.914-1.983c0.133-0.243,0.439-0.331,0.679-0.196
				c0.242,0.133,0.33,0.438,0.196,0.679c-0.694,1.259-0.753,1.486-0.821,1.75c-0.049,0.188-0.104,0.401-0.304,0.858
				C656.94,542.631,656.757,542.743,656.564,542.743z"/>
		</g>
		<g>
			<path d="M671.164,545.944c-0.11,0-0.222-0.036-0.314-0.111c-0.215-0.174-0.248-0.488-0.074-0.703
				c1.63-2.016,3.041-4.215,4.194-6.537c0.124-0.248,0.426-0.348,0.671-0.226c0.247,0.123,0.348,0.424,0.226,0.671
				c-1.187,2.388-2.638,4.648-4.314,6.721C671.454,545.881,671.31,545.944,671.164,545.944z"/>
		</g>
		<g>
			<path d="M685.209,535.582c-0.088,0-0.178-0.023-0.258-0.071c-0.236-0.142-0.313-0.45-0.171-0.686
				c0.69-1.145,0.928-1.692,1.321-2.601c0.126-0.29,0.267-0.615,0.442-1.006c0.112-0.253,0.41-0.365,0.661-0.251
				c0.252,0.113,0.364,0.409,0.251,0.661c-0.173,0.386-0.313,0.707-0.437,0.994c-0.41,0.945-0.658,1.517-1.382,2.718
				C685.543,535.496,685.378,535.582,685.209,535.582z"/>
		</g>
		<g>
			<path d="M689.291,536.942c-0.076,0-0.152-0.017-0.224-0.053c-0.247-0.124-0.347-0.425-0.224-0.671
				c0.091-0.182,0.343-0.668,0.602-1.171c0.287-0.557,0.586-1.134,0.687-1.335c0.122-0.248,0.425-0.349,0.67-0.225
				c0.247,0.123,0.348,0.423,0.225,0.67c-0.101,0.203-0.402,0.786-0.692,1.349c-0.258,0.499-0.507,0.981-0.597,1.159
				C689.65,536.842,689.474,536.942,689.291,536.942z"/>
		</g>
		<g>
			<path d="M701.432,536.126c-0.089,0-0.179-0.023-0.26-0.072c-0.236-0.143-0.311-0.451-0.168-0.688
				c0.308-0.506,0.623-1.21,0.988-2.025c0.401-0.897,0.855-1.911,1.401-2.874c0.136-0.241,0.441-0.326,0.682-0.188
				c0.24,0.136,0.324,0.441,0.188,0.682c-0.521,0.92-0.966,1.913-1.357,2.788c-0.379,0.847-0.706,1.577-1.046,2.137
				C701.765,536.04,701.6,536.126,701.432,536.126z"/>
		</g>
		<g>
			<path d="M713.64,528.778c-0.035,0-0.072-0.004-0.108-0.012c-0.27-0.06-0.44-0.327-0.38-0.597l0.104-0.476
				c0.091-0.416,0.092-0.416,0.168-0.635c0.042-0.121,0.11-0.317,0.24-0.724c0.084-0.263,0.365-0.404,0.629-0.324
				c0.263,0.084,0.408,0.366,0.324,0.629c-0.135,0.42-0.205,0.623-0.249,0.748c-0.062,0.179-0.061,0.179-0.135,0.519l-0.106,0.479
				C714.076,528.62,713.869,528.778,713.64,528.778z"/>
		</g>
		<g>
			<path d="M723.88,524.052c-0.086,0-0.172-0.022-0.251-0.067c-0.238-0.139-0.32-0.444-0.182-0.684
				c0.58-1.001,0.796-1.683,1.154-2.811c0.109-0.346,0.231-0.732,0.38-1.178c0.089-0.262,0.372-0.403,0.633-0.316
				c0.262,0.088,0.403,0.371,0.316,0.633c-0.147,0.44-0.268,0.822-0.376,1.163c-0.366,1.153-0.607,1.916-1.242,3.012
				C724.22,523.963,724.052,524.052,723.88,524.052z"/>
		</g>
		<g>
			<path d="M735.267,527.203c-0.072,0-0.145-0.016-0.214-0.048c-0.25-0.118-0.356-0.417-0.238-0.666
				c0.814-1.719,1.761-3.505,2.661-5.18c0.132-0.242,0.432-0.332,0.678-0.203c0.243,0.131,0.334,0.435,0.203,0.678
				c-0.895,1.662-1.833,3.435-2.638,5.133C735.633,527.098,735.453,527.203,735.267,527.203z"/>
		</g>
	</g>
</g>
</svg>
