<?xml version="1.0" encoding="utf-8"?>
<!-- Generator: Adobe Illustrator 27.5.0, SVG Export Plug-In . SVG Version: 6.00 Build 0)  -->
<svg version="1.1" xmlns="http://www.w3.org/2000/svg" xmlns:xlink="http://www.w3.org/1999/xlink" x="0px" y="0px"
	 viewBox="0 0 800 800" style="enable-background:new 0 0 800 800;" xml:space="preserve">
<g id="OBJECTS">
	<g>
		<g>
			<g>
				<path d="M141.688,330.766c-0.05,0-0.101-0.003-0.151-0.011c-9.696-1.469-17.764-4.627-23.979-9.386
					c-2.148-1.117-7.773-6.706-10.626-15.779l-0.038-0.122c-0.378-1.2-0.767-2.44-1.016-3.722c-0.262-1.357-0.363-2.731-0.461-4.06
					c-0.078-1.073-0.293-2.173-0.52-3.338c-0.376-1.923-0.763-3.913-0.528-5.867c0.586-4.868,1.606-9.717,3.032-14.413
					c0.457-1.504,0.956-2.995,1.455-4.486c0.271-0.812,0.475-1.644,0.689-2.524c0.219-0.895,0.444-1.82,0.749-2.723
					c5.044-14.942,10.564-27.813,16.873-39.338c0.565-3.772,10.574-18.352,10.684-18.492c7.47-9.53,9.888-11.156,17.953-15.868
					c2.797-1.634,7.161-3.022,10.312-3.775c7.097-1.697,13.733,0.538,19.59,2.51c0.524,0.176,0.805,0.744,0.628,1.267
					c-0.177,0.523-0.745,0.803-1.267,0.628c-5.601-1.886-11.947-4.024-18.487-2.46c-3.012,0.72-7.16,2.033-9.768,3.557
					c-7.964,4.653-10.121,6.104-17.387,15.374c-1.514,1.932-10.141,15.414-10.298,17.411c0.034,0.217-0.005,0.441-0.112,0.635
					c-6.291,11.466-11.795,24.285-16.827,39.191c-0.277,0.821-0.482,1.664-0.7,2.557c-0.215,0.883-0.438,1.795-0.736,2.685
					c-0.493,1.473-0.986,2.946-1.438,4.433c-1.392,4.584-2.388,9.318-2.96,14.07c-0.198,1.642,0.144,3.392,0.505,5.245
					c0.229,1.171,0.465,2.383,0.552,3.569c0.098,1.335,0.19,2.591,0.43,3.833c0.227,1.17,0.582,2.303,0.96,3.502l0.038,0.122
					c2.894,9.205,8.457,13.942,9.532,14.6c0.139,0.031,0.272,0.092,0.389,0.182c5.945,4.557,13.709,7.586,23.075,9.005
					c0.546,0.083,0.921,0.593,0.839,1.139C142.6,330.411,142.173,330.766,141.688,330.766z"/>
			</g>
			<g>
				<path d="M141.085,330.301c-0.001,0-0.002,0-0.003,0c-1.606-0.003-10.833-4.168-15.595-9.021
					c-2.632-2.681-4.042-6.756-5.287-10.351c-0.369-1.064-0.729-2.105-1.108-3.08c-1.88-4.821-1.593-10.155-1.34-14.861
					c0.068-1.259,0.214-2.379,0.355-3.462c0.127-0.976,0.258-1.984,0.329-3.084c0.531-8.225,4.441-18.495,5.906-21.196
					c2.192-4.038,2.589-5.652,3.048-7.521c0.196-0.797,0.398-1.621,0.745-2.675c3.992-12.14,8.996-26.073,17.903-37.779
					c8.436-11.087,14.538-17.585,22.614-20.171c5.295-1.695,9.65-2.496,16.07-2.954c0.559-0.029,1.03,0.376,1.069,0.926
					c0.039,0.551-0.376,1.029-0.926,1.069c-6.246,0.445-10.474,1.221-15.603,2.863c-6.734,2.157-12.192,7.071-21.632,19.478
					c-8.72,11.46-13.654,25.208-17.595,37.193c-0.323,0.981-0.516,1.768-0.703,2.528c-0.472,1.92-0.918,3.734-3.233,7.998
					c-1.046,1.927-5.122,11.92-5.668,20.371c-0.075,1.165-0.211,2.206-0.342,3.213c-0.143,1.094-0.277,2.127-0.341,3.311
					c-0.242,4.503-0.517,9.608,1.206,14.027c0.389,0.997,0.758,2.063,1.135,3.152c1.233,3.561,2.508,7.245,4.824,9.604
					c4.493,4.579,12.685,8.153,14.105,8.41c0.31-0.058,0.643,0.034,0.884,0.272c0.393,0.388,0.396,1.022,0.008,1.414
					C141.765,330.124,141.502,330.301,141.085,330.301z"/>
			</g>
			<g>
				<path d="M165.067,337.708c-4.392,0-9.901-0.928-14.033-2.474c-1.944-0.621-7.685-2.904-9.249-4.408
					c-6.173-3.822-10.295-8.815-13.358-16.174c-3.166-7.609-3.943-15.612-2.188-22.535c1.644-6.484,4.585-12.546,7.431-18.408
					c1.628-3.354,3.28-6.625,4.878-9.79c2.659-5.264,5.17-10.236,7.639-15.668c4.267-9.39,8.679-19.099,14.763-27.721
					c7.368-10.439,14.739-16.931,23.196-20.429c0.509-0.212,1.095,0.031,1.307,0.541c0.211,0.51-0.032,1.095-0.542,1.306
					c-8.092,3.347-15.186,9.618-22.327,19.735c-5.976,8.468-10.348,18.089-14.576,27.395c-2.486,5.47-5.124,10.692-7.675,15.743
					c-1.595,3.157-3.244,6.422-4.865,9.761c-2.801,5.772-5.697,11.74-7.291,18.026c-1.649,6.507-0.905,14.063,2.096,21.275
					c2.908,6.987,6.813,11.707,12.662,15.302c0.078,0.048,0.148,0.106,0.21,0.173c0.876,0.948,5.945,3.155,8.544,3.986
					c5.095,1.906,12.584,2.848,16.739,2.113c0.543-0.095,1.063,0.268,1.159,0.811c0.096,0.544-0.267,1.063-0.811,1.159
					C167.699,337.618,166.437,337.708,165.067,337.708z"/>
			</g>
			<g>
				<path d="M176.042,336.55c-0.455,0-0.867-0.313-0.973-0.775c-0.124-0.538,0.211-1.075,0.749-1.199
					c5.531-1.279,10.17-5.237,14.264-8.73c2.468-2.106,5.265-4.493,6.338-7.686c0.176-0.523,0.744-0.805,1.266-0.629
					c0.523,0.176,0.806,0.743,0.629,1.266c-1.249,3.718-4.402,6.409-6.936,8.57c-4.268,3.641-9.105,7.769-15.111,9.157
					C176.193,336.542,176.117,336.55,176.042,336.55z"/>
			</g>
			<g>
				<path d="M223.03,299.06c-0.692,0-1.397-0.296-1.892-0.825c-0.546-0.585-0.712-1.351-0.442-2.05
					c0.2-0.515,0.781-0.77,1.293-0.573c0.516,0.199,0.772,0.778,0.573,1.293c0.046,0.023,0.358,0.205,0.557,0.143
					c0.556-0.172,0.993-0.89,1.358-1.55c1.486-2.681,2.869-5.454,4.11-8.243c4.828-10.845,6.528-20.403,5.348-30.079
					c-1.189-9.754-4.299-17.44-8.992-22.227l-0.071-0.073c-0.601-0.61-1.281-1.303-1.598-2.266c-0.464-1.411,0.032-2.82,0.394-3.848
					c0.795-2.26,1.365-4.509,1.915-6.684c0.475-1.874,0.963-3.802,1.601-5.77c-2.567-0.365-9.492-1.134-15.238-1.772
					c-9.413-1.045-13.645-1.515-15.583-1.869c-1.178,4.94-2.761,9.812-4.709,14.495c-0.556,1.336-1.135,2.626-2.11,3.724
					c-1.091,1.229-2.493,1.998-3.849,2.743l-0.386,0.212c-11.544,6.386-20.654,16.625-25.655,28.832
					c-0.38,0.929-1.087,2.657-2.747,3.018c-0.776,0.172-1.519-0.037-2.063-0.186l-8.155-2.263c-1.275-0.354-4.628-2.103-5.556-3.134
					c-0.37-0.41-0.336-1.043,0.074-1.412c0.41-0.37,1.043-0.336,1.412,0.074c0.596,0.662,3.569,2.257,4.604,2.545l8.155,2.263
					c0.379,0.104,0.807,0.226,1.102,0.16c0.557-0.121,0.964-0.947,1.323-1.822c5.173-12.627,14.597-23.219,26.538-29.824
					l0.392-0.216c1.262-0.693,2.455-1.348,3.316-2.317c0.769-0.867,1.271-1.991,1.759-3.164c2.017-4.848,3.633-9.902,4.804-15.022
					c0.044-0.264,0.192-0.507,0.419-0.665c0.305-0.212,0.697-0.237,1.023-0.072c1.254,0.263,9.47,1.175,16.114,1.913
					c17.085,1.897,17.085,1.897,17.301,2.752c0.053,0.207,0.035,0.423-0.041,0.616c-0.79,2.25-1.356,4.489-1.904,6.654
					c-0.562,2.218-1.143,4.511-1.968,6.857c-0.346,0.982-0.613,1.853-0.381,2.559c0.171,0.52,0.634,0.99,1.125,1.489l0.073,0.074
					c5.004,5.104,8.306,13.19,9.549,23.385c1.226,10.051-0.524,19.944-5.506,31.134c-1.265,2.841-2.674,5.667-4.188,8.399
					c-0.555,1-1.252,2.1-2.516,2.491C223.491,299.027,223.261,299.06,223.03,299.06z"/>
			</g>
			<g>
				<path d="M182.23,322.601c-0.964,0-1.941-0.059-2.92-0.26c-1.351-0.278-2.708-0.818-4.402-1.75
					c-4.932-2.714-9.205-6.958-12.374-12.286c-0.434-0.371-0.74-1.628-2.075-7.095c-0.557-2.279-1.306-5.349-1.586-6.121
					c-0.114-0.136-0.193-0.302-0.222-0.485c-2.031-12.635,0.657-25.875,7.568-37.284c8.25-13.616,19.437-23.053,31.5-26.571
					c4.669-1.361,10.111-0.95,15.325,1.157c5.484,2.216,10.014,6.122,14.256,12.292c1.69,2.459,2.762,6.168,3.25,8.16
					c0.758,3.093,0.871,4.526,0.774,5.234c0.605,6.347,0.284,12.143-0.98,17.695c0.256,0.229,0.387,0.585,0.313,0.946
					c-3.426,16.807-15.14,32.199-32.982,43.339c-4.103,2.561-9.255,2.787-13.395,2.969
					C183.607,322.57,182.922,322.601,182.23,322.601z M163.989,306.861c0.037,0.043,0.07,0.09,0.099,0.141
					c3.003,5.153,7.079,9.246,11.784,11.836c1.511,0.832,2.695,1.308,3.841,1.543c1.438,0.296,2.985,0.227,4.481,0.161
					c4.109-0.18,8.767-0.385,12.423-2.667c17.226-10.755,28.574-25.528,31.997-41.633c-0.271-0.236-0.404-0.61-0.316-0.984
					c1.304-5.502,1.64-11.256,1.025-17.593c-0.014-0.143,0.003-0.284,0.047-0.416c0.031-1.215-1.265-8.352-3.718-11.918
					c-4.009-5.832-8.254-9.508-13.357-11.571c-4.801-1.94-9.779-2.327-14.016-1.092c-11.582,3.378-22.36,12.5-30.349,25.687
					c-6.613,10.916-9.218,23.562-7.35,35.641c0.343,0.684,0.752,2.36,1.821,6.738C162.959,303.017,163.71,306.089,163.989,306.861z"
					/>
			</g>
			<g>
				<path d="M184.461,202.261c-0.043,0-0.087-0.003-0.132-0.008c-0.547-0.072-0.933-0.575-0.861-1.122
					c1.63-12.394,1.929-24.993,0.889-37.45c-0.046-0.55,0.363-1.034,0.914-1.08c0.552-0.048,1.034,0.363,1.08,0.914
					c1.052,12.598,0.749,25.342-0.899,37.876C185.385,201.895,184.956,202.261,184.461,202.261z"/>
			</g>
			<g>
				<path d="M195.588,192.761c-0.02,0-0.041,0-0.061-0.002c-0.551-0.033-0.971-0.507-0.938-1.059
					c0.602-9.907,0.542-19.949-0.181-29.847c-0.04-0.551,0.374-1.03,0.925-1.07c0.558-0.031,1.03,0.374,1.07,0.925
					c0.728,9.987,0.79,20.119,0.182,30.114C196.553,192.352,196.112,192.761,195.588,192.761z"/>
			</g>
			<g>
				<path d="M228.533,216.81c-0.022,0-0.045-0.001-0.068-0.003c-0.551-0.037-0.968-0.514-0.931-1.064
					c0.137-2.043,0.585-4.187,1.018-6.259c0.773-3.704,1.573-7.533,0.601-10.805c-0.986-3.318-0.957-6.748-0.93-10.064l0.165-19.918
					c0.004-0.549,0.452-0.992,1-0.992c0.002,0,0.005,0,0.008,0c0.552,0.004,0.996,0.456,0.992,1.008l-0.165,19.918
					c-0.026,3.169-0.054,6.447,0.847,9.478c1.116,3.756,0.264,7.837-0.56,11.783c-0.439,2.098-0.852,4.08-0.98,5.984
					C229.494,216.405,229.054,216.81,228.533,216.81z"/>
			</g>
			<g>
				<path d="M195.358,212.229c-0.512,0-0.949-0.391-0.995-0.911c-0.589-6.615-0.542-13.317,0.14-19.921
					c0.057-0.55,0.553-0.954,1.097-0.892c0.55,0.057,0.949,0.548,0.892,1.097c-0.669,6.477-0.715,13.051-0.137,19.538
					c0.049,0.55-0.357,1.036-0.907,1.085C195.417,212.227,195.387,212.229,195.358,212.229z"/>
			</g>
			<g>
				<path d="M229.906,198.901c-5.708,0-11.577-1.279-17.256-2.517c-5.445-1.187-11.076-2.414-16.439-2.466
					c-0.552-0.005-0.996-0.458-0.99-1.01c0.005-0.549,0.452-0.99,1-0.99c0.003,0,0.006,0,0.01,0
					c5.568,0.055,11.301,1.304,16.846,2.512c5.626,1.226,11.44,2.482,16.981,2.47c0.002,0,0.003,0,0.004,0
					c0.55,0,0.998,0.445,1,0.996c0.003,0.552-0.443,1.002-0.996,1.004C230.013,198.901,229.959,198.901,229.906,198.901z"/>
			</g>
			<g>
				<path d="M185.016,195.666c-0.443,0-0.848-0.296-0.966-0.744c-0.141-0.534,0.177-1.082,0.711-1.223
					c3.555-0.94,7.213-1.612,10.872-1.999c0.553-0.056,1.042,0.341,1.1,0.89c0.058,0.549-0.34,1.042-0.89,1.1
					c-3.559,0.375-7.115,1.029-10.571,1.943C185.186,195.655,185.1,195.666,185.016,195.666z"/>
			</g>
			<g>
				<path d="M229.342,168.587c-0.357,0-0.702-0.191-0.882-0.527c-0.458-0.853-1.709-1.209-2.845-1.476
					c-9.523-2.236-19.334-3.678-29.163-4.288c-3.757-0.232-7.613,0.331-11.147,1.631c-0.516,0.192-1.092-0.075-1.284-0.593
					c-0.191-0.518,0.075-1.093,0.593-1.284c3.792-1.395,7.926-1.999,11.962-1.75c9.94,0.617,19.863,2.076,29.496,4.337
					c1.128,0.265,3.228,0.757,4.151,2.478c0.261,0.486,0.078,1.093-0.409,1.354C229.664,168.549,229.502,168.587,229.342,168.587z"
					/>
			</g>
			<g>
				<path d="M168.489,318.29c-1.468,0-2.962-0.06-4.444-0.368c-1.076-0.224-2.104-0.57-3.097-0.905
					c-2.728-0.919-5.549-1.87-8.062-3.502c-2.303-1.496-5.854-4.886-8.286-9.52c-3.221-6.136-5.271-12.79-6.853-22.25
					c-0.82-4.905-0.692-11.489,0.311-16.012c0.119-0.539,0.653-0.885,1.192-0.76c0.54,0.119,0.879,0.653,0.76,1.192
					c-0.953,4.299-1.073,10.57-0.29,15.249c1.545,9.238,3.534,15.713,6.65,21.65c2.41,4.59,5.914,7.674,7.605,8.772
					c2.301,1.494,5.001,2.404,7.611,3.284c0.938,0.316,1.907,0.643,2.865,0.842c1.744,0.363,3.611,0.337,5.418,0.314
					c0.507,0.001,1.006,0.434,1.013,0.987c0.007,0.552-0.435,1.006-0.987,1.013C169.431,318.284,168.961,318.29,168.489,318.29z"/>
			</g>
			<g>
				<path d="M173.997,337.986c-0.448,0-0.869-0.064-1.221-0.119l-4.583-0.698c-0.48-0.073-0.839-0.482-0.849-0.968
					c-0.129-6.278,0.782-12.493,2.708-18.472c0.169-0.525,0.731-0.816,1.258-0.645c0.526,0.169,0.814,0.732,0.645,1.258
					c-1.771,5.5-2.653,11.207-2.623,16.978l3.746,0.57c0.495,0.077,1.058,0.162,1.446,0.018c0.69-0.255,1.057-1.294,1.324-2.277
					c1.147-4.21,2.24-8.495,3.25-12.735c0.128-0.537,0.666-0.867,1.205-0.741c0.537,0.128,0.869,0.667,0.741,1.205
					c-1.015,4.26-2.114,8.566-3.266,12.797c-0.264,0.968-0.812,2.981-2.56,3.628C174.808,337.936,174.392,337.986,173.997,337.986z"
					/>
			</g>
			<g>
				<path d="M172.242,388.132c-0.434,0-0.834-0.285-0.96-0.723c-4.79-16.573-5.952-34.348-3.359-51.403
					c0.083-0.546,0.592-0.925,1.139-0.838c0.546,0.083,0.921,0.593,0.838,1.139c-2.55,16.771-1.408,34.25,3.302,50.547
					c0.154,0.531-0.152,1.085-0.683,1.238C172.428,388.119,172.334,388.132,172.242,388.132z"/>
			</g>
			<g>
				<path d="M175.583,389.704c-0.567,0-1.135-0.025-1.699-0.077c-1.658-0.151-2.714-0.991-2.757-2.191
					c-0.02-0.552,0.412-1.016,0.964-1.035c0.558-0.027,1,0.398,1.034,0.936c0.086,0.089,0.419,0.25,0.941,0.297
					c0.905,0.083,1.821,0.091,2.73,0.025c0.007-0.019,0.015-0.037,0.022-0.056c0.042-0.104,0.103-0.258,0.141-0.369
					c-4.332-12.046-4.149-25.466-3.987-37.313c0.058-4.275,0.118-8.697,1.18-12.986c0.133-0.537,0.674-0.865,1.211-0.73
					c0.536,0.133,0.863,0.675,0.73,1.211c-1.006,4.066-1.064,8.371-1.121,12.533c-0.161,11.741-0.343,25.048,3.938,36.801
					c0.193,0.527-0.025,1.071-0.235,1.597c-0.051,0.127-0.104,0.248-0.13,0.342c-0.044,0.468-0.411,0.846-0.885,0.899
					C176.972,389.665,176.277,389.704,175.583,389.704z"/>
			</g>
			<g>
				<path d="M184.477,163.561c-0.502,0-0.935-0.378-0.992-0.89c-0.543-4.879-1.85-9.926-3.114-14.807
					c-0.552-2.133-1.124-4.338-1.616-6.476c-1.171-5.09-2.938-9.716-5.11-13.378c-0.146-0.246-0.18-0.543-0.092-0.815
					c0.087-0.272,0.287-0.495,0.549-0.61l13.811-6.086c0.144-0.063,0.231-0.115,0.282-0.149c0.069-0.461,0.456-0.825,0.94-0.849
					c0.535-0.026,1.021,0.398,1.048,0.95c0.027,0.551-0.205,1.324-1.463,1.878l-12.795,5.638c2.02,3.666,3.665,8.124,4.781,12.973
					c0.486,2.111,1.054,4.303,1.603,6.423c1.282,4.949,2.607,10.067,3.166,15.088c0.061,0.549-0.334,1.043-0.883,1.104
					C184.552,163.559,184.515,163.561,184.477,163.561z"/>
			</g>
			<g>
				<path d="M185.029,163.626c-0.319,0-0.627-0.153-0.818-0.425c-0.256-0.365-0.24-0.856,0.04-1.203
					c0.775-0.961,1.863-1.651,3.063-1.944c0.257-0.061,0.516-0.019,0.73,0.102c1.935-1.088,3.748-2.437,5.628-3.837l0.053-0.04
					c-0.727-4.253-0.822-8.602-0.913-12.814c-0.037-1.697-0.074-3.395-0.151-5.088c-0.235-5.174-0.916-11.815-4.115-17.292
					c-0.279-0.477-0.118-1.089,0.359-1.368c0.478-0.278,1.09-0.118,1.368,0.359c3.42,5.854,4.141,12.807,4.387,18.21
					c0.078,1.709,0.115,3.422,0.152,5.135c0.094,4.336,0.191,8.82,0.99,13.108c0.07,0.376-0.08,0.758-0.387,0.986l-0.549,0.408
					c-2.91,2.165-5.919,4.404-9.509,5.646C185.248,163.608,185.138,163.626,185.029,163.626z"/>
			</g>
			<g>
				<path d="M228.019,166.412c-0.469,0-0.888-0.332-0.98-0.809c-0.105-0.542,0.249-1.067,0.791-1.172
					c0.57-0.111,0.711-0.191,0.745-0.221l0,0c-0.003,0,0.052-0.117,0.044-0.538c-0.2-11.388-0.406-23.164-2.648-34.503
					c-0.107-0.542,0.245-1.068,0.787-1.175c0.544-0.108,1.067,0.245,1.175,0.787c2.276,11.513,2.484,23.379,2.686,34.855
					c0.033,1.899-0.896,2.463-2.407,2.757C228.146,166.406,228.082,166.412,228.019,166.412z"/>
			</g>
			<g>
				<path d="M229.336,163.952c-0.109,0-0.22-0.018-0.329-0.056c-10.974-3.827-22.43-5.887-34.051-6.124
					c-0.552-0.011-0.991-0.468-0.98-1.02c0.011-0.552,0.438-0.985,1.021-0.98c11.832,0.242,23.496,2.339,34.668,6.235
					c0.521,0.182,0.797,0.752,0.615,1.273C230.137,163.693,229.75,163.952,229.336,163.952z"/>
			</g>
			<g>
				<path d="M226.856,129.537c-0.111,0-0.225-0.019-0.336-0.059c-3.082-1.099-6.393-1.7-9.595-2.281l-28.271-5.133
					c-0.544-0.099-0.904-0.619-0.805-1.163c0.099-0.543,0.615-0.907,1.163-0.805l28.271,5.133c3.281,0.596,6.673,1.211,9.909,2.365
					c0.52,0.186,0.792,0.757,0.606,1.278C227.652,129.281,227.267,129.537,226.856,129.537z"/>
			</g>
			<g>
				<path d="M62.11,177.193c-0.08,0-0.159-0.009-0.238-0.029c-2.102-0.516-3.872-1.563-5.583-2.577
					c-0.82-0.485-1.667-0.987-2.536-1.42c-0.374-0.187-0.593-0.586-0.548-1.002c1.164-10.861,3.329-21.677,6.434-32.149
					c0.157-0.528,0.713-0.83,1.24-0.675c1.857,0.544,3.348,0.908,4.789,1.259c1.464,0.357,2.977,0.726,4.878,1.283
					c0.53,0.155,0.834,0.711,0.678,1.241c-0.076,0.259-0.248,0.464-0.465,0.588c-0.863,3.519-2.073,7.067-3.245,10.5
					c-2.352,6.891-4.783,14.016-4.446,21.105l0.04,0.828c0.015,0.315-0.12,0.619-0.363,0.82
					C62.564,177.114,62.339,177.193,62.11,177.193z M55.268,171.699c0.705,0.377,1.382,0.778,2.041,1.168
					c1.251,0.741,2.449,1.451,3.741,1.946c-0.199-7.262,2.226-14.368,4.573-21.247c1.133-3.319,2.303-6.747,3.141-10.111
					c-1.316-0.363-2.457-0.641-3.568-0.912c-1.208-0.295-2.451-0.597-3.917-1.008C58.419,151.376,56.399,161.515,55.268,171.699z"/>
			</g>
			<g>
				<path d="M95.933,181.678c-0.105,0-0.211-0.017-0.317-0.052c-0.523-0.175-0.807-0.742-0.632-1.266
					c1.743-5.219,3.579-10.501,5.355-15.608c1.643-4.726,3.338-9.601,4.961-14.433c-3.914-0.595-7.047-1.376-10.347-2.199
					c-0.997-0.249-2.021-0.503-3.099-0.763c-2.086-0.5-4.261-0.815-6.365-1.12l-15.129-2.19c-0.547-0.079-0.926-0.587-0.847-1.133
					c0.08-0.546,0.595-0.921,1.133-0.847l15.13,2.19c2.148,0.311,4.37,0.632,6.545,1.155c1.085,0.26,2.114,0.517,3.116,0.767
					c3.729,0.93,6.95,1.733,11.327,2.33c0.295,0.04,0.557,0.21,0.714,0.462c0.157,0.253,0.194,0.563,0.1,0.845
					c-1.741,5.213-3.576,10.489-5.35,15.591c-1.774,5.102-3.608,10.377-5.347,15.585C96.742,181.413,96.352,181.678,95.933,181.678z
					"/>
			</g>
			<g>
				<path d="M96.387,182.255c-0.06,0-0.121-0.005-0.182-0.017c-1.495-0.274-12.256-2.499-13.626-2.828
					c-2.691-0.647-6.502-1.212-9.061-1.344l-11.233-0.575c-0.551-0.028-0.976-0.498-0.947-1.05c0.028-0.552,0.511-0.975,1.05-0.947
					l11.233,0.575c2.666,0.137,6.63,0.724,9.426,1.396c1.357,0.327,12.035,2.533,13.52,2.806c0.543,0.1,0.903,0.621,0.803,1.164
					C97.281,181.918,96.86,182.255,96.387,182.255z"/>
			</g>
			<g>
				<path d="M54.915,177.502c-0.489,0-0.916-0.358-0.988-0.857c-0.079-0.546,0.3-1.054,0.846-1.133l5.627-0.815
					c0.549-0.071,1.054,0.299,1.133,0.846c0.079,0.547-0.3,1.054-0.846,1.133l-5.627,0.815
					C55.011,177.499,54.963,177.502,54.915,177.502z"/>
			</g>
			<g>
				<path d="M50.703,221.961c-0.543,0-0.989-0.435-0.999-0.981c-0.147-7.729,1.023-15.478,2.155-22.971
					c1.082-7.164,2.201-14.571,2.144-21.879c-0.004-0.552,0.44-1.003,0.992-1.008c0.003,0,0.005,0,0.008,0
					c0.549,0,0.996,0.442,1,0.992c0.058,7.466-1.073,14.953-2.167,22.193c-1.12,7.412-2.277,15.075-2.133,22.635
					c0.01,0.552-0.429,1.008-0.981,1.019C50.716,221.961,50.709,221.961,50.703,221.961z"/>
			</g>
			<g>
				<path d="M56.865,216.007c-0.049,0-0.099-0.003-0.149-0.011c-0.546-0.081-0.923-0.59-0.841-1.137l5.692-38.071
					c0.081-0.546,0.591-0.927,1.137-0.841c0.546,0.081,0.923,0.59,0.841,1.137l-5.692,38.071
					C57.778,215.651,57.352,216.007,56.865,216.007z"/>
			</g>
			<g>
				<path d="M93.314,197.493c-0.037,0-0.073-0.002-0.11-0.006c-0.549-0.06-0.945-0.554-0.885-1.103l0.157-1.44
					c0.53-4.882,0.987-9.098,2.079-14.173c0.116-0.54,0.648-0.884,1.188-0.768c0.54,0.116,0.884,0.648,0.768,1.188
					c-1.069,4.974-1.521,9.142-2.045,13.969l-0.157,1.442C94.251,197.113,93.817,197.493,93.314,197.493z"/>
			</g>
			<g>
				<path d="M101.999,148.957c-0.118,0-0.238-0.021-0.354-0.065c-0.517-0.196-0.776-0.773-0.58-1.29
					c3.845-10.14,7.794-17.523,14.444-29.7c3.957-7.249,8.886-13.504,14.649-18.589c5.002-4.414,9.801-7.406,14.671-9.147
					c5.968-2.132,12.128-2.307,17.348-0.49c0.521,0.181,0.797,0.751,0.616,1.273c-0.182,0.521-0.752,0.798-1.273,0.616
					c-4.79-1.667-10.479-1.496-16.018,0.485c-4.626,1.653-9.213,4.52-14.021,8.763c-5.666,5-10.317,10.904-14.217,18.047
					c-6.607,12.101-10.53,19.434-14.329,29.451C102.783,148.711,102.403,148.957,101.999,148.957z"/>
			</g>
			<g>
				<path d="M74.464,144.073c-0.266,0-0.527-0.094-0.738-0.279c-0.477-0.417-0.534-1.138-0.344-1.634
					c1.846-4.807,3.622-9.547,5.408-14.317c0.853-2.278,1.709-4.563,2.576-6.865c6.305-16.738,19.459-32.228,33.513-39.461
					l0.001,0.001c0.672-0.361,2.237-0.85,5.965-2.017c2.084-0.651,4.909-1.535,5.498-1.792c0.106-0.079,0.228-0.138,0.362-0.171
					c7.54-1.847,14.438-1.848,20.499-0.005c7.148,2.173,12.959,7.123,15.543,13.241c0.215,0.509-0.023,1.095-0.532,1.311
					c-0.508,0.212-1.095-0.023-1.311-0.532c-2.355-5.578-7.695-10.103-14.282-12.106c-5.685-1.729-12.189-1.727-19.335,0.008
					c-0.728,0.356-2.315,0.853-5.845,1.956c-2.087,0.652-4.915,1.537-5.505,1.795c-0.044,0.033-0.092,0.063-0.142,0.089
					c-13.638,7.019-26.417,22.087-32.556,38.388c-0.867,2.3-1.722,4.584-2.575,6.861c-1.744,4.656-3.478,9.285-5.276,13.974
					c0.011,0.017,0.021,0.035,0.031,0.053c0.265,0.484,0.087,1.092-0.398,1.357C74.843,144.026,74.652,144.073,74.464,144.073z"/>
			</g>
			<g>
				<path d="M70.751,144.352c-0.028,0-0.057-0.001-0.085-0.003c-0.55-0.047-0.959-0.53-0.913-1.081
					c0.26-3.076,0.679-5.778,1.88-8.973c1.108-2.945,2.172-6.041,3.202-9.035c3.641-10.589,7.406-21.539,14.37-30.165
					c0.338-0.418,0.714-0.891,1.118-1.4c2.256-2.839,5.345-6.728,7.749-8.617c2.462-1.937,5.25-3.355,7.947-4.728
					c1.226-0.624,2.521-1.244,3.817-1.863c1.206-0.576,2.412-1.153,3.561-1.733c0.577-0.448,1.897-0.943,4.533-1.932
					c1.412-0.529,3.311-1.242,3.841-1.522c0.17-0.187,0.407-0.304,0.663-0.323c3.289-0.251,6.599-0.473,9.84-0.661
					c3.682-0.213,7.002-0.344,10.328,0.222c9.162,1.558,17.182,8.931,19.502,17.93c0.138,0.535-0.184,1.08-0.719,1.218
					c-0.533,0.137-1.08-0.184-1.218-0.719c-2.13-8.259-9.491-15.027-17.901-16.457c-3.119-0.531-6.318-0.404-9.878-0.196
					c-3.128,0.181-6.322,0.394-9.498,0.635c-0.683,0.406-1.979,0.892-4.259,1.746c-1.41,0.529-3.307,1.241-3.837,1.521
					c-0.08,0.087-0.175,0.161-0.286,0.217c-1.224,0.623-2.518,1.242-3.811,1.86c-1.28,0.612-2.561,1.224-3.772,1.84
					c-2.611,1.329-5.31,2.703-7.618,4.518c-2.219,1.745-5.225,5.527-7.419,8.289c-0.408,0.513-0.787,0.99-1.128,1.412
					c-6.743,8.353-10.449,19.133-14.034,29.56c-1.034,3.007-2.103,6.117-3.221,9.089c-1.12,2.979-1.514,5.527-1.759,8.436
					C71.702,143.958,71.265,144.352,70.751,144.352z"/>
			</g>
			<g>
				<path d="M64.558,142.021c-0.039,0-0.078-0.002-0.117-0.007c-0.548-0.063-0.942-0.56-0.878-1.108
					c0.999-8.613,3.978-19.079,7.592-26.663c0.254-0.534,1.006-2.4,1.801-4.377c1.071-2.661,2.179-5.412,2.569-6.157
					c13.719-26.169,27.757-38.516,50.07-44.041c7.708-1.907,24.604,0.472,26.505,0.75c2.955,0.432,7.865,2.785,10.129,4.247
					c2.624,1.695,7.969,7.19,10.994,10.972c2.591,3.238,4.293,7.052,5.939,10.741c0.398,0.892,0.796,1.783,1.206,2.666
					c0.999,2.152,1.708,4.426,2.392,6.625l3.327,10.687c0.417,1.338,1.024,2.574,1.668,3.882c0.804,1.635,1.635,3.325,2.058,5.225
					c0.071,0.317,0.137,0.637,0.204,0.958c0.305,1.47,0.593,2.858,1.282,4.033c0.279,0.477,0.119,1.089-0.357,1.369
					c-0.478,0.279-1.09,0.119-1.369-0.357c-0.855-1.459-1.19-3.075-1.515-4.639c-0.064-0.311-0.129-0.621-0.197-0.93
					c-0.371-1.666-1.114-3.176-1.9-4.776c-0.649-1.319-1.32-2.684-1.783-4.17l-3.327-10.687c-0.666-2.137-1.354-4.346-2.297-6.377
					c-0.414-0.891-0.816-1.792-1.218-2.692c-1.595-3.574-3.245-7.27-5.675-10.307c-3.189-3.987-8.3-9.109-10.517-10.54
					c-2.161-1.395-6.757-3.572-9.334-3.948c-6.755-0.987-19.775-2.263-25.736-0.788C104.11,67.049,90.89,78.71,77.297,104.638
					c-0.344,0.656-1.531,3.605-2.485,5.975c-0.843,2.093-1.57,3.9-1.851,4.49c-3.526,7.402-6.436,17.621-7.411,26.033
					C65.49,141.646,65.058,142.021,64.558,142.021z"/>
			</g>
			<g>
				<path d="M178.589,126.429c-0.411,0-0.796-0.255-0.942-0.665c-0.827-2.32-1.577-4.436-2.327-6.553
					c-0.743-2.095-1.486-4.192-2.304-6.489c-1.151-3.23-2.342-6.57-4.06-9.558c-1.196-2.082-2.69-4.059-4.134-5.97
					c-1.515-2.006-3.082-4.079-4.357-6.328c-0.272-0.48-0.104-1.09,0.376-1.363c0.48-0.273,1.09-0.104,1.363,0.377
					c1.211,2.134,2.737,4.155,4.213,6.109c1.481,1.961,3.013,3.988,4.272,6.179c1.807,3.144,3.028,6.57,4.21,9.884
					c0.819,2.298,1.563,4.396,2.306,6.493c0.75,2.116,1.499,4.23,2.326,6.549c0.186,0.521-0.086,1.092-0.606,1.278
					C178.813,126.41,178.7,126.429,178.589,126.429z"/>
			</g>
			<g>
				<path d="M223.248,128.345c-0.462,0-0.877-0.322-0.977-0.791c-1.397-6.556-3.309-11.903-5.159-17.073
					c-0.528-1.475-1.054-2.947-1.569-4.444c-2.1-6.111-4.764-10.514-6.355-13.146c-0.529-0.875-0.947-1.566-1.212-2.099
					c-0.674-1.352-1.663-2.598-2.62-3.802c-0.92-1.159-1.719-2.335-2.491-3.474c-1.417-2.089-2.755-4.062-4.697-5.729
					c-5.535-4.75-11.665-7.66-20.499-9.73c-2.925-0.686-5.935-1.274-8.846-1.844c-5.084-0.995-10.342-2.023-15.392-3.61
					c-0.527-0.166-0.82-0.727-0.654-1.254c0.166-0.527,0.73-0.817,1.254-0.654c4.943,1.554,10.146,2.571,15.177,3.556
					c2.929,0.573,5.957,1.165,8.918,1.859c9.167,2.148,15.55,5.186,21.345,10.16c2.145,1.84,3.621,4.018,5.05,6.124
					c0.751,1.107,1.528,2.252,2.401,3.352c1.021,1.285,2.076,2.614,2.844,4.154c0.229,0.459,0.628,1.119,1.134,1.955
					c1.633,2.7,4.366,7.218,6.536,13.53c0.512,1.489,1.036,2.954,1.561,4.421c1.872,5.233,3.807,10.644,5.231,17.33
					c0.115,0.54-0.229,1.071-0.77,1.187C223.388,128.338,223.317,128.345,223.248,128.345z"/>
			</g>
			<g>
				<path d="M189.63,228.284c-0.406,0-0.789-0.25-0.938-0.653c-1.182-3.192-1.748-4.889-2.569-8.056
					c-0.744-2.867-1.089-5.809-1.422-8.653c-0.185-1.572-0.375-3.198-0.63-4.781c-0.132-0.821-0.223-1.51-0.305-2.132
					c-0.123-0.937-0.221-1.677-0.409-2.496c-0.124-0.538,0.212-1.075,0.75-1.199c0.537-0.119,1.075,0.213,1.199,0.75
					c0.209,0.912,0.318,1.732,0.443,2.683c0.08,0.605,0.168,1.276,0.297,2.075c0.262,1.626,0.455,3.273,0.642,4.866
					c0.326,2.778,0.663,5.65,1.372,8.384c0.807,3.107,1.334,4.689,2.509,7.864c0.191,0.518-0.073,1.093-0.591,1.285
					C189.863,228.264,189.745,228.284,189.63,228.284z"/>
			</g>
			<g>
				<path d="M234.445,253.689c-0.04,0-0.081-0.003-0.122-0.007c-0.548-0.066-0.939-0.565-0.872-1.113
					c0.823-6.787,1.549-16.753-1.641-24.904c-1.261-3.222-3.338-8.79-4.421-11.944c-0.179-0.522,0.099-1.091,0.621-1.271
					c0.521-0.182,1.091,0.099,1.271,0.621c1.075,3.13,3.139,8.662,4.392,11.865c3.355,8.572,2.614,18.872,1.764,25.874
					C235.374,253.317,234.943,253.689,234.445,253.689z"/>
			</g>
			<g>
				<path d="M112.837,330.043c-7.136,0-14.356-2.494-21.264-5.164c-1.568-0.606-3.184-1.218-4.816-1.837
					c-3.509-1.331-7.136-2.706-10.513-4.1c-0.456-0.037-0.795-0.29-0.96-0.412c-1.191-0.889-6.048-5.136-7.048-6.266
					c-0.397-0.448-1.568-1.905-2.923-3.593c-1.533-1.908-3.27-4.071-4.09-5.021c-6.65-7.707-7.035-18.36-6.85-29.518
					c0.051-3.092,0.151-6.149,0.246-9.106c0.136-4.191,0.277-8.524,0.277-12.916l-0.001-15.829c0-8.769-0.001-18.708,4.638-27.096
					c6.243-11.292,22.249-15.282,34.137-13.297c0.544,0.091,0.913,0.606,0.822,1.151c-0.091,0.544-0.6,0.914-1.151,0.822
					c-11.211-1.868-26.259,1.805-32.058,12.293c-4.389,7.936-4.388,17.601-4.388,26.128l0.001,15.829
					c0,4.425-0.141,8.774-0.278,12.981c-0.096,2.949-0.195,5.998-0.246,9.074c-0.178,10.756,0.175,21.004,6.365,28.178
					c0.843,0.977,2.592,3.154,4.135,5.075c1.283,1.598,2.496,3.106,2.861,3.519c0.891,1.007,5.659,5.178,6.745,5.987
					c0.007,0.005,0.013,0.01,0.02,0.015c0.109,0.007,0.217,0.032,0.319,0.074c3.403,1.41,7.086,2.806,10.648,4.156
					c1.636,0.621,3.256,1.235,4.828,1.842c9.049,3.496,18.632,6.689,27.559,4.055c1.33-0.393,2.538-0.945,3.816-1.531
					c0.683-0.313,1.371-0.628,2.087-0.923c0.509-0.211,1.095,0.033,1.306,0.544c0.21,0.511-0.033,1.095-0.544,1.306
					c-0.692,0.285-1.357,0.589-2.017,0.892c-1.286,0.589-2.616,1.198-4.083,1.63C117.915,329.727,115.38,330.043,112.837,330.043z"
					/>
			</g>
			<g>
				<path d="M132.58,216.854c-0.374,0-0.734-0.211-0.905-0.573c-1.013-2.146-2.833-3.891-4.481-5.316
					c-9.48-8.198-21.595-13.057-34.113-13.683c-0.552-0.027-0.976-0.497-0.949-1.048c0.028-0.552,0.508-0.966,1.048-0.949
					c12.961,0.648,25.505,5.679,35.322,14.167c1.805,1.561,3.809,3.492,4.981,5.974c0.236,0.499,0.022,1.096-0.477,1.331
					C132.869,216.823,132.723,216.854,132.58,216.854z"/>
			</g>
			<g>
				<path d="M107.498,304.563c-0.115,0-0.237-0.013-0.366-0.04l-1.42-0.307c-1.299-0.28-2.642-0.569-3.974-0.968
					c-4.241-1.27-11.842-4.473-15.098-11.655c-2.929-6.46-3.003-12.236-3.09-18.923c-0.017-1.277-0.034-2.584-0.072-3.933
					c-0.044-1.549-0.105-3.284-0.17-5.14c-0.311-8.82-0.735-20.9,0.177-28.428c0.104-0.864,0.195-1.665,0.28-2.414
					c0.54-4.777,0.866-7.661,3.146-11.081c1.784-2.675,3.754-2.937,5.337-3.147c0.36-0.048,0.719-0.095,1.074-0.173
					c2.051-0.456,4.102-0.314,6.086-0.177c4.171,0.288,9.363,0.646,13.445,3.311c3.195,2.085,5.578,5.48,6.708,9.559
					c0.968,3.495,1.019,7.391,0.151,11.578c-0.112,0.54-0.642,0.888-1.182,0.776s-0.888-0.641-0.776-1.182
					c0.803-3.873,0.762-7.452-0.121-10.638c-0.985-3.557-3.126-6.626-5.873-8.419c-3.646-2.379-8.344-2.704-12.49-2.99
					c-1.841-0.127-3.746-0.258-5.515,0.134c-0.412,0.091-0.827,0.148-1.244,0.204c-1.483,0.197-2.655,0.353-3.936,2.274
					c-2.011,3.017-2.299,5.566-2.822,10.196c-0.085,0.754-0.176,1.56-0.282,2.43c-0.894,7.373-0.472,19.363-0.164,28.117
					c0.065,1.861,0.126,3.6,0.171,5.154c0.039,1.358,0.056,2.676,0.073,3.963c0.083,6.463,0.156,12.045,2.911,18.123
					c2.14,4.719,7.188,8.57,13.85,10.565c1.256,0.375,2.561,0.657,3.822,0.929l0.992,0.214c0.276-0.136,0.604-0.158,0.876-0.069
					c0.507,0.164,0.833,0.77,0.694,1.285C108.573,304.143,108.156,304.563,107.498,304.563z"/>
			</g>
			<g>
				<path d="M37.365,267.141c-0.162,0-0.323-0.039-0.469-0.117c-0.256-0.136-0.441-0.376-0.506-0.66
					c-1.596-6.949,1.032-13.788,3.574-20.401c0.31-0.809,0.62-1.613,0.919-2.413c0.74-1.978,1.439-4.016,2.116-5.988
					c1.212-3.535,2.467-7.191,4.018-10.683c2.889-6.502,6.348-11.273,10.575-14.583c0.435-0.341,1.063-0.264,1.404,0.17
					c0.341,0.435,0.264,1.064-0.17,1.404c-3.963,3.104-7.228,7.624-9.98,13.821c-1.516,3.412-2.756,7.025-3.955,10.52
					c-0.681,1.984-1.385,4.037-2.135,6.04c-0.301,0.806-0.613,1.616-0.926,2.43c-2.289,5.955-4.65,12.101-3.712,18.096l0.83-0.321
					c0.097-0.151,0.235-0.277,0.403-0.359c0.925-0.451,1.857-0.821,2.757-1.179c0.907-0.36,1.764-0.701,2.622-1.12
					c0.499-0.244,1.096-0.036,1.337,0.459c0.243,0.497,0.037,1.095-0.459,1.337c-0.927,0.453-1.86,0.823-2.762,1.182
					c-0.779,0.309-1.521,0.604-2.259,0.947c-0.203,0.361-0.551,0.666-1.034,0.643l-1.829,0.708
					C37.609,267.118,37.487,267.141,37.365,267.141z"/>
			</g>
			<g>
				<path d="M98.771,333.174c-4.637,0-9.575-0.826-14.759-2.472c-6.835-2.17-13.992-4.681-19.755-9.36
					c-3.938-3.197-12.425-12.005-14.475-16.801c-1.366-3.195-2.674-6.325-3.667-9.499c-4.349-13.9-2.226-29.335-0.52-41.736
					c0.643-4.676,1.296-9.351,1.958-14.025c1.35-9.524,2.915-17.93,8.427-24.34c0.36-0.418,0.992-0.466,1.41-0.106
					c0.419,0.36,0.466,0.992,0.106,1.41c-5.16,6-6.659,14.109-7.963,23.316c-0.662,4.671-1.313,9.344-1.957,14.017
					c-1.679,12.205-3.769,27.394,0.447,40.866c0.966,3.086,2.253,6.165,3.598,9.311c1.899,4.443,10.194,13.027,13.898,16.034
					c5.492,4.458,12.447,6.895,19.1,9.007c7.574,2.406,14.568,2.989,20.792,1.736c1.235-0.249,1.675-0.518,2.738-1.169
					c0.528-0.324,1.179-0.722,2.1-1.225c0.486-0.265,1.092-0.086,1.357,0.399c0.265,0.485,0.086,1.093-0.399,1.357
					c-0.884,0.482-1.507,0.864-2.013,1.174c-1.126,0.69-1.805,1.106-3.388,1.425C103.548,332.947,101.201,333.174,98.771,333.174z"
					/>
			</g>
			<g>
				<path d="M45.938,292.372c-0.373,0-0.73-0.209-0.902-0.568c-3.814-7.956-6.123-17.344-6.333-25.757
					c-0.014-0.552,0.422-1.011,0.975-1.024c0.551-0.032,1.011,0.423,1.024,0.975c0.203,8.141,2.44,17.232,6.137,24.943
					c0.239,0.498,0.028,1.095-0.47,1.334C46.23,292.341,46.083,292.372,45.938,292.372z"/>
			</g>
			<g>
				<path d="M214.694,184.455c-0.05,0-0.101-0.003-0.151-0.011c-1.262-0.191-2.547-0.268-3.825-0.22
					c-0.28,0.013-0.557-0.101-0.753-0.304c-0.197-0.203-0.298-0.48-0.279-0.763c0.181-2.7,0.233-5.44,0.156-8.146
					c-0.016-0.552,0.419-1.013,0.971-1.028c0.542-0.032,1.012,0.418,1.028,0.971c0.069,2.41,0.037,4.847-0.094,7.26
					c1.037,0.014,2.074,0.098,3.096,0.253c0.546,0.082,0.921,0.592,0.839,1.139C215.606,184.1,215.18,184.455,214.694,184.455z"/>
			</g>
			<g>
				<path d="M70.489,161.558c-0.604,0-1.207-0.21-1.668-0.604c-0.611-0.521-0.914-1.304-0.791-2.043
					c0.1-0.589,0.468-1.084,0.955-1.358c0.095-0.146,0.208-0.278,0.338-0.394c0.747-0.665,1.932-0.706,2.756-0.094
					c0.731,0.541,1.095,1.525,0.904,2.449c-0.184,0.879-0.821,1.608-1.665,1.905C71.051,161.512,70.77,161.558,70.489,161.558z
					 M70.765,158.801c0.102,0.165,0.149,0.353,0.146,0.541c0.056-0.07,0.097-0.152,0.114-0.235c0.033-0.16-0.027-0.355-0.135-0.436
					c-0.017-0.012-0.036-0.021-0.056-0.027C70.815,158.699,70.792,158.751,70.765,158.801z"/>
			</g>
			<g>
				<path d="M96.929,166.562c-0.101,0-0.201-0.007-0.302-0.02c-1.028-0.138-1.89-0.982-2.049-2.007
					c-0.11-0.71,0.138-1.396,0.646-1.794c0.124-0.097,0.264-0.159,0.408-0.19c0.008-0.007,0.017-0.014,0.026-0.021
					c0.555-0.45,1.211-0.608,1.781-0.721c0.162-0.032,0.595-0.118,1.026,0.116c0.483,0.262,0.633,0.743,0.682,0.901
					c0.283,0.909,0.278,1.667-0.014,2.32C98.751,166.001,97.855,166.562,96.929,166.562z M96.912,164.561
					c0.155,0.01,0.336-0.097,0.396-0.233c0.037-0.082,0.064-0.219,0.036-0.444c-0.173,0.052-0.322,0.114-0.426,0.199
					c-0.061,0.049-0.097,0.124-0.1,0.152C96.87,164.343,96.9,164.453,96.912,164.561z"/>
			</g>
			<g>
				<path d="M66.13,186.105c-0.471,0-0.89-0.333-0.981-0.813c-0.101-0.531-0.205-1.327,0.067-2.105
					c0.329-0.941,1.158-1.6,2.063-1.638c0.617-0.026,1.243,0.266,1.66,0.781c0.417,0.515,0.571,1.183,0.414,1.787
					c-0.157,0.604-0.618,1.112-1.233,1.359c-0.366,0.146-0.756,0.188-1.124,0.131c-0.14,0.241-0.381,0.423-0.677,0.479
					C66.255,186.099,66.192,186.105,66.13,186.105z"/>
			</g>
			<g>
				<path d="M88.623,189.572c-0.42,0-0.829-0.118-1.173-0.351c-0.657-0.443-1.029-1.229-0.948-2.002
					c0.025-0.235,0.129-0.442,0.284-0.598c0.26-0.672,0.814-1.171,1.474-1.318c0.688-0.151,1.418,0.075,1.953,0.61
					c0.541,0.542,0.771,1.28,0.616,1.976c-0.151,0.674-0.652,1.24-1.34,1.514C89.206,189.516,88.912,189.572,88.623,189.572z
					 M88.684,187.256c-0.02,0.024-0.068,0.161-0.05,0.217c0.025,0.028,0.048,0.057,0.069,0.087c0.007-0.002,0.015-0.004,0.022-0.006
					c0.096-0.032,0.145-0.087,0.151-0.102C88.875,187.391,88.753,187.262,88.684,187.256z"/>
			</g>
			<g>
				<path d="M83.409,105.612c-0.201,0-0.391-0.122-0.467-0.321c-0.317-0.83-0.821-1.594-1.457-2.212
					c-0.198-0.192-0.203-0.509-0.01-0.707c0.192-0.198,0.509-0.203,0.707-0.01c0.739,0.718,1.325,1.608,1.693,2.572
					c0.099,0.258-0.03,0.547-0.288,0.646C83.528,105.601,83.468,105.612,83.409,105.612z"/>
			</g>
			<g>
				<path d="M86.71,99.087c-0.164,0-0.325-0.081-0.421-0.229c-0.916-1.421-1.642-2.956-2.158-4.563
					c-0.084-0.263,0.061-0.544,0.323-0.629c0.265-0.084,0.545,0.061,0.629,0.323c0.489,1.523,1.178,2.979,2.046,4.326
					c0.149,0.232,0.083,0.541-0.149,0.691C86.896,99.061,86.803,99.087,86.71,99.087z"/>
			</g>
			<g>
				<path d="M91.788,93.461c-0.15,0-0.298-0.067-0.397-0.195c-0.899-1.17-1.466-2.626-1.597-4.098
					c-0.024-0.275,0.179-0.518,0.454-0.542c0.275-0.026,0.518,0.179,0.542,0.454c0.114,1.285,0.608,2.555,1.394,3.577
					c0.168,0.219,0.127,0.533-0.092,0.701C92.002,93.428,91.894,93.461,91.788,93.461z"/>
			</g>
			<g>
				<path d="M88.514,92.699c-0.14,0-0.279-0.059-0.378-0.173c-0.481-0.555-0.846-1.188-1.086-1.88
					c-0.09-0.261,0.048-0.545,0.309-0.636c0.26-0.089,0.545,0.048,0.636,0.309c0.195,0.563,0.505,1.1,0.897,1.553
					c0.181,0.208,0.158,0.524-0.051,0.705C88.747,92.659,88.63,92.699,88.514,92.699z"/>
			</g>
			<g>
				<path d="M95.964,88.483c-0.235,0-0.445-0.166-0.491-0.406c-0.283-1.483-0.862-2.94-1.676-4.215
					c-0.148-0.233-0.081-0.542,0.152-0.69c0.232-0.148,0.541-0.081,0.69,0.152c0.881,1.38,1.509,2.959,1.815,4.565
					c0.052,0.271-0.127,0.533-0.397,0.585C96.027,88.48,95.995,88.483,95.964,88.483z"/>
			</g>
			<g>
				<path d="M101.35,84.071c-0.195,0-0.381-0.115-0.461-0.307c-0.737-1.759-1.28-3.603-1.616-5.482
					c-0.048-0.272,0.132-0.532,0.404-0.58c0.274-0.049,0.532,0.132,0.58,0.404c0.323,1.807,0.845,3.581,1.553,5.271
					c0.107,0.255-0.013,0.548-0.268,0.655C101.48,84.059,101.415,84.071,101.35,84.071z"/>
			</g>
			<g>
				<path d="M105.805,81.363c-0.139,0-0.277-0.058-0.376-0.17c-0.53-0.604-0.914-1.335-1.109-2.113
					c-0.067-0.268,0.095-0.54,0.363-0.607c0.269-0.065,0.539,0.095,0.607,0.363c0.157,0.625,0.466,1.212,0.892,1.698
					c0.182,0.208,0.161,0.523-0.046,0.706C106.04,81.322,105.922,81.363,105.805,81.363z"/>
			</g>
			<g>
				<path d="M110.099,80.005c-0.221,0-0.424-0.148-0.483-0.373c-0.518-1.964-0.893-3.982-1.115-5.999
					c-0.03-0.274,0.168-0.521,0.442-0.552c0.273-0.033,0.521,0.168,0.552,0.442c0.217,1.968,0.582,3.938,1.088,5.854
					c0.07,0.267-0.089,0.541-0.356,0.611C110.184,80,110.141,80.005,110.099,80.005z"/>
			</g>
			<g>
				<path d="M115.206,76.763c-0.118,0-0.235-0.041-0.331-0.124c-0.556-0.49-0.838-1.25-0.736-1.983
					c0.038-0.273,0.289-0.465,0.564-0.426c0.274,0.038,0.464,0.29,0.426,0.564c-0.055,0.399,0.104,0.828,0.407,1.094
					c0.207,0.183,0.227,0.498,0.045,0.706C115.482,76.706,115.344,76.763,115.206,76.763z"/>
			</g>
			<g>
				<path d="M118.85,75.8c-0.014,0-0.029,0-0.043-0.002c-0.275-0.023-0.479-0.266-0.455-0.541c0.176-2.056-0.089-4.172-0.766-6.12
					c-0.091-0.261,0.047-0.546,0.308-0.636c0.262-0.093,0.545,0.047,0.636,0.308c0.723,2.08,1.005,4.339,0.817,6.533
					C119.325,75.603,119.106,75.8,118.85,75.8z"/>
			</g>
			<g>
				<path d="M126.348,72.151c-0.276,0-0.5-0.224-0.5-0.5v-1.729c0-0.276,0.224-0.5,0.5-0.5c0.276,0,0.5,0.224,0.5,0.5v1.729
					C126.848,71.927,126.624,72.151,126.348,72.151z"/>
			</g>
			<g>
				<path d="M136.789,73.5c-0.268,0-0.489-0.212-0.499-0.482l-0.167-4.618c-0.01-0.276,0.206-0.508,0.482-0.518
					c0.271-0.016,0.508,0.206,0.518,0.482l0.167,4.618c0.01,0.276-0.206,0.508-0.481,0.518C136.801,73.5,136.795,73.5,136.789,73.5z
					"/>
			</g>
			<g>
				<path d="M147.082,74.463c-0.007,0-0.014,0-0.021-0.001c-0.276-0.011-0.491-0.244-0.479-0.52
					c0.067-1.674,0.438-3.302,1.101-4.839c0.109-0.253,0.402-0.371,0.657-0.261c0.253,0.109,0.37,0.403,0.261,0.657
					c-0.614,1.423-0.957,2.932-1.02,4.483C147.57,74.252,147.349,74.463,147.082,74.463z"/>
			</g>
			<g>
				<path d="M151.788,77.533c-0.008,0-0.016,0-0.023,0c-0.276-0.013-0.489-0.247-0.477-0.522c0.087-1.882,0.609-3.751,1.508-5.406
					c0.132-0.242,0.434-0.331,0.678-0.201c0.243,0.132,0.333,0.436,0.201,0.678c-0.828,1.523-1.308,3.243-1.388,4.975
					C152.274,77.324,152.053,77.533,151.788,77.533z"/>
			</g>
			<g>
				<path d="M156.381,81.573c-0.024,0-0.049-0.002-0.074-0.005c-0.273-0.04-0.462-0.294-0.421-0.568
					c0.254-1.722,0.783-3.383,1.57-4.937c0.125-0.245,0.424-0.346,0.672-0.22c0.246,0.125,0.345,0.425,0.22,0.672
					c-0.738,1.458-1.234,3.016-1.473,4.631C156.838,81.394,156.625,81.573,156.381,81.573z"/>
			</g>
			<g>
				<path d="M160.269,86.329c-0.071,0-0.143-0.015-0.212-0.047c-0.25-0.117-0.357-0.415-0.24-0.665
					c0.834-1.777,1.919-3.422,3.226-4.887c0.184-0.207,0.501-0.223,0.705-0.04c0.207,0.184,0.225,0.499,0.041,0.705
					c-1.242,1.394-2.274,2.957-3.067,4.647C160.637,86.223,160.457,86.329,160.269,86.329z"/>
			</g>
			<g>
				<path d="M163.822,94.254c-0.103,0-0.206-0.031-0.295-0.097c-0.223-0.163-0.271-0.476-0.108-0.699
					c1.537-2.101,2.791-4.397,3.728-6.826c0.099-0.257,0.387-0.387,0.646-0.286c0.257,0.099,0.386,0.389,0.286,0.646
					c-0.968,2.51-2.265,4.884-3.854,7.057C164.128,94.184,163.976,94.254,163.822,94.254z"/>
			</g>
			<g>
				<path d="M164.744,85.201c-0.092,0-0.186-0.025-0.269-0.079c-0.232-0.149-0.3-0.458-0.152-0.691l1.436-2.246
					c0.148-0.233,0.457-0.301,0.69-0.152c0.233,0.149,0.301,0.458,0.152,0.69l-1.436,2.247
					C165.07,85.12,164.909,85.201,164.744,85.201z"/>
			</g>
			<g>
				<path d="M169.307,101.678c-0.11,0-0.221-0.036-0.313-0.111c-0.215-0.173-0.249-0.488-0.075-0.703
					c1.351-1.674,2.525-3.496,3.491-5.416c0.124-0.247,0.424-0.346,0.671-0.222c0.247,0.124,0.346,0.425,0.222,0.671
					c-0.997,1.983-2.211,3.865-3.606,5.594C169.598,101.615,169.453,101.678,169.307,101.678z"/>
			</g>
			<g>
				<path d="M173.191,109.39c-0.131,0-0.263-0.051-0.361-0.154c-0.191-0.199-0.185-0.516,0.015-0.707
					c1.36-1.306,2.679-2.685,3.918-4.098c0.183-0.208,0.499-0.228,0.706-0.046c0.208,0.182,0.229,0.498,0.046,0.705
					c-1.258,1.435-2.596,2.835-3.978,4.16C173.44,109.344,173.315,109.39,173.191,109.39z"/>
			</g>
			<g>
				<path d="M80.143,112.327c-0.212,0-0.409-0.136-0.477-0.348c-0.392-1.231-1.397-2.25-2.623-2.659
					c-0.262-0.087-0.403-0.37-0.316-0.632c0.086-0.262,0.368-0.404,0.632-0.316c1.523,0.507,2.772,1.773,3.26,3.303
					c0.083,0.263-0.062,0.544-0.325,0.628C80.244,112.32,80.193,112.327,80.143,112.327z"/>
			</g>
			<g>
				<path d="M173.963,102.473c-0.162,0-0.32-0.078-0.416-0.222c-0.154-0.229-0.092-0.54,0.138-0.693l2.171-1.45
					c0.229-0.153,0.54-0.091,0.693,0.139c0.153,0.229,0.091,0.54-0.139,0.693l-2.17,1.449
					C174.155,102.445,174.059,102.473,173.963,102.473z"/>
			</g>
			<g>
				<path d="M76.987,115.189C76.987,115.189,76.987,115.189,76.987,115.189c-0.689-0.001-1.368-0.276-1.862-0.755
					c-0.199-0.192-0.204-0.509-0.012-0.707c0.192-0.199,0.509-0.203,0.707-0.012c0.311,0.301,0.736,0.473,1.168,0.474
					c0.276,0,0.5,0.225,0.499,0.501C77.487,114.966,77.263,115.189,76.987,115.189z"/>
			</g>
		</g>
		<g>
			<path d="M173.261,319.012c-0.076,0-0.153-0.017-0.225-0.054c-0.246-0.124-0.345-0.426-0.22-0.672
				c1.357-2.679,2.212-5.642,3.039-8.507c0.576-1.996,1.171-4.06,1.936-6.036c0.941-2.433,2.158-4.777,3.335-7.044
				c0.381-0.735,0.763-1.47,1.135-2.208c1.755-3.477,3.351-7.109,4.814-10.516c7.409-17.244,14.128-35.03,19.972-52.865
				c0.086-0.262,0.369-0.405,0.631-0.319c0.262,0.086,0.405,0.368,0.319,0.631c-5.852,17.863-12.583,35.677-20.003,52.948
				c-1.47,3.422-3.074,7.071-4.841,10.572c-0.374,0.742-0.757,1.48-1.14,2.218c-1.164,2.244-2.368,4.563-3.289,6.945
				c-0.749,1.934-1.338,3.976-1.908,5.952c-0.839,2.91-1.707,5.919-3.108,8.682C173.619,318.912,173.443,319.012,173.261,319.012z"
				/>
		</g>
		<g>
			<path d="M176.43,320.159c-0.064,0-0.129-0.012-0.192-0.038c-0.255-0.106-0.376-0.398-0.27-0.654
				c7.053-16.987,14.57-34.049,22.343-50.711l0.398-0.853c1.752-3.753,3.564-7.635,5.084-11.554
				c1.163-2.998,2.191-6.113,3.186-9.126c1.548-4.689,3.15-9.538,5.302-14.089c0.118-0.25,0.414-0.357,0.666-0.238
				c0.249,0.118,0.356,0.417,0.238,0.666c-2.126,4.495-3.717,9.315-5.256,13.976c-0.999,3.024-2.032,6.151-3.204,9.173
				c-1.532,3.95-3.351,7.847-5.11,11.616l-0.398,0.853c-7.766,16.649-15.277,33.698-22.325,50.672
				C176.812,320.043,176.626,320.159,176.43,320.159z"/>
		</g>
		<g>
			<path d="M179.495,322.236c-0.059,0-0.119-0.01-0.178-0.033c-0.258-0.098-0.388-0.387-0.29-0.645
				c4.361-11.46,8.751-22.626,14.486-33.248c5.572-10.322,11.881-22.393,16.225-35.019c0.653-1.898,1.275-3.848,1.876-5.732
				c1.267-3.969,2.577-8.074,4.26-11.974c0.109-0.253,0.403-0.37,0.657-0.261c0.254,0.109,0.37,0.404,0.261,0.657
				c-1.664,3.854-2.966,7.935-4.225,11.881c-0.603,1.89-1.227,3.844-1.884,5.753c-4.368,12.698-10.699,24.812-16.29,35.169
				c-5.706,10.567-10.082,21.7-14.431,33.128C179.886,322.114,179.696,322.236,179.495,322.236z"/>
		</g>
		<g>
			<path d="M183.256,322.445c-0.055,0-0.111-0.009-0.167-0.028c-0.26-0.092-0.397-0.378-0.305-0.638
				c1.64-4.641,3.128-8.329,4.825-11.957c0.63-1.347,1.365-2.973,2.159-4.728c2.255-4.986,5.061-11.192,7.238-14.9
				c9.777-16.649,16.205-35.193,22.42-53.125c0.091-0.261,0.375-0.399,0.636-0.309c0.261,0.091,0.399,0.375,0.309,0.636
				c-6.232,17.979-12.676,36.57-22.503,53.305c-2.15,3.662-4.944,9.841-7.189,14.806c-0.796,1.76-1.533,3.39-2.164,4.74
				c-1.683,3.597-3.16,7.256-4.788,11.866C183.655,322.317,183.462,322.445,183.256,322.445z"/>
		</g>
		<g>
			<path d="M168.139,314.862c-0.103,0-0.207-0.032-0.296-0.098c-0.222-0.164-0.27-0.477-0.105-0.699
				c1.179-1.596,1.984-3.473,2.763-5.289c1.109-2.586,2.269-5.222,3.436-7.876c2.135-4.853,4.342-9.871,6.283-14.692l22.125-54.968
				c0.104-0.257,0.396-0.378,0.65-0.277c0.256,0.103,0.38,0.395,0.277,0.65l-22.124,54.968c-1.947,4.836-4.157,9.861-6.295,14.721
				c-1.166,2.651-2.325,5.285-3.433,7.868c-0.801,1.868-1.63,3.8-2.877,5.488C168.443,314.792,168.292,314.862,168.139,314.862z"/>
		</g>
		<g>
			<path d="M186.245,321.671c-0.002,0-0.004,0-0.006,0c-0.201-0.002-0.447-0.175-0.523-0.36c-0.092-0.225-0.045-0.486,0.117-0.65
				c0.067-0.068,0.161-0.115,0.261-0.137c3.05-7.005,6.028-12.967,9.37-18.761c4.035-6.995,7.602-13.343,10.382-20.185
				l16.519-40.659c0.104-0.257,0.396-0.379,0.651-0.275c0.256,0.104,0.379,0.396,0.275,0.651l-16.519,40.659
				c-2.804,6.902-6.388,13.281-10.442,20.309c-3.366,5.836-6.362,11.845-9.428,18.913
				C186.713,321.605,186.412,321.671,186.245,321.671z"/>
		</g>
		<g>
			<path d="M165.703,310.952c-0.057,0-0.115-0.01-0.171-0.03c-0.259-0.095-0.393-0.381-0.298-0.641
				c0.189-0.519,0.253-0.778,0.315-1.03c0.07-0.284,0.142-0.577,0.368-1.176c5.403-14.316,11.214-28.695,17.271-42.737
				c1.706-3.956,3.375-8.005,5.142-12.292c2.78-6.744,5.654-13.718,9.098-21.37c0.114-0.252,0.411-0.363,0.661-0.251
				c0.252,0.113,0.364,0.409,0.251,0.661c-3.437,7.638-6.309,14.604-9.085,21.341c-1.769,4.291-3.439,8.344-5.149,12.308
				c-6.051,14.027-11.856,28.392-17.254,42.694c-0.205,0.542-0.267,0.794-0.333,1.061c-0.068,0.277-0.139,0.562-0.347,1.133
				C166.099,310.826,165.907,310.952,165.703,310.952z"/>
		</g>
		<g>
			<path d="M190.905,320.836c-0.076,0-0.152-0.017-0.225-0.054c-0.247-0.125-0.346-0.425-0.221-0.671l19.429-38.49
				c2.257-4.471,4.591-9.093,6.45-13.834c1.095-2.793,2.057-5.706,2.986-8.522c1.785-5.409,3.631-11.002,6.518-16.038
				c0.137-0.24,0.443-0.322,0.682-0.185c0.24,0.137,0.323,0.443,0.185,0.682c-2.836,4.948-4.666,10.492-6.435,15.855
				c-0.934,2.83-1.9,5.756-3.005,8.574c-1.876,4.784-4.221,9.428-6.488,13.919l-19.429,38.489
				C191.264,320.736,191.088,320.836,190.905,320.836z"/>
		</g>
		<g>
			<path d="M196.757,318.018c-0.061,0-0.124-0.011-0.184-0.035c-0.257-0.101-0.383-0.392-0.281-0.648
				c3.154-7.985,7.453-15.574,11.61-22.914c2.094-3.697,4.259-7.519,6.249-11.342c5.613-10.784,10.158-22.177,13.509-33.862
				c0.076-0.266,0.35-0.42,0.618-0.343c0.266,0.076,0.419,0.353,0.343,0.618c-3.369,11.75-7.939,23.205-13.583,34.049
				c-1.998,3.838-4.168,7.669-6.266,11.373c-4.14,7.31-8.421,14.869-11.55,22.789C197.145,317.898,196.956,318.018,196.757,318.018z
				"/>
		</g>
		<g>
			<path d="M203.595,314.701c-0.082,0-0.165-0.02-0.242-0.063c-0.242-0.134-0.329-0.439-0.194-0.68
				c9.701-17.461,18.149-35.936,26.32-53.802c0.114-0.25,0.411-0.361,0.663-0.247c0.251,0.115,0.361,0.412,0.247,0.663
				c-8.179,17.884-16.636,36.376-26.355,53.872C203.941,314.608,203.77,314.701,203.595,314.701z"/>
		</g>
		<g>
			<path d="M214.183,304.945c-0.09,0-0.182-0.024-0.264-0.076c-0.234-0.146-0.306-0.455-0.16-0.689
				c3.026-4.847,5.377-10.194,7.652-15.366c2.425-5.515,4.933-11.218,8.274-16.362c0.15-0.231,0.459-0.297,0.692-0.147
				c0.231,0.15,0.297,0.46,0.147,0.692c-3.297,5.076-5.788,10.741-8.197,16.22c-2.288,5.204-4.654,10.585-7.718,15.493
				C214.513,304.861,214.35,304.945,214.183,304.945z"/>
		</g>
		<g>
			<path d="M161.733,303.847c-0.062,0-0.125-0.011-0.186-0.036c-0.256-0.102-0.381-0.393-0.279-0.65
				c2.896-7.241,5.268-12.939,7.561-18.449c1.961-4.712,3.814-9.164,5.741-13.983c0.54-1.35,1.039-2.716,1.538-4.082
				c0.64-1.753,1.302-3.564,2.044-5.316c1.704-4.023,3.893-7.889,6.011-11.627c2.748-4.851,5.589-9.867,7.349-15.218
				c0.086-0.263,0.369-0.406,0.631-0.319c0.262,0.086,0.405,0.369,0.319,0.631c-1.791,5.444-4.657,10.504-7.429,15.398
				c-2.104,3.714-4.279,7.554-5.96,11.524c-0.732,1.73-1.39,3.529-2.026,5.27c-0.503,1.375-1.005,2.751-1.549,4.11
				c-1.93,4.826-3.783,9.28-5.746,13.996c-2.292,5.507-4.662,11.202-7.556,18.436C162.119,303.728,161.931,303.847,161.733,303.847z
				"/>
		</g>
		<g>
			<path d="M159.604,293.268c-0.002,0-0.004,0-0.006,0c-0.213-0.003-0.4-0.139-0.468-0.341l-0.373-1.107
				c-0.088-0.262,0.052-0.545,0.314-0.633c0.192-0.065,0.398-0.006,0.528,0.135c6.757-18.428,15.001-36.462,24.515-53.625
				c0.134-0.242,0.439-0.329,0.68-0.195c0.242,0.134,0.329,0.438,0.195,0.68c-9.708,17.513-18.09,35.936-24.915,54.757
				C160.002,293.136,159.814,293.268,159.604,293.268z"/>
		</g>
		<g>
			<path d="M159.799,280.1c-0.073,0-0.147-0.016-0.217-0.05c-0.249-0.12-0.352-0.419-0.232-0.668l15.659-32.386
				c0.12-0.247,0.419-0.352,0.668-0.232c0.249,0.12,0.352,0.419,0.232,0.668l-15.659,32.386
				C160.163,279.996,159.985,280.1,159.799,280.1z"/>
		</g>
		<g>
			<path d="M97.911,301.111c-0.083,0-0.167-0.021-0.244-0.064c-0.225-0.126-0.317-0.401-0.213-0.637l3.751-8.537
				c-1.674,1.992-3.17,4.131-4.466,6.389c-0.136,0.236-0.434,0.32-0.673,0.19c-0.239-0.13-0.329-0.428-0.204-0.669l3.574-6.894
				l-4.354,5.653c-0.151,0.196-0.421,0.254-0.64,0.131c-0.216-0.121-0.312-0.382-0.224-0.613c0.857-2.265,1.813-4.506,2.857-6.701
				l-5.45,6.848c-0.158,0.199-0.439,0.248-0.655,0.113c-0.216-0.134-0.296-0.408-0.188-0.638l4.314-9.13l-5.563,6.652
				c-0.164,0.196-0.448,0.237-0.662,0.095c-0.212-0.142-0.284-0.421-0.165-0.647l2.857-5.45l-2.819,3.77
				c-0.161,0.216-0.463,0.266-0.687,0.111c-0.221-0.154-0.28-0.456-0.133-0.682c1.41-2.174,2.732-4.422,3.952-6.718
				c-0.984,1.254-1.92,2.545-2.8,3.865c-0.149,0.223-0.446,0.289-0.676,0.15c-0.229-0.14-0.308-0.435-0.178-0.669l2.545-4.601
				l-2.096,2.98c-0.154,0.219-0.453,0.279-0.679,0.133c-0.225-0.145-0.297-0.441-0.162-0.672l0.866-1.487
				c-0.16,0.193-0.441,0.241-0.656,0.103c-0.228-0.146-0.298-0.446-0.159-0.678l1.513-2.526c-0.002-0.083,0.017-0.168,0.06-0.247
				l0.974-1.816c-0.383,0.536-0.771,1.067-1.161,1.595c-0.158,0.214-0.457,0.267-0.679,0.119c-0.222-0.148-0.289-0.443-0.152-0.672
				l6.851-11.469l-4.682,6.272c-0.161,0.215-0.466,0.265-0.686,0.111c-0.222-0.154-0.281-0.456-0.135-0.682l5.682-8.795
				l-7.872,11.086c-0.157,0.222-0.463,0.275-0.688,0.125c-0.225-0.152-0.288-0.456-0.141-0.685l4.381-6.83
				c-0.1-0.147-0.117-0.342-0.03-0.51c0.215-0.415,0.431-0.828,0.648-1.242c-0.018,0.003-0.037,0.004-0.056,0.005
				c-0.402,0.532-0.805,1.063-1.208,1.593c-0.162,0.212-0.459,0.261-0.68,0.11c-0.22-0.149-0.284-0.445-0.146-0.673
				c3.916-6.447,8.051-12.814,12.369-19.049c-4.264,5.249-8.524,10.507-12.751,15.736c-0.164,0.204-0.458,0.247-0.674,0.096
				c-0.215-0.15-0.278-0.44-0.144-0.666c2.384-4.007,4.959-7.913,7.646-11.736c-2.346,2.735-4.711,5.445-7.091,8.125
				c-0.169,0.191-0.457,0.223-0.664,0.075c-0.209-0.148-0.271-0.43-0.146-0.652c0.736-1.309,1.5-2.603,2.288-3.881l-5.28,6.698
				c-0.164,0.208-0.463,0.253-0.681,0.099c-0.217-0.153-0.277-0.45-0.135-0.675c3.466-5.517,7.139-10.937,10.995-16.227
				c-3.306,3.767-6.753,7.716-10.61,12.291c-0.162,0.193-0.443,0.234-0.655,0.097c-0.211-0.137-0.288-0.411-0.177-0.638
				c0.434-0.892,0.873-1.756,1.317-2.598c0.015-0.075,0.047-0.147,0.098-0.21l0.043-0.055c0.789-1.479,1.597-2.886,2.424-4.234
				c-0.181,0.159-0.454,0.168-0.645,0.013c-0.209-0.169-0.247-0.472-0.087-0.687l4.957-6.667l-6.377,7.771
				c-0.169,0.207-0.47,0.245-0.685,0.084c-0.214-0.159-0.266-0.457-0.118-0.679c0.941-1.41,1.894-2.815,2.857-4.218
				c-0.246,0.263-0.492,0.525-0.739,0.786c-0.176,0.184-0.46,0.208-0.663,0.057c-0.203-0.152-0.26-0.432-0.133-0.651
				c0.87-1.504,1.769-2.994,2.694-4.467c-0.796,0.842-1.602,1.674-2.415,2.498c-0.179,0.18-0.466,0.199-0.665,0.041
				c-0.2-0.157-0.25-0.44-0.115-0.656c1.769-2.851,3.456-5.456,5.117-7.887c-1.108,1.17-2.253,2.356-3.447,3.567
				c-0.181,0.183-0.472,0.199-0.671,0.037c-0.2-0.162-0.244-0.45-0.102-0.664c0.655-0.989,1.322-1.972,2-2.948
				c-0.597,0.569-1.199,1.13-1.809,1.684c-0.193,0.175-0.486,0.173-0.677-0.004c-0.19-0.177-0.213-0.47-0.052-0.675l0.738-0.938
				c-0.131,0.128-0.263,0.256-0.395,0.384c-0.179,0.175-0.461,0.189-0.658,0.033c-0.197-0.156-0.248-0.433-0.12-0.648
				c0.774-1.3,1.596-2.572,2.464-3.811c-1.07,0.899-2.184,1.792-3.377,2.74c-0.192,0.151-0.466,0.143-0.648-0.022
				c-0.181-0.165-0.216-0.438-0.082-0.643c0.868-1.331,1.724-2.575,2.603-3.774c-0.592,0.512-1.191,1.018-1.794,1.515
				c-0.201,0.164-0.494,0.149-0.676-0.037c-0.181-0.186-0.19-0.48-0.02-0.676c0.833-0.963,1.676-1.922,2.528-2.876
				c1.264-1.537,2.048-2.847,2.808-4.117c0.88-1.471,1.79-2.992,3.416-4.823c0.184-0.207,0.499-0.226,0.706-0.042
				c0.207,0.184,0.225,0.499,0.042,0.706c-1.163,1.309-1.929,2.426-2.613,3.529c1.469-1.558,2.957-3.094,4.458-4.602
				c0.191-0.191,0.497-0.197,0.695-0.014c0.197,0.184,0.214,0.49,0.037,0.694c-0.351,0.404-0.677,0.79-0.987,1.161
				c0.092,0.017,0.181,0.059,0.255,0.128c0.198,0.185,0.212,0.495,0.032,0.697c-1.171,1.314-2.382,2.601-3.629,3.853
				c-1.92,2.15-3.549,4.197-5.153,6.466c1.748-1.439,3.359-2.855,4.983-4.496c0.941-1.105,1.92-2.175,2.937-3.21
				c0.189-0.191,0.495-0.2,0.694-0.019c0.198,0.182,0.218,0.488,0.044,0.693c-1.007,1.186-1.978,2.242-2.942,3.218
				c-1.148,1.349-2.236,2.748-3.262,4.193c2.169-2.282,4.251-4.655,6.228-7.101l1.94-2.467c0.169-0.215,0.482-0.255,0.7-0.086
				c0.217,0.168,0.257,0.48,0.09,0.699c-0.637,0.833-1.287,1.66-1.949,2.478l-4.476,5.692c0.315-0.335,0.628-0.672,0.939-1.011
				c2.316-3.05,4.74-6.019,7.255-8.882c0.176-0.201,0.479-0.227,0.688-0.061c0.209,0.167,0.249,0.468,0.093,0.685
				c-2.249,3.097-4.678,6.072-7.267,8.9c-0.829,1.091-1.643,2.193-2.442,3.304c1.803-1.925,3.516-3.818,5.194-5.724
				c2.394-3.079,4.853-5.964,7.54-8.868c0.184-0.2,0.492-0.216,0.697-0.037c0.204,0.178,0.228,0.486,0.056,0.695
				c-2.556,3.085-4.999,5.981-7.52,8.845c-2.565,3.302-5.056,6.832-7.671,10.857c1.104-1.189,2.19-2.396,3.258-3.62
				c3.198-4.609,6.668-9.032,10.378-13.225c0.176-0.199,0.477-0.225,0.685-0.061c0.208,0.165,0.251,0.463,0.099,0.68
				c-3.215,4.572-6.686,8.995-10.372,13.221c-1.263,1.821-2.482,3.671-3.658,5.547c1.148-1.291,2.275-2.602,3.381-3.931
				c3.1-4.299,6.287-8.54,9.534-12.685c0.166-0.212,0.47-0.255,0.688-0.096c0.218,0.159,0.271,0.461,0.12,0.685
				c-2.961,4.379-6.156,8.63-9.55,12.71c-0.422,0.585-0.841,1.17-1.259,1.757l11.992-14.612c0.173-0.209,0.479-0.245,0.694-0.077
				c0.214,0.167,0.255,0.475,0.094,0.692l-8.477,11.4c2.187-2.515,4.505-4.992,6.974-7.6l4.523-5.148
				c0.179-0.204,0.487-0.227,0.695-0.054c0.209,0.173,0.241,0.481,0.073,0.694l-0.09,0.115c0.043,0.15,0.014,0.318-0.09,0.449
				l-18.136,22.734c1.884-2.166,3.695-4.229,5.479-6.258c3.544-4.035,7.201-8.197,11.315-13.053c0.308-0.365,0.615-0.73,0.924-1.093
				l0.001-0.001c0-0.001,0.001-0.001,0.001-0.001c0.178-0.209,0.493-0.235,0.704-0.058c0.21,0.178,0.237,0.493,0.059,0.704
				c-0.311,0.369-0.62,0.734-0.925,1.095c-5.913,7.032-11.513,14.391-16.73,21.984l8.232-10.443
				c2.907-3.829,5.906-7.563,8.864-11.244c0.172-0.215,0.485-0.25,0.701-0.078c0.215,0.171,0.251,0.484,0.081,0.701l-8.851,11.227
				c-3.104,4.089-6.103,8.286-8.828,12.641c6.395-7.328,12.665-14.857,18.701-22.46c0.527-0.667,1.053-1.332,1.578-1.996
				c0.001-0.002,0.001-0.002,0.002-0.002c0.171-0.216,0.486-0.253,0.702-0.083c0.217,0.171,0.254,0.485,0.083,0.702
				c-0.526,0.668-1.053,1.335-1.582,2.002c-5.975,7.563-12.034,15.33-17.454,23.48c6.443-7.954,12.934-15.939,19.363-23.819
				c0.172-0.211,0.483-0.246,0.698-0.076c0.131,0.104,0.196,0.261,0.189,0.417c0.169-0.188,0.455-0.22,0.663-0.069
				c0.219,0.159,0.272,0.462,0.121,0.686c-2.745,4.052-5.542,8.095-8.381,12.117c-1.714,2.846-3.479,5.675-5.29,8.478l6.624-9.328
				c0.157-0.222,0.464-0.278,0.688-0.124c0.225,0.153,0.287,0.457,0.14,0.686l-10.037,15.535l1.655-2.217
				c0.159-0.213,0.457-0.264,0.679-0.116c0.221,0.148,0.288,0.443,0.151,0.672l-4.205,7.04c0.027,0.01,0.054,0.021,0.081,0.036
				c0.239,0.133,0.327,0.433,0.197,0.673l-1.19,2.219c0.048,0.012,0.094,0.031,0.138,0.057c0.236,0.143,0.312,0.449,0.17,0.685
				l-0.489,0.816c0.116-0.018,0.24,0.003,0.347,0.071c0.228,0.144,0.3,0.442,0.165,0.674l-1.788,3.073l0.736-1.047
				c0.153-0.218,0.449-0.278,0.674-0.136c0.225,0.141,0.301,0.433,0.172,0.666l-3.588,6.487c0.427-0.505,0.862-1.003,1.304-1.494
				c0.167-0.184,0.443-0.218,0.648-0.082c0.207,0.138,0.281,0.405,0.175,0.63c-0.488,1.035-0.997,2.064-1.527,3.084l1.372-1.834
				c0.156-0.209,0.446-0.263,0.667-0.124c0.221,0.139,0.297,0.424,0.176,0.655l-3.603,6.871l5.071-6.064
				c0.162-0.192,0.441-0.235,0.653-0.101c0.212,0.136,0.29,0.408,0.183,0.635l-4.137,8.756l5.872-7.378
				c0.161-0.202,0.452-0.249,0.668-0.105c0.216,0.144,0.286,0.429,0.162,0.657c-1.361,2.485-2.608,5.055-3.726,7.673l5.558-7.216
				c0.158-0.206,0.446-0.256,0.665-0.117c0.218,0.139,0.294,0.422,0.175,0.652l-2.605,5.025c0.719-0.864,1.47-1.701,2.252-2.508
				c0.169-0.175,0.437-0.203,0.638-0.067c0.201,0.135,0.276,0.395,0.179,0.616l-2.928,6.664l1.622-2.332
				c0.138-0.198,0.397-0.27,0.616-0.17c0.22,0.099,0.337,0.34,0.28,0.574l-0.872,3.564c1.161,1.264,2.851,2.029,4.569,2.058
				c0.276,0.005,0.496,0.233,0.492,0.508c-0.005,0.276-0.209,0.503-0.508,0.492c-2.086-0.035-4.136-1.008-5.482-2.601
				c-0.104-0.122-0.142-0.287-0.104-0.442l0.295-1.205l-3.023,4.346C98.226,301.036,98.07,301.111,97.911,301.111z M93.473,243.874
				c-1.124,1.466-2.212,2.977-3.265,4.563l6.503-8.247L93.473,243.874z"/>
		</g>
		<g>
			<path d="M102.462,288.957c-0.021,0-0.042-0.001-0.063-0.004c-0.274-0.035-0.468-0.285-0.434-0.559
				c0.098-0.773,0.237-1.542,0.418-2.303c-0.167,0.213-0.336,0.423-0.509,0.631c-0.162,0.193-0.441,0.238-0.654,0.102
				c-0.212-0.136-0.29-0.408-0.183-0.636l0.376-0.793l-1.68,2.914c-0.134,0.233-0.431,0.32-0.669,0.19
				c-0.238-0.127-0.332-0.421-0.212-0.663c1.539-3.095,3.006-6.249,4.392-9.438l-5.526,10.054c-0.13,0.238-0.425,0.328-0.668,0.204
				c-0.241-0.125-0.339-0.419-0.22-0.663l1.295-2.667c-0.144,0.205-0.421,0.274-0.646,0.151c-0.241-0.131-0.332-0.431-0.204-0.674
				l0.426-0.804l-0.652,1.082c-0.14,0.23-0.436,0.309-0.672,0.178c-0.236-0.131-0.324-0.426-0.201-0.665l3.089-5.989l-1.001,1.768
				c-0.134,0.236-0.432,0.322-0.673,0.193c-0.239-0.129-0.332-0.427-0.207-0.669l1.865-3.622l-2.725,4.86
				c-0.133,0.237-0.434,0.325-0.673,0.195c-0.24-0.129-0.332-0.427-0.206-0.67c1.138-2.2,2.303-4.393,3.492-6.575
				c-0.112,0.018-0.234-0.006-0.339-0.074c-0.22-0.14-0.295-0.425-0.173-0.655c0.178-0.336,0.356-0.672,0.536-1.008
				c-0.41,0.655-0.819,1.31-1.227,1.961c-0.145,0.232-0.449,0.305-0.682,0.163c-0.234-0.141-0.311-0.443-0.174-0.68l9.613-16.535
				l-2.539,3.803c-2.32,3.581-4.685,7.124-7.088,10.619c-0.105,0.152-0.279,0.224-0.451,0.215l-0.554,0.918
				c-0.14,0.232-0.437,0.311-0.674,0.177c-0.235-0.133-0.323-0.429-0.197-0.668c1.82-3.464,3.744-6.884,5.764-10.248
				c-0.1,0.003-0.188-0.024-0.271-0.077c-0.229-0.145-0.301-0.445-0.163-0.677l5.966-10.083l-3.479,5.001
				c-0.156,0.227-0.468,0.283-0.694,0.126c-0.227-0.156-0.285-0.466-0.129-0.693c4.53-6.637,8.899-13.508,12.985-20.424
				c0.142-0.238,0.448-0.314,0.685-0.176c0.238,0.141,0.316,0.447,0.176,0.685c-0.696,1.178-1.401,2.355-2.113,3.53
				c0.069,0.01,0.137,0.035,0.199,0.074c0.226,0.145,0.297,0.444,0.16,0.675l-3.956,6.685l3.208-4.777
				c0.151-0.226,0.454-0.289,0.684-0.143c0.175,0.111,0.257,0.314,0.224,0.507c0.138-0.179,0.276-0.358,0.415-0.537
				c0.162-0.208,0.457-0.255,0.675-0.108c0.218,0.147,0.285,0.439,0.152,0.667c-0.143,0.245-0.286,0.489-0.429,0.733
				c0.086,0.003,0.172,0.027,0.25,0.076c0.229,0.143,0.303,0.442,0.167,0.676l-5.565,9.573c1.817-2.737,3.662-5.453,5.542-8.128
				c0.159-0.225,0.468-0.28,0.695-0.123c0.173,0.121,0.247,0.331,0.201,0.525c0.129-0.041,0.278-0.027,0.405,0.05
				c0.228,0.138,0.308,0.43,0.182,0.664c-1.696,3.161-3.479,6.285-5.343,9.365c0.156,0.149,0.202,0.389,0.098,0.59l-7.916,15.347
				l2.228-3.694l4.284-8.083c0.128-0.24,0.426-0.333,0.668-0.211c0.012,0.006,0.024,0.013,0.036,0.021l0.402-0.667
				c0.141-0.233,0.444-0.311,0.679-0.174c0.236,0.137,0.319,0.437,0.187,0.675l-5.479,9.866l-0.567,1.167l0.178-0.323
				c0.126-0.231,0.409-0.323,0.648-0.213c0.239,0.111,0.351,0.387,0.256,0.633c-0.957,2.493-1.969,4.978-3.03,7.444l2.316-4.017
				c0.134-0.232,0.426-0.317,0.665-0.193c0.237,0.125,0.335,0.414,0.219,0.657l-2.159,4.553c0.122-0.037,0.26-0.029,0.381,0.035
				c0.231,0.122,0.33,0.399,0.228,0.639c-0.513,1.204-1.109,2.368-1.783,3.484c-0.676,1.682-1.139,3.451-1.365,5.241
				C102.926,288.772,102.711,288.957,102.462,288.957z M108.668,251.929l-2.357,3.904c1.042-1.65,2.073-3.307,3.093-4.968
				C109.158,251.219,108.912,251.574,108.668,251.929z"/>
		</g>
		<g>
			<path d="M101.414,300.923c-0.071,0-0.144-0.015-0.213-0.048c-0.249-0.117-0.356-0.414-0.24-0.663
				c0.421-0.907,0.798-1.835,1.129-2.78c-0.309,0.674-0.641,1.338-0.996,1.99c-0.127,0.234-0.417,0.326-0.657,0.211
				c-0.24-0.117-0.347-0.401-0.242-0.647c0.005-0.012,0.01-0.024,0.016-0.036c-0.036-0.005-0.073-0.014-0.108-0.028
				c-0.241-0.091-0.374-0.351-0.305-0.6c0.545-1.984,1.328-3.881,2.334-5.662c0.098-0.285,0.193-0.572,0.285-0.859
				c-0.582,0.761-1.124,1.554-1.624,2.374c-0.771,1.768-1.596,3.51-2.474,5.22c-0.12,0.233-0.4,0.334-0.642,0.231
				c-0.241-0.104-0.361-0.376-0.275-0.625c0.642-1.834,1.485-3.613,2.501-5.287c0.797-1.831,1.534-3.691,2.208-5.57
				c-0.023,0.036-0.046,0.072-0.069,0.108c-1.11,2.679-2.329,5.318-3.641,7.886c-0.118,0.232-0.396,0.335-0.634,0.235
				c-0.24-0.098-0.366-0.364-0.289-0.612c0.88-2.821,2.111-5.49,3.673-7.971c0.139-0.336,0.276-0.673,0.412-1.011
				c-1.067,1.548-2.051,3.155-2.942,4.806c-0.129,0.24-0.427,0.333-0.669,0.207c-0.243-0.125-0.34-0.422-0.219-0.667
				c1.227-2.476,2.32-5.039,3.26-7.643c-1.167,1.205-2.229,2.51-3.17,3.899c-0.145,0.213-0.429,0.282-0.655,0.158
				c-0.226-0.124-0.321-0.4-0.218-0.637l3.422-7.9c-1.976,2.118-3.825,4.365-5.518,6.706c-0.157,0.217-0.457,0.272-0.681,0.124
				c-0.224-0.148-0.291-0.446-0.152-0.675c1.812-3.007,3.67-6.088,5.042-9.36l-7.496,11.337c-0.146,0.222-0.442,0.291-0.671,0.154
				c-0.229-0.136-0.312-0.427-0.188-0.663l5.561-10.568l-5.054,6.316c-0.17,0.212-0.479,0.249-0.694,0.084
				c-0.029-0.022-0.055-0.046-0.077-0.073c-0.005-0.002-0.01-0.005-0.015-0.008c-0.201-0.12-0.289-0.36-0.222-0.576l-2.143,3.25
				c-0.146,0.222-0.441,0.29-0.67,0.157c-0.229-0.134-0.314-0.425-0.192-0.661c1.483-2.875,2.795-5.859,3.917-8.901
				c-1.707,2.331-3.249,4.79-4.604,7.339c-0.121,0.23-0.399,0.328-0.638,0.226c-0.239-0.102-0.36-0.37-0.278-0.617
				c0.214-0.648,0.44-1.294,0.678-1.936l-0.426,0.698c-0.142,0.232-0.444,0.307-0.679,0.171c-0.235-0.137-0.317-0.437-0.185-0.675
				c0.998-1.79,1.915-3.637,2.743-5.52c-0.675,1.273-1.39,2.524-2.142,3.75c-0.137,0.223-0.422,0.303-0.653,0.184
				c-0.232-0.118-0.334-0.395-0.235-0.637c0.286-0.69,0.602-1.365,0.947-2.022c-0.145,0.101-0.34,0.119-0.507,0.034
				c-0.23-0.116-0.335-0.389-0.241-0.629c0.398-1.017,0.812-2.032,1.24-3.043c-0.135,0.051-0.294,0.043-0.429-0.039
				c-0.237-0.141-0.315-0.447-0.174-0.684c1.009-1.706,1.968-3.449,2.873-5.221l-3.084,5.057c-0.141,0.232-0.442,0.308-0.679,0.172
				c-0.235-0.137-0.317-0.438-0.185-0.675l4.575-8.221l-0.662,0.896l-1.625,3.172c-0.126,0.247-0.426,0.345-0.673,0.217
				c-0.026-0.013-0.05-0.028-0.073-0.045l-0.601,1.008c0,0-0.001,0.001-0.001,0.001l0,0c-0.142,0.237-0.448,0.315-0.685,0.174
				c-0.237-0.141-0.315-0.447-0.175-0.685c0.438-0.738,0.86-1.487,1.266-2.244c-0.087,0.137-0.175,0.273-0.264,0.409
				c-0.141,0.215-0.42,0.29-0.649,0.17c-0.228-0.119-0.329-0.391-0.233-0.629c0.308-0.768,0.634-1.53,0.977-2.284
				c-0.008,0.011-0.017,0.022-0.025,0.033c-0.154,0.2-0.434,0.253-0.652,0.125c-0.217-0.129-0.304-0.401-0.201-0.632
				c0.288-0.649,0.602-1.284,0.943-1.903c0.413-1.587,0.959-3.131,1.633-4.621c-0.65,0.518-1.343,0.981-2.064,1.378
				c-0.187,0.101-0.416,0.076-0.573-0.064c-0.158-0.141-0.211-0.365-0.131-0.561c0.904-2.237,1.907-4.448,3.001-6.611
				c-0.67,0.217-1.275,0.644-1.686,1.215c-0.149,0.207-0.431,0.269-0.654,0.142c-0.222-0.127-0.313-0.401-0.21-0.635
				c0.073-0.167,0.146-0.334,0.216-0.502c-0.187,0.091-0.375,0.179-0.566,0.264c-0.182,0.081-0.398,0.046-0.545-0.093
				c-0.146-0.138-0.196-0.35-0.127-0.539c0.399-1.073,0.837-2.131,1.311-3.173c-0.13,0.12-0.256,0.246-0.376,0.377
				c-0.177,0.191-0.47,0.216-0.675,0.058c-0.206-0.159-0.255-0.45-0.113-0.668c0.603-0.924,1.275-1.956,1.468-3.063
				c-0.264,0.055-0.532,0.093-0.801,0.115c-0.179,0.011-0.342-0.063-0.444-0.205c-0.103-0.141-0.124-0.325-0.058-0.485l0.708-1.711
				c-0.031-0.036-0.064-0.07-0.098-0.103c-0.235-0.232-0.617-0.505-1.137-0.483c-0.198,0.009-0.362-0.088-0.455-0.251
				c-0.093-0.162-0.088-0.362,0.013-0.519l2.338-3.633l-1.593,1.143c-0.187,0.134-0.442,0.124-0.618-0.028
				c-0.175-0.151-0.224-0.402-0.118-0.607c0.816-1.585,2.414-2.762,4.169-3.071c0.006-0.001,0.013-0.002,0.019-0.003l0.98-0.704
				c0.182-0.13,0.427-0.125,0.602,0.015c0.175,0.139,0.237,0.376,0.151,0.583l-3.12,7.532c0.193,0.327,0.337,0.689,0.423,1.062
				c0.94-0.417,1.769-1.082,2.367-1.926c0.157-0.224,0.464-0.278,0.69-0.124c0.226,0.154,0.286,0.46,0.136,0.688
				c-0.778,1.182-1.503,2.398-2.173,3.645c0.137,0.006,0.263,0.047,0.359,0.141c0.13,0.126,0.182,0.311,0.136,0.486
				c-0.26,0.991-0.558,1.976-0.892,2.948c1.157-0.828,2.21-1.803,3.119-2.894c0.168-0.199,0.46-0.238,0.672-0.088
				c0.213,0.15,0.275,0.439,0.143,0.663c-0.753,1.273-1.474,2.571-2.161,3.887c-0.115,1.294-0.408,2.564-0.864,3.773
				c0.331-0.206,0.68-0.385,1.042-0.535c0.168-0.07,0.36-0.042,0.503,0.071c0.142,0.114,0.211,0.295,0.181,0.475
				c-0.131,0.773-0.305,1.539-0.518,2.292c0.118-0.077,0.263-0.1,0.398-0.064c0.144-0.218,0.289-0.436,0.436-0.652
				c0.135-0.198,0.392-0.272,0.612-0.178c0.117-0.17,0.235-0.338,0.354-0.506c0.149-0.212,0.436-0.274,0.661-0.142
				c0.212,0.125,0.3,0.382,0.215,0.608l0.426-0.739c0.137-0.238,0.441-0.32,0.68-0.185c0.239,0.136,0.324,0.439,0.19,0.678
				c-0.497,0.892-1.009,1.779-1.535,2.659l-0.866,1.5l1.962-2.655c0.157-0.211,0.45-0.266,0.673-0.123
				c0.222,0.143,0.294,0.433,0.166,0.664l-1.168,2.1c0.015,0.005,0.029,0.012,0.043,0.019c0.232,0.117,0.336,0.393,0.239,0.634
				c-0.685,1.693-1.421,3.372-2.204,5.029c0.205,0.141,0.276,0.415,0.16,0.64c-0.864,1.675-1.691,3.381-2.476,5.106l1.946-3.115
				c0.136-0.218,0.415-0.297,0.647-0.182c0.23,0.115,0.336,0.387,0.243,0.628c-0.425,1.1-0.88,2.192-1.363,3.271
				c0.085,0.003,0.17,0.027,0.246,0.074c0.203,0.124,0.29,0.375,0.208,0.599c-0.158,0.432-0.321,0.862-0.489,1.292
				c0.155-0.132,0.384-0.16,0.572-0.052c0.235,0.135,0.32,0.432,0.191,0.67c-0.627,1.166-1.216,2.357-1.762,3.567
				c1.086-1.633,2.25-3.214,3.484-4.732c0.152-0.186,0.415-0.238,0.627-0.123c0.212,0.115,0.311,0.365,0.236,0.594
				c-0.639,1.964-1.357,3.911-2.149,5.828l4.944-7.501c1.548-2.792,3.114-5.573,4.688-8.331c0.129-0.226,0.41-0.317,0.647-0.204
				c0.236,0.111,0.347,0.385,0.255,0.629c-1.402,3.704-3.078,7.295-5.009,10.744l2.313-2.891c0.162-0.201,0.448-0.248,0.665-0.106
				c0.215,0.141,0.289,0.423,0.168,0.651l-3.337,6.342l4.179-6.321c0.136-0.204,0.4-0.279,0.623-0.18
				c0.224,0.102,0.34,0.351,0.276,0.587c-0.728,2.662-1.844,5.167-3.121,7.58c1.079-1.228,2.199-2.418,3.355-3.565
				c0.17-0.169,0.436-0.192,0.634-0.058c0.198,0.135,0.272,0.392,0.177,0.612l-2.949,6.809c0.747-0.838,1.542-1.635,2.38-2.384
				c0.169-0.151,0.418-0.17,0.607-0.046c0.189,0.124,0.272,0.36,0.201,0.575c-0.382,1.161-0.794,2.315-1.235,3.46
				c0.503-0.697,1.022-1.381,1.557-2.051c0.152-0.191,0.42-0.244,0.635-0.124c0.213,0.12,0.309,0.376,0.225,0.607
				c-0.11,0.303-0.221,0.605-0.334,0.908c0.136-0.062,0.297-0.059,0.438,0.015c0.213,0.113,0.315,0.362,0.242,0.593
				c-0.528,1.665-1.106,3.32-1.731,4.957c0.258-0.308,0.523-0.609,0.794-0.904c0.157-0.169,0.409-0.211,0.609-0.101
				c0.202,0.111,0.302,0.346,0.242,0.568c-0.072,0.269-0.146,0.538-0.223,0.805c0.029,0.007,0.058,0.017,0.086,0.029
				c0.22,0.096,0.34,0.335,0.287,0.569c-0.21,0.923-0.46,1.836-0.75,2.735c0.085-0.005,0.17,0.01,0.249,0.048
				c0.211,0.102,0.323,0.336,0.27,0.564c-0.159,0.68-0.341,1.356-0.545,2.025c0.132,0.121,0.193,0.308,0.147,0.491l-0.261,1.035
				c0.348-0.139,0.714-0.191,1.066-0.157l0.243-0.779c0.083-0.264,0.36-0.41,0.627-0.329c0.264,0.082,0.411,0.363,0.329,0.626
				l-0.379,1.216c-0.041,0.131-0.134,0.239-0.257,0.3c-0.123,0.061-0.265,0.067-0.394,0.021c-0.323-0.122-0.726-0.071-1.072,0.132
				c-0.283,0.165-0.496,0.412-0.594,0.682l-0.058,0.228c-0.066,0.26-0.327,0.42-0.586,0.368c-0.078-0.016-0.148-0.05-0.207-0.096
				l-0.168,0.353C101.78,300.818,101.601,300.923,101.414,300.923z M88.545,248.779c-0.407,0.326-0.829,0.634-1.263,0.924
				c0.283-0.09,0.575-0.151,0.869-0.181C88.282,249.273,88.413,249.026,88.545,248.779z M86.787,246.544
				c-0.503,1.026-0.968,2.07-1.395,3.129c0.141-0.076,0.28-0.153,0.418-0.233C86.172,248.487,86.498,247.52,86.787,246.544z
				 M86.654,243.736c-0.04,0.571-0.188,1.116-0.396,1.63c0.33-0.645,0.674-1.282,1.032-1.912
				C87.082,243.559,86.871,243.653,86.654,243.736z M84.595,240.295c0.294,0.101,0.575,0.258,0.831,0.47l2.044-4.936L84.595,240.295
				z"/>
		</g>
		<g>
			<path d="M114.769,246.498c-0.084,0-0.169-0.021-0.246-0.066c-0.223-0.126-0.313-0.401-0.211-0.635l0.951-2.17l-0.378,0.606
				c-0.141,0.225-0.431,0.301-0.665,0.173c-0.233-0.128-0.324-0.415-0.21-0.654c0.881-1.833,1.78-3.706,2.519-5.632
				c-0.444,0.607-0.911,1.197-1.399,1.768c-0.161,0.188-0.435,0.229-0.645,0.099c-0.21-0.131-0.293-0.396-0.194-0.622l0.897-2.077
				c-0.228,0.222-0.467,0.433-0.72,0.628c-0.188,0.146-0.453,0.14-0.635-0.018c-0.18-0.157-0.224-0.419-0.105-0.626
				c0.392-0.684,0.777-1.376,1.152-2.074c-0.273,0.243-0.553,0.479-0.838,0.708c-0.192,0.154-0.47,0.145-0.652-0.023
				c-0.017-0.015-0.032-0.032-0.046-0.048c-0.043,0.033-0.086,0.066-0.128,0.099c-0.189,0.145-0.456,0.134-0.636-0.026
				c-0.179-0.16-0.219-0.424-0.096-0.629c0.343-0.573,0.702-1.14,1.076-1.698c-0.092,0.058-0.184,0.114-0.277,0.17
				c-0.201,0.121-0.459,0.087-0.621-0.084c-0.162-0.17-0.184-0.43-0.052-0.624l0.77-1.141c-0.192,0.104-0.389,0.204-0.589,0.296
				c-0.192,0.091-0.422,0.048-0.57-0.107c-0.148-0.153-0.183-0.383-0.086-0.573c0.448-0.883,1.091-1.681,1.86-2.307
				c0.215-0.175,0.53-0.141,0.703,0.072c0.085,0.105,0.121,0.234,0.11,0.358c0.108-0.102,0.214-0.206,0.317-0.313
				c0.181-0.187,0.475-0.204,0.674-0.042c0.202,0.164,0.245,0.454,0.1,0.669l-0.889,1.316c0.279-0.239,0.551-0.487,0.813-0.744
				c0.189-0.186,0.49-0.191,0.687-0.012c0.196,0.179,0.218,0.479,0.05,0.685c-0.084,0.104-0.168,0.208-0.252,0.313
				c0.036,0.013,0.071,0.03,0.104,0.052c0.136,0.088,0.215,0.231,0.226,0.381c0.157-0.088,0.353-0.088,0.514,0.015
				c0.214,0.137,0.291,0.412,0.181,0.641c-0.104,0.212-0.208,0.424-0.313,0.635c0.148-0.103,0.348-0.12,0.518-0.03
				c0.23,0.122,0.328,0.401,0.225,0.64l-0.786,1.819c0.252-0.409,0.495-0.823,0.727-1.243c0.122-0.22,0.387-0.315,0.618-0.225
				c0.233,0.09,0.364,0.339,0.306,0.583c-0.247,1.034-0.562,2.047-0.921,3.042l0.35-0.561c0.138-0.223,0.425-0.3,0.658-0.178
				c0.231,0.122,0.33,0.403,0.225,0.643l-1.811,4.134c0.148-0.142,0.371-0.182,0.562-0.09c0.219,0.104,0.331,0.35,0.267,0.584
				c-0.055,0.2-0.116,0.398-0.182,0.594c0.158-0.057,0.337-0.03,0.477,0.08c0.202,0.161,0.249,0.449,0.107,0.665l-0.925,1.416
				c-0.131,0.202-0.384,0.277-0.601,0.192l-0.703,0.735c-0.183,0.192-0.484,0.208-0.685,0.036c-0.024-0.021-0.046-0.043-0.065-0.067
				l-0.202,0.282C115.079,246.424,114.926,246.498,114.769,246.498z"/>
		</g>
		<g>
			<path d="M102.707,226.739c-0.275,0-0.499-0.223-0.5-0.498c-0.005-1.537,0.152-3.068,0.468-4.569
				c-0.945,0.64-1.925,1.23-2.927,1.763c-0.206,0.111-0.461,0.063-0.615-0.116c-0.099-0.115-0.137-0.265-0.113-0.408
				c-0.1-0.024-0.192-0.079-0.262-0.162c-0.146-0.172-0.159-0.421-0.03-0.607l0.074-0.107c-0.384,0.309-0.773,0.611-1.165,0.906
				c-0.151,0.113-0.347,0.131-0.512,0.053c-0.686,0.646-1.391,1.269-2.113,1.868c-0.204,0.169-0.506,0.149-0.687-0.046
				c-0.049-0.054-0.085-0.115-0.106-0.18l-0.691,0.556c-0.198,0.16-0.487,0.145-0.668-0.037c-0.181-0.182-0.195-0.47-0.033-0.668
				l1.533-1.88l-1.124,0.942c-0.198,0.166-0.49,0.153-0.673-0.028c-0.184-0.182-0.198-0.474-0.034-0.673l0.78-0.945l-0.594,0.418
				c-0.217,0.153-0.514,0.109-0.679-0.097c-0.164-0.207-0.14-0.507,0.057-0.684c0.884-0.795,1.848-1.506,2.865-2.114
				c0.072-0.043,0.15-0.065,0.227-0.07l0.593-0.417c0.205-0.145,0.485-0.115,0.655,0.069c0.117,0.126,0.157,0.297,0.12,0.454
				l1.203-1.009c0.197-0.166,0.487-0.155,0.672,0.027c0.184,0.181,0.199,0.472,0.037,0.672l-1.857,2.278l1.744-1.403
				c0.115-0.092,0.261-0.126,0.395-0.104c0.182-0.209,0.366-0.414,0.553-0.616c0.186-0.201,0.499-0.214,0.702-0.032
				c0.087,0.079,0.141,0.182,0.158,0.291c0.338-0.305,0.671-0.615,0.998-0.929c0.185-0.178,0.474-0.187,0.67-0.02
				c0.196,0.166,0.233,0.453,0.088,0.664l-0.032,0.046c0.089,0,0.189,0.024,0.275,0.079c0.221,0.141,0.295,0.429,0.17,0.659
				c-0.228,0.421-0.502,0.816-0.815,1.176c0.568-0.366,1.124-0.75,1.665-1.15c0.172-0.128,0.405-0.131,0.581-0.01
				c0.176,0.121,0.255,0.34,0.199,0.545c-0.505,1.828-0.758,3.717-0.752,5.612c0.001,0.276-0.222,0.501-0.498,0.502
				C102.708,226.739,102.708,226.739,102.707,226.739z"/>
		</g>
		<g>
			<path d="M112.837,230.709c-0.276,0-0.5-0.224-0.5-0.5l-0.001-3.577c-0.404,0.159-0.824,0.278-1.253,0.354
				c-0.197,0.034-0.391-0.049-0.501-0.211c-0.111-0.163-0.115-0.376-0.012-0.544c0.22-0.357,0.435-0.721,0.641-1.088
				c-0.354,0.24-0.715,0.468-1.084,0.682c-0.204,0.117-0.463,0.078-0.622-0.097c-0.158-0.175-0.173-0.437-0.035-0.628l0.815-1.133
				c-0.09-0.008-0.179-0.04-0.254-0.095c-0.156-0.114-0.232-0.309-0.195-0.499c0.123-0.636,0.536-1.202,1.103-1.515
				c0.243-0.134,0.546-0.046,0.68,0.196c0.021,0.039,0.037,0.08,0.047,0.122c0.195-0.081,0.425-0.032,0.568,0.131
				c0.154,0.175,0.167,0.434,0.031,0.623l-0.259,0.36c0.124-0.104,0.247-0.21,0.367-0.317c0.178-0.158,0.441-0.169,0.632-0.026
				c0.19,0.143,0.254,0.399,0.152,0.614c-0.336,0.71-0.701,1.413-1.089,2.102c0.181-0.075,0.358-0.16,0.531-0.254
				c0.153-0.085,0.342-0.082,0.494,0.01c0.152,0.09,0.245,0.253,0.245,0.43l0.001,4.361
				C113.337,230.485,113.113,230.709,112.837,230.709z"/>
		</g>
		<g>
			<path d="M103.013,244.083c-0.082,0-0.165-0.02-0.243-0.063c-0.241-0.134-0.328-0.439-0.194-0.68
				c1.758-3.162,3.591-6.321,5.473-9.433c-1.366,1.483-2.67,3.022-3.902,4.604c-0.168,0.215-0.476,0.257-0.694,0.093
				c-0.218-0.163-0.265-0.471-0.106-0.692l1.8-2.495l-1.798,1.989c-0.18,0.199-0.487,0.221-0.692,0.047
				c-0.206-0.173-0.238-0.478-0.073-0.69l1.271-1.632l-1.795,1.953c-0.178,0.193-0.475,0.216-0.679,0.053
				c-0.206-0.163-0.249-0.457-0.102-0.673l2.959-4.322l-2.409,2.87c-0.139,0.166-0.368,0.224-0.569,0.143
				c-0.201-0.08-0.327-0.28-0.313-0.496c0.081-1.251,0.844-2.292,1.457-3.129l0.869-1.187l-1,1.087
				c-0.179,0.194-0.479,0.215-0.683,0.049c-0.205-0.167-0.245-0.464-0.091-0.679c0.375-0.525,0.813-1.156,1.284-1.846
				c-0.182,0.185-0.356,0.356-0.523,0.51c-0.177,0.164-0.447,0.178-0.64,0.033c-0.193-0.145-0.255-0.407-0.147-0.623
				c0.716-1.437,1.501-2.846,2.349-4.215l-2.337,2.185c-0.189,0.177-0.483,0.179-0.675,0.007c-0.193-0.173-0.222-0.464-0.067-0.672
				c0.827-1.106,1.624-2.244,2.387-3.404l-3.066,2.585c-0.202,0.171-0.503,0.155-0.686-0.039c-0.182-0.193-0.182-0.494,0-0.687
				l4.526-4.797c0.191-0.2,0.506-0.209,0.707-0.021c0.08,0.076,0.13,0.173,0.149,0.275l0.156-0.131
				c0.187-0.157,0.459-0.157,0.646,0.001c0.186,0.157,0.231,0.426,0.107,0.636c-0.457,0.772-0.932,1.538-1.422,2.295l2.164-2.023
				c0.188-0.178,0.481-0.18,0.674-0.007c0.193,0.172,0.223,0.463,0.068,0.671c-0.962,1.293-1.867,2.636-2.706,4.018
				c0.692-0.837,1.389-1.708,2.024-2.5c0.749-0.935,1.435-1.791,1.974-2.423c0.172-0.203,0.476-0.236,0.688-0.07
				c0.212,0.165,0.255,0.467,0.099,0.685c-0.822,1.15-1.942,2.81-3.062,4.477l2.42-2.628c0.179-0.195,0.48-0.215,0.685-0.047
				c0.205,0.168,0.243,0.468,0.086,0.682l-4.357,5.948l5.027-5.99c0.171-0.204,0.472-0.238,0.685-0.077
				c0.212,0.161,0.261,0.461,0.11,0.681l-4.781,6.984l5.339-5.809c0.182-0.197,0.486-0.217,0.691-0.043
				c0.205,0.173,0.236,0.478,0.071,0.689l-1.362,1.75c0.131-0.02,0.274,0.015,0.387,0.106c0.207,0.167,0.247,0.466,0.091,0.681
				l-1.423,1.973c0.207-0.203,0.415-0.405,0.623-0.606c0.183-0.176,0.467-0.187,0.662-0.028c0.196,0.159,0.243,0.439,0.109,0.653
				c-2.693,4.309-5.312,8.746-7.783,13.19C103.359,243.99,103.188,244.083,103.013,244.083z"/>
		</g>
		<g>
			<path d="M114.47,235.294c-0.056,0-0.112-0.009-0.168-0.029c-0.26-0.093-0.396-0.379-0.303-0.639l1.662-4.664l-0.714,0.345
				c-0.16,0.077-0.348,0.064-0.495-0.034c-0.147-0.099-0.232-0.268-0.222-0.444l0.024-0.434l-1.32,1.053
				c-0.185,0.149-0.449,0.146-0.631-0.006c-0.183-0.151-0.233-0.41-0.122-0.62c0.047-0.089,0.096-0.179,0.144-0.268
				c-0.043,0.029-0.085,0.057-0.128,0.085c-0.193,0.125-0.444,0.105-0.613-0.051c-0.169-0.155-0.21-0.405-0.101-0.606l0.788-1.45
				l-2.493,2.331c-0.185,0.171-0.468,0.18-0.661,0.02c-0.194-0.161-0.238-0.44-0.103-0.653c1.262-1.987,2.72-3.865,4.333-5.581
				c0.189-0.202,0.506-0.211,0.707-0.022c0.201,0.189,0.211,0.505,0.022,0.707c-0.288,0.307-0.572,0.619-0.85,0.936l0.615-0.575
				c0.179-0.167,0.453-0.18,0.647-0.03c0.194,0.15,0.25,0.419,0.133,0.634l-1.019,1.875c0.216-0.227,0.423-0.462,0.62-0.705
				c0.24-0.347,0.485-0.689,0.737-1.025c0.162-0.215,0.463-0.265,0.685-0.111c0.221,0.153,0.281,0.454,0.137,0.68
				c-0.232,0.364-0.485,0.715-0.756,1.054c-0.209,0.303-0.414,0.61-0.613,0.92l0.091-0.072c0.154-0.123,0.366-0.144,0.541-0.054
				c0.175,0.091,0.281,0.276,0.27,0.473l-0.039,0.703l1.047-0.506c0.183-0.089,0.401-0.057,0.552,0.078
				c0.151,0.135,0.205,0.349,0.137,0.54l-2.071,5.812C114.868,235.167,114.676,235.294,114.47,235.294z"/>
		</g>
		<g>
			<path d="M107.619,238.758c-0.082,0-0.165-0.02-0.242-0.063c-0.242-0.134-0.329-0.438-0.195-0.68
				c0.53-0.956,0.941-1.977,1.221-3.034c0.105-0.393,0.038-0.695-0.014-0.737c-0.152-0.033-0.284-0.135-0.351-0.276
				c-0.066-0.141-0.067-0.305,0.003-0.443c0.107-0.208,0.219-0.413,0.334-0.615l-3.815,3.639c-0.192,0.183-0.494,0.184-0.687,0.003
				c-0.194-0.181-0.212-0.482-0.041-0.686l3.105-3.711l-3.12,3.026c-0.194,0.188-0.502,0.188-0.696,0
				c-0.194-0.188-0.203-0.497-0.021-0.696c1.646-1.803,3.256-3.659,4.817-5.55c-2.651,2.455-5.111,5.128-7.516,7.741
				c-0.182,0.198-0.488,0.215-0.692,0.042c-0.205-0.175-0.234-0.48-0.067-0.691c3.389-4.277,6.961-8.497,10.621-12.541
				c0.173-0.19,0.461-0.219,0.666-0.067c0.383,0.281,0.656,0.71,0.75,1.175c0.013,0.065,0.013,0.131,0.001,0.192
				c0.061,0.024,0.117,0.061,0.166,0.11c0.177,0.177,0.195,0.458,0.043,0.658c-0.428,0.557-0.861,1.113-1.299,1.666l2.556-2.479
				c0.191-0.185,0.494-0.188,0.688-0.007c0.195,0.181,0.214,0.483,0.043,0.687l-3.561,4.256l2.289-2.184
				c0.195-0.186,0.501-0.184,0.694,0.003c0.193,0.188,0.203,0.494,0.022,0.693c-1.514,1.678-3.077,3.41-4.178,5.396
				c0.04,0.046,0.077,0.096,0.11,0.15c0.334,0.545,0.174,1.287,0.117,1.501c-0.302,1.136-0.744,2.233-1.313,3.261
				C107.965,238.665,107.794,238.758,107.619,238.758z M110.626,224.577c-0.838,0.93-1.67,1.869-2.498,2.816
				c0.893-0.796,1.809-1.567,2.754-2.303c-0.092-0.071-0.16-0.174-0.185-0.297C110.683,224.718,110.659,224.645,110.626,224.577z"/>
		</g>
		<g>
			<path d="M105.46,250.542c-0.06,0-0.121-0.011-0.18-0.034c-0.258-0.099-0.386-0.389-0.287-0.646l4.296-11.147
				c-0.071,0.081-0.143,0.161-0.215,0.241c-0.174,0.191-0.465,0.218-0.67,0.063c-0.103-0.077-0.168-0.187-0.19-0.304
				c-0.162,0.156-0.326,0.311-0.493,0.464c-0.181,0.166-0.456,0.175-0.647,0.025c-0.193-0.152-0.247-0.421-0.128-0.635l2.938-5.304
				c-0.894,0.927-1.747,1.895-2.571,2.888l-5.447,7.241c-0.164,0.219-0.473,0.264-0.695,0.103c-0.221-0.162-0.27-0.472-0.111-0.694
				c1.746-2.439,3.524-4.925,5.474-7.277l3.75-4.985c0.875-1.164,1.958-2.345,3.434-2.257c0.275,0.016,0.486,0.252,0.47,0.528
				c-0.016,0.275-0.24,0.481-0.528,0.47c-0.63-0.031-1.199,0.323-1.722,0.848c0.104,0.004,0.207,0.041,0.294,0.11
				c0.189,0.152,0.241,0.419,0.123,0.631l-2.603,4.699c0.484-0.594,0.943-1.209,1.377-1.842l1.396-2.269
				c0.142-0.232,0.442-0.308,0.678-0.17c0.234,0.137,0.317,0.436,0.186,0.673c-0.438,0.794-0.912,1.565-1.42,2.311l-0.312,0.507
				c0.086,0.131,0.11,0.299,0.049,0.456l-5.776,14.986C105.851,250.42,105.661,250.542,105.46,250.542z"/>
		</g>
		<g>
			<path d="M170.036,337.018c-0.16,0-0.322-0.038-0.472-0.119c-0.457-0.245-0.65-0.798-0.447-1.274l0.45-1.053
				c-0.135,0.005-0.29-0.023-0.43-0.085c-0.423-0.186-0.664-0.639-0.58-1.094c0.175-0.96,0.458-1.877,0.809-2.765
				c-0.343,0.276-0.833,0.296-1.2,0.036c-0.392-0.275-0.533-0.79-0.337-1.227c0.409-0.912,0.842-1.814,1.297-2.705
				c-0.221-0.018-0.436-0.11-0.606-0.271c-0.34-0.323-0.41-0.839-0.168-1.241c0.515-0.855,1.049-1.706,1.598-2.546
				c-0.135-0.023-0.267-0.074-0.385-0.151c-0.284-0.187-0.453-0.505-0.45-0.845c0.014-1.337,0.567-2.645,1.519-3.585
				c0.393-0.389,1.026-0.385,1.414,0.008c0.263,0.266,0.347,0.643,0.251,0.979c0.188-0.173,0.37-0.353,0.542-0.54
				c0.361-0.389,0.964-0.43,1.373-0.091c0.342,0.284,0.449,0.749,0.29,1.143c0.024,0.013,0.048,0.026,0.071,0.04
				c0.247,0.154,0.403,0.4,0.453,0.666c0.141-0.009,0.287,0.018,0.426,0.075c0.465,0.192,0.712,0.699,0.584,1.179
				c0.05,0.012,0.1,0.028,0.149,0.049c0.506,0.21,0.749,0.788,0.545,1.296c-0.207,0.516-0.423,1.027-0.647,1.535
				c0.047,0.013,0.094,0.029,0.141,0.049c0.503,0.218,0.737,0.8,0.525,1.306l-1.052,2.499l0.446-0.704
				c0.28-0.443,0.854-0.592,1.316-0.348c0.462,0.247,0.655,0.808,0.443,1.287l-1.569,3.545c-0.183,0.413-0.605,0.639-1.036,0.588
				l-2.007,3.17c-0.149,0.236-0.392,0.399-0.667,0.449c-0.275,0.05-0.56-0.018-0.782-0.188c-0.127-0.096-0.27-0.231-0.393-0.414
				c-0.19,0.299-0.383,0.597-0.577,0.894C170.681,336.857,170.362,337.018,170.036,337.018z"/>
		</g>
		<g>
			<path d="M174.641,387.15c-0.108,0-0.218-0.018-0.327-0.055c-0.522-0.181-0.799-0.75-0.619-1.272
				c0.121-0.35-0.12-0.85-0.469-0.972c-0.41-0.144-0.68-0.537-0.667-0.971l0.019-0.683c-0.158,0.051-0.331,0.063-0.504,0.026
				c-0.491-0.101-0.831-0.55-0.796-1.05l0.143-2.019c-0.187,0.08-0.399,0.104-0.612,0.056c-0.516-0.116-0.853-0.613-0.769-1.136
				c0.267-1.646,0.502-3.305,0.705-4.969l-0.159,0.364c-0.2,0.461-0.714,0.703-1.195,0.561c-0.483-0.14-0.787-0.617-0.71-1.114
				l0.53-3.417c-0.328-0.19-0.532-0.559-0.495-0.958c0.051-0.548,0.121-1.094,0.209-1.636c-0.169,0.063-0.356,0.081-0.546,0.042
				c-0.499-0.102-0.842-0.562-0.796-1.069c0.222-2.47,0.594-4.927,1.114-7.351c-0.003-0.001-0.007-0.003-0.011-0.004
				c-0.449-0.186-0.7-0.667-0.594-1.141l0.87-3.923c-0.271,0.268-0.681,0.365-1.051,0.229c-0.438-0.162-0.706-0.605-0.646-1.068
				c0.116-0.882,0.291-1.759,0.522-2.622c-0.38-0.191-0.599-0.602-0.542-1.026c0.213-1.595,0.816-3.133,1.742-4.449
				c0.31-0.44,0.912-0.555,1.359-0.265c0.305-0.288,0.772-0.361,1.16-0.15c0.465,0.251,0.654,0.822,0.431,1.301
				c-0.303,0.651-0.646,1.279-1.028,1.882c-0.014,0.029-0.028,0.059-0.042,0.088c0.206-0.054,0.43-0.042,0.64,0.046
				c0.446,0.187,0.694,0.666,0.589,1.139l-0.639,2.884c0.075,0.005,0.15,0.019,0.225,0.042c0.521,0.161,0.816,0.708,0.666,1.232
				c-0.113,0.393-0.237,0.781-0.373,1.166c-0.366,1.185-0.695,2.382-0.986,3.589c0.065-0.004,0.136,0.004,0.206,0.018
				c0.496,0.095,0.843,0.544,0.81,1.048c-0.054,0.817-0.12,1.636-0.198,2.455c0.408,0.181,0.653,0.616,0.583,1.068l-0.626,4.039
				c0.232-0.168,0.531-0.232,0.825-0.161c0.473,0.116,0.794,0.557,0.759,1.043c-0.084,1.176-0.185,2.354-0.302,3.534
				c0.031,0.002,0.062,0.006,0.094,0.012c0.503,0.089,0.859,0.545,0.823,1.055l-0.318,4.507c0.086-0.007,0.173-0.002,0.26,0.014
				c0.485,0.089,0.833,0.518,0.819,1.011l-0.145,5.211c0.941,0.702,1.403,2.01,1.011,3.146
				C175.443,386.89,175.055,387.15,174.641,387.15z"/>
		</g>
		<g>
			<path d="M171.776,349.917c-0.36,0-0.707-0.194-0.886-0.535c-0.687-1.307-0.657-2.694-0.628-4.036
				c0.014-0.679,0.028-1.321-0.052-1.923c-0.041-0.309-0.091-0.388-0.105-0.405c-0.064-0.076-0.378-0.163-0.585-0.221
				c-0.48-0.134-1.137-0.317-1.598-0.889c-0.167-0.208-0.245-0.473-0.216-0.738c0.092-0.832,0.761-1.52,1.59-1.635
				c0.543-0.076,1.052,0.306,1.128,0.854c0.027,0.2-0.006,0.393-0.085,0.563c0.435,0.132,0.917,0.33,1.296,0.778
				c0.387,0.46,0.501,1.006,0.558,1.43c0.1,0.755,0.084,1.505,0.069,2.229c-0.024,1.138-0.048,2.212,0.399,3.062
				c0.257,0.489,0.069,1.094-0.42,1.351C172.092,349.88,171.933,349.917,171.776,349.917z"/>
		</g>
	</g>
</g>
</svg>
