<?xml version="1.0" encoding="utf-8"?>
<!-- Generator: Adobe Illustrator 27.5.0, SVG Export Plug-In . SVG Version: 6.00 Build 0)  -->
<svg version="1.1" xmlns="http://www.w3.org/2000/svg" xmlns:xlink="http://www.w3.org/1999/xlink" x="0px" y="0px"
	 viewBox="0 0 800 800" style="enable-background:new 0 0 800 800;" xml:space="preserve">
<g id="OBJECTS">

	<g>
		<g>
			<path d="M248.239,565.683c-0.2,0-0.398-0.061-0.566-0.176c-0.237-0.162-0.393-0.419-0.427-0.704
				c-0.159-1.317-0.241-2.657-0.244-3.982c-0.002-1.348,0.076-2.806,0.248-4.589c0.022-0.225,0.026-0.51,0.033-0.822
				c0.026-1.268,0.058-2.844,0.945-3.677c0.8-0.749,2.397-1.154,3.806-1.512c0.46-0.117,0.881-0.223,1.195-0.326
				c0.47-0.154,1.006-0.335,1.572-0.525c1.412-0.477,3.012-1.016,4.219-1.361c0.532-0.146,1.085,0.156,1.236,0.688
				c0.152,0.53-0.156,1.084-0.687,1.236c-1.163,0.332-2.739,0.863-4.129,1.332c-0.571,0.192-1.112,0.375-1.586,0.531
				c-0.35,0.115-0.816,0.234-1.328,0.364c-0.938,0.238-2.507,0.637-2.931,1.033c-0.273,0.268-0.302,1.713-0.313,2.258
				c-0.007,0.37-0.016,0.707-0.042,0.974c-0.165,1.716-0.241,3.111-0.239,4.393c0.001,0.845,0.038,1.695,0.107,2.541
				c0.628-0.237,1.257-0.528,1.908-0.829c0.77-0.355,1.565-0.723,2.386-1.007c0.399-0.139,0.861-0.276,1.347-0.421
				c1.123-0.334,2.396-0.712,3.102-1.19c0.458-0.31,1.079-0.19,1.389,0.267c0.31,0.457,0.19,1.079-0.268,1.389
				c-0.962,0.651-2.392,1.076-3.653,1.451c-0.455,0.135-0.888,0.264-1.262,0.393c-0.727,0.252-1.444,0.583-2.203,0.933
				c-1.072,0.496-2.182,1.008-3.373,1.308C248.402,565.673,248.32,565.683,248.239,565.683z"/>
		</g>
		<g>
			<path d="M257.35,574.417c-0.028,0-0.056-0.001-0.084-0.004c-0.55-0.046-0.959-0.529-0.913-1.08l1.865-22.233l0.079-2.166
				c0.021-0.552,0.467-0.993,1.036-0.963c0.552,0.019,0.983,0.483,0.963,1.035l-0.082,2.214l-1.868,22.281
				C258.301,574.023,257.864,574.417,257.35,574.417z"/>
		</g>
		<g>
			<path d="M248.293,555.152c-0.028,0-0.056-0.001-0.085-0.004c-0.55-0.046-0.959-0.529-0.913-1.08l1.182-14.085
				c0.046-0.55,0.522-0.966,1.08-0.912c0.55,0.046,0.959,0.529,0.913,1.08l-1.182,14.085
				C249.245,554.758,248.808,555.152,248.293,555.152z"/>
		</g>
	</g>
	<g>
		<g>
			<path d="M119.598,404.043c-0.045,0-0.091-0.003-0.137-0.009c-0.538-0.074-0.918-0.563-0.858-1.102
				c0.114-1.028,0.305-2.045,0.49-3.027c0.398-2.114,0.807-4.288,1.432-6.399c0.207-0.696,0.436-1.385,0.666-2.075
				c0.146-0.439,0.293-0.878,0.433-1.32c1.261-3.974,2.005-8.18,2.725-12.248c0.097-0.543,0.615-0.906,1.159-0.811
				c0.544,0.097,0.907,0.615,0.81,1.159c-0.731,4.132-1.488,8.404-2.788,12.504c-0.143,0.451-0.292,0.899-0.442,1.348
				c-0.223,0.668-0.445,1.335-0.645,2.01c-0.597,2.013-0.996,4.136-1.382,6.189c-0.156,0.831-0.315,1.678-0.424,2.51
				c0.001,0.063-0.003,0.126-0.014,0.189l-0.039,0.24C120.504,403.693,120.081,404.043,119.598,404.043z"/>
		</g>
		<g>
			<path d="M129.433,404.833c-0.065,0-0.131-0.006-0.198-0.02c-0.542-0.108-0.893-0.636-0.784-1.178
				c0.312-1.552,0.591-3.057,0.872-4.572c0.514-2.769,1.045-5.632,1.791-8.855c0.28-1.215,0.886-3.66,1.234-4.879l0.222-0.779
				c0.811-2.85,1.055-3.71,2.363-6.893c0.21-0.51,0.792-0.755,1.305-0.544c0.511,0.21,0.754,0.794,0.544,1.305
				c-1.265,3.077-1.482,3.84-2.289,6.679l-0.223,0.781c-0.339,1.19-0.933,3.586-1.209,4.781c-0.735,3.18-1.263,6.021-1.773,8.77
				c-0.283,1.524-0.564,3.039-0.877,4.602C130.317,404.505,129.9,404.833,129.433,404.833z"/>
		</g>
		<g>
			<path d="M121.818,385.983l-5.433-0.36c-0.551-0.037-0.968-0.513-0.931-1.064c0.037-0.551,0.522-0.983,1.064-0.931l5.367,0.357
				c2.43-0.002,4.976-0.093,7.437-0.181c3.578-0.128,7.278-0.256,10.936-0.119c0.552,0.022,0.982,0.486,0.96,1.038
				c-0.021,0.551-0.46,1.021-1.038,0.96c-3.584-0.137-7.247-0.007-10.788,0.119C126.914,385.892,124.35,385.983,121.818,385.983z"/>
		</g>
		<g>
			<path d="M131.131,397.364c-0.748,0-1.479-0.022-2.167-0.066c-1.246-0.081-2.496-0.187-3.739-0.292
				c-3.7-0.313-7.194-0.61-10.335-0.245c-0.544,0.073-1.045-0.329-1.108-0.878c-0.064-0.549,0.33-1.045,0.878-1.108
				c3.343-0.388,7.1-0.069,10.735,0.238c1.229,0.104,2.467,0.209,3.699,0.289c2.696,0.174,6.213-0.037,8.549-0.514
				c0.542-0.111,1.07,0.238,1.18,0.78c0.11,0.542-0.239,1.069-0.78,1.18C136.113,397.142,133.533,397.364,131.131,397.364z"/>
		</g>
	</g>
</g>
</svg>
