<?xml version="1.0" encoding="utf-8"?>
<!-- Generator: Adobe Illustrator 27.5.0, SVG Export Plug-In . SVG Version: 6.00 Build 0)  -->
<svg version="1.1" xmlns="http://www.w3.org/2000/svg" xmlns:xlink="http://www.w3.org/1999/xlink" x="0px" y="0px"
	 viewBox="0 0 800 800" style="enable-background:new 0 0 800 800;" xml:space="preserve">
<g id="OBJECTS">
	<g>
		<g>
			<path d="M502.174,487.842c-1.343,0-2.584-1.13-2.814-2.601c-0.165-1.061,0.136-2.201,0.896-3.392
				c0.716-1.123,1.686-2.102,2.804-2.829c1.02-0.664,2.017-0.952,2.92-0.851c0.323-0.09,0.673-0.09,1.022,0
				c0.676,0.179,1.261,0.683,1.525,1.316c0.316,0.757,0.271,1.641-0.138,2.702c-0.854,2.216-2.552,4.113-4.66,5.206
				c-0.378,0.196-0.837,0.401-1.375,0.441C502.293,487.84,502.233,487.842,502.174,487.842z M505.496,480.153
				c-0.469,0.037-0.969,0.298-1.346,0.543c-0.881,0.574-1.646,1.345-2.21,2.23c-0.489,0.767-0.693,1.442-0.605,2.007
				c0.076,0.486,0.509,0.941,0.867,0.908c0.18-0.014,0.406-0.12,0.605-0.224c1.679-0.87,3.032-2.382,3.712-4.148
				c0.212-0.55,0.266-0.958,0.159-1.212c-0.014-0.032-0.044-0.065-0.078-0.093c-0.117,0.048-0.244,0.073-0.374,0.073
				C505.983,480.306,505.72,480.272,505.496,480.153z"/>
		</g>
		<g>
			<path d="M507.733,480.387c-0.553,0-1-0.447-1-1v-20.334c0-0.553,0.447-1,1-1s1,0.447,1,1v20.334
				C508.733,479.94,508.286,480.387,507.733,480.387z"/>
		</g>
	</g>
</g>
</svg>
