<?xml version="1.0" encoding="utf-8"?>
<!-- Generator: Adobe Illustrator 27.5.0, SVG Export Plug-In . SVG Version: 6.00 Build 0)  -->
<svg version="1.1" xmlns="http://www.w3.org/2000/svg" xmlns:xlink="http://www.w3.org/1999/xlink" x="0px" y="0px"
	 viewBox="0 0 800 800" style="enable-background:new 0 0 800 800;" xml:space="preserve">
<g id="OBJECTS">
	<g>
		<g>
			<g>
				<g>
					<g>
						<path d="M293.061,206.859c-0.327,0-0.638-0.046-0.93-0.139c-1.125-0.359-1.996-1.46-2.221-2.805
							c-0.178-1.069,0.031-2.099,0.215-3.007v-0.001c0.051-0.252,0.254-1.218,0.564-2.692c1.387-6.597,5.071-24.121,6.644-32.382
							c1.582-5.564,4.226-18.038,7.026-31.243c2.707-12.765,5.505-25.965,7.567-33.977c1.396-5.426,2.62-11.301,3.804-16.983
							c1.134-5.445,2.307-11.076,3.631-16.308c2.468-13.357,6.682-26.27,10.803-38.355c-0.321-1.1-0.204-2.564,0.036-3.645
							c0.27-1.221,0.929-2.358,1.762-3.043c0.566-0.466,1.286-0.625,1.977-0.437c0.708,0.193,1.282,0.726,1.536,1.425
							c0.311,0.859,0.266,2.358,0.042,3.311c-0.229,0.972-0.765,2.296-1.568,3.122c-1.109,10.622-3.47,23-5.556,33.938
							c-0.397,2.081-0.785,4.116-1.154,6.086c-2.503,13.344-7.048,34.202-9.824,45.874c-2.944,12.38-6.441,28.249-9.824,43.596
							c-3.384,15.354-6.883,31.232-9.831,43.628c-0.432,1.813-1.776,3.315-3.426,3.828
							C293.887,206.79,293.461,206.859,293.061,206.859z M292.086,201.306c-0.157,0.775-0.32,1.577-0.203,2.281
							c0.099,0.593,0.451,1.099,0.855,1.228c0.246,0.077,0.592,0.054,1.001-0.073c0.974-0.303,1.808-1.26,2.075-2.382
							c2.944-12.38,6.441-28.249,9.824-43.595c3.384-15.355,6.883-31.232,9.832-43.629c2.771-11.649,7.307-32.465,9.804-45.78
							c0.37-1.972,0.758-4.009,1.156-6.092c2.04-10.695,4.344-22.774,5.468-33.18c-4.045,11.88-8.157,24.551-10.583,37.665
							c-1.328,5.255-2.496,10.865-3.626,16.29c-1.188,5.704-2.417,11.602-3.825,17.073c-2.051,7.97-4.845,21.148-7.547,33.894
							c-2.807,13.24-5.458,25.746-7.039,31.289c-1.556,8.194-5.243,25.731-6.631,32.333
							C292.339,200.094,292.137,201.055,292.086,201.306L292.086,201.306z M333.367,23.766c-0.035,0-0.078,0.013-0.133,0.058
							c-0.385,0.317-0.871,0.991-1.08,1.932c-0.273,1.235-0.213,2.347-0.013,2.808c0.012,0.028,0.023,0.056,0.033,0.085
							c0.059-0.084,0.13-0.16,0.213-0.223c0.44-0.337,0.96-1.349,1.185-2.304c0.172-0.732,0.158-1.805,0.025-2.17
							c-0.039-0.106-0.123-0.162-0.184-0.179C333.398,23.769,333.383,23.766,333.367,23.766z"/>
					</g>
					<g>
						<path d="M332.996,30.212c-0.221,0-0.441-0.073-0.62-0.215c-0.066-0.028-0.204-0.075-0.356-0.096
							c-0.301-0.041-0.442,0-0.511,0.019c-0.533,0.149-1.085-0.157-1.235-0.688c-0.151-0.531,0.157-1.085,0.689-1.235
							c0.263-0.075,0.688-0.164,1.328-0.077c0.18,0.024,1.099,0.172,1.493,0.675c0.341,0.435,0.265,1.063-0.17,1.404
							C333.429,30.143,333.211,30.212,332.996,30.212z"/>
					</g>
				</g>
				<g>
					<g>
						<path d="M314.862,121.704c-0.147,0-0.297-0.033-0.439-0.102c-1.8-0.881-3.41-1.308-5.219-1.383
							c-0.552-0.023-0.98-0.489-0.957-1.041c0.023-0.551,0.46-0.979,1.04-0.957c2.071,0.086,3.982,0.589,6.015,1.584
							c0.496,0.243,0.702,0.842,0.459,1.338C315.587,121.498,315.232,121.704,314.862,121.704z"/>
					</g>
					<g>
						<path d="M315.919,117.478c-0.181,0-0.364-0.049-0.528-0.151c-1.499-0.936-3.224-1.487-4.986-1.594
							c-0.551-0.034-0.971-0.507-0.938-1.059c0.034-0.551,0.522-0.973,1.059-0.938c2.094,0.127,4.143,0.782,5.924,1.893
							c0.469,0.293,0.611,0.909,0.319,1.378C316.579,117.311,316.253,117.478,315.919,117.478z"/>
					</g>
					<g>
						<path d="M312.914,120.598c-0.202-0.012-0.38-0.111-0.463-0.291c-0.081-0.177-0.052-0.385,0.075-0.534
							c0.056-0.065,0.112-0.129,0.169-0.192l-0.302,0.104c-0.225,0.078-0.472-0.014-0.593-0.218
							c-0.121-0.205-0.082-0.465,0.094-0.625l0.302-0.274l-0.342,0.129c-0.237,0.088-0.506-0.013-0.622-0.24
							c-0.049-0.096-0.064-0.201-0.05-0.3l-0.878,0.243c-0.242,0.065-0.494-0.056-0.592-0.284c-0.01-0.022-0.018-0.045-0.024-0.069
							c-0.18,0.013-0.364-0.087-0.458-0.257c-0.12-0.216-0.064-0.487,0.131-0.638l2.091-1.621c0.219-0.17,0.533-0.129,0.702,0.088
							c0.101,0.13,0.128,0.294,0.086,0.441l0.141-0.052c0.241-0.092,0.512,0.019,0.624,0.252c0.054,0.111,0.063,0.233,0.033,0.345
							l0.388-0.107c0.237-0.067,0.486,0.051,0.588,0.274c0.005,0.011,0.01,0.022,0.014,0.034l0.273-0.103
							c0.224-0.086,0.478,0.001,0.603,0.207c0.126,0.205,0.087,0.47-0.09,0.631l-0.448,0.407l0.767-0.264
							c0.249-0.084,0.519,0.034,0.622,0.275c0.103,0.24,0.004,0.52-0.228,0.641c-0.217,0.114-0.433,0.243-0.645,0.386
							c0.103,0.03,0.198,0.093,0.266,0.187c0.162,0.224,0.111,0.536-0.112,0.698C314.377,120.347,313.644,120.598,312.914,120.598z"
							/>
					</g>
				</g>
			</g>
			<g>
				<g>
					<g>
						<path d="M272.2,226.33c-0.005,0-0.011,0-0.016,0c-0.682-0.004-1.379-0.255-2.073-0.746c-1.679-1.189-1.799-2.807-1.696-4.233
							c1.813-25.038,4.881-61.138,7.459-87.789c0.679-7.023,1.808-17.323,2.899-27.283c0.886-8.091,1.724-15.734,2.294-21.363
							c1.361-13.433,3.647-28.296,6.127-39.856c-0.508-1.034-0.607-2.459-0.524-3.454c0.082-0.976,0.502-2.416,1.064-3.135
							c0.458-0.586,1.17-0.926,1.902-0.88c0.714,0.034,1.35,0.408,1.745,1.026c0.579,0.911,0.854,2.196,0.733,3.438
							c-0.107,1.103-0.448,2.53-1.093,3.478c0.191,14.211-0.326,26.779-1.673,40.699c-0.527,7.894-1.38,16.018-2.206,23.875
							c-0.325,3.09-0.648,6.172-0.952,9.235c-0.507,5.11-1.104,11.361-1.74,18.021c-1.658,17.362-3.537,37.042-4.827,47.162
							c-0.438,7.154-1.732,19.997-3.641,36.097l-0.094,0.801c-0.105,0.921-0.225,1.964-0.727,2.927
							C274.537,225.554,273.375,226.33,272.2,226.33z M289.027,46.055c-2.418,11.408-4.639,25.921-5.97,39.062
							c-0.571,5.638-1.409,13.285-2.296,21.38c-1.091,9.954-2.219,20.247-2.897,27.257c-2.577,26.637-5.642,62.717-7.454,87.741
							c-0.095,1.315,0.121,1.935,0.856,2.456c0.352,0.249,0.665,0.377,0.93,0.378c0.001,0,0.003,0,0.004,0
							c0.423,0,0.911-0.371,1.188-0.903c0.331-0.635,0.423-1.446,0.513-2.231l0.096-0.809c1.903-16.064,3.195-28.866,3.636-36.05
							c1.292-10.154,3.169-29.816,4.826-47.165c0.637-6.663,1.233-12.916,1.741-18.028c0.304-3.067,0.628-6.153,0.953-9.247
							c0.823-7.838,1.674-15.943,2.202-23.829C288.681,72.357,289.199,59.987,289.027,46.055z M289.531,39.587
							c-0.063,0-0.155,0.029-0.221,0.114c-0.239,0.306-0.584,1.321-0.647,2.07c-0.082,0.978,0.1,2.101,0.414,2.558
							c0.059,0.086,0.104,0.18,0.133,0.278c0.018-0.024,0.037-0.048,0.057-0.07c0.334-0.376,0.734-1.416,0.856-2.675
							c0.092-0.958-0.162-1.75-0.43-2.171c-0.056-0.087-0.108-0.101-0.153-0.104C289.538,39.587,289.535,39.587,289.531,39.587z"/>
					</g>
					<g>
						<path d="M290.005,46.193c-0.191,0-0.385-0.055-0.556-0.17c-0.064-0.043-0.183-0.122-0.48-0.177
							c-0.152-0.027-0.298-0.024-0.37-0.019c-0.423,0.156-0.915,0.009-1.177-0.384c-0.306-0.459-0.182-1.081,0.277-1.387
							c0.53-0.354,1.447-0.21,1.626-0.178c0.635,0.115,1.011,0.331,1.238,0.483c0.458,0.308,0.581,0.929,0.273,1.388
							C290.644,46.038,290.327,46.193,290.005,46.193z"/>
					</g>
				</g>
				<g>
					<g>
						<path d="M283.025,138.519c-0.162,0-0.327-0.039-0.479-0.122c-1.034-0.565-2.896-0.766-5.537-0.594
							c-0.555,0.044-1.027-0.382-1.063-0.934c-0.036-0.551,0.382-1.027,0.934-1.063c3.069-0.197,5.235,0.075,6.626,0.835
							c0.484,0.265,0.663,0.873,0.397,1.357C283.722,138.331,283.379,138.519,283.025,138.519z"/>
					</g>
					<g>
						<path d="M283.49,133.05c-0.096,0-0.193-0.014-0.289-0.043c-1.822-0.549-3.709-0.756-5.604-0.617
							c-0.555,0.04-1.03-0.373-1.071-0.924c-0.04-0.551,0.374-1.03,0.924-1.071c2.141-0.156,4.27,0.078,6.326,0.697
							c0.529,0.159,0.829,0.717,0.669,1.246C284.317,132.77,283.92,133.05,283.49,133.05z"/>
					</g>
					<g>
						<path d="M281.903,137.251c-0.167,0-0.329-0.085-0.422-0.232c-0.065-0.102-0.088-0.219-0.073-0.332
							c-0.125,0.084-0.25,0.17-0.372,0.259c-0.221,0.159-0.529,0.113-0.692-0.105c-0.082-0.108-0.112-0.239-0.096-0.364
							c-0.102,0.055-0.202,0.108-0.302,0.161c-0.228,0.121-0.51,0.047-0.651-0.168c-0.141-0.216-0.095-0.504,0.106-0.665
							c0.083-0.066,0.167-0.133,0.251-0.201c-0.019-0.019-0.036-0.039-0.052-0.063c-0.025-0.036-0.045-0.074-0.06-0.114
							c-0.312,0.188-0.624,0.379-0.94,0.575c-0.232,0.145-0.538,0.075-0.686-0.157c-0.146-0.231-0.08-0.538,0.149-0.687
							c0.27-0.176,0.525-0.352,0.771-0.53c-0.067-0.04-0.126-0.095-0.171-0.165c-0.052-0.082-0.077-0.173-0.078-0.264
							c-0.21,0.061-0.44-0.021-0.561-0.213c-0.145-0.23-0.08-0.533,0.147-0.684c0.243-0.161,0.444-0.365,0.657-0.58
							c0.239-0.242,0.486-0.492,0.815-0.71c0.198-0.131,0.456-0.104,0.62,0.053c0.18-0.079,0.369-0.151,0.568-0.212
							c0.229-0.066,0.473,0.03,0.586,0.238c0.003,0.006,0.006,0.013,0.01,0.019c0.197-0.043,0.42-0.079,0.675-0.106
							c0.218-0.026,0.423,0.096,0.511,0.295c0.06,0.137,0.055,0.289-0.007,0.418c0.199-0.066,0.419,0,0.549,0.164
							c0.204-0.016,0.394,0.079,0.491,0.259c0.1,0.183,0.074,0.405-0.057,0.559c0.094,0.032,0.179,0.092,0.242,0.177
							c0.094,0.127,0.119,0.287,0.079,0.431c0.181-0.01,0.331,0.081,0.427,0.229c0.129,0.201,0.099,0.465-0.073,0.63l-0.645,0.623
							c0.085,0.056,0.155,0.139,0.193,0.241c0.098,0.259-0.033,0.547-0.291,0.645l-1.44,0.544
							C282.022,137.241,281.962,137.251,281.903,137.251z"/>
					</g>
				</g>
			</g>
		</g>
		<g>
			<g>
				<path d="M273.189,212.098c-0.164,0-0.325-0.081-0.421-0.229c-0.15-0.232-0.083-0.542,0.149-0.691
					c0.965-0.622,1.816-1.396,2.53-2.299c0.172-0.216,0.486-0.253,0.703-0.083c0.217,0.171,0.253,0.486,0.082,0.703
					c-0.782,0.99-1.715,1.837-2.773,2.52C273.376,212.072,273.282,212.098,273.189,212.098z"/>
			</g>
			<g>
				<path d="M273.675,215.506c-0.179,0-0.352-0.096-0.441-0.265c-0.13-0.243-0.038-0.546,0.206-0.676
					c0.753-0.402,1.434-0.966,1.969-1.63c0.173-0.214,0.487-0.249,0.703-0.075c0.215,0.173,0.249,0.488,0.075,0.703
					c-0.619,0.767-1.406,1.419-2.277,1.884C273.835,215.487,273.754,215.506,273.675,215.506z"/>
			</g>
			<g>
				<path d="M274.6,205.035c-0.11,0-0.221-0.036-0.314-0.111c-0.215-0.174-0.249-0.489-0.075-0.703
					c0.588-0.728,1.263-1.388,2.005-1.961c0.219-0.168,0.533-0.128,0.702,0.09c0.168,0.219,0.128,0.533-0.09,0.702
					c-0.681,0.525-1.299,1.13-1.838,1.797C274.891,204.972,274.746,205.035,274.6,205.035z"/>
			</g>
			<g>
				<path d="M274.734,197.572c-0.195,0-0.38-0.115-0.461-0.306c-0.107-0.254,0.012-0.548,0.267-0.655
					c0.916-0.386,1.773-0.898,2.548-1.522c0.215-0.175,0.529-0.14,0.703,0.076c0.173,0.215,0.14,0.53-0.076,0.703
					c-0.847,0.683-1.784,1.243-2.786,1.665C274.865,197.559,274.799,197.572,274.734,197.572z"/>
			</g>
			<g>
				<path d="M276.227,192.262c-0.159,0-0.315-0.075-0.412-0.215c-0.157-0.227-0.1-0.539,0.127-0.696l1.44-0.997
					c0.227-0.158,0.538-0.101,0.696,0.126c0.157,0.227,0.101,0.538-0.126,0.696l-1.44,0.997
					C276.424,192.233,276.325,192.262,276.227,192.262z"/>
			</g>
			<g>
				<path d="M276.044,187.829c-0.085,0-0.172-0.022-0.251-0.068c-0.239-0.139-0.319-0.445-0.18-0.684
					c0.642-1.1,1.569-2.01,2.683-2.631c0.241-0.134,0.546-0.048,0.68,0.193c0.135,0.241,0.048,0.545-0.193,0.68
					c-0.957,0.535-1.755,1.317-2.307,2.262C276.384,187.74,276.216,187.829,276.044,187.829z"/>
			</g>
		</g>
		<g>
			<g>
				<path d="M295.846,194.93c-0.151,0-0.301-0.068-0.399-0.199c-0.166-0.22-0.123-0.534,0.098-0.7
					c1.167-0.881,2.299-1.836,3.364-2.837c0.201-0.188,0.518-0.179,0.707,0.021c0.189,0.201,0.18,0.518-0.021,0.707
					c-1.091,1.026-2.25,2.004-3.447,2.907C296.057,194.898,295.951,194.93,295.846,194.93z"/>
			</g>
			<g>
				<path d="M297.986,189.327c-0.172,0-0.34-0.089-0.433-0.249c-0.139-0.239-0.058-0.545,0.181-0.684
					c0.757-0.44,1.454-0.978,2.072-1.599c0.195-0.195,0.512-0.197,0.707-0.002c0.196,0.195,0.197,0.512,0.002,0.707
					c-0.68,0.683-1.446,1.274-2.278,1.758C298.158,189.305,298.072,189.327,297.986,189.327z"/>
			</g>
			<g>
				<path d="M298.303,183.993c-0.179,0-0.352-0.096-0.441-0.265c-0.13-0.244-0.038-0.546,0.206-0.676l3.202-1.709
					c0.243-0.13,0.546-0.039,0.676,0.205c0.13,0.243,0.038,0.546-0.206,0.676l-3.202,1.709
					C298.463,183.974,298.382,183.993,298.303,183.993z"/>
			</g>
			<g>
				<path d="M300.348,179.153c-0.147,0-0.293-0.064-0.392-0.189c-0.172-0.216-0.136-0.53,0.08-0.702
					c0.532-0.423,1.12-0.769,1.748-1.026c0.253-0.104,0.548,0.017,0.652,0.273c0.105,0.255-0.017,0.547-0.272,0.652
					c-0.541,0.222-1.047,0.52-1.505,0.884C300.567,179.118,300.457,179.153,300.348,179.153z"/>
			</g>
			<g>
				<path d="M299.989,174.725c-0.197,0-0.384-0.117-0.463-0.311c-0.104-0.255,0.018-0.547,0.274-0.652
					c1.475-0.603,2.821-1.452,4-2.523c0.205-0.185,0.521-0.171,0.706,0.034c0.186,0.204,0.171,0.52-0.034,0.706
					c-1.266,1.15-2.711,2.061-4.294,2.708C300.116,174.713,300.052,174.725,299.989,174.725z"/>
			</g>
			<g>
				<path d="M301.717,172.193c-0.157,0-0.312-0.074-0.409-0.212c-0.159-0.226-0.105-0.538,0.121-0.696l1.522-1.071
					c0.226-0.16,0.538-0.104,0.696,0.121c0.159,0.226,0.105,0.538-0.121,0.696l-1.521,1.071
					C301.917,172.164,301.816,172.193,301.717,172.193z"/>
			</g>
			<g>
				<path d="M302.758,162.243c-0.19,0-0.371-0.108-0.455-0.291c-0.116-0.251-0.005-0.548,0.245-0.663l2.84-1.305
					c0.251-0.117,0.548-0.006,0.663,0.245c0.116,0.251,0.005,0.548-0.245,0.663l-2.84,1.305
					C302.899,162.228,302.828,162.243,302.758,162.243z"/>
			</g>
			<g>
				<path d="M304.674,158.53c-0.189,0-0.369-0.107-0.454-0.29c-0.116-0.251-0.007-0.548,0.243-0.664l1.809-0.841
					c0.252-0.116,0.547-0.008,0.664,0.243c0.116,0.251,0.007,0.548-0.243,0.665l-1.81,0.841
					C304.816,158.515,304.744,158.53,304.674,158.53z"/>
			</g>
		</g>
	</g>
</g>
</svg>
