<?xml version="1.0" encoding="utf-8"?>
<!-- Generator: Adobe Illustrator 27.5.0, SVG Export Plug-In . SVG Version: 6.00 Build 0)  -->
<svg version="1.1" xmlns="http://www.w3.org/2000/svg" xmlns:xlink="http://www.w3.org/1999/xlink" x="0px" y="0px"
	 viewBox="400 260 200 180" xml:space="preserve">
<g id="OBJECTS">
	<g>
		<g>
			<path d="M441.383,404.347c-0.28,0-0.56-0.117-0.757-0.347c-0.361-0.418-0.315-1.05,0.103-1.41
				c7.015-6.053,11.118-10.217,15.869-15.039c3.032-3.077,6.47-6.565,11.081-10.947c0.749-0.712,1.54-1.395,2.304-2.055
				c1.887-1.629,3.669-3.167,4.924-5.142c0.296-0.466,0.914-0.604,1.38-0.308c0.466,0.296,0.605,0.914,0.308,1.38
				c-1.412,2.224-3.391,3.932-5.304,5.584c-0.747,0.645-1.52,1.311-2.234,1.991c-4.587,4.359-7.864,7.685-11.033,10.9
				c-4.782,4.853-8.912,9.043-15.987,15.149C441.848,404.267,441.614,404.347,441.383,404.347z"/>
		</g>
		<g>
			<path d="M448.541,411.119c-0.257,0-0.515-0.099-0.71-0.296c-0.389-0.392-0.387-1.024,0.006-1.414
				c2.629-2.61,5.156-4.95,7.602-7.213c4.463-4.132,8.68-8.035,12.504-12.692c1.647-2.007,11.444-13.023,13.064-14.125
				c0.457-0.311,1.078-0.192,1.39,0.264c0.311,0.457,0.192,1.079-0.265,1.389c-1.211,0.824-10.414,11.025-12.645,13.741
				c-3.911,4.763-8.176,8.711-12.69,12.891c-2.433,2.251-4.947,4.579-7.552,7.165C449.051,411.022,448.796,411.119,448.541,411.119z
				"/>
		</g>
		<g>
			<path d="M438.566,420.677c-0.483,0-0.964-0.036-1.438-0.109c-3.576-0.554-6.545-3.368-7.061-6.691
				c-0.623-4.023,2.254-7.729,5.383-9.619c1.53-0.924,3.028-1.452,4.454-1.569c1.543-0.123,3.659-0.022,5.024,1.193
				c0.044,0.038,0.083,0.079,0.118,0.123c0.452,0.288,0.769,0.68,0.959,0.916c1.315,1.629,2.157,3.193,2.574,4.783
				c0.522,1.991,0.318,4.048-0.559,5.642c-0.392,0.714-0.947,1.402-1.698,2.105C444.108,419.524,441.295,420.677,438.566,420.677z
				 M440.895,404.646c-0.264,0-0.54,0.012-0.827,0.036c-1.115,0.091-2.321,0.524-3.584,1.287c-2.558,1.545-4.922,4.494-4.44,7.6
				c0.379,2.445,2.696,4.604,5.391,5.021c2.547,0.399,5.359-0.576,7.521-2.6c0.595-0.558,1.024-1.084,1.313-1.609
				c0.632-1.15,0.769-2.671,0.375-4.171c-0.343-1.311-1.061-2.631-2.195-4.035c-0.128-0.159-0.367-0.455-0.557-0.526
				c-0.231-0.086-0.413-0.25-0.524-0.45C442.81,404.836,441.958,404.646,440.895,404.646z"/>
		</g>
		<g>
			<path d="M479.566,377.887c-0.324,0-0.643-0.157-0.835-0.448c-0.305-0.461-0.179-1.081,0.282-1.386
				c0.249-0.165,0.293-0.231,0.41-0.406c0.11-0.166,0.256-0.383,0.529-0.656c-0.009-0.031-0.021-0.067-0.036-0.108
				c-0.724-1.864-2.363-3.372-4.281-3.936c-0.529-0.156-0.833-0.711-0.677-1.241c0.155-0.529,0.705-0.835,1.241-0.678
				c2.5,0.735,4.639,2.701,5.581,5.131c0.485,1.248-0.061,1.923-0.317,2.155c-0.203,0.184-0.276,0.293-0.378,0.445
				c-0.21,0.314-0.428,0.603-0.969,0.961C479.947,377.833,479.756,377.887,479.566,377.887z"/>
		</g>
		<g>
			<path d="M488.703,378.125c-3.419,0-6.459-0.678-8.201-1.165c-0.531-0.149-0.842-0.7-0.693-1.232
				c0.148-0.532,0.709-0.84,1.232-0.693c6.818,1.907,13.307,1.265,17.354-1.717c3.126-2.303,6.606-6,9.675-9.261
				c1.094-1.163,2.144-2.277,3.12-3.271c0.437-0.444,0.763-0.851,1.108-1.281c0.376-0.467,0.764-0.951,1.297-1.484
				c1.992-1.99,3.944-3.773,6.012-5.662c3.065-2.8,6.233-5.694,9.676-9.424c2.836-3.073,4.838-5.079,6.957-7.202
				c1.635-1.638,3.324-3.332,5.529-5.646c1.949-2.046,3.967-4.235,6.102-6.553c3.729-4.047,7.585-8.232,11.203-11.764
				c2.933-2.862,5.89-5.943,8.749-8.922c2.037-2.122,4.145-4.317,6.215-6.404c0.668-0.673,1.354-1.384,2.052-2.106
				c1.789-1.853,3.639-3.77,5.484-5.372c0.468-0.407,0.758-1.022,0.776-1.646c0.014-0.492-0.139-0.918-0.429-1.201
				c-0.741-0.719-2.416-0.7-3.733,0.478c-3.545,3.172-5.375,5.102-7.313,7.146c-1.063,1.122-2.163,2.282-3.607,3.718
				c-1.9,1.888-3.851,3.699-5.737,5.45c-2.917,2.708-5.934,5.508-8.716,8.563c-3.396,3.729-7.013,7.114-10.511,10.387
				c-2.241,2.098-4.56,4.268-6.817,6.524c-5.945,5.94-10.838,10.983-17.031,17.367l-1.276,1.315
				c-1.858,1.915-4.103,4.055-6.272,6.124c-1.349,1.286-2.67,2.544-3.851,3.706c-2.642,2.596-5.517,5.484-9.048,9.088
				c-3.43,3.503-6.985,5.172-10.817,5.061c-3.433-0.086-6.673-2.537-7.375-5.578c-0.538-2.329,0.398-4.975,1.55-6.282l3.926-4.45
				c0.784-0.889,1.785-1.83,2.753-2.74c0.729-0.685,1.417-1.332,1.994-1.935c4.097-4.285,8.55-8.528,12.857-12.631
				c4.626-4.408,9.41-8.965,13.755-13.578c4.814-5.114,10.156-9.997,15.321-14.72c5.167-4.724,10.51-9.608,15.296-14.7
				c2.033-2.163,4.217-4.398,6.328-6.561c4.198-4.299,8.54-8.745,11.86-12.785c0.608-0.739,1.124-1.847,0.14-2.927
				c-1.215-1.331-4.269-0.019-5.646,1.089c-5.714,5.93-11.215,11.207-16.534,16.311c-4.336,4.159-8.818,8.46-13.259,12.972
				c-6.507,6.61-12.267,11.889-18.365,17.478c-5.558,5.093-11.304,10.359-17.695,16.75l-1.877,1.873
				c-5.245,5.224-10.198,10.159-13.86,15.128c-1.478,2.006-3.253,5.186-3.803,8.092c-0.485,2.567,0.283,6.064,2.369,7.237
				c0.481,0.27,0.652,0.88,0.382,1.362c-0.272,0.481-0.881,0.652-1.362,0.381c-3.007-1.691-3.972-6.081-3.354-9.352
				c0.52-2.749,2.074-6.079,4.158-8.907c3.752-5.092,8.758-10.079,14.058-15.358l1.875-1.87
				c6.423-6.422,12.185-11.704,17.758-16.811c6.079-5.571,11.821-10.833,18.291-17.407c4.461-4.532,8.954-8.843,13.3-13.012
				c5.324-5.108,10.829-10.39,16.537-16.316c0.049-0.05,0.102-0.095,0.159-0.134c1.688-1.363,6.008-3.415,8.346-0.854
				c1.739,1.906,1.103,4.114-0.072,5.544c-3.375,4.106-7.747,8.583-11.975,12.913c-2.104,2.156-4.281,4.384-6.302,6.534
				c-4.838,5.146-10.209,10.057-15.403,14.806c-5.139,4.698-10.451,9.556-15.215,14.615c-4.382,4.652-9.185,9.229-13.832,13.655
				c-4.29,4.087-8.727,8.314-12.791,12.565c-0.613,0.642-1.353,1.337-2.069,2.01c-0.935,0.878-1.901,1.787-2.623,2.605l-3.926,4.45
				c-0.712,0.807-1.49,2.822-1.101,4.508c0.498,2.158,2.955,3.965,5.477,4.029c3.259,0.071,6.317-1.377,9.338-4.461
				c3.541-3.613,6.424-6.51,9.074-9.115c1.188-1.168,2.517-2.434,3.872-3.727c2.157-2.056,4.387-4.182,6.218-6.069l1.276-1.315
				c6.2-6.391,11.097-11.438,17.053-17.39c2.281-2.279,4.611-4.46,6.865-6.569c3.469-3.246,7.056-6.603,10.398-10.273
				c2.838-3.117,5.886-5.947,8.834-8.683c1.874-1.74,3.811-3.539,5.688-5.403c1.423-1.414,2.513-2.564,3.566-3.675
				c1.967-2.074,3.823-4.033,7.43-7.26c2.016-1.804,4.854-1.987,6.462-0.421c0.696,0.678,1.063,1.633,1.033,2.691
				c-0.034,1.191-0.567,2.321-1.465,3.099c-1.778,1.545-3.598,3.429-5.357,5.252c-0.704,0.729-1.396,1.447-2.07,2.126
				c-2.06,2.075-4.16,4.264-6.192,6.38c-2.87,2.991-5.839,6.083-8.795,8.968c-3.58,3.494-7.417,7.659-11.128,11.687
				c-2.142,2.324-4.164,4.52-6.126,6.578c-2.22,2.33-3.919,4.032-5.562,5.678c-2.104,2.109-4.094,4.102-6.903,7.146
				c-3.5,3.792-6.7,6.716-9.796,9.544c-2.05,1.872-3.986,3.642-5.946,5.6c-0.456,0.456-0.794,0.876-1.15,1.321
				c-0.362,0.451-0.736,0.917-1.243,1.432c-0.967,0.983-2.006,2.087-3.089,3.238c-3.128,3.324-6.674,7.09-9.946,9.501
				C496.242,377.387,492.267,378.125,488.703,378.125z"/>
		</g>
		<g>
			<path d="M478.261,379.456c-0.232,0-0.44-0.163-0.489-0.4c-0.258-1.266-1.186-2.522-2.762-3.735l-0.187-0.144
				c-0.909-0.703-1.409-1.09-2.461-1.102c-0.276-0.003-0.497-0.229-0.494-0.506c0.003-0.274,0.227-0.494,0.5-0.494
				c0.002,0,0.004,0,0.006,0c1.387,0.016,2.126,0.587,3.061,1.311l0.184,0.142c1.772,1.364,2.825,2.82,3.133,4.327
				c0.055,0.271-0.12,0.535-0.391,0.59C478.328,379.452,478.294,379.456,478.261,379.456z"/>
		</g>
		<g>
			<path d="M447.274,408.853c-0.09,0-0.18-0.023-0.261-0.073c-0.235-0.145-0.31-0.452-0.166-0.688
				c0.418-0.684,0.892-1.459,1.606-2.015l0.183-0.137c0.221-0.162,0.429-0.315,0.478-0.477c0.026-0.09,0.078-0.17,0.147-0.231
				c6.192-5.459,11.839-11.237,16.546-16.169c0.472-0.494,0.905-0.937,1.325-1.365c0.789-0.805,1.535-1.566,2.388-2.527
				c0.341-0.383,0.254-0.609,0.018-0.831c-0.16-0.15-0.326-0.301-1.277,0.473c-0.797,0.648-1.767,1.624-2.545,2.408l-0.197,0.198
				c-5.609,5.634-11.368,11.419-17.139,17.003c-0.291,0.282-0.59,0.495-0.878,0.701c-0.515,0.368-0.921,0.659-1.096,1.205
				c-0.085,0.264-0.366,0.404-0.629,0.324c-0.263-0.085-0.408-0.366-0.324-0.629c0.276-0.862,0.882-1.295,1.467-1.714
				c0.259-0.184,0.526-0.376,0.765-0.606c5.764-5.578,11.52-11.359,17.086-16.95l0.236-0.237c0.795-0.8,1.785-1.796,2.623-2.479
				c0.571-0.465,1.637-1.326,2.593-0.426c0.681,0.639,0.698,1.491,0.045,2.225c-0.869,0.979-1.623,1.748-2.421,2.563
				c-0.417,0.425-0.848,0.864-1.316,1.355c-4.697,4.923-10.33,10.686-16.514,16.147c-0.172,0.393-0.511,0.642-0.788,0.846
				l-0.161,0.121c-0.57,0.443-0.975,1.105-1.366,1.746C447.606,408.769,447.442,408.853,447.274,408.853z"/>
		</g>
		<g>
			<g>
				<path d="M495.759,373.486c-0.107,0-0.217-0.01-0.328-0.033c-0.112-0.023-0.214-0.085-0.286-0.174
					c-0.632-0.776-0.55-2.011,0.18-2.696c0.019-0.017,0.037-0.033,0.058-0.046c0.026-0.066,0.067-0.128,0.123-0.18
					c8.768-8.173,12.902-12.405,19.163-18.81l1.453-1.487c0.933-0.954,1.948-1.877,2.931-2.771c0.813-0.74,1.655-1.505,2.434-2.275
					c2.607-2.574,4.938-4.974,7.192-7.293c3.158-3.249,6.423-6.61,10.389-10.383c0.595-0.565,1.736-1.481,2.7-1.308
					c0.279,0.052,0.662,0.219,0.899,0.719c0.029,0.063,0.046,0.132,0.048,0.201c0.022,0.837-1.728,2.673-6.361,7.324
					c-1.941,1.949-3.949,3.964-5.38,5.56c-2.934,3.273-6.246,6.257-9.449,9.143c-2.072,1.867-4.215,3.796-6.229,5.782
					c-2.175,2.145-4.286,4.438-6.328,6.656c-3.57,3.878-7.263,7.889-11.442,11.265C497.185,372.953,496.526,373.486,495.759,373.486
					z M496.131,371.133c-0.025,0.065-0.066,0.127-0.121,0.178c-0.303,0.284-0.375,0.799-0.193,1.173
					c0.343-0.025,0.719-0.29,1.079-0.582c4.123-3.329,7.79-7.312,11.335-11.164c2.051-2.227,4.17-4.53,6.363-6.691
					c2.029-2.001,4.18-3.939,6.26-5.813c3.185-2.869,6.477-5.835,9.375-9.068c1.447-1.615,3.465-3.64,5.416-5.598
					c2.511-2.52,5.606-5.626,6.029-6.516c-0.031-0.026-0.063-0.034-0.09-0.039c-0.286-0.052-0.99,0.25-1.828,1.049
					c-3.952,3.76-7.064,6.964-10.36,10.355c-2.258,2.324-4.593,4.727-7.207,7.309c-0.794,0.783-1.643,1.556-2.464,2.302
					c-0.972,0.884-1.977,1.797-2.889,2.73l-1.453,1.486c-6.27,6.416-10.412,10.653-19.196,18.843
					C496.169,371.104,496.15,371.119,496.131,371.133z"/>
			</g>
		</g>
		<g>
			<g>
				<path d="M480.874,357.158c-0.123,0-0.245-0.012-0.365-0.037c-0.112-0.023-0.214-0.085-0.286-0.174
					c-0.632-0.776-0.55-2.011,0.18-2.696c0.011-0.01,0.022-0.02,0.033-0.029c0.004-0.116,0.048-0.23,0.133-0.322
					c6.297-6.808,11.01-11.78,18.833-18.591l2.014-1.76c1.643-1.438,3.518-3.08,4.788-4.162c3.933-3.348,7.115-6.849,9.923-9.937
					c3.049-3.353,5.683-6.249,8.662-8.401c0.084-0.06,0.187-0.146,0.304-0.244c0.697-0.578,1.994-1.654,2.981-0.665
					c0.634,0.712-0.163,1.676-6.072,7.388c-2.192,2.12-4.459,4.311-5.95,5.974c-2.933,3.273-6.245,6.257-9.448,9.142
					c-2.072,1.867-4.215,3.797-6.229,5.783l-2.854,2.808c-4.653,4.569-9.047,8.885-14.866,15.066
					C482.133,356.853,481.49,357.158,480.874,357.158z M481.245,354.633c-0.005,0.127-0.058,0.253-0.157,0.347
					c-0.304,0.285-0.376,0.804-0.19,1.178c0.388-0.011,0.783-0.283,1.026-0.541c5.833-6.195,10.234-10.518,14.894-15.094
					l2.854-2.807c2.029-2.001,4.181-3.939,6.262-5.813c3.184-2.868,6.475-5.834,9.373-9.066c1.515-1.69,3.794-3.894,5.999-6.025
					c2.383-2.304,5.305-5.128,5.863-6.067c-0.345-0.046-0.916,0.398-1.438,0.831c-0.137,0.114-0.258,0.213-0.356,0.285
					c-2.896,2.091-5.496,4.951-8.508,8.263c-2.828,3.11-6.033,6.636-10.015,10.026c-1.268,1.079-3.139,2.717-4.778,4.152
					l-2.016,1.762c-7.785,6.779-12.48,11.732-18.755,18.516C481.284,354.599,481.265,354.617,481.245,354.633z"/>
			</g>
		</g>
		<g>
			<path d="M441.597,414.252c-0.042,0-0.083-0.001-0.125-0.004c-0.512-0.028-0.975-0.243-1.271-0.59
				c-0.149-0.174-0.264-0.386-0.339-0.63c-0.203-0.647-0.076-1.389,0.331-1.934c0.4-0.536,1.061-0.867,1.731-0.867
				c0.01,0,0.02,0,0.03,0c0.212,0.003,0.391,0.138,0.461,0.324c0.281,0.07,0.561,0.211,0.832,0.421
				c0.14,0.109,0.314,0.263,0.427,0.494c0.132,0.274,0.125,0.559,0.119,0.767c-0.013,0.378-0.033,1.007-0.476,1.431
				c-0.192,0.186-0.427,0.289-0.631,0.365C442.279,414.18,441.93,414.252,441.597,414.252z M440.956,411.745
				c-0.186,0.284-0.241,0.664-0.14,0.986c0.035,0.113,0.083,0.206,0.144,0.276c0.118,0.138,0.331,0.228,0.567,0.242
				c0.236,0.012,0.486-0.038,0.81-0.158c0.111-0.042,0.226-0.09,0.288-0.15c0.138-0.132,0.158-0.438,0.168-0.739
				c0.003-0.108,0.007-0.246-0.02-0.302c-0.016-0.031-0.063-0.078-0.14-0.138c-0.141-0.109-0.355-0.243-0.579-0.26
				c-0.161-0.016-0.316,0.045-0.384,0.141c-0.162,0.225-0.475,0.273-0.698,0.114C440.967,411.754,440.962,411.749,440.956,411.745z"
				/>
		</g>
		<g>
			<path d="M435.645,415.229c-0.473,0-0.949-0.242-1.292-0.564c-0.234-0.22-0.386-0.432-0.477-0.665
				c-0.146-0.372-0.11-0.802,0.098-1.178c0.131-0.237,0.317-0.428,0.535-0.555c0.038-0.036,0.079-0.071,0.123-0.105
				c0.423-0.318,1.029-0.385,1.543-0.166c0.21,0.091,0.379,0.213,0.504,0.363c0.272,0.324,0.313,0.738,0.318,1.063
				c0.011,0.787-0.223,1.333-0.691,1.622C436.096,415.174,435.87,415.229,435.645,415.229z M434.99,413.892
				c0.015,0.015,0.03,0.029,0.047,0.045c0.225,0.213,0.565,0.369,0.742,0.257c0.144-0.088,0.222-0.363,0.217-0.756
				c-0.001-0.093-0.005-0.34-0.085-0.435c-0.024-0.029-0.072-0.061-0.132-0.086c-0.109-0.048-0.236-0.06-0.349-0.037
				c-0.068,0.104-0.176,0.184-0.306,0.214c-0.046,0.088-0.06,0.19-0.028,0.268C435.17,413.55,435.122,413.755,434.99,413.892z"/>
		</g>
		<g>
			<path d="M478.221,377.429c-0.119,0-0.237-0.043-0.331-0.126c-0.169-0.149-0.217-0.392-0.118-0.594l0.092-0.188
				c-0.02-0.014-0.038-0.03-0.056-0.047c-0.146,0.064-0.32,0.054-0.466-0.04c-0.18-0.116-0.261-0.328-0.219-0.526
				c-0.013-0.004-0.025-0.008-0.038-0.014l-0.117,0.226c-0.122,0.232-0.402,0.333-0.643,0.228c-0.241-0.104-0.359-0.377-0.273-0.625
				l0.255-0.722c-0.006-0.002-0.012-0.004-0.018-0.006c-0.243-0.091-0.376-0.352-0.306-0.602l0.162-0.58l-0.046,0.063
				c-0.108,0.147-0.279,0.221-0.453,0.202l-0.103,0.184c-0.119,0.212-0.371,0.309-0.604,0.228c-0.229-0.081-0.367-0.316-0.326-0.556
				c0.013-0.074,0.026-0.148,0.041-0.222c-0.044-0.002-0.088-0.011-0.131-0.025c-0.047,0.074-0.095,0.148-0.143,0.222
				c-0.134,0.206-0.395,0.284-0.618,0.186c-0.225-0.098-0.345-0.342-0.286-0.58c0.252-1.01,0.629-1.989,1.119-2.91
				c0.13-0.245,0.435-0.334,0.677-0.206c0.006,0.003,0.013,0.007,0.019,0.011c0.14-0.101,0.327-0.126,0.495-0.053
				c0.026,0.012,0.052,0.026,0.075,0.042c0.136-0.07,0.303-0.078,0.448-0.006c0.087,0.042,0.156,0.105,0.204,0.181
				c0.14-0.105,0.333-0.132,0.5-0.057c0.135,0.059,0.23,0.171,0.273,0.301c0.1-0.015,0.2-0.001,0.294,0.045
				c0.217,0.105,0.328,0.351,0.263,0.584l-0.075,0.271c0.102-0.013,0.206,0.009,0.3,0.063c0.21,0.12,0.304,0.373,0.224,0.601
				l-0.093,0.263c0.103,0.05,0.185,0.134,0.234,0.236c0.179-0.29,0.352-0.583,0.519-0.88c0.105-0.187,0.322-0.284,0.529-0.246
				c0.212,0.041,0.373,0.211,0.401,0.424c0.027,0.198,0.015,0.389-0.022,0.571c0.091,0.117,0.127,0.271,0.093,0.419
				c0.039,0.011,0.078,0.027,0.115,0.048c0.228,0.131,0.314,0.416,0.199,0.652l-0.225,0.461c0.063,0.004,0.127,0.021,0.186,0.051
				c0.23,0.113,0.337,0.381,0.248,0.622l-0.577,1.56c-0.096,0.259-0.382,0.392-0.643,0.295c-0.036-0.013-0.069-0.03-0.1-0.05
				c-0.201,0.199-0.422,0.383-0.667,0.543C478.41,377.402,478.315,377.429,478.221,377.429z"/>
		</g>
	</g>
</g>
</svg>
